<svg xmlns="http://www.w3.org/2000/svg" width="52" height="53" fill="none"><g clip-path="url(#a)"><path fill="#1F1F1F" d="M25.812-.063a1.967 1.967 0 0 0-.25.063 1.996 1.996 0 0 0-1.139.734A2.065 2.065 0 0 0 24 2.04v2.166c-10.526.973-18.92 9.528-19.876 20.257H2a1.987 1.987 0 0 0-1.575.665c-.357.4-.544.928-.519 1.469.025.54.26 1.049.652 1.413A1.98 1.98 0 0 0 2 28.54h2.126C5.08 39.267 13.474 47.822 24 48.796v2.165c0 .54.21 1.059.586 1.441.375.382.884.597 1.414.597.53 0 1.04-.215 1.414-.597.375-.382.586-.9.586-1.441v-2.167c10.526-.973 18.92-9.528 19.876-20.257H50c.53 0 1.04-.214 1.414-.596.375-.383.586-.901.586-1.442 0-.54-.21-1.06-.586-1.441A1.98 1.98 0 0 0 50 24.462h-2.126C46.92 13.733 38.528 5.178 28 4.203V2.04c.01-.29-.04-.58-.149-.847a2.041 2.041 0 0 0-.478-.71 1.965 1.965 0 0 0-1.561-.546ZM24 10.319v1.912c0 .54.21 1.059.586 1.441a1.977 1.977 0 0 0 2.828 0c.375-.382.586-.9.586-1.441v-1.912a15.856 15.856 0 0 1 9.32 4.643 16.402 16.402 0 0 1 4.556 9.5H40a1.987 1.987 0 0 0-1.575.665 2.065 2.065 0 0 0 .133 2.882 1.98 1.98 0 0 0 1.442.53h1.876a16.402 16.402 0 0 1-4.556 9.5A15.857 15.857 0 0 1 28 42.68v-1.91a2.073 2.073 0 0 0-.181-.899 2.035 2.035 0 0 0-.55-.726 1.964 1.964 0 0 0-1.707-.413 1.996 1.996 0 0 0-1.139.734A2.065 2.065 0 0 0 24 40.77v1.912a15.858 15.858 0 0 1-9.32-4.643 16.403 16.403 0 0 1-4.556-9.5H12c.53 0 1.04-.214 1.414-.596.375-.383.586-.901.586-1.442 0-.54-.21-1.06-.586-1.441A1.98 1.98 0 0 0 12 24.462h-1.876a16.402 16.402 0 0 1 4.556-9.5A15.856 15.856 0 0 1 24 10.32Z"/></g><defs><clipPath id="a"><path fill="#fff" d="M0 0h52v53H0z"/></clipPath></defs></svg>