<svg xmlns="http://www.w3.org/2000/svg" width="31" height="29" fill="none"><rect width="29.901" height="29" x=".834" fill="#fff" opacity=".2" rx="5"/><path fill="#fff" d="M22.403 6.979a1.373 1.373 0 0 0-1.27.852 1.384 1.384 0 0 0 1.002 1.881 1.371 1.371 0 0 0 1.412-.586 1.383 1.383 0 0 0-1.144-2.147Zm5.273 2.783a8.756 8.756 0 0 0-.528-2.795 5.684 5.684 0 0 0-1.33-2.035 5.385 5.385 0 0 0-2.028-1.323 8.343 8.343 0 0 0-2.785-.54C19.79 3 19.4 3 16.282 3c-3.117 0-3.507 0-4.722.069a8.343 8.343 0 0 0-2.785.54 5.477 5.477 0 0 0-2.03 1.323 5.407 5.407 0 0 0-1.317 2.035 8.42 8.42 0 0 0-.539 2.795c-.069 1.219-.069 1.61-.069 4.738s0 3.519.07 4.738c.019.956.201 1.9.538 2.794.28.77.73 1.466 1.318 2.036a5.476 5.476 0 0 0 2.029 1.322c.89.338 1.833.521 2.785.541 1.215.069 1.605.069 4.722.069 3.118 0 3.508 0 4.723-.069a8.344 8.344 0 0 0 2.785-.54 5.385 5.385 0 0 0 2.029-1.323 5.58 5.58 0 0 0 1.33-2.036c.326-.896.504-1.84.527-2.794 0-1.219.068-1.61.068-4.738s0-3.519-.068-4.738ZM25.613 19.1a6.474 6.474 0 0 1-.39 2.139 3.52 3.52 0 0 1-.86 1.322c-.372.38-.822.675-1.318.863a6.413 6.413 0 0 1-2.132.391c-1.146.057-1.57.069-4.585.069-3.014 0-3.438 0-4.585-.069a6.547 6.547 0 0 1-2.223-.345 3.747 3.747 0 0 1-1.261-.862 3.45 3.45 0 0 1-.848-1.323 6.39 6.39 0 0 1-.459-2.185c0-1.15-.069-1.576-.069-4.6 0-3.024 0-3.45.07-4.6a6.39 6.39 0 0 1 .4-2.185A3.45 3.45 0 0 1 8.26 6.45a3.6 3.6 0 0 1 1.26-.92 6.548 6.548 0 0 1 2.178-.391c1.147 0 1.57-.069 4.585-.069 3.015 0 3.439 0 4.585.069A6.41 6.41 0 0 1 23 5.53c.521.194.989.51 1.364.92.376.353.67.785.86 1.265.255.7.386 1.44.39 2.185.057 1.15.068 1.575.068 4.6 0 3.024-.011 3.45-.069 4.6Zm-9.33-10.5a5.866 5.866 0 0 0-3.264 1 5.896 5.896 0 0 0-2.16 2.65 5.917 5.917 0 0 0 1.281 6.426 5.862 5.862 0 0 0 6.407 1.274 5.884 5.884 0 0 0 2.637-2.174c.645-.97.99-2.11.99-3.276a5.907 5.907 0 0 0-1.723-4.179 5.868 5.868 0 0 0-4.169-1.72Zm0 9.73a3.808 3.808 0 0 1-2.121-.646 3.842 3.842 0 0 1-.578-5.892 3.813 3.813 0 0 1 4.159-.83 3.82 3.82 0 0 1 1.713 1.41 3.839 3.839 0 0 1-1.713 5.666c-.463.192-.96.291-1.46.291Z"/></svg>