<svg xmlns="http://www.w3.org/2000/svg" width="31" height="29" fill="none"><rect width="29.901" height="29" x=".669" fill="#fff" opacity=".2" rx="5"/><path fill="#fff" d="M4.655 6.556c0-.741.258-1.352.775-1.834C5.946 4.241 6.617 4 7.443 4c.812 0 1.468.237 1.97.711.516.489.774 1.126.774 1.911 0 .711-.25 1.304-.752 1.778-.516.489-1.195.733-2.036.733h-.022c-.811 0-1.468-.244-1.97-.733-.501-.489-.752-1.104-.752-1.844ZM4.943 26V11.156h4.912V26H4.943Zm7.634 0h4.912v-8.289c0-.518.06-.918.177-1.2.207-.504.52-.93.94-1.278.421-.348.948-.522 1.583-.522 1.652 0 2.478 1.119 2.478 3.356V26h4.912v-8.511c0-2.193-.516-3.856-1.549-4.989-1.032-1.133-2.397-1.7-4.093-1.7-1.903 0-3.386.822-4.448 2.467v.044h-.022l.022-.044v-2.111h-4.912c.03.474.044 1.948.044 4.422 0 2.474-.015 5.948-.044 10.422Z"/></svg>