<svg xmlns="http://www.w3.org/2000/svg" width="31" height="29" fill="none"><rect width="29.901" height="29" x=".504" fill="#fff" opacity=".2" rx="5"/><path fill="#fff" d="M28.412 6.516a11.04 11.04 0 0 1-3.058.825 5.331 5.331 0 0 0 2.345-2.927 10.667 10.667 0 0 1-3.382 1.29 5.334 5.334 0 0 0-6.409-1.08 5.298 5.298 0 0 0-2.343 2.5 5.266 5.266 0 0 0-.318 3.403A15.136 15.136 0 0 1 9.182 8.92a15.07 15.07 0 0 1-4.884-3.926 5.347 5.347 0 0 0-.712 2.67c-.002.87.213 1.726.624 2.494a5.285 5.285 0 0 0 1.734 1.904 5.266 5.266 0 0 1-2.41-.658v.065a5.274 5.274 0 0 0 1.214 3.338 5.322 5.322 0 0 0 3.062 1.821c-.462.14-.942.214-1.425.22a6.38 6.38 0 0 1-.998-.09 5.302 5.302 0 0 0 1.893 2.62 5.34 5.34 0 0 0 3.07 1.042 10.681 10.681 0 0 1-7.853 2.193 15.041 15.041 0 0 0 8.15 2.386c1.995.02 3.975-.354 5.822-1.104a15.023 15.023 0 0 0 4.94-3.26 14.947 14.947 0 0 0 3.287-4.909 14.891 14.891 0 0 0 1.124-5.792V9.25a10.893 10.893 0 0 0 2.592-2.734Z"/></svg>