<svg xmlns="http://www.w3.org/2000/svg" width="554" height="401" fill="none"><path fill="#fff" d="M0 39C0 17.46 17.46 0 39 0h515v401H0V39Z"/><g clip-path="url(#a)"><path fill="#E0E0E0" d="M336.867 272.288v82.272l100.726.042c1.791-4.119 1.749-9.994-.639-13.796-2.388-3.801-6.722-6.278-11.182-6.405 1.791-6.166.688-13.117-2.929-18.404-3.618-5.288-9.673-8.806-16.022-9.308 1.088-8.013-2.234-16.5-8.472-21.596-6.23-5.097-15.158-6.64-22.716-3.914-2.43-7.659-9.082-13.81-16.865-15.594-7.79-1.784-16.422.856-21.901 6.703Zm-205.393 69.467c-3.14-10.356-.078-22.36 7.628-29.906 7.705-7.545 19.703-10.285 29.881-6.823-.204-11.531 6.356-22.927 16.387-28.462 10.037-5.543 23.095-4.976 32.627 1.408 5.353-10.306 19.569-14.737 29.754-9.272 10.192 5.464 14.491 19.819 8.998 30.047 8.352-2.081 17.828 1.805 22.358 9.174 4.531 7.368 3.772 17.646-1.791 24.257 16.668-7.397 38.563 7.475 38.008 25.822L113 357.412c1.447-2.725 6.434-15.168 18.474-15.657Z"/><path fill="#F5F5F5" d="M381.688 171.988h-20.342v158.286h20.342V171.988Z"/><path fill="#E0E0E0" d="M349.187 73.571c-1.18-1.585-3.512-1.67-4.762-.148-2.177 2.661-5.036 7.297-5.036 13.335v74.011h13.472s.843-64.257.843-74.01c0-5.925-2.529-10.505-4.517-13.188Z"/><path fill="#EBEBEB" d="M353.507 130.368c0 .078-3.062.142-6.848.142-3.779 0-6.849-.064-6.849-.142 0-.078 3.063-.141 6.849-.141 3.779 0 6.848.063 6.848.141Zm0 8.593c0 .078-3.062.141-6.848.141-3.779 0-6.849-.063-6.849-.141 0-.078 3.063-.142 6.849-.142 3.779 0 6.848.064 6.848.142Zm0-51.551c0 .077-3.062.14-6.848.14-3.779 0-6.849-.063-6.849-.14 0-.079 3.063-.142 6.849-.142 3.779 0 6.848.063 6.848.141Zm0 8.593c0 .078-3.062.141-6.848.141-3.779 0-6.849-.063-6.849-.141 0-.078 3.063-.142 6.849-.142 3.779 0 6.848.064 6.848.142Zm0 8.593c0 .078-3.062.141-6.848.141-3.779 0-6.849-.063-6.849-.141 0-.078 3.063-.142 6.849-.142 3.779 0 6.848.064 6.848.142Zm0 8.586c0 .077-3.062.141-6.848.141-3.779 0-6.849-.064-6.849-.141 0-.078 3.063-.142 6.849-.142 3.779.007 6.848.064 6.848.142Zm0 8.592c0 .078-3.062.142-6.848.142-3.779 0-6.849-.064-6.849-.142 0-.077 3.063-.141 6.849-.141 3.779 0 6.848.064 6.848.141Z"/><path fill="#E0E0E0" d="M398.644 73.89c-1.18-1.586-3.512-1.67-4.762-.149-2.177 2.662-5.036 7.298-5.036 13.336v74.011h13.472s.843-64.257.843-74.011c0-5.925-2.529-10.505-4.517-13.187Z"/><path fill="#EBEBEB" d="M402.936 87.72c0 .079-3.062.142-6.848.142-3.779 0-6.849-.063-6.849-.141 0-.078 3.063-.142 6.849-.142s6.848.064 6.848.142Zm0 8.593c0 .078-3.062.142-6.848.142-3.779 0-6.849-.064-6.849-.142 0-.077 3.063-.141 6.849-.141s6.848.064 6.848.141Zm0 8.594c0 .078-3.062.142-6.848.142-3.779 0-6.849-.064-6.849-.142 0-.078 3.063-.141 6.849-.141s6.848.063 6.848.141Zm0 8.593c0 .078-3.062.142-6.848.142-3.779 0-6.849-.064-6.849-.142 0-.078 3.063-.142 6.849-.142s6.848.064 6.848.142Zm0 8.593c0 .078-3.062.141-6.848.141-3.779 0-6.849-.063-6.849-.141 0-.078 3.063-.142 6.849-.142s6.848.064 6.848.142Zm0 8.593c0 .078-3.062.142-6.848.142-3.779 0-6.849-.064-6.849-.142 0-.077 3.063-.141 6.849-.141s6.848.064 6.848.141Zm0 8.593c0 .078-3.062.142-6.848.142-3.779 0-6.849-.064-6.849-.142 0-.078 3.063-.141 6.849-.141s6.848.063 6.848.141Z"/><path fill="#F5F5F5" d="M376.357 48.988c-2.929-2.23-7.067-1.84-9.925.56-8.521 7.134-12.728 17.816-12.728 26.274v95.614h33.582s2.101-81.953 2.101-95.614c0-8.303-5.557-21.15-13.03-26.834Z"/><path fill="#E0E0E0" d="M376.357 48.989s.168.127.491.389c.316.276.829.63 1.398 1.217 1.194 1.105 2.831 2.91 4.545 5.521.836 1.317 1.742 2.803 2.571 4.523a42.344 42.344 0 0 1 2.36 5.748c.695 2.124 1.306 4.452 1.594 6.986.035.319.085.637.099.956l.042.977c.042.658.007 1.316.014 1.989l-.042 4.14c-.345 22.637-1.11 54.214-2.002 89.995v.134H353.57v-.142c.007-19.132.007-37.232.014-53.625.007-8.197.007-15.962.014-23.217 0-3.624.007-7.128.007-10.483 0-1.677 0-3.327.007-4.933.015-1.607-.028-3.179.05-4.722.168-3.079.814-5.96 1.678-8.586a36.603 36.603 0 0 1 3.232-7.085c2.486-4.184 5.394-7.27 8.014-9.422a8.82 8.82 0 0 1 4.095-1.797c1.3-.184 2.416-.05 3.273.19.864.241 1.454.595 1.848.822.372.283.555.425.555.425l-.576-.376c-.401-.22-.991-.559-1.848-.792-.85-.234-1.966-.354-3.245-.17a8.75 8.75 0 0 0-4.046 1.798c-2.606 2.159-5.486 5.238-7.951 9.414a36.832 36.832 0 0 0-3.196 7.064c-.85 2.612-1.489 5.486-1.651 8.543v96.967l-.14-.142h33.582l-.14.135c.906-35.781 1.7-67.358 2.093-89.994.014-1.416.035-2.796.049-4.141-.007-.673.035-1.338-.007-1.99-.014-.325-.028-.65-.035-.969-.014-.319-.063-.637-.098-.948-.281-2.52-.878-4.842-1.567-6.959a42.92 42.92 0 0 0-2.332-5.74c-.815-1.72-1.721-3.206-2.542-4.523-1.693-2.612-3.316-4.424-4.496-5.542-.562-.588-1.068-.956-1.377-1.232a22.927 22.927 0 0 1-.477-.404Z"/><path fill="#fff" d="M369.599 50.248s-12.924 10.462-13.037 24.491v37.381h5.543l-.338-32.568s-.702-6.186 2.634-17.058c2.101-6.866 5.198-12.246 5.198-12.246Z"/><path fill="#E0E0E0" d="M388.74 79.553c0 .078-7.705.141-17.209.141-9.503 0-17.209-.063-17.209-.141 0-.078 7.706-.142 17.209-.142 9.504 0 17.209.064 17.209.142Zm0 13.003c0 .078-7.705.141-17.209.141-9.503 0-17.209-.064-17.209-.141 0-.078 7.706-.142 17.209-.142 9.504.007 17.209.064 17.209.142Zm0 13.009c0 .078-7.705.142-17.209.142-9.503 0-17.209-.064-17.209-.142 0-.077 7.706-.141 17.209-.141 9.504 0 17.209.064 17.209.141Zm0 13.01c0 .078-7.705.142-17.209.142-9.503 0-17.209-.064-17.209-.142 0-.078 7.706-.141 17.209-.141 9.504 0 17.209.063 17.209.141Zm-39.173 51.92h-8.816v5.762h8.816v-5.762Z"/><path fill="#E0E0E0" d="M338.23 179.407c0-.906.232-1.713 1.236-2.704l1.285-1.246 8.816.106.779.694c.71.559 1.398 1.649 1.398 2.527v.127l-13.514.496Z"/><path fill="#E0E0E0" d="M352.152 180.476h-14.154a.67.67 0 0 1-.667-.673v-.226a.67.67 0 0 1 .667-.673h14.154a.67.67 0 0 1 .667.673v.226a.67.67 0 0 1-.667.673Z"/><path fill="#F5F5F5" d="M329.836 169.335V152.63l22.407-22.155 9.546-30.14v73.48l-31.953-4.48Z"/><path fill="#EBEBEB" d="m329.836 163.82 31.953 4.283v5.712l-31.953-4.481v-5.514Z"/><path fill="#E0E0E0" d="M329.836 169.334s.196.021.576.071c.386.049.941.127 1.672.219 1.468.198 3.624.496 6.392.871 5.535.764 13.514 1.862 23.334 3.213l-.12.107c-.007-16.033-.021-37.261-.035-60.471v-13.01l.274.043c-3.428 10.809-6.659 20.98-9.567 30.14l-.007.028-.021.021c-8.977 8.848-16.654 16.422-22.435 22.12l.021-.057c-.021 5.267-.035 9.436-.042 12.295a812.372 812.372 0 0 1-.021 3.278c-.007.368-.007.651-.007.849-.014.184-.014.283-.014.283s-.007-.092-.007-.276c0-.191-.007-.474-.007-.835-.007-.743-.014-1.841-.021-3.256-.007-2.867-.028-7.05-.042-12.338v-.035l.021-.021c5.766-5.72 13.43-13.308 22.379-22.184l-.029.05c2.894-9.16 6.112-19.331 9.532-30.147l.274-.856v13.908c-.014 23.21-.028 44.438-.035 60.471v.12l-.119-.014c-9.841-1.402-17.835-2.541-23.377-3.334-2.753-.396-4.896-.708-6.364-.92-.716-.106-1.271-.191-1.65-.241a16.538 16.538 0 0 1-.555-.092Zm70.937 1.161h-8.815v5.762h8.815v-5.762Z"/><path fill="#E0E0E0" d="M389.443 179.407c0-.906.231-1.713 1.236-2.704l1.285-1.246 8.816.106.779.694c.71.559 1.398 1.649 1.398 2.527v.127l-13.514.496Z"/><path fill="#E0E0E0" d="M403.358 180.476h-14.154a.67.67 0 0 1-.667-.673v-.226a.67.67 0 0 1 .667-.673h14.154a.67.67 0 0 1 .667.673v.226a.666.666 0 0 1-.667.673Z"/><path fill="#EBEBEB" d="M392.821 162.816c.416 0 .752-.34.752-.758a.754.754 0 0 0-.752-.757.754.754 0 0 0-.751.757c0 .418.336.758.751.758Z"/><path fill="#F5F5F5" d="M381.815 91.537c-.049-4.594-2.564-8.657-5.1-12.628-1.068-1.67-2.1-2.683-2.943-3.285a3.408 3.408 0 0 0-3.983.015c-.829.608-1.84 1.614-2.901 3.27-2.535 3.97-5.05 8.034-5.099 12.628-.063 5.38 0 82.278 0 82.278h20.033c-.007 0 .056-76.899-.007-82.278Z"/><path fill="#EBEBEB" d="M377.403 80.177c-1.215-2.018-2.395-3.235-3.35-3.972a3.709 3.709 0 0 0-4.538.015c-.941.736-2.093 1.946-3.308 3.95-1.672 2.767-3.028 5.492-3.976 8.507l19.12-.063c-.85-2.881-2.297-5.698-3.948-8.438Z"/><path fill="#E0E0E0" d="M381.358 88.188c0 .078-4.278.156-9.56.17-5.282.014-9.56-.028-9.56-.106s4.278-.156 9.56-.17c5.275-.021 9.56.028 9.56.106Zm-16.514-1.669a.368.368 0 0 1-.365.367.368.368 0 0 1 0-.736c.204 0 .365.163.365.368Zm3.456 0a.368.368 0 0 1-.365.367.368.368 0 0 1 0-.736c.204 0 .365.163.365.368Zm3.456 0a.369.369 0 0 1-.365.367.37.37 0 0 1-.366-.367.365.365 0 1 1 .731 0Zm3.456 0a.369.369 0 0 1-.365.367.37.37 0 0 1-.366-.367.365.365 0 1 1 .731 0Zm3.463 0a.369.369 0 0 1-.365.367.37.37 0 0 1-.366-.367.365.365 0 1 1 .731 0Z"/><path fill="#E0E0E0" d="M381.815 91.537s.007.134.014.403c0 .27.007.666.014 1.182.007 1.048.014 2.591.021 4.587.007 4.006.021 9.832.042 17.144.014 14.638.028 35.2.049 58.969v.135h-.133c-6.442 0-13.143 0-20.026.007h-.141v-10.441c.007-15.572.007-30.408.014-43.899.007-6.746.007-13.159.014-19.154 0-3.002.007-5.897.007-8.678-.014-2.825.914-5.437 2.058-7.709a43.409 43.409 0 0 1 1.841-3.249c.646-1.026 1.25-2.038 1.938-2.966.696-.92 1.461-1.748 2.361-2.378a3.479 3.479 0 0 1 3.062-.375c.492.163.913.46 1.293.772.379.311.723.65 1.039.998a15.78 15.78 0 0 1 1.623 2.18c.927 1.458 1.763 2.81 2.437 4.07 1.377 2.505 2.051 4.65 2.297 6.13.063.368.112.7.133.984.029.283.057.523.057.714-.014.376-.014.574-.014.574s-.021-.198-.043-.58a6.59 6.59 0 0 0-.07-.716 11.213 11.213 0 0 0-.147-.976c-.26-1.473-.949-3.603-2.332-6.088-.682-1.246-1.518-2.59-2.452-4.049-.463-.729-.983-1.465-1.615-2.151a9.83 9.83 0 0 0-1.033-.984c-.372-.312-.772-.588-1.243-.743a3.323 3.323 0 0 0-2.915.368c-.871.608-1.63 1.43-2.311 2.343-.674.913-1.271 1.939-1.918 2.958-.632 1.034-1.257 2.103-1.819 3.242-1.124 2.258-2.037 4.835-2.016 7.616 0 2.782.007 5.684.007 8.678.007 6.003.007 12.409.014 19.154 0 13.492.007 28.328.014 43.9v10.299l-.14-.141c6.883 0 13.584 0 20.026.007l-.134.134c.021-23.762.035-44.331.049-58.962.014-7.312.028-13.138.042-17.144.008-1.996.015-3.54.022-4.587.007-.516.007-.913.014-1.182a5.63 5.63 0 0 1 0-.396Z"/><path fill="#E0E0E0" d="M371.545 96.138c-2.852 0-5.162 2.328-5.162 5.202h10.318c.007-2.88-2.304-5.202-5.156-5.202Zm-10.55 83.169c0-1.486.716-2.888 1.939-3.808l2.24-1.685h14.189l1.967 1.558c1.166.92 1.833 2.286 1.833 3.73v.205h-22.168Zm22.842 2.577h-23.221a1.1 1.1 0 0 1-1.096-1.104v-.368a1.1 1.1 0 0 1 1.096-1.104h23.221c.604 0 1.096.495 1.096 1.104v.368c0 .609-.492 1.104-1.096 1.104Z"/><path fill="#EBEBEB" d="M371.974 175.288h-12.869V162.44c0-3.475 2.796-6.299 6.252-6.299h.372c3.449 0 6.252 2.817 6.252 6.299v12.848h-.007Z"/><path fill="#E0E0E0" d="M371.974 175.287s-.007-.056-.007-.162c0-.121-.007-.269-.007-.453-.007-.418-.014-.991-.021-1.727-.014-1.508-.029-3.653-.05-6.293-.007-1.324-.014-2.775-.028-4.325a6.17 6.17 0 0 0-1.917-4.36 6.219 6.219 0 0 0-2.227-1.352c-.85-.305-1.77-.375-2.704-.312-1.862.085-3.716 1.14-4.777 2.818a6.04 6.04 0 0 0-.836 2.031c-.154.715-.133 1.444-.14 2.18 0 1.458 0 2.888-.007 4.268l-.021 7.695-.12-.121c3.85.029 7.053.043 9.315.064 1.109.014 1.994.021 2.619.028.288.007.52.007.696.014.147 0 .232.007.232.007.007.008-.071.008-.225.015-.169 0-.393.007-.674.014-.619.007-1.49.014-2.592.028-2.276.014-5.5.035-9.385.064h-.112v-.121l-.021-7.694c0-1.38 0-2.803-.007-4.268 0-.722-.021-1.486.14-2.237.155-.75.457-1.472.871-2.123 1.11-1.756 3.056-2.86 5.002-2.938.955-.063 1.931.014 2.809.333a6.38 6.38 0 0 1 2.318 1.423 6.34 6.34 0 0 1 1.974 4.544c-.007 1.571-.007 3.037-.014 4.382-.021 2.647-.042 4.799-.049 6.313-.007.722-.014 1.289-.021 1.699-.007.177-.007.326-.007.439 0 .085 0 .135-.007.127Z"/><path fill="#F5F5F5" d="M413.802 169.335V152.63l-22.407-22.155-9.552-30.14v73.48l31.959-4.48Z"/><path fill="#EBEBEB" d="m381.814 173.815.029-4.998 31.959-4.077v4.594l-31.988 4.481Z"/><path fill="#E0E0E0" d="M413.803 169.334s-.183.035-.555.092c-.38.057-.928.135-1.651.241-1.461.212-3.603.524-6.364.92-5.542.793-13.535 1.932-23.376 3.334l-.12.014v-.12c-.007-16.033-.021-37.261-.035-60.471V99.436l.274.856c3.421 10.816 6.638 20.987 9.532 30.147l-.028-.05a53171.53 53171.53 0 0 0 22.379 22.184l.021.021v.035c-.021 5.288-.035 9.471-.042 12.338a795.865 795.865 0 0 1-.021 3.256c-.007.361-.007.637-.007.835 0 .191-.007.276-.007.276s-.007-.099-.007-.29c0-.198-.008-.481-.008-.85-.007-.75-.014-1.847-.021-3.277-.007-2.859-.028-7.022-.042-12.295l.021.057a80919.735 80919.735 0 0 1-22.435-22.12l-.021-.021-.007-.029c-2.908-9.159-6.132-19.33-9.567-30.139l.274-.043v13.01c-.014 23.21-.028 44.438-.035 60.471l-.119-.107c9.819-1.352 17.799-2.449 23.334-3.213 2.767-.375 4.917-.666 6.392-.871.73-.099 1.285-.17 1.672-.219.365-.043.569-.064.569-.064Z"/><path fill="#EBEBEB" d="M384.933 175.288h-12.868V162.44c0-3.475 2.796-6.299 6.251-6.299h.373c3.449 0 6.251 2.817 6.251 6.299v12.848h-.007Z"/><path fill="#E0E0E0" d="M384.933 175.287s-.007-.056-.007-.162c0-.121-.007-.269-.007-.453-.007-.418-.014-.991-.021-1.727-.014-1.508-.028-3.653-.049-6.293-.007-1.324-.014-2.775-.028-4.325a6.171 6.171 0 0 0-1.918-4.36 6.223 6.223 0 0 0-2.226-1.352c-.85-.305-1.771-.375-2.705-.312-1.861.085-3.716 1.14-4.776 2.818a6 6 0 0 0-.836 2.031c-.155.715-.134 1.444-.141 2.18 0 1.458 0 2.888-.007 4.268-.007 2.761-.014 5.352-.014 7.695l-.119-.121c3.849.029 7.052.043 9.314.064 1.11.014 1.995.021 2.62.028.288.007.52.007.695.014.134 0 .218.007.225.007.007.008-.07.008-.225.015-.168 0-.393.007-.674.014-.618.007-1.489.014-2.592.028-2.276.014-5.5.035-9.384.064h-.12v-.121c-.007-2.35-.014-4.933-.014-7.694 0-1.38 0-2.803-.007-4.268 0-.722-.021-1.486.141-2.237.154-.75.456-1.472.871-2.123 1.11-1.756 3.055-2.86 5.001-2.938.955-.063 1.932.014 2.81.333a6.38 6.38 0 0 1 2.318 1.423 6.343 6.343 0 0 1 1.974 4.544c-.008 1.571-.008 3.037-.015 4.382-.021 2.647-.042 4.799-.049 6.313-.007.722-.014 1.289-.021 1.699-.007.177-.007.326-.007.439a.74.74 0 0 1-.007.127Zm-3.301-58.347c0 .078-4.397.142-9.827.142s-9.827-.064-9.827-.142c0-.077 4.397-.141 9.827-.141 5.423 0 9.827.064 9.827.141Zm0 21.321c0 .078-4.397.141-9.827.141s-9.827-.063-9.827-.141c0-.078 4.397-.142 9.827-.142 5.423 0 9.827.064 9.827.142Z"/><path fill="#fff" d="m372.227 96.18-4.285 5.153h2.943l3.414-4.396s-1.258-.715-2.072-.757Z" opacity=".3"/><path fill="#F5F5F5" d="M429.101 343.348c1.419-7.142-.702-14.914-5.549-20.315-4.847-5.401-12.306-8.31-19.499-7.609.225-5.571-2.599-11.177-7.193-14.284-4.594-3.107-10.81-3.617-15.839-1.302-2.48-11.043-15.538-17.335-26.517-14.936-10.978 2.407-19.534 11.481-24.486 21.646-9.89-2.258-20.749.248-28.679 6.625-7.931 6.378-12.763 16.493-12.763 26.714-12.321-2.64-26.011 4.162-31.433 15.622l183.576 1.635c1.735-6.831-4.643-14.412-11.618-13.796Z"/><path fill="#EBEBEB" d="M225.583 182.492a19.02 19.02 0 0 1 4.636-2.031l.955-4.629 7.762-.135 1.117 4.594a18.873 18.873 0 0 1 4.706 1.869l3.92-2.591 5.584 5.429-2.43 4.042a19.184 19.184 0 0 1 2.015 4.679l4.594.962.134 7.822-4.559 1.125a19.196 19.196 0 0 1-1.854 4.743l2.571 3.95-5.388 5.627-4.011-2.449a18.895 18.895 0 0 1-4.643 2.031l-.955 4.629-7.762.135-1.117-4.594a18.85 18.85 0 0 1-4.706-1.869l-3.919 2.591-5.584-5.429 2.43-4.042a19.21 19.21 0 0 1-2.016-4.679l-4.594-.962-.133-7.822 4.558-1.125a19.238 19.238 0 0 1 1.855-4.743l-2.571-3.949 5.387-5.628 4.018 2.449Zm4.137 10.42c-3.196 3.334-3.097 8.642.204 11.863a8.285 8.285 0 0 0 11.773-.205c3.196-3.334 3.097-8.643-.204-11.863a8.278 8.278 0 0 0-11.773.205Z"/><path fill="#E0E0E0" d="M331.936 224.17a12.95 12.95 0 0 1 3.147-1.381l.646-3.135 5.261-.092.759 3.107a12.75 12.75 0 0 1 3.189 1.267l2.655-1.755 3.786 3.68-1.644 2.74a13.138 13.138 0 0 1 1.37 3.171l3.112.651.091 5.302-3.084.764a12.952 12.952 0 0 1-1.257 3.214l1.742 2.675-3.653 3.815-2.718-1.663a12.624 12.624 0 0 1-3.147 1.373l-.646 3.136-5.261.092-.759-3.108a12.697 12.697 0 0 1-3.189-1.267l-2.655 1.756-3.786-3.681 1.644-2.739a13.155 13.155 0 0 1-1.37-3.171l-3.112-.651-.091-5.295 3.084-.764a12.922 12.922 0 0 1 1.257-3.214l-1.742-2.676 3.653-3.815 2.718 1.664Zm2.803 7.057a5.72 5.72 0 0 0 .14 8.041 5.615 5.615 0 0 0 7.979-.142c2.164-2.258 2.101-5.854-.14-8.041a5.615 5.615 0 0 0-7.979.142Zm-51.403-53.173a12.986 12.986 0 0 1 3.147-1.38l.646-3.136 5.261-.092.758 3.108c1.103.276 2.178.693 3.189 1.267l2.656-1.756 3.786 3.681-1.644 2.739a13.155 13.155 0 0 1 1.37 3.171l3.111.652.092 5.294-3.084.765a12.93 12.93 0 0 1-1.257 3.213l1.742 2.676-3.653 3.815-2.718-1.663a12.714 12.714 0 0 1-3.147 1.373l-.646 3.136-5.254.092-.759-3.108a12.697 12.697 0 0 1-3.189-1.267l-2.655 1.756-3.786-3.681 1.651-2.739a13.162 13.162 0 0 1-1.37-3.172l-3.112-.651-.091-5.294 3.083-.765a12.933 12.933 0 0 1 1.258-3.213l-1.742-2.676 3.652-3.815 2.705 1.67Zm2.802 7.057a5.72 5.72 0 0 0 .141 8.041 5.614 5.614 0 0 0 7.979-.141c2.164-2.258 2.1-5.854-.14-8.041a5.616 5.616 0 0 0-7.98.141Z"/><path fill="#EBEBEB" d="M158.58 159.807c.59-1.94.014-4.191-1.433-5.606-1.447-1.416-3.695-1.926-5.605-1.282.042-2.159-1.195-4.296-3.077-5.337-1.883-1.04-4.334-.934-6.118.262-1.005-1.932-3.667-2.76-5.577-1.741-1.911 1.026-2.719 3.716-1.686 5.634-1.566-.389-3.344.34-4.193 1.72-.85 1.381-.71 3.306.337 4.552-3.126-1.388-7.228 1.401-7.13 4.841l37.938-.113c-.26-.503-1.194-2.838-3.456-2.93Zm88.869-52.699c.59-1.939.014-4.19-1.433-5.606-1.447-1.415-3.694-1.925-5.605-1.281.042-2.159-1.194-4.297-3.076-5.337-1.883-1.04-4.334-.934-6.118.262-1.005-1.933-3.667-2.76-5.578-1.741-1.91 1.026-2.718 3.716-1.685 5.634-1.567-.39-3.344.34-4.194 1.72-.85 1.38-.709 3.306.337 4.551-3.125-1.387-7.228 1.402-7.129 4.842l37.937-.113c-.267-.503-1.201-2.839-3.456-2.931Z"/><path fill="#F5F5F5" d="M173.246 58.884c.59-1.94.014-4.19-1.433-5.606-1.447-1.416-3.694-1.926-5.605-1.282.042-2.158-1.194-4.296-3.077-5.337-1.882-1.04-4.334-.934-6.118.262-1.004-1.932-3.666-2.76-5.577-1.741-1.91 1.026-2.718 3.716-1.686 5.634-1.566-.389-3.343.34-4.193 1.72-.85 1.38-.71 3.306.337 4.552-3.126-1.387-7.228 1.401-7.129 4.841l37.937-.113c-.26-.502-1.194-2.838-3.456-2.93Zm253.193 151.681c.59-1.939.014-4.19-1.433-5.606-1.447-1.415-3.695-1.925-5.605-1.281.042-2.159-1.194-4.296-3.077-5.337-1.882-1.04-4.334-.934-6.118.262-1.004-1.932-3.667-2.761-5.577-1.741-1.911 1.026-2.718 3.716-1.686 5.634-1.566-.389-3.343.34-4.193 1.72-.85 1.38-.71 3.306.337 4.551-3.126-1.387-7.228 1.402-7.13 4.842l37.938-.113c-.267-.503-1.201-2.839-3.456-2.931Z"/><path fill="#263238" d="M431.293 357.059c0 .099-69.055.184-154.223.184-85.196 0-154.243-.085-154.243-.184 0-.099 69.04-.184 154.243-.184 85.168 0 154.223.078 154.223.184Z"/><path fill="#fff" d="M139.355 345.761c-2.255-7.439-.057-16.061 5.478-21.483 5.535-5.422 14.154-7.382 21.466-4.898-.147-8.282 4.566-16.464 11.773-20.442 7.207-3.978 16.591-3.575 23.432 1.012 3.843-7.404 14.056-10.582 21.375-6.661 7.319 3.922 10.41 14.235 6.469 21.582 5.999-1.493 12.805 1.296 16.057 6.59 3.26 5.295 2.712 12.677-1.285 17.427 11.969-5.316 27.703 5.372 27.303 18.545l-145.351-.424c1.046-1.961 4.636-10.901 13.283-11.248Z"/><path fill="#263238" d="M139.355 345.761s-.38.05-1.166.142c-.78.099-1.918.361-3.33.976-1.405.623-3.006 1.749-4.516 3.455-1.553 1.684-2.901 3.985-4.194 6.71l-.07-.113c26.046.056 80.349.177 145.351.318l-.183.177a16.806 16.806 0 0 0-1.222-6.689c-.857-2.145-2.135-4.141-3.716-5.875-3.154-3.475-7.481-6.016-12.208-6.873-3.336-.609-6.841-.297-9.904 1.069l-.723.325.512-.608c4.067-4.863 4.44-12.317 1.103-17.462-3.35-5.161-9.988-7.68-15.692-6.258l-.386.099.19-.354c2.072-3.886 2.135-8.571.758-12.571-1.355-4.02-4.235-7.489-7.972-9.159-3.73-1.692-8.022-1.607-11.695-.29-3.695 1.309-6.884 3.9-8.633 7.255l-.084.156-.148-.099c-3.912-2.591-8.499-3.773-12.882-3.716-4.397.056-8.612 1.387-12.005 3.687-3.399 2.301-5.991 5.451-7.684 8.841-1.686 3.398-2.472 7.036-2.437 10.49v.17l-.155-.056c-3.435-1.161-6.961-1.282-10.143-.758-1.601.255-3.111.722-4.516 1.281a20.01 20.01 0 0 0-3.892 2.06c-2.381 1.564-4.179 3.568-5.535 5.571a22.47 22.47 0 0 0-2.753 6.002c-1.103 3.837-.962 6.987-.696 9.025.155 1.026.302 1.798.45 2.315.119.502.176.757.176.757l-.218-.779c-.155-.495-.316-1.274-.478-2.3-.281-2.046-.449-5.203.639-9.067.548-1.919 1.412-4 2.747-6.052 1.363-2.025 3.168-4.056 5.563-5.635a19.732 19.732 0 0 1 3.919-2.088c1.419-.566 2.944-1.047 4.559-1.302 3.21-.538 6.778-.432 10.255.736l-.154.113c-.049-3.489.744-7.17 2.444-10.61 1.7-3.426 4.32-6.626 7.755-8.954 3.435-2.336 7.705-3.695 12.152-3.752 4.439-.064 9.089 1.119 13.058 3.752l-.225.056c1.791-3.433 5.043-6.087 8.801-7.418 3.744-1.345 8.12-1.437 11.948.29 3.835 1.713 6.779 5.26 8.162 9.358 1.405 4.077 1.349 8.862-.779 12.854l-.197-.255c5.865-1.458 12.629 1.112 16.078 6.406 3.428 5.288 3.049 12.897-1.124 17.901l-.21-.29c3.132-1.401 6.715-1.72 10.114-1.097 4.812.878 9.202 3.454 12.412 6.993 1.609 1.77 2.908 3.802 3.786 5.989.885 2.187 1.3 4.53 1.243 6.837l-.007.177h-.175c-65.002-.233-119.298-.431-145.351-.531h-.119l.056-.113c1.299-2.711 2.669-5.032 4.242-6.717 1.532-1.713 3.154-2.831 4.573-3.447 1.419-.609 2.585-.864 3.351-.942.73-.078 1.053-.099 1.18-.113Z"/><path fill="#fff" d="M415.573 342.852c-4.594-2.846-10.846-2.704-15.306.361-.632-7.354-5.5-14.178-12.215-17.123-6.715-2.951-14.99-1.897-20.763 2.641.583-7.56-3.646-15.282-10.305-18.815-6.659-3.532-15.369-2.675-21.22 2.089v45.06l86.397-.276c.703-5.401-1.988-11.084-6.588-13.937Z"/><path fill="#263238" d="M415.573 342.852s.316.184.899.588a14.36 14.36 0 0 1 2.304 2.13 14.85 14.85 0 0 1 2.599 4.375c.709 1.882 1.187 4.24.864 6.851l-.008.078h-.077c-17.778.078-49.19.206-86.397.368h-.183v-45.329l.071-.057c3.231-2.605 7.235-4.006 11.189-4.24 3.962-.24 7.916.694 11.169 2.69 3.259 1.989 5.766 4.934 7.375 8.183 1.608 3.248 2.318 6.837 2.065 10.249l-.253-.135a20.816 20.816 0 0 1 5.985-3.199 21.473 21.473 0 0 1 6.357-1.097c4.207-.113 8.176 1.097 11.28 3.136a21.154 21.154 0 0 1 6.989 7.524 22.141 22.141 0 0 1 1.785 4.197c.407 1.395.646 2.754.772 4.049l-.14-.064c2.198-1.486 4.523-2.109 6.518-2.314a15.017 15.017 0 0 1 5.044.382c1.327.34 2.268.8 2.894 1.111.604.333.899.524.899.524s-.085-.035-.239-.12c-.162-.085-.394-.213-.689-.375-.632-.291-1.573-.736-2.894-1.062a14.9 14.9 0 0 0-5.001-.34c-1.974.22-4.27.85-6.427 2.329l-.119.085-.014-.149a21.762 21.762 0 0 0-.787-4.006 21.68 21.68 0 0 0-1.784-4.148 21.017 21.017 0 0 0-6.933-7.418c-3.077-2.003-6.989-3.185-11.14-3.065-2.072.05-4.194.396-6.266 1.097a20.52 20.52 0 0 0-5.886 3.164l-.274.212.028-.346c.246-3.355-.457-6.881-2.044-10.08-1.58-3.192-4.06-6.08-7.256-8.034-3.189-1.953-7.08-2.867-10.972-2.633-3.884.234-7.818 1.607-10.985 4.169l.07-.141v45.06l-.183-.184c37.207-.078 68.619-.148 86.397-.184l-.091.078c.33-2.576-.126-4.912-.822-6.781a15.041 15.041 0 0 0-2.543-4.36c-.885-1.055-1.713-1.713-2.261-2.152-.281-.198-.499-.354-.654-.46-.161-.099-.231-.156-.231-.156Z"/><path fill="#fff" d="M415.488 240.641c-1.313-1.543-3.189-2.541-5.205-2.64-2.332-.113-4.706.602-6.525 2.081-2.852 2.329-4.151 6.413-3.182 9.974-4.411-1.614-9.82 1.061-11.47 5.492-1.651 4.424.484 9.875 4.579 12.182 4.095 2.315 9.637 1.423 13.009-1.876 2.444 4.729 8.956 6.767 13.627 4.269 4.671-2.499 6.652-9.075 4.137-13.761 4.51-.594 8.359-4.586 8.808-9.145.457-4.558-2.521-9.244-6.827-10.731-4.292-1.486-8.527.269-10.951 4.155Z"/><path fill="#263238" d="M415.488 240.641c-.007 0 .028-.056.092-.163l.302-.474a9.954 9.954 0 0 1 1.425-1.649 9.454 9.454 0 0 1 2.944-1.883 9.233 9.233 0 0 1 2.156-.538 9.427 9.427 0 0 1 2.515.064 9.858 9.858 0 0 1 5.169 2.612c1.539 1.472 2.796 3.553 3.232 6.002.463 2.442-.134 5.21-1.714 7.475a11.389 11.389 0 0 1-3.021 2.923 10.265 10.265 0 0 1-4.095 1.55l.134-.262c2.121 3.95 1.18 9.599-2.557 12.89-1.869 1.635-4.468 2.407-7.003 2.187-2.536-.198-5.065-1.288-6.919-3.185-.667-.651-1.18-1.437-1.623-2.223l.316.05c-2.985 2.867-7.396 3.886-11.133 2.775-1.882-.524-3.533-1.657-4.755-3.094a11.514 11.514 0 0 1-1.517-2.35 11.97 11.97 0 0 1-.864-2.604 11.142 11.142 0 0 1-.176-2.683c.07-.885.267-1.748.555-2.569a9.212 9.212 0 0 1 3.013-3.986c1.286-1.019 2.796-1.628 4.292-1.925 1.51-.262 3.034-.141 4.383.347l-.197.184c-.491-1.833-.372-3.695.113-5.316.492-1.628 1.334-3.036 2.388-4.098 1.04-1.076 2.283-1.784 3.477-2.209a10.077 10.077 0 0 1 3.414-.573c2.121 0 3.624.885 4.474 1.55.857.68 1.18 1.175 1.18 1.175-.007.007-.105-.099-.302-.297a7.836 7.836 0 0 0-.941-.814c-.857-.637-2.346-1.479-4.425-1.451a10.04 10.04 0 0 0-3.344.594c-1.166.432-2.367 1.126-3.371 2.188-1.019 1.04-1.834 2.42-2.297 4.006-.464 1.578-.569 3.39-.085 5.16l.078.276-.274-.099c-1.3-.46-2.768-.566-4.222-.311-1.447.29-2.908.891-4.144 1.875a8.875 8.875 0 0 0-2.887 3.844 9.367 9.367 0 0 0-.52 2.47c-.042.857.007 1.727.176 2.584.182.856.463 1.699.843 2.513.393.799.885 1.564 1.468 2.265 1.18 1.38 2.76 2.463 4.573 2.965 3.596 1.069 7.881.078 10.746-2.689l.183-.177.127.226c.428.751.913 1.501 1.559 2.131 1.777 1.819 4.221 2.874 6.666 3.065 2.444.205 4.924-.524 6.722-2.088 1.798-1.558 2.922-3.745 3.365-5.974.442-2.237.112-4.552-.871-6.449l-.12-.226.253-.036a9.858 9.858 0 0 0 3.955-1.486 11.011 11.011 0 0 0 2.936-2.824c1.545-2.195 2.128-4.863 1.693-7.227a10.792 10.792 0 0 0-3.119-5.861 9.659 9.659 0 0 0-5.03-2.584 9.635 9.635 0 0 0-2.451-.085 9.326 9.326 0 0 0-2.114.503 9.405 9.405 0 0 0-2.929 1.812c-1.398 1.274-1.848 2.237-1.897 2.201Z"/><path fill="#fff" d="M190.863 116.551c.948-3.136.021-6.774-2.311-9.06-2.332-2.287-5.971-3.115-9.054-2.067.063-3.49-1.925-6.944-4.966-8.622-3.042-1.677-6.997-1.507-9.883.425-1.623-3.122-5.929-4.466-9.012-2.81-3.091 1.656-4.391 6.002-2.726 9.103-2.528-.63-5.401.545-6.771 2.781-1.377 2.23-1.145 5.345.541 7.348-5.051-2.244-11.681 2.265-11.513 7.821l61.3-.177c-.443-.821-1.953-4.594-5.605-4.742Z"/><path fill="#263238" d="M190.863 116.551s.175.007.498.036c.317.028.815.134 1.419.389.604.255 1.293.729 1.946 1.451.667.708 1.25 1.699 1.805 2.831l.056.114h-.119c-11.021.049-33.906.155-61.3.283h-.182v-.177c.007-.984.154-1.989.533-2.924.401-.92.921-1.812 1.616-2.555 1.37-1.5 3.238-2.605 5.289-2.98 1.447-.269 2.978-.134 4.327.46l-.211.29c-1.791-2.151-1.952-5.4-.477-7.672 1.482-2.273 4.376-3.37 6.89-2.747l-.196.262c-1.805-3.475-.141-8.034 3.168-9.506 3.322-1.458 7.34.106 8.871 3.058l-.225-.057c3.414-2.244 7.825-1.996 10.733.007 2.943 2.01 4.39 5.373 4.327 8.324l-.154-.113c2.992-.977 5.97-.219 7.951 1.14 2.037 1.38 3.062 3.355 3.512 4.969a9.152 9.152 0 0 1 .253 3.836c-.07.432-.141.765-.211.963l-.119.318s.021-.106.07-.325c.056-.227.119-.552.183-.984a9.432 9.432 0 0 0-.309-3.794c-.457-1.586-1.49-3.511-3.491-4.849-1.953-1.316-4.875-2.038-7.776-1.069l-.155.05v-.17a9.68 9.68 0 0 0-1.025-4.389 9.768 9.768 0 0 0-3.217-3.695c-2.817-1.939-7.109-2.158-10.396.022l-.148.099-.084-.156c-1.447-2.789-5.324-4.282-8.457-2.888-3.119 1.38-4.706 5.769-2.992 9.025l.189.354-.386-.099c-2.36-.588-5.121.46-6.504 2.598-1.384 2.123-1.229 5.23.456 7.241l.513.608-.723-.318c-1.272-.566-2.726-.694-4.117-.439-1.966.354-3.772 1.416-5.085 2.86-.674.715-1.166 1.564-1.545 2.442-.366.892-.499 1.84-.513 2.782l-.183-.177c27.394-.036 50.279-.064 61.3-.071l-.07.113c-.541-1.154-1.103-2.116-1.756-2.824-.632-.722-1.3-1.189-1.89-1.458-1.18-.51-1.917-.446-1.889-.489Z"/><path fill="#fff" d="M422.365 151.871c.821-2.697.021-5.832-1.988-7.8s-5.142-2.683-7.797-1.777c.056-3.008-1.658-5.981-4.278-7.425-2.62-1.444-6.026-1.295-8.506.368-1.398-2.69-5.107-3.843-7.762-2.421-2.655 1.423-3.779 5.168-2.346 7.836-2.177-.545-4.65.474-5.83 2.393-1.18 1.918-.983 4.6.464 6.328-4.348-1.933-10.059 1.946-9.911 6.731l52.772-.156c-.379-.7-1.679-3.949-4.818-4.077Z"/><path fill="#263238" d="M422.365 151.872s.154.007.428.028c.274.028.703.113 1.222.333.52.219 1.11.629 1.672 1.252.576.609 1.082 1.459 1.553 2.442l.049.1h-.106c-9.489.042-29.185.134-52.772.247h-.155v-.155c.007-.85.134-1.713.464-2.52.344-.793.787-1.558 1.391-2.202 1.18-1.295 2.788-2.244 4.558-2.562 1.251-.234 2.564-.113 3.723.396l-.182.248c-1.546-1.847-1.679-4.65-.415-6.611 1.279-1.954 3.765-2.902 5.936-2.364l-.169.219c-1.552-2.994-.119-6.915 2.725-8.182 2.859-1.253 6.322.092 7.636 2.626l-.197-.05c2.943-1.932 6.736-1.72 9.237.007 2.535 1.734 3.779 4.629 3.723 7.163l-.134-.099c2.578-.842 5.142-.191 6.849.984 1.756 1.189 2.641 2.888 3.02 4.276a7.84 7.84 0 0 1 .218 3.305 6.658 6.658 0 0 1-.183.835c-.056.184-.091.284-.091.284s.014-.092.056-.277c.049-.191.105-.474.155-.842a8.065 8.065 0 0 0-.267-3.263c-.394-1.366-1.279-3.022-3.007-4.169-1.679-1.133-4.193-1.756-6.694-.92l-.133.042v-.141a8.32 8.32 0 0 0-.885-3.78c-.611-1.218-1.546-2.357-2.768-3.178-2.423-1.671-6.118-1.855-8.949.014l-.126.085-.07-.135c-1.244-2.399-4.58-3.688-7.277-2.491-2.683 1.189-4.053 4.962-2.578 7.772l.161.304-.33-.085c-2.03-.51-4.411.396-5.598 2.237-1.194 1.833-1.054 4.502.393 6.229l.443.524-.625-.276c-1.096-.489-2.346-.595-3.54-.376-1.693.305-3.246 1.218-4.376 2.464-.576.615-1.005 1.352-1.335 2.102-.316.771-.436 1.585-.443 2.392l-.154-.148c23.58-.029 43.283-.05 52.772-.064l-.056.099c-.47-.991-.948-1.826-1.51-2.435-.548-.616-1.124-1.026-1.63-1.253-1.025-.453-1.657-.389-1.629-.431Z"/><path fill="#fff" d="M316.616 57.411c-.59-1.953-.014-4.225 1.44-5.648s3.723-1.94 5.648-1.288c-.043-2.18 1.201-4.332 3.097-5.38 1.897-1.048 4.362-.941 6.167.269 1.012-1.947 3.695-2.782 5.62-1.755 1.924 1.033 2.739 3.744 1.7 5.676 1.58-.396 3.364.34 4.221 1.735.857 1.394.717 3.333-.337 4.58 3.147-1.395 7.284 1.415 7.179 4.876l-38.226-.113c.274-.51 1.215-2.86 3.491-2.952Z"/><path fill="#263238" d="M316.616 57.411c.028.028-.442-.007-1.166.319-.744.318-1.615 1.217-2.254 2.675l-.071-.113c6.849-.035 21.129-.035 38.226.007l-.183.177c.077-2.35-1.988-4.544-4.404-4.969-.857-.156-1.749-.078-2.529.269l-.723.318.513-.608c1.032-1.225 1.123-3.136.28-4.431-.842-1.31-2.542-1.954-3.982-1.593l-.387.1.19-.355c1.054-1.996.077-4.693-1.833-5.535-1.918-.856-4.306.064-5.191 1.77l-.084.155-.148-.099c-2.03-1.345-4.685-1.21-6.42-.021-1.77 1.196-2.655 3.22-2.634 4.997v.17l-.162-.056c-1.791-.602-3.603-.163-4.811.65-1.243.822-1.883 2.018-2.171 3.002a5.803 5.803 0 0 0-.203 2.357c.077.53.168.828.147.814 0-.014-.119-.262-.21-.807a5.664 5.664 0 0 1 .147-2.4c.274-1.012.913-2.25 2.192-3.12 1.243-.857 3.111-1.339 4.994-.723l-.155.113c-.042-1.854.864-3.964 2.712-5.23 1.826-1.268 4.6-1.423 6.75-.015l-.225.057c.969-1.869 3.505-2.86 5.612-1.933 2.101.942 3.147 3.816 2.009 6.017l-.196-.262c1.601-.396 3.427.298 4.369 1.742.934 1.443.835 3.503-.302 4.87l-.211-.29c.85-.383 1.819-.46 2.739-.291 1.3.233 2.473.927 3.337 1.876.442.467.772 1.033 1.018 1.614.239.594.337 1.224.337 1.854v.177h-.182c-17.097-.057-31.384-.141-38.226-.22h-.119l.049-.113c.653-1.45 1.587-2.37 2.353-2.675a3.01 3.01 0 0 1 .885-.234c.211-.007.323-.007.323-.007Z"/><path fill="#fff" d="m239.379 76.34-3.555 1.238a14.278 14.278 0 0 1-6.441 5.854c-6.652 3.065-14.68.467-18.333-5.91-4.228-7.376-1.264-16.826 6.484-20.386 6.574-3.023 14.497-.531 18.206 5.72 1.841 3.1 2.395 6.589 1.841 9.852v-.007l1.798 3.638Z"/><path fill="#263238" d="M239.379 76.339s-.05-.085-.134-.24c-.084-.17-.204-.397-.358-.702-.316-.615-.766-1.514-1.356-2.675h.092v.007c-.014.028-.043.035-.071.028a.048.048 0 0 1-.028-.056 14.487 14.487 0 0 0-.541-6.895 14.614 14.614 0 0 0-2.093-4.041 14.329 14.329 0 0 0-3.765-3.518 14.362 14.362 0 0 0-5.289-2.039c-1.953-.333-4.06-.304-6.111.283a14.49 14.49 0 0 0-5.718 3.122c-1.699 1.486-3.027 3.461-3.842 5.662-.442 1.105-.667 2.28-.829 3.433-.042.58-.091 1.161-.084 1.742l.042.863.021.432.063.425c.295 2.265 1.145 4.388 2.339 6.186 1.188 1.805 2.796 3.22 4.517 4.247a14.51 14.51 0 0 0 5.395 1.897 14.33 14.33 0 0 0 5.162-.248c.394-.113.78-.226 1.159-.332.38-.12.731-.283 1.082-.418a12.698 12.698 0 0 0 1.953-1.005c2.409-1.493 3.898-3.412 4.797-4.92.007-.014.014-.02.028-.02l2.634-.886c.295-.099.527-.176.696-.226a.977.977 0 0 1 .239-.106l-.218.085c-.162.056-.386.141-.674.247-.619.22-1.504.546-2.649.956l.029-.021a14.341 14.341 0 0 1-4.798 5.011c-.604.376-1.257.744-1.974 1.034-.358.141-.716.304-1.096.432-.386.113-.772.226-1.173.346-1.608.39-3.392.517-5.233.276a14.736 14.736 0 0 1-5.485-1.904c-1.749-1.04-3.386-2.47-4.601-4.31-1.215-1.826-2.086-3.985-2.388-6.293l-.064-.432-.021-.439-.042-.877c-.007-.588.042-1.182.084-1.77.169-1.175.394-2.364.843-3.497.836-2.243 2.185-4.254 3.92-5.768a14.682 14.682 0 0 1 5.823-3.172c2.086-.594 4.235-.615 6.216-.276a14.596 14.596 0 0 1 5.367 2.089 14.307 14.307 0 0 1 3.8 3.588c.962 1.345 1.657 2.747 2.093 4.106a14.58 14.58 0 0 1 .485 6.965l-.099-.029v-.007c.014-.028.042-.035.07-.028a.053.053 0 0 1 .029.028 1839.45 1839.45 0 0 1 1.313 2.733c.141.297.253.53.33.7.078.149.113.227.113.227Z"/><path fill="#FF725E" d="m217.189 70.853 1.791-1.94 3.695 3.094 6.806-7.065 1.792 1.812-8.738 8.87-5.346-4.771Z"/><path fill="#455A64" d="M338.63 190.378h-96.716v166.73h96.716v-166.73Z"/><path fill="#FFBF9D" d="M231.631 145.006c-.049-.177 5.633-7.716 5.633-7.716l-5.015-5.287-5.64 4.459 5.022 8.544Zm91.475-38.379 1.314 4.615s2.817 4.205 3.807 4.707c.26.135.513.333.752.418.892.325 2.065.007 1.826-1.048 0 0 .927.142 1.37-.743.4-.793-.471-1.755-.471-1.755s1.012.261 1.468-.432c.379-.574-.161-1.324-.161-1.324s.456-.786.224-1.21c-.224-.432-1.11-1.303-1.11-1.303s-.976-2.265-1.833-3.525c-.808-1.196-2.142-2.166-2.142-2.166l-5.044 3.766Z"/><path fill="#FF9A6C" d="M333.116 111.157c.035-.063-.414-.347-.871-.8-.457-.445-.745-.891-.815-.856-.063.028.141.559.632 1.041.499.481 1.026.672 1.054.615Zm-1.236 1.798c.028-.071-.408-.326-.857-.743-.457-.411-.752-.829-.815-.786-.063.028.154.538.639.977.492.453 1.012.615 1.033.552Zm-3.66-.205c-.07.021.232.835.983 1.529.745.693 1.476 1.062 1.504 1.012.042-.064-.618-.531-1.328-1.203-.716-.659-1.089-1.366-1.159-1.338Z"/><path fill="#AE7461" d="M149.153 231.178c-.063.134-.885 1.698-.66 2.265.225.566.927.658.927.658s.078.786.555 1.182c.471.396 1.257.361 1.257.361l.38.453c.555.658 1.089.524 1.089.524s.674-.29 1.278-.099c.604.191 1.868-1.296 2.529-1.982.702-.729 1.559-1.6 1.109-3.037l-1.404-4.445 1.278-3.66-6.259.213-.273 1.592s-.864.418-1.461 2.209c-.612 1.805-.345 3.766-.345 3.766Z"/><path fill="#AE7461" d="M155.847 227.193s1.784 4.176 1.763 4.31c-.014.135-1.763 3.809-2.599 4.368a37.22 37.22 0 0 1-1.931 1.182s-.941-.453-.134-1.841c.801-1.387 1.742-2.774 1.742-2.774l-.597-1.444s-3.069-1.572-2.226-4.665"/><path fill="#6F4439" d="M151.872 226.337c-.007 0-.05.134-.106.389-.042.128-.056.29-.063.482-.028.191-.007.41.007.658a3.87 3.87 0 0 0 .639 1.663 5.217 5.217 0 0 0 1.714 1.557l-.042-.049c.19.46.386.941.59 1.444l.007-.092a45.884 45.884 0 0 0-1.327 2.067c-.218.368-.464.729-.64 1.168-.077.219-.133.46-.119.708.014.247.119.502.309.679a.771.771 0 0 0 .211.156l.049.028.049-.028c.358-.22.709-.432 1.054-.644.175-.107.344-.213.512-.319.169-.113.345-.184.506-.34.302-.283.513-.615.724-.934.21-.319.393-.644.569-.956.351-.637.66-1.245.934-1.826.063-.148.133-.29.196-.432l.05-.113.021-.071c0-.028-.007-.056-.014-.085-.028-.084-.049-.148-.078-.219-.112-.276-.217-.538-.323-.793a110.394 110.394 0 0 0-1.025-2.364c-.12-.262-.218-.467-.295-.637-.07-.142-.106-.219-.113-.212-.007 0 .021.085.078.233.07.17.154.39.253.651.238.595.561 1.402.962 2.393.098.255.204.517.309.793l.07.205.007.014v.007c.007 0-.021 0 .042.007-.056-.007-.042 0-.042.007l-.007.007-.007.022-.042.099c-.063.141-.133.283-.197.425a35.321 35.321 0 0 1-.948 1.804c-.183.312-.365.63-.569.942-.204.311-.421.637-.688.885-.12.12-.316.212-.478.318-.169.106-.337.205-.513.312-.344.212-.695.424-1.046.637h.098a.523.523 0 0 1-.147-.114c-.31-.29-.288-.764-.141-1.153.155-.39.407-.765.618-1.133.443-.729.885-1.423 1.314-2.067l.028-.042-.021-.05c-.211-.502-.408-.984-.604-1.437l-.014-.028-.029-.014a5.075 5.075 0 0 1-1.671-1.479 3.86 3.86 0 0 1-.654-1.586c-.133-.991.092-1.536.043-1.543Z"/><path fill="#455A64" d="m170.461 237.475-36.153-.718-.503 25.739 36.153.717.503-25.738Z"/><path fill="#263238" d="M166.271 237.52c.007.007-.07.127-.225.353-.182.255-.414.581-.702.977-.625.843-1.489 2.088-2.711 3.525a23.609 23.609 0 0 1-4.938 4.368c-2.08 1.344-4.671 2.519-7.579 2.626-2.922.113-5.585-1.034-7.615-2.457-2.051-1.429-3.561-3.128-4.72-4.6a45.993 45.993 0 0 1-2.557-3.639c-.26-.417-.47-.757-.639-1.026-.14-.241-.211-.368-.197-.375.015-.007.099.106.26.332.183.262.408.588.696.984.604.857 1.461 2.103 2.641 3.554 1.18 1.437 2.69 3.1 4.713 4.48 1.995 1.381 4.587 2.478 7.411 2.364 2.816-.099 5.359-1.238 7.41-2.541a24.501 24.501 0 0 0 4.924-4.254c1.236-1.394 2.135-2.619 2.789-3.433.309-.382.561-.693.758-.941.176-.198.274-.305.281-.297Z"/><path fill="#455A64" d="M143.07 239.226c-.007-.184 1.3-6.151 3.927-8.544 1.447-1.316 4.516-2.491 7.691 1.763l-1.103 1.571s-3.336-4.622-5.247-2.314c-1.025 1.238-2.879 4.098-3.006 7.014l-2.262.51Z"/><path fill="#AE7461" d="M153.543 234.066c.204-.213.373-.461.499-.73.127-.269.204-.608.056-.863a.673.673 0 0 0-.632-.304c-.246.014-.47.141-.653.304-.183.163-.33.368-.471.573"/><path fill="#6F4439" d="M152.335 233.046c-.035-.028.035-.24.267-.552.12-.148.295-.325.555-.432.253-.106.625-.12.906.107.309.226.33.644.253.891-.07.269-.197.461-.309.616-.232.305-.435.432-.464.397-.035-.036.092-.22.246-.531.078-.156.162-.347.197-.552.042-.206.007-.411-.148-.524-.344-.262-.814-.007-1.046.212-.253.227-.415.397-.457.368Z"/><path fill="#AE7461" d="M151.043 231.354c.232-.34.618-.623 1.075-.673.449-.049.941.184 1.053.567.099.318-.077.658-.253.955a18.12 18.12 0 0 1-1.721 2.421"/><path fill="#6F4439" d="M151.198 234.624c-.092-.063.85-1.224 1.706-2.782.204-.382.12-.707-.189-.877a1.11 1.11 0 0 0-.878-.085c-.527.17-.738.509-.787.467-.035-.007.098-.432.696-.715a1.322 1.322 0 0 1 1.13.028.905.905 0 0 1 .478.567c.07.276-.014.545-.119.764-.906 1.656-1.974 2.697-2.037 2.633Z"/><path fill="#AE7461" d="M149.273 231.107c.119-.312.393-.673.667-.864.274-.191.632-.276.948-.177.316.099.583.396.597.729.014.29-.147.559-.302.8-.491.757-1.032 1.699-1.601 2.4"/><path fill="#6F4439" d="M149.575 233.988c-.042-.036.168-.354.484-.885.183-.312.373-.623.555-.935.19-.353.499-.75.647-1.118.147-.368-.113-.729-.429-.828-.323-.106-.667.021-.885.184-.457.361-.618.729-.667.708-.042-.007.021-.432.506-.906.245-.227.667-.432 1.144-.305.239.064.457.22.605.453.154.227.175.567.077.822-.092.261-.239.46-.358.644-.12.184-.232.361-.352.538-.224.346-.435.651-.625.899-.379.495-.667.764-.702.729Z"/><path fill="#263238" d="M152.377 249.369a1.75 1.75 0 0 1-1.749 1.762 1.751 1.751 0 0 1-1.749-1.762c0-.977.78-1.763 1.749-1.763.97 0 1.749.793 1.749 1.763Z"/><path fill="#E0E0E0" d="M181.521 173.574s-6.294 2.018-8.45 4.12c-5.585 5.429-13.88 14.1-16.247 17.894-1.475 2.371-6.463 28.292-6.463 28.292l11.134.538 5.528-26.147 9.475-9.549 5.023-15.148Z"/><path fill="#263238" d="m231.21 236.309 6.876 6.229 1.082.665s7.488-10.561 9.735-10.136l-5.823 23.38-1.861-.538-12.489-8.232 2.48-11.368Z"/><path fill="#E0E0E0" d="M236.386 250.587c.007.481.436.927.92.934.478.007.928-.425.928-.906 0-.481-.499-1.026-.977-.984-.477.043-.976.581-.857 1.055"/><path fill="#263238" d="m243.214 256.468-1.862-.538 6.28-22.218s.709-.928 1.405-.623l-5.823 23.379Z"/><path fill="#455A64" d="M239.168 243.204c.112.035.021.615.246 1.267.21.658.625 1.076.555 1.168-.05.099-.682-.241-.942-1.041-.26-.793.042-1.451.141-1.394Zm1.623-2.202c.119 0 .182.545.569 1.055.365.517.863.75.828.864-.007.113-.695.021-1.159-.616-.47-.644-.351-1.324-.238-1.303Zm3.259-.658c0 .113-.604.127-1.152-.326-.548-.446-.661-1.048-.555-1.069.112-.042.358.39.808.751.442.375.913.53.899.644Z"/><path fill="#263238" d="M236.386 242.715c.092.071-.196.559-.316 1.217-.133.651-.042 1.211-.154 1.246-.099.043-.394-.552-.246-1.324.147-.771.639-1.217.716-1.139Zm-34.123-99.252c.744-.68 1.939-.793 2.803-.276 1.411-.453 3.09.219 3.807 1.522a3.015 3.015 0 0 1 2.753.976c.667.772.892 1.911.576 2.881 1.012.205 1.84 1.111 1.96 2.145.119 1.033-.471 2.109-1.405 2.548.913.729 1.145 2.18.52 3.171-.632.984-2.037 1.366-3.077.835l-8.499-11.035c-.421-.913-.183-2.095.562-2.767Z"/><path fill="#AE7461" d="M210.404 157.252c1.447-5.089-1.236-10.441-6.153-12.302l-.492-.184c-5.387-1.685-9.813 1.989-11.33 7.46l-5.865 19.027 4.074 10.419 6.68-3.327 1.925-4.735s5.359 1.118 7.326-3.957c.948-2.456 2.493-7.666 3.835-12.401Z"/><path fill="#6F4439" d="M199.236 174.07s-3.253-1.027-5.851-4.46c0 0 .182 4.269 5.352 5.72l.499-1.26Z"/><path fill="#263238" d="M207.18 161.881c-.127.389-.562.601-.969.474a.741.741 0 0 1-.499-.941c.126-.39.562-.602.969-.475a.754.754 0 0 1 .499.942Zm1.166-1.805c-.127.064-.52-.552-1.3-.849-.772-.305-1.496-.114-1.545-.241-.028-.057.126-.198.45-.283.309-.092.793-.106 1.278.078s.822.516.99.792c.169.269.19.475.127.503Zm-7.965-.382c-.127.39-.562.602-.97.474a.741.741 0 0 1-.498-.941c.126-.389.561-.602.969-.474a.743.743 0 0 1 .499.941Zm.562-2.541c-.127.064-.52-.552-1.3-.849-.773-.305-1.496-.114-1.545-.241-.028-.057.126-.198.449-.283.309-.092.794-.106 1.279.078.484.184.821.516.99.792.169.269.183.475.127.503Zm-2.452 7.291c.141-.021.323.693.969 1.217.64.531 1.384.581 1.391.722.007.064-.182.142-.513.128a2.116 2.116 0 0 1-1.194-.482 2.11 2.11 0 0 1-.695-1.068c-.07-.312-.021-.51.042-.517Zm2.852-.511c.014-.049.527.05 1.348.248.204.057.408.085.492-.035.098-.128.098-.375.091-.644l-.021-1.749c-.007-2.477.064-4.487.162-4.487s.183 2.01.197 4.494c0 .609-.007 1.19-.007 1.749-.007.255.021.566-.19.828a.54.54 0 0 1-.436.17c-.14-.007-.252-.05-.358-.078-.801-.269-1.292-.453-1.278-.496Zm.428-10.142c-.091.219-.815.049-1.686.099-.871.028-1.587.255-1.685.042-.042-.099.098-.304.393-.502.295-.199.759-.368 1.278-.39.52-.021.984.114 1.286.283.309.17.456.361.414.468Zm7.2 4.062c-.19.142-.688-.205-1.349-.403-.653-.22-1.257-.227-1.334-.453-.028-.106.112-.269.4-.368.288-.106.731-.128 1.187.014.45.142.801.425.977.679.182.248.203.461.119.531Z"/><path fill="#263238" d="M210.79 155.185s-.147-3.702-1.398-5.026c-1.517-1.599-3.076.142-4.657-1.019-1.58-1.161-3.027-2.697-5.338-2.003-2.536.757-2.002 2.166-2.964 4.381-3.913 8.997-6.54 10.965-5.409 6.456.127-.496-1.039-1.366-.491-3.44.716-2.69 1.791-5.882 3.048-7.503 1.061-1.366 2.339-2.11 4.355-2.697 3.182-.927 6.61.325 8.843 1.437 2.241 1.111 5.711 5.485 4.011 9.414Z"/><path fill="#AE7461" d="M191.397 157.952c.26-.8-.183-1.677-.991-1.897-.976-.269-2.233-.12-2.901 1.869-1.187 3.532 2.578 4.006 2.613 3.907.035-.064.794-2.392 1.279-3.879Z"/><path fill="#6F4439" d="M189.809 160.246c-.014-.014-.077.021-.197.035a.606.606 0 0 1-.456-.148c-.323-.262-.436-.963-.239-1.607.098-.326.267-.609.471-.821.196-.22.421-.347.618-.319a.33.33 0 0 1 .302.29c.014.114-.035.177-.014.192.007.014.098-.036.119-.192a.46.46 0 0 0-.063-.269.49.49 0 0 0-.309-.205c-.274-.071-.604.092-.822.333a2.222 2.222 0 0 0-.541.913c-.218.722-.077 1.508.379 1.826a.703.703 0 0 0 .59.099c.127-.049.169-.12.162-.127Z"/><path fill="#263238" d="M193.982 151.221c.337.481.688.977 1.215 1.239.519.262 1.257.177 1.552-.326.133-.226.176-.531.407-.658.274-.156.597.049.871.191.97.488 2.262.163 2.887-.729.113.481.717.694 1.201.587.485-.106.886-.424 1.321-.658.436-.233.976-.389 1.412-.149.246.135.421.376.688.453.471.135.892-.318 1.131-.75s.492-.941.969-1.04c.443-.092.857.212 1.251.431.393.22.969.326 1.236-.049.133-.198.126-.46.077-.694-.217-1.062-1.257-1.883-2.332-1.854.092-1.281-.646-2.584-1.784-3.157-1.138-.574-2.613-.39-3.575.453a3.343 3.343 0 0 0-2.487-1.77 3.335 3.335 0 0 0-2.866 1.041c-.758-.545-1.84-.574-2.634-.085a2.466 2.466 0 0 0-1.109 2.406c-.759.121-1.525.545-1.806 1.26-.281.715.148 1.699.913 1.77-.491.46-.547 1.309-.119 1.826.422.517 1.264.623 1.798.227"/><path fill="#455A64" d="M192.268 149.027c-.007-.014-.176.269-.036.75.071.234.239.51.541.68.295.17.703.24 1.096.085l-.14-.078c.056.368.168.757.365 1.132.126.241.281.46.485.637.196.177.449.283.674.326.456.12.927.021 1.215-.198.288-.213.45-.46.548-.623.098-.163.14-.262.133-.269-.014-.007-.077.078-.196.226-.12.142-.295.368-.569.545-.513.376-1.679.227-2.1-.736a3.814 3.814 0 0 1-.359-1.061l-.021-.128-.112.05a1.096 1.096 0 0 1-.934-.05 1.133 1.133 0 0 1-.506-.566c-.155-.432-.049-.715-.084-.722Zm9.51-5.493c-.007.014.085.057.211.184.126.121.302.34.365.666l.014.085.07-.05a4.563 4.563 0 0 1 2.185-.736c.471-.028.983.028 1.475.212a3.02 3.02 0 0 1 1.307.977c.273.354.463.757.561 1.161.092.41.085.821-.014 1.196l-.028.113.113.007c.576.05 1.067.354 1.376.722.317.369.443.8.471 1.147.049.722-.204 1.104-.168 1.118.007.008.07-.084.147-.268a2.141 2.141 0 0 0-.323-2.103 2.245 2.245 0 0 0-1.482-.814l.084.128c.112-.404.12-.857.028-1.296a3.334 3.334 0 0 0-.597-1.245 3.185 3.185 0 0 0-1.405-1.041 3.663 3.663 0 0 0-1.559-.205 4.537 4.537 0 0 0-2.234.821l.092.035a1.29 1.29 0 0 0-.436-.686c-.147-.107-.246-.135-.253-.128Z"/><path fill="#263238" d="m187.575 306.675.801 12.606s9.939 10.972 9.167 13.265l-23.271-9.619.836-1.876 2.268-5.004-2.1-9.068 12.299-.304Z"/><path fill="#E0E0E0" d="M179.863 317.37c-.499-.064-1.019.318-1.103.821-.112.672.618 1.409 1.342.998.604-.34.737-1.203.196-1.642a.724.724 0 0 0-.533-.184"/><path fill="#263238" d="m174.272 322.927.836-1.876 21.999 9.924s.85.884.436 1.571l-23.271-9.619Z"/><path fill="#455A64" d="M189.437 320.69c-.049.113-.639-.071-1.349.063-.709.121-1.201.496-1.292.404-.099-.064.351-.68 1.215-.828.864-.149 1.496.269 1.426.361Zm1.756 1.946c-.021.121-.59.113-1.173.439-.59.304-.906.793-1.012.736-.112-.028.078-.729.815-1.118.724-.396 1.412-.163 1.37-.057Zm-.099 3.518c-.112-.021-.035-.658.506-1.161.541-.509 1.18-.538 1.187-.417.028.12-.456.311-.899.736-.442.403-.674.878-.794.842Zm-2.823-8.699c-.049.113-.618-.043-1.307.021-.695.05-1.229.297-1.292.198-.07-.085.442-.559 1.257-.623.815-.077 1.398.305 1.342.404Z"/><path fill="#263238" d="M158.446 217.438s-2.36 3.759-2.978 7.73c-.33 2.152-.913 6.342.646 10.943.927 2.725 13.768 37.848 13.768 37.848l1.468 18.439 4.439 23.139 13.908-.687s-1.286-36.439-1.841-41.783c-.604-5.769-8.386-41.267-8.386-41.267l5.078-12.776-23.622-7.942-2.48 6.356Z"/><path fill="#455A64" d="M197.374 331.322c-.042.092-5.057-2.131-11.21-4.962-6.147-2.838-11.099-5.21-11.056-5.302.042-.092 5.057 2.131 11.21 4.969 6.146 2.832 11.098 5.203 11.056 5.295Zm-7.677-16.45c.007.099-3.105.332-6.947.516s-6.954.248-6.961.149c-.007-.099 3.105-.333 6.947-.517s6.961-.247 6.961-.148Z"/><path fill="#E0E0E0" d="m200.184 175.329-.787-1.79c-5.212-2.188-9.012-4.375-12.187-4.325l-2.451 2.421c-2.845 1.797-8.415 4.558-9.918 6.674l-6.884 13.407-9.511 22.473c-.878 1.374-2.753 3.405-.667 5.43l18.972 2.144 6.743.114c1.377-.185 4.995.842 5.423-1.402.766-3.978 13.262-30.713 14.154-34.21l-.394-5.754-2.493-5.182Z"/><path fill="#FF725E" d="M202.53 186.174c-1.412 3.772-2.409 9.605-7.677 13.109-2.916 1.939-7.193 3.1-10.523 4.162-3.94 1.26-9.18 2.866-9.18 2.866l-3.33 6.144 5.922.779s6.968-2.237 9.714-3.391c5.914-2.477 3.884-1.67 5.928-3.057 2.93-1.841 6.926-7.263 9.862-20.974"/><path fill="#263238" d="M188.566 176.101c-.007.056-.71.014-1.84-.043-1.131-.049-2.698-.099-4.426-.007a26.896 26.896 0 0 0-4.376.552c-1.102.241-1.77.467-1.791.404-.007-.022.148-.1.45-.227.295-.127.737-.269 1.285-.432 1.103-.311 2.676-.58 4.418-.665 1.742-.092 3.323 0 4.461.12 1.131.121 1.826.248 1.819.298Zm9.834-2.917c-.014.05-.787-.084-2.037-.318a82.273 82.273 0 0 0-4.896-.786c-1.918-.233-3.667-.318-4.931-.29-1.265.021-2.044.113-2.058.05-.007-.029.189-.071.541-.135.351-.071.864-.127 1.503-.177 1.278-.092 3.055-.057 4.987.184 1.939.241 3.667.602 4.903.892 1.243.304 2.002.531 1.988.58Z"/><path fill="#455A64" d="M174.841 178.31c.014.007-.057.156-.183.432-.154.311-.351.715-.597 1.21-.534 1.09-1.264 2.605-2.163 4.452-1.806 3.773-4.215 9.025-6.919 14.808a381.973 381.973 0 0 1-3.906 8.112 139.174 139.174 0 0 1-1.798 3.497c-.569 1.09-1.145 2.081-1.566 3.029-.422.942-.696 1.848-.787 2.662a5.732 5.732 0 0 0 .134 2.088c.302 1.125.807 1.592.765 1.614 0 0-.133-.1-.309-.354a4.195 4.195 0 0 1-.59-1.225c-.176-.566-.274-1.302-.197-2.145.071-.842.338-1.776.752-2.746s.976-1.975 1.531-3.065c.569-1.09 1.152-2.265 1.763-3.504a448.087 448.087 0 0 0 3.878-8.119c2.697-5.783 5.141-11.021 7.017-14.765a154.132 154.132 0 0 1 2.269-4.403c.266-.481.484-.877.653-1.175.154-.269.239-.41.253-.403Z"/><path fill="#263238" d="M169.509 243.954c.984.312 33.997-12.599 33.997-12.599l27.992 21.447 2.044.828 4.558-12.762s-19.597-19.557-26.235-25.893c-1.756-1.677-5.149-3.39-8.148-2.951-6.961 1.012-33.4 9.938-33.4 9.938l-.808 21.992Z"/><path fill="#000" d="M171.132 241.003s3.35 2.378 7.424 2.194l3.316-.347-.646-3.008c-.007.007-7.895 1.522-10.094 1.161Z" opacity=".3"/><path fill="#455A64" d="M186.55 238.065c.007.021-.218.134-.639.318-.422.184-1.04.425-1.812.708-1.539.552-3.709 1.253-6.175 1.713-2.465.467-4.762.538-6.399.361a10.285 10.285 0 0 1-1.102-.149 8.516 8.516 0 0 1-.822-.163c-.45-.113-.689-.184-.682-.205.014-.064 1.005.163 2.627.262 1.623.106 3.871 0 6.315-.46 2.437-.453 4.601-1.111 6.16-1.6 1.553-.509 2.515-.835 2.529-.785Zm17.483-11.545c.106.028-.119 1.083-.182 2.4-.071 1.316.049 2.385-.057 2.406-.091.022-.379-1.061-.309-2.428.064-1.359.457-2.406.548-2.378Z"/><path fill="#AE7461" d="m223.118 147.441-4.397 6.852 8.646 3.546 3.653-9.775-5.409-2.01-2.493 1.387Zm-3.702-5.833s-.351-.559-.147-1.274c.196-.715 1.138-1.43 1.138-1.43s.351 2.145.288 2.18c-.057.036-1.279.524-1.279.524Z"/><path fill="#AE7461" d="m223.371 148.849-3.154-5.188.189-4.254s-.161-3.178 1.349-3.709c0 0 .913-.489 1.489.141 0 0 .169-.799 1.363-.75l.836.467s.555-.736 1.138-.729c.583.007 1.25.651 1.25.651s.302-.622 1.215-.354c.913.269 1.883 1.975 2.136 2.563.252.587 1.144 5.372 1.053 6.59-.091 1.217-1.412 4.261-1.412 4.261l-7.452.311Z"/><path fill="#FFBF9D" d="M220.68 139.739s-1.51 1.423-1.826 1.834c-.316.417-.513 1.5-.744 1.974-.232.475-.914 1.041-.345 1.437.569.397 1.328.121 1.742-.318.415-.439 1.77-3.327 1.77-3.327l-.597-1.6Z"/><path fill="#FFBF9D" d="M218.756 144.631s-.618.892-.358 1.968c.259 1.076 1.397.998 1.397.998s-.021 1.515 1.518 1.316c0 0-.422.468.358.786l2.219-2.874s.309-.262.302-1.182c-.007-.623-.295-1.621-1.13-1.366 0 0-.113-1.083-.871-1.338-.759-.255-.977.283-.977.283s-.182-.403-.786-.346c-.612.063-1.672 1.755-1.672 1.755Z"/><path fill="#E0E0E0" d="M188.503 186.796c-2.227-2.563-2.684-6.661-.071-9.556a5.817 5.817 0 0 1 1.475-1.182c3.681-2.06 21.614-8.621 21.614-8.621l9.18-17.739 9.708 2.244s-7.221 22.396-12.595 25.716c-6.167 3.808-16.872 9.683-20.77 10.914"/><path fill="#263238" d="M197.044 188.58c0-.007.077-.043.246-.106.161-.064.407-.149.723-.284a51.613 51.613 0 0 0 2.719-1.224c2.339-1.126 5.689-2.867 9.777-5.174a204.584 204.584 0 0 0 6.638-3.893c.611-.354 1.159-.744 1.658-1.253.492-.51.948-1.076 1.37-1.685.857-1.203 1.615-2.534 2.346-3.928 1.454-2.789 2.774-5.84 4.06-9.047a186.244 186.244 0 0 0 3.666-10.1l.134.233c-2.044-.474-4.215-.977-6.406-1.479-1.11-.255-2.206-.51-3.302-.765l.204-.092c-3.252 6.279-6.35 12.253-9.195 17.732l-.028.056-.063.021a665.871 665.871 0 0 0-13.458 5.076 182.294 182.294 0 0 0-5.613 2.286 34.3 34.3 0 0 0-2.444 1.14 5.621 5.621 0 0 0-1.847 1.557c-.991 1.21-1.405 2.612-1.489 3.822a7.57 7.57 0 0 0 .47 3.051c.625 1.585 1.342 2.23 1.293 2.258a.66.66 0 0 1-.12-.128c-.07-.085-.182-.212-.323-.389a7.735 7.735 0 0 1-.955-1.713 7.583 7.583 0 0 1-.527-3.1 7.316 7.316 0 0 1 .386-1.961 7.26 7.26 0 0 1 1.096-1.975 5.794 5.794 0 0 1 1.897-1.628c.772-.41 1.587-.793 2.451-1.168a177.764 177.764 0 0 1 5.605-2.328 593.848 593.848 0 0 1 13.445-5.132l-.092.078c2.831-5.486 5.922-11.467 9.167-17.746l.063-.127.14.028c1.089.255 2.192.51 3.302.765l6.406 1.486.197.043-.064.191a173.643 173.643 0 0 1-3.687 10.115c-1.286 3.213-2.627 6.271-4.095 9.067-.738 1.394-1.511 2.739-2.382 3.957a15.247 15.247 0 0 1-1.404 1.713c-.513.523-1.124.948-1.721 1.288a189.18 189.18 0 0 1-6.673 3.858c-4.109 2.279-7.474 3.992-9.834 5.082-1.18.552-2.114.927-2.754 1.168-.316.12-.569.191-.737.248a1.152 1.152 0 0 1-.246.106Zm73.367-69.332c-1.559.934-22.294 16.004-24.072 21.136-1.777 5.132 4.861 42.251 4.861 42.251l14.772-.722-3.927-35.279 29.509-17.611 1.988-18.389-23.131 8.614Z"/><path fill="#263238" d="m287.873 126.921 16.577 17.965s2.269 8.176 4.229 13.52a14830.85 14830.85 0 0 0 5.219 14.248l3.568 11.835L329 181.92s-4.306-18.935-5.416-26.232c-1.11-7.298-3.751-15.304-3.751-15.304l-9.166-23.372-9.989-13.145-12.805 23.054Z"/><path fill="#000" d="M261.589 125.761s12.945 5.004 17.237 4.105c4.292-.899 11.45-11.545 11.45-11.545l10.515 10.752 12.791-4.615-1.026-4.148s-18.305-4.763-18.34-4.82c-.035-.057-6.631 0-6.631 0l-11.084 7.708-11.997.156-2.915 2.407Z" opacity=".3"/><path fill="#263238" d="m324.406 172.789 3.814 12.161 5.767 8.741c.414.63.218 1.487-.436 1.862a1.262 1.262 0 0 1-1.187.05c-2.423-1.14-11.14-5.33-11.561-6.272-.443-.984-4.868-12.557-4.868-12.557l8.471-3.985Z"/><path fill="#E0E0E0" d="m333.551 195.553-13.022-7.035.175.509c.148.439.45.814.85 1.055 1.068.637 4.046 2.336 10.782 5.528.386.191.85.17 1.215-.057Z"/><path fill="#fff" d="M329.028 191.221c.077.007.133-.714.73-1.302.583-.602 1.3-.658 1.286-.743 0-.036-.183-.078-.478-.021a2.048 2.048 0 0 0-1.011.559 2.053 2.053 0 0 0-.555 1.019c-.042.304 0 .488.028.488Zm1.405 1.324c.077.035.323-.495.885-.885.548-.403 1.124-.474 1.117-.552.014-.071-.647-.134-1.279.326-.639.446-.801 1.097-.723 1.111Zm-3.695-2.853c.077.036.457-.771 1.271-1.458.808-.701 1.658-.949 1.637-1.026 0-.071-.948.07-1.812.814-.871.743-1.166 1.656-1.096 1.67Zm-1.461-3.596c.056.064.625-.446 1.475-.771.843-.34 1.601-.354 1.601-.439.015-.071-.793-.184-1.706.177-.914.354-1.433.991-1.37 1.033Z"/><path fill="#455A64" d="M258.274 144.171c.007-.092 1.109.029 2.24.744 1.138.707 1.728 1.656 1.651 1.705-.084.071-.766-.722-1.84-1.387-1.068-.679-2.073-.948-2.051-1.062Zm58.848 2.634c.028.035-.232.332-.759.679a6.074 6.074 0 0 1-2.297.892 6.277 6.277 0 0 1-2.458-.064c-.618-.148-.962-.346-.948-.382.028-.113 1.51.425 3.343.085 1.84-.304 3.056-1.309 3.119-1.21Z"/><path fill="#263238" d="m254.059 172.846.492 11.268s-11.204 4.29-11.309 6.378l21.711-.177-.836-16.075-10.058-1.394Z"/><path fill="#E0E0E0" d="m264.953 190.315-.077-1.769-20.791.828s-.963.432-.85 1.118l21.718-.177Z"/><path fill="#fff" d="M254.199 184.002c.008.106.534.148 1.061.488.534.326.808.786.906.743.099-.021-.063-.658-.709-1.062-.639-.396-1.279-.268-1.258-.169Zm-2.268.969c-.021.106.435.283.8.729.38.439.471.927.576.92.099.014.169-.608-.295-1.161-.456-.552-1.081-.587-1.081-.488Zm-1.272 2.754c.099.021.239-.51-.035-1.097-.274-.588-.772-.814-.822-.722-.056.084.267.396.485.884.232.475.267.928.372.935Z"/><path fill="#FF725E" d="m253.02 89.582 13.914 19.515 5.655 4.127-1.658 4.375-7.867 7.035s13.023 5.444 17.813 2.301c4.791-3.136 9.364-10.759 9.364-10.759l11.744 11.276 14.751-5.925s-6.449-12.968-15.376-20.364l-5.367-16.408-9.791-15.176-11.955 3.922-16.985 11.926-4.242 4.155Z"/><path fill="#fff" d="M264.104 82.264c.8 0 9.749 5.28 9.749 5.28l1.946-11.296-1.454-2.669 2.901 1.062 4.671 4.537 11.625 18.475c-.836 4.7-3.695 11.686-3.772 14.199 0 0-12.356-1.062-15.193-7.114-2.831-6.052-8.872-16.981-8.872-16.981l-1.601-5.493Z"/><path fill="#FF725E" d="M276.417 94.48c0 1.013 3.266 15.12 5.999 15.884 2.725.765 6.975 1.494 6.975 1.494v-6.781l-10.972-12.946-.33-3.462-4.025-.467-.991 5.047 3.344 1.232Zm-19.942-7.51s-2.704 2.393-3.456 2.62c-.751.226-3.631 8.069-3.631 8.069l-7.368 18.439-12.96 17.434 7.298 6.852s16.352-16.62 17.504-21.094l8.043-16.782-5.43-15.537Z"/><path fill="#263238" d="M290.268 115.49c-.042-.043.64-.744 1.644-1.961 1.012-1.211 2.325-2.952 3.723-4.913 1.37-1.925 2.599-3.666 3.575-5.039.464-.644.85-1.154 1.124-1.501.274-.347.436-.531.457-.517.042.029-.499.85-1.37 2.166-.878 1.317-2.086 3.136-3.491 5.104-1.405 1.968-2.761 3.688-3.828 4.863a21.337 21.337 0 0 1-1.307 1.352c-.316.304-.505.467-.527.446Zm-8.506-2.605c-.007.049-.8-.043-2.065-.276a61.274 61.274 0 0 1-4.896-1.112 60.536 60.536 0 0 1-4.797-1.493c-1.208-.439-1.939-.75-1.925-.8.021-.05.78.177 2.002.552 1.229.375 2.922.878 4.812 1.387 1.889.51 3.61.921 4.853 1.218 1.251.283 2.023.467 2.016.524Zm-25.694-17.774c.021-.014.189.163.485.503.295.34.702.842 1.208 1.465a326.11 326.11 0 0 1 3.884 4.912 290.304 290.304 0 0 1 3.8 4.983c.478.645.857 1.168 1.117 1.536.26.368.393.581.372.595-.021.014-.189-.163-.484-.51-.295-.339-.703-.842-1.209-1.465a327.057 327.057 0 0 1-3.884-4.912 448.687 448.687 0 0 1-3.8-4.976 60.003 60.003 0 0 1-1.117-1.536c-.26-.368-.393-.58-.372-.595Zm24.479-17.038c.049 0 .063.956.035 2.485a301.025 301.025 0 0 1-.175 5.995c-.035.814-.064 1.593-.099 2.329l-.007.191-.161-.021a173.547 173.547 0 0 1-4.362-.552c-1.075-.149-1.714-.262-1.707-.305.007-.042.646-.007 1.728.078 1.075.092 2.592.234 4.334.418l-.169.17c.028-.737.056-1.515.084-2.33.092-2.335.19-4.459.281-5.987.085-1.53.169-2.47.218-2.47Z"/><path fill="#263238" d="M266.703 89.823c.028-.042.674.326 1.692.956a182.03 182.03 0 0 1 3.948 2.527c.239.155.471.311.695.46l-.274.099c.422-1.557.675-3.008.9-4.028.21-1.026.358-1.642.4-1.635.042.007-.014.644-.162 1.678-.161 1.04-.365 2.47-.786 4.091l-.064.234-.21-.135c-.225-.148-.457-.297-.696-.453a173.757 173.757 0 0 1-3.891-2.619c-.983-.686-1.58-1.132-1.552-1.175Z"/><path fill="#FF725E" d="M286.152 69.6s3.239-1.096 4.952-.31c3.309 1.514 24.74 13.137 25.625 13.76.885.623 12.517 19.522 12.517 19.522l-7.973 4.976-11.365-15.728-20.721-7.843s-3.14-4.077-3.639-7.51c-.505-3.44.604-6.866.604-6.866Z"/><path fill="#263238" d="M295.993 84.77c.049-.014.337.863.836 2.272.541 1.5 1.215 3.397 1.967 5.493 1.552 4.282 2.732 7.807 2.557 7.857-.028 0-.092-.213-.246-.602l-.625-1.65a281.676 281.676 0 0 1-2.03-5.478 124.34 124.34 0 0 1-1.869-5.535 32.335 32.335 0 0 1-.477-1.706c-.099-.41-.141-.644-.113-.651Zm-4.109-4.63c-.035.03-.449-.325-1.039-1.004a15.919 15.919 0 0 1-1.96-2.881 16.237 16.237 0 0 1-1.3-3.242c-.231-.864-.302-1.416-.259-1.423.112-.028.604 2.124 1.882 4.488 1.25 2.378 2.76 3.985 2.676 4.063Zm-3.315 34.423c.007.049-.717.191-1.89.318a35.176 35.176 0 0 1-9.229-.269c-1.166-.198-1.876-.382-1.869-.432.007-.056.731.043 1.904.17 1.173.128 2.788.276 4.579.333 1.792.049 3.421 0 4.594-.057 1.173-.063 1.904-.12 1.911-.063Zm-12.068-40.198c0-.007.106-.007.302.014.197.028.499.021.878.113.752.177 1.834.545 3.077 1.26 2.479 1.43 5.612 4.049 8.766 7.616l.105.114-.112.113c-.478.488-.99 1.019-1.517 1.564l-.127-.297c.59 0 1.223 0 1.869-.007h.119l.042.113c.633 1.642 1.286 3.362 1.96 5.125.759 1.989 1.496 3.921 2.185 5.74l.014.036v.035c-.19 2.86-1.124 5.379-1.918 7.595-.822 2.216-1.524 4.19-1.896 5.882-.387 1.692-.464 3.086-.429 4.042.035.955.134 1.465.105 1.472-.007 0-.042-.127-.091-.368a8.154 8.154 0 0 1-.133-1.09c-.071-.956-.028-2.371.33-4.091.344-1.72 1.025-3.723 1.826-5.939.78-2.223 1.679-4.721 1.854-7.51l.015.078c-.696-1.82-1.433-3.752-2.199-5.74-.674-1.763-1.328-3.483-1.953-5.126l.169.114c-.646 0-1.279 0-1.869-.007h-.421l.295-.298c.527-.538 1.047-1.061 1.524-1.557l-.007.234c-3.112-3.554-6.195-6.2-8.611-7.659-1.216-.73-2.262-1.126-2.993-1.33-.744-.17-1.166-.206-1.159-.241Zm-13.718 28.589c.007.099-2.107.298-4.72.439-2.613.142-4.734.17-4.741.071-.007-.099 2.107-.297 4.72-.439 2.613-.141 4.734-.177 4.741-.071Zm16.338 7.249c0 .014-.105-.008-.302-.043-.196-.049-.491-.085-.857-.219-.744-.206-1.791-.645-2.992-1.374-1.208-.729-2.529-1.79-3.898-3.093-1.363-1.309-2.782-2.859-4.271-4.516l-.112-.127.119-.121c.583-.615 1.089-1.38 1.742-2.073l.218.29-.576.311c-.738.404-1.468.8-2.157 1.175l-.196.106-.064-.212c-1.397-4.488-2.184-8.593-2.578-11.545a57.463 57.463 0 0 1-.372-3.496c-.035-.411-.049-.73-.056-.949-.007-.22-.007-.333.007-.333s.035.114.063.326c.035.255.071.56.12.941.098.814.253 2.004.484 3.469a79.692 79.692 0 0 0 2.684 11.474l-.26-.106c.688-.376 1.419-.772 2.156-1.182l.576-.312 1.026-.56-.801.85c-.625.659-1.131 1.43-1.742 2.074v-.248c1.489 1.657 2.887 3.214 4.228 4.531 1.342 1.309 2.634 2.378 3.8 3.121 2.325 1.515 4.046 1.749 4.011 1.841Z"/><path fill="#263238" d="M289.496 111.852c-.007.049-.773 0-2.002-.177-1.229-.177-2.929-.474-4.748-1.041-1.827-.559-3.393-1.316-4.461-1.968-1.067-.651-1.664-1.146-1.636-1.182.035-.049.674.376 1.763.956a25.105 25.105 0 0 0 4.439 1.84c3.596 1.09 6.666 1.437 6.645 1.572Z"/><path fill="#000" d="M291.175 114.69a11.463 11.463 0 0 0 5.984-4.169 11.642 11.642 0 0 0 2.283-6.959M282.71 77.026a23.03 23.03 0 0 1 7.832 6.675c-.245.12-.442.333-.54.588.337.099.674.19 1.018.29.738 3.044 1.475 6.087 2.206 9.131-1.18-2.987-2.353-5.974-3.534-8.961-.561.056-1.123.113-1.685.177.526-.467 1.053-.927 1.58-1.395a36.287 36.287 0 0 1-5.198-5.563m-15.804 13.088 5.486 5.082.85-6.944 6.574.403-.948-8.522-.393 7.199-6.083-.333-1.131 5.974m23.664-7.135-1.868-5.705 3.933 6.491-2.065-.786Z" opacity=".3"/><path fill="#263238" d="M313.448 85.93c.042.1-.836.446-1.433 1.38-.618.92-.59 1.876-.695 1.876-.042.007-.119-.234-.105-.63.014-.396.161-.941.491-1.451.33-.51.78-.856 1.131-1.026.351-.17.597-.191.611-.149Zm-58.483-32.56c-.857-.489-2.023-.354-2.739.332-1.447-.141-2.922.864-3.33 2.266a2.956 2.956 0 0 0-2.43 1.521 3.01 3.01 0 0 0 .042 2.888c-.927.41-1.531 1.458-1.433 2.47.098 1.013.892 1.926 1.876 2.152-.724.892-.647 2.336.161 3.15.808.814 2.241.885 3.126.156l5.851-12.373c.211-.984-.267-2.067-1.124-2.562Z"/><path fill="#FFBF9D" d="M250.125 68.751c-2.444-4.572-.99-10.27 3.337-13.095l.428-.283c4.812-2.753 9.82-.17 12.412 4.757l8.036 13.442 1.461 2.59-1.637 11.113-8.654-3.32-1.292-1.89s-4.91 2.21-7.846-2.25c-1.405-2.138-3.969-6.81-6.245-11.064Z"/><path fill="#FF9A6C" d="M264.237 82.08s2.908-1.671 4.685-5.515c0 0 .717 4.134-3.94 6.612l-.745-1.098Z"/><path fill="#263238" d="M254.087 72.07c.204.347.667.46 1.033.248.365-.212.491-.658.288-1.005a.75.75 0 0 0-1.026-.248.728.728 0 0 0-.295 1.005Zm-1.496-1.486c.133.036.386-.644 1.068-1.09.681-.453 1.412-.425 1.433-.56.014-.063-.162-.162-.485-.176a2.024 2.024 0 0 0-1.208.347 2.02 2.02 0 0 0-.787.97c-.105.304-.084.502-.021.51Zm7.558-2.044c.204.346.667.46 1.032.247.366-.212.492-.658.288-1.005a.748.748 0 0 0-1.025-.248.728.728 0 0 0-.295 1.005Zm-1.068-2.323c.134.035.387-.644 1.068-1.09.681-.453 1.412-.425 1.433-.56.014-.063-.162-.162-.485-.176a2.026 2.026 0 0 0-1.208.347 2.031 2.031 0 0 0-.787.97c-.105.297-.077.495-.021.509Zm1.033 6.591c-.021-.043-.499.162-1.244.523-.189.1-.372.17-.484.071-.127-.099-.169-.34-.218-.602-.112-.53-.225-1.09-.344-1.677-.506-2.378-.998-4.29-1.089-4.268-.098.02.239 1.967.752 4.346.126.58.253 1.14.372 1.67.063.24.091.545.351.75a.535.535 0 0 0 .457.071c.133-.035.232-.099.323-.148.709-.418 1.145-.694 1.124-.736Zm-2.304-8.558c.197.127.681-.418 1.405-.878.716-.474 1.419-.694 1.376-.92-.021-.106-.245-.191-.597-.177-.344.007-.814.135-1.243.41a2.51 2.51 0 0 0-.878.956c-.147.312-.154.552-.063.609Zm-6.28 4.345c.211.1.618-.34 1.208-.672.583-.354 1.159-.481 1.181-.722.007-.113-.162-.234-.464-.269a1.9 1.9 0 0 0-1.131.262c-.4.233-.674.573-.794.856-.119.284-.098.489 0 .545Z"/><path fill="#263238" d="M249.233 66.415s-.632-3.581.295-5.11c1.117-1.855 2.979-.51 4.25-1.96 1.271-1.452 2.339-3.229 4.699-3.052 2.585.191 2.367 1.65 3.758 3.575 5.619 7.8 8.556 9.13 6.526 5.047-.225-.446.716-1.53-.246-3.398-1.244-2.428-2.943-5.26-4.489-6.547-1.306-1.09-2.683-1.53-4.734-1.664-3.245-.22-6.273 1.706-8.183 3.25-1.904 1.521-4.32 6.455-1.876 9.86Z"/><path fill="#FFBF9D" d="M268.402 64.971c-.414-.715-.175-1.642.555-2.024.885-.46 2.115-.588 3.168 1.175 1.876 3.135-1.636 4.381-1.693 4.296a378.22 378.22 0 0 1-2.03-3.447Z"/><path fill="#FF9A6C" d="M270.397 66.833c.007-.022.077.007.197-.007a.629.629 0 0 0 .407-.241c.253-.319.218-1.012-.105-1.585a2.095 2.095 0 0 0-.618-.687c-.232-.17-.478-.24-.66-.17a.328.328 0 0 0-.232.347c.014.113.07.163.056.177-.007.014-.098-.014-.148-.156a.397.397 0 0 1 .007-.269.463.463 0 0 1 .253-.262c.253-.127.597-.035.857.142.274.17.527.432.71.757.358.644.393 1.43.021 1.833a.685.685 0 0 1-.548.22c-.141-.028-.204-.085-.197-.1Z"/><path fill="#263238" d="M264.525 59.061c-.218.53-.457 1.083-.906 1.444-.45.361-1.166.439-1.552.014-.176-.191-.281-.474-.527-.545-.295-.092-.562.17-.801.368-.822.673-2.135.63-2.922-.092-.007.489-.541.814-1.026.821-.484 0-.941-.22-1.404-.354-.464-.134-1.019-.163-1.384.156-.204.177-.33.453-.569.58-.422.227-.92-.12-1.236-.48-.316-.362-.668-.8-1.145-.794-.443 0-.773.383-1.11.68-.33.297-.864.517-1.194.22-.169-.156-.218-.411-.225-.645-.007-1.061.815-2.074 1.847-2.272-.351-1.21.085-2.612 1.054-3.405.976-.792 2.423-.927 3.526-.318a3.3 3.3 0 0 1 2.016-2.223 3.271 3.271 0 0 1 2.964.39 2.391 2.391 0 0 1 2.508-.638c.864.305 1.503 1.161 1.566 2.074.752-.042 1.574.199 1.988.829.421.63.211 1.663-.506 1.89.562.332.794 1.14.499 1.72-.295.587-1.082.863-1.679.601"/><path fill="#FF9A6C" d="M262.516 72.8c.042-.07.091-.149.176-.17.07-.014.147.021.21.064.513.34.836.955.815 1.578v.021c-.042.907-1.074 1.402-1.847.935l-.576-.347c.274-.481.941-1.607 1.222-2.081Z"/><path fill="#263238" d="M262.2 75.37c-.021.02.407.176.997-.128.141-.07.295-.213.394-.375.105-.156.203-.361.21-.588.015-.453-.161-.913-.442-1.31a3.035 3.035 0 0 0-.232-.29c-.091-.084-.204-.19-.386-.183-.183.014-.288.162-.337.254-.05.092-.106.184-.155.276-.182.34-.351.659-.513.956-.288.552-.449.899-.421.913.028.014.246-.304.569-.828.175-.29.358-.602.555-.934.105-.163.211-.418.309-.404.119-.007.281.191.4.375.26.368.422.793.422 1.161a1.014 1.014 0 0 1-.162.495.835.835 0 0 1-.309.333c-.499.312-.906.234-.899.276Z"/><path fill="#455A64" d="M265.705 56.597c.007-.014.225.22.19.715a1.21 1.21 0 0 1-.372.765 1.255 1.255 0 0 1-1.033.311l.119-.106c.021.36-.007.764-.119 1.16-.07.256-.176.503-.33.709a1.427 1.427 0 0 1-.576.46c-.415.212-.885.22-1.208.063-.323-.141-.527-.346-.661-.48-.133-.135-.189-.227-.182-.235.014-.014.091.057.239.17.147.114.358.29.653.404.569.255 1.658-.135 1.861-1.154.106-.375.134-.75.12-1.097l-.007-.127.119.02c.337.065.667-.056.885-.24.225-.184.33-.439.365-.651.071-.425-.091-.673-.063-.687Zm-10.255-3.255c.007.007-.063.07-.162.219-.098.149-.217.39-.21.715v.085l-.085-.036a4.503 4.503 0 0 0-2.247-.24c-.457.07-.935.233-1.37.516a3.002 3.002 0 0 0-1.054 1.21 2.999 2.999 0 0 0-.295 1.232c0 .411.092.807.26 1.147l.056.106-.105.036c-.541.17-.948.566-1.166.984a2.021 2.021 0 0 0-.211 1.203c.099.7.429 1.02.394 1.033-.007.007-.085-.063-.197-.226a2.102 2.102 0 0 1-.309-.786 2.096 2.096 0 0 1 .183-1.295c.224-.453.66-.892 1.25-1.09l-.056.134a2.68 2.68 0 0 1-.295-1.239c.007-.445.112-.898.316-1.323.26-.545.66-.998 1.131-1.295.463-.298.976-.46 1.454-.531a4.377 4.377 0 0 1 2.311.318l-.078.05c.014-.361.162-.609.281-.75.106-.135.197-.185.204-.177Z"/></g><defs><clipPath id="a"><path fill="#fff" d="M113 43h328v315H113z"/></clipPath></defs></svg>