<svg xmlns="http://www.w3.org/2000/svg" width="554" height="401" fill="none"><path fill="#fff" d="M0 0h515c21.539 0 39 17.46 39 39v362H0V0Z"/><g clip-path="url(#a)"><path fill="#F5F5F5" d="m248.711 74.318-2.659 3.805s5.984 1.651 5.984 6.948c0 5.296-3.653 6.285-7.642 6.285-3.99 0-7.811-1.157-7.643-6.453.168-5.296 5.151-7.275 5.151-7.275l-2.491-3.31h9.3Zm-71.577-5.601h-6.005v22.465h6.005V68.716Z"/><path fill="#EBEBEB" d="M171.282 62.947h-10.448v28.241h10.448v-28.24Z"/><path fill="#E0E0E0" d="M269.008 91.094H147.683v4.226h121.325v-4.226Z"/><path fill="#E0E0E0" d="M173.744 93.21h-3.302v10.979h3.302V93.211Zm65.36 0h-3.302v10.979h3.302V93.211Z"/><path fill="#EBEBEB" d="M218.567 80.785h-28.362v10.403h28.362V80.785Z"/><path fill="#F5F5F5" d="M190.205 56.015h-10.448v35.173h10.448V56.015Z"/><path fill="#EBEBEB" d="M179.757 62.947h-3.149v28.241h3.149v-28.24Zm41.228 14.696h-28.362v3.135h28.362v-3.135Z"/><path fill="#263238" d="M434 357.76c0 .102-70.518.189-157.489.189-87.008 0-157.511-.087-157.511-.189 0-.102 70.503-.189 157.504-.189 86.971-.008 157.496.08 157.496.189Zm-40.417-233.151H272.259v4.227h121.324v-4.227Z"/><path fill="#263238" d="M298.312 126.727h-3.302v10.977h3.302v-10.977Zm65.367 0h-3.302v10.977h3.302v-10.977Z"/><path fill="#E8505B" d="M294.696 114.14h5.742v8.257c-2.382 1.622-5.662 2.481-8.548 2.481-6.334 0-10.959-4.212-10.959-10.214 0-6.002 4.625-10.214 11.098-10.214 3.865 0 6.977 1.339 8.972 3.769l-4.23 3.71c-1.235-1.426-2.66-2.146-4.399-2.146-2.915 0-4.763 1.869-4.763 4.881 0 2.932 1.848 4.881 4.683 4.881.811 0 1.6-.138 2.411-.472v-4.933h-.007Zm7.576 2.648c0-4.634 3.726-7.9 8.913-7.9 5.217 0 8.914 3.266 8.914 7.9s-3.697 7.922-8.914 7.922c-5.187.008-8.913-3.288-8.913-7.922Zm11.405 0c0-1.979-1.096-2.983-2.492-2.983-1.402 0-2.491 1.004-2.491 2.983s1.096 3.012 2.491 3.012c1.396.007 2.492-1.026 2.492-3.012Zm7.598 0c0-4.634 3.726-7.9 8.913-7.9 5.217 0 8.914 3.266 8.914 7.9s-3.697 7.922-8.914 7.922c-5.187.008-8.913-3.288-8.913-7.922Zm11.405 0c0-1.979-1.096-2.983-2.492-2.983-1.402 0-2.491 1.004-2.491 2.983s1.096 3.012 2.491 3.012c1.396.007 2.492-1.026 2.492-3.012Zm25.366-13.058v20.704h-6.027v-1.258c-.928 1.033-2.302 1.535-4.201 1.535-4.011 0-7.401-3.012-7.401-7.923 0-4.91 3.39-7.9 7.401-7.9 1.68 0 2.973.422 3.894 1.309v-6.474h6.334v.007Zm-6.224 13.058c0-1.979-1.096-2.982-2.492-2.982-1.403 0-2.491 1.003-2.491 2.982 0 1.979 1.096 3.012 2.491 3.012 1.403.007 2.492-1.026 2.492-3.012Z"/><path fill="#000" d="M294.696 114.14h5.742v8.257c-2.382 1.622-5.662 2.481-8.548 2.481-6.334 0-10.959-4.212-10.959-10.214 0-6.002 4.625-10.214 11.098-10.214 3.865 0 6.977 1.339 8.972 3.769l-4.23 3.71c-1.235-1.426-2.66-2.146-4.399-2.146-2.915 0-4.763 1.869-4.763 4.881 0 2.932 1.848 4.881 4.683 4.881.811 0 1.6-.138 2.411-.472v-4.933h-.007Zm7.576 2.648c0-4.634 3.726-7.9 8.913-7.9 5.217 0 8.914 3.266 8.914 7.9s-3.697 7.922-8.914 7.922c-5.187.008-8.913-3.288-8.913-7.922Zm11.405 0c0-1.979-1.096-2.983-2.492-2.983-1.402 0-2.491 1.004-2.491 2.983s1.096 3.012 2.491 3.012c1.396.007 2.492-1.026 2.492-3.012Zm7.598 0c0-4.634 3.726-7.9 8.913-7.9 5.217 0 8.914 3.266 8.914 7.9s-3.697 7.922-8.914 7.922c-5.187.008-8.913-3.288-8.913-7.922Zm11.405 0c0-1.979-1.096-2.983-2.492-2.983-1.402 0-2.491 1.004-2.491 2.983s1.096 3.012 2.491 3.012c1.396.007 2.492-1.026 2.492-3.012Zm25.366-13.058v20.704h-6.027v-1.258c-.928 1.033-2.302 1.535-4.201 1.535-4.011 0-7.401-3.012-7.401-7.923 0-4.91 3.39-7.9 7.401-7.9 1.68 0 2.973.422 3.894 1.309v-6.474h6.334v.007Zm-6.224 13.058c0-1.979-1.096-2.982-2.492-2.982-1.403 0-2.491 1.003-2.491 2.982 0 1.979 1.096 3.012 2.491 3.012 1.403.007 2.492-1.026 2.492-3.012Z" opacity=".3"/><path fill="#E8505B" d="M291.671 114.14h5.743v8.257c-2.382 1.622-5.663 2.481-8.549 2.481-6.334 0-10.959-4.212-10.959-10.214 0-6.002 4.625-10.214 11.098-10.214 3.865 0 6.978 1.339 8.972 3.769l-4.23 3.71c-1.235-1.426-2.66-2.146-4.398-2.146-2.915 0-4.764 1.869-4.764 4.881 0 2.932 1.849 4.881 4.683 4.881.811 0 1.6-.138 2.411-.472v-4.933h-.007Zm7.576 2.648c0-4.634 3.726-7.9 8.914-7.9 5.216 0 8.913 3.266 8.913 7.9s-3.697 7.922-8.913 7.922c-5.188.008-8.914-3.288-8.914-7.922Zm11.405 0c0-1.979-1.096-2.983-2.491-2.983-1.403 0-2.492 1.004-2.492 2.983s1.096 3.012 2.492 3.012c1.395.007 2.491-1.026 2.491-3.012Zm7.598 0c0-4.634 3.726-7.9 8.914-7.9 5.216 0 8.913 3.266 8.913 7.9s-3.697 7.922-8.913 7.922c-5.188.008-8.914-3.288-8.914-7.922Zm11.405 0c0-1.979-1.096-2.983-2.491-2.983-1.403 0-2.492 1.004-2.492 2.983s1.096 3.012 2.492 3.012c1.395.007 2.491-1.026 2.491-3.012Zm25.367-13.058v20.704h-6.028v-1.258c-.928 1.033-2.301 1.535-4.201 1.535-4.011 0-7.401-3.012-7.401-7.923 0-4.91 3.39-7.9 7.401-7.9 1.681 0 2.974.422 3.894 1.309v-6.474h6.335v.007Zm-6.225 13.058c0-1.979-1.096-2.982-2.491-2.982-1.403 0-2.492 1.003-2.492 2.982 0 1.979 1.096 3.012 2.492 3.012 1.402.007 2.491-1.026 2.491-3.012Z"/><g fill="#fff" opacity=".4"><path d="M294.33 106.05c0 .015-.211-.036-.591-.029-.38.008-.936.095-1.564.364-1.278.487-2.652 1.95-4.712 2.59a9.59 9.59 0 0 1-5.356.138c-1.344-.364-2.06-.866-2.06-.866 0-.007.051.015.146.059l.402.189c.358.138.869.363 1.542.516a9.792 9.792 0 0 0 5.282-.174c2.016-.619 3.39-2.066 4.72-2.539.643-.262 1.22-.342 1.607-.328.38 0 .584.08.584.08Zm-9.132 6.061c0 .007-.088.051-.263.116a6.162 6.162 0 0 1-.745.233c-.636.175-1.535.342-2.543.364a11.336 11.336 0 0 1-2.557-.233 8.997 8.997 0 0 1-.753-.196c-.175-.059-.27-.095-.27-.102.007-.022.402.08 1.045.196.643.117 1.541.211 2.535.189a13.254 13.254 0 0 0 2.521-.32c.635-.145 1.023-.269 1.03-.247Zm11.616-2.947c.008.015-.248.153-.679.32a12.245 12.245 0 0 1-3.536.786c-.468.029-.753.022-.753 0s.285-.051.746-.109c.46-.058 1.088-.153 1.775-.306.687-.152 1.3-.334 1.739-.48.431-.138.701-.233.708-.211Zm-18.9 5.973c-.008-.007.065-.073.197-.182.131-.109.336-.255.606-.422a7.582 7.582 0 0 1 4.676-1.062c.307.036.563.073.731.116.168.044.263.066.256.08-.008.029-.38-.051-.994-.087a8.822 8.822 0 0 0-2.382.189 8.86 8.86 0 0 0-2.235.851c-.534.306-.833.539-.855.517Zm19.602 2.648c0 .014-.3.007-.804.145-.504.139-1.198.48-1.936 1.062-.745.568-1.52 1.405-2.601 2.067a5.872 5.872 0 0 1-3.967.72c-1.461-.248-2.63-1.077-3.66-1.775-1.023-.721-1.98-1.31-2.872-1.601-.891-.313-1.665-.334-2.184-.247-.519.087-.782.225-.789.211 0 0 .255-.16.782-.269.518-.109 1.322-.102 2.228.203.913.284 1.892.881 2.922 1.594 1.03.683 2.185 1.498 3.602 1.738a5.758 5.758 0 0 0 3.872-.691c1.06-.64 1.841-1.469 2.609-2.03.752-.582 1.468-.909 1.987-1.033.511-.138.811-.094.811-.094Zm.058-2.765c.008.007-.058.073-.175.189-.117.117-.3.269-.526.459-.46.371-1.125.844-1.944 1.236-.818.393-1.621.597-2.213.633a3.676 3.676 0 0 1-.702 0c-.168-.014-.255-.029-.255-.043 0-.029.365.007.942-.066.577-.065 1.359-.276 2.163-.662a11.746 11.746 0 0 0 1.936-1.186c.482-.342.76-.574.774-.56Zm-2.045 8.636c0 .007-.183-.007-.505-.044-.416-.043-.869-.094-1.373-.152a58.843 58.843 0 0 0-4.552-.27 60.218 60.218 0 0 0-4.559.088c-.504.036-.964.065-1.381.094-.328.022-.504.037-.511.022 0-.007.175-.036.504-.08.322-.044.797-.094 1.381-.145a45.449 45.449 0 0 1 9.133.181c.584.073 1.052.139 1.373.197.314.065.49.102.49.109Zm17.892-13.611c-.007.014-.197-.066-.562-.109-.358-.044-.899-.029-1.527.167-1.279.349-2.623 1.673-4.479 2.517a14.034 14.034 0 0 1-4.99 1.288c-.665.051-1.198.029-1.571.014-.146-.014-.292-.029-.424-.036-.095-.007-.146-.022-.146-.022 0-.007.051-.007.146-.007.139 0 .278.007.424.007.365-.007.906 0 1.556-.058a14.842 14.842 0 0 0 4.939-1.317c1.819-.829 3.178-2.146 4.508-2.488.643-.189 1.198-.189 1.564-.124.379.059.562.168.562.168Zm2.309 2.073s-.197.153-.614.299c-.416.145-1.059.254-1.848.269-.789.014-1.725.007-2.747.153-1.031.13-2.148.363-3.295.705-2.295.677-4.267 1.601-5.692 2.263-.643.305-1.205.574-1.68.8-.168.08-.314.145-.46.211-.103.051-.161.073-.169.065 0-.007.052-.036.154-.094.139-.073.285-.153.446-.24.467-.24 1.022-.517 1.658-.844 1.41-.691 3.383-1.63 5.691-2.314a20.27 20.27 0 0 1 3.317-.698c1.038-.131 1.98-.116 2.762-.116s1.417-.095 1.834-.219c.424-.123.636-.254.643-.24Zm-8.146 7.551c.007.008-.095.073-.278.168-.19.094-.468.211-.826.32-.716.218-1.768.327-2.907.189-1.14-.138-2.134-.444-2.835-.677a24.992 24.992 0 0 1-.833-.291c-.197-.072-.3-.116-.3-.131 0-.007.117.015.315.073.277.08.562.16.847.248.716.203 1.702.487 2.82.625 1.118.138 2.148.044 2.864-.145.716-.182 1.125-.408 1.133-.379Zm9.775-3.492c-.007.029-.387-.029-1.016-.058a11.57 11.57 0 0 0-2.425.153c-.935.167-1.761.443-2.331.683-.577.241-.92.43-.928.401-.007-.008.073-.066.227-.153.146-.095.373-.211.657-.349a9.419 9.419 0 0 1 2.353-.735 9.987 9.987 0 0 1 2.462-.117c.314.03.57.066.738.102.175.037.27.058.263.073Zm-1.315 4.802s-.132.152-.431.334c-.3.182-.789.386-1.425.466-.628.087-1.395.044-2.221-.073-.825-.116-1.731-.247-2.681-.182-1.907.138-3.565.735-4.778 1.055-.607.167-1.103.291-1.447.364a9.87 9.87 0 0 1-.402.073c-.095.014-.138.021-.138.014 0-.007.182-.058.526-.145.336-.095.832-.226 1.432-.408 1.205-.342 2.856-.96 4.8-1.098.971-.066 1.892.073 2.71.196.818.124 1.564.182 2.185.102a3.877 3.877 0 0 0 1.402-.407c.315-.175.461-.306.468-.291Zm18.148-9.342c-.007.015-.226-.058-.628-.152a8.202 8.202 0 0 0-1.746-.182c-.738 0-1.622.094-2.579.32-.957.225-1.973.589-3.025 1.018-2.09.881-3.975 1.739-5.428 2.117a11.39 11.39 0 0 1-1.739.349c-.417.051-.651.044-.651.044 0-.014.227-.036.643-.102.41-.065 1.001-.189 1.717-.393 1.44-.4 3.303-1.265 5.399-2.153 1.053-.429 2.083-.793 3.054-1.011a10.68 10.68 0 0 1 2.616-.291 7.734 7.734 0 0 1 1.753.233c.41.102.614.203.614.203Zm-3.952-2.233c.007.007-.117.08-.351.196-.227.117-.563.27-.986.451-.848.35-2.053.757-3.427 1.026a18.33 18.33 0 0 1-3.565.349c-.461 0-.833-.014-1.089-.036s-.394-.036-.394-.051c0-.007.146-.014.394-.014.256.007.628 0 1.081-.008a21.151 21.151 0 0 0 6.956-1.375c.424-.16.767-.298 1.001-.4.241-.094.372-.145.38-.138Z" opacity=".4"/><path d="M335.814 114.322c0 .008-.066-.014-.183-.043l-.511-.16c-.453-.124-1.096-.32-1.922-.466a17.942 17.942 0 0 0-6.473-.044c-2.513.444-4.624 1.448-6.1 2.197-.68.357-1.257.67-1.746.932-.176.094-.329.174-.475.254-.11.058-.168.088-.168.08 0-.007.051-.043.153-.109.139-.087.292-.174.46-.276.402-.24.987-.575 1.725-.975 1.468-.779 3.587-1.812 6.129-2.255a17.294 17.294 0 0 1 6.525.087c1.636.335 2.586.778 2.586.778Zm-10.353 4.351c.008.007-.08.05-.241.116-.16.065-.394.153-.686.247a13.547 13.547 0 0 1-4.742.597 8.783 8.783 0 0 1-.723-.066c-.168-.021-.263-.043-.263-.051 0-.021.38 0 .986.015.606.007 1.454-.015 2.374-.131a17.09 17.09 0 0 0 2.331-.466c.599-.167.957-.283.964-.261Zm10.638-1.87c-.007.022-.365-.029-.943-.08a12.782 12.782 0 0 0-4.5.444c-.563.16-.899.283-.913.262-.008-.008.08-.051.226-.117.154-.065.373-.153.65-.247a10.767 10.767 0 0 1 2.251-.473 10.672 10.672 0 0 1 2.294.022c.292.036.526.073.687.116.16.037.248.058.248.073Zm-.621 2.67c0 .015-.226.029-.628.095a9.25 9.25 0 0 0-1.659.465c-.679.255-1.468.626-2.345 1.041-.877.407-1.863.844-2.959 1.098-2.192.539-4.267.4-5.699.088a12.611 12.611 0 0 1-1.665-.488c-.154-.065-.3-.124-.439-.182-.102-.043-.146-.065-.146-.072 0-.008.059.007.161.043a13.882 13.882 0 0 0 2.111.589c1.425.284 3.478.408 5.641-.123 1.081-.248 2.053-.677 2.937-1.077.876-.4 1.673-.771 2.367-1.011a8.193 8.193 0 0 1 1.687-.422c.402-.058.636-.044.636-.044Zm19.829-7.166c0 .007-.066.014-.19.014-.168.008-.344.015-.541.022-.468.015-1.154.007-1.995-.014-1.68-.029-4.003-.204-6.56-.037-2.557.175-4.815.866-6.262 1.695a9.792 9.792 0 0 0-1.629 1.121c-.358.305-.541.487-.548.48 0 0 .168-.204.512-.524.343-.32.884-.742 1.614-1.171 1.454-.866 3.734-1.586 6.305-1.754 2.572-.167 4.895.03 6.576.08.84.037 1.519.051 1.987.059.197 0 .373.007.541.007.124.015.19.015.19.022Zm-.212-5.368s-.102.218-.358.582c-.249.363-.687.836-1.308 1.316-1.249.975-3.361 1.761-5.764 1.979-2.397.211-4.567.131-6.13.306-.782.072-1.403.167-1.834.254-.219.037-.38.08-.497.102-.109.022-.175.029-.175.029 0-.007.058-.022.168-.058.109-.029.277-.087.489-.131a15.543 15.543 0 0 1 1.834-.306c1.564-.196 3.741-.138 6.123-.349 2.374-.218 4.464-.975 5.713-1.913 1.271-.924 1.695-1.848 1.739-1.811Zm-.351-3.114c.007.007-.051.094-.175.262-.117.16-.307.385-.548.654a13.55 13.55 0 0 1-2.104 1.863 13.553 13.553 0 0 1-2.448 1.375c-.329.138-.606.24-.796.298-.19.058-.3.087-.3.08-.007-.022.409-.175 1.052-.48.65-.299 1.52-.771 2.404-1.397a16.131 16.131 0 0 0 2.111-1.811c.497-.517.782-.859.804-.844Zm-11.01 13.335c0 .021-.351.007-.913.029-.563.022-1.337.102-2.163.313-.826.211-1.549.509-2.046.756-.504.247-.796.429-.811.415-.007-.007.066-.066.19-.153a6.12 6.12 0 0 1 .57-.349 8.86 8.86 0 0 1 4.26-1.091c.285 0 .511.014.672.036.153.015.241.029.241.044Zm11.492 1.542c-.007.022-.35-.094-.898-.284-.548-.189-1.315-.443-2.163-.713a66.945 66.945 0 0 0-2.184-.632c-.563-.153-.914-.255-.906-.277.007-.022.358.044.935.167.57.131 1.351.335 2.206.597.855.262 1.615.538 2.155.757.534.218.863.371.855.385Zm.066 2.131c-.015.015-.161-.182-.511-.436-.351-.255-.921-.539-1.688-.655-.76-.131-1.695-.058-2.689.204-.993.247-2.06.654-3.229.916a17.56 17.56 0 0 1-6.079.313 14.15 14.15 0 0 1-1.819-.335c-.212-.05-.372-.101-.482-.131-.11-.029-.168-.05-.168-.058 0-.007.058.008.175.029.154.029.314.066.49.102.424.088 1.045.197 1.819.284 1.542.167 3.719.189 6.035-.357 1.154-.261 2.221-.662 3.229-.902 1.001-.254 1.965-.32 2.74-.174.782.131 1.359.444 1.702.713.344.283.475.487.475.487Zm-.343 2.437c-.008.022-.351-.102-.921-.24a10.817 10.817 0 0 0-2.265-.313 10.548 10.548 0 0 0-2.279.189c-.577.109-.928.218-.935.189 0-.007.08-.043.233-.102a7.23 7.23 0 0 1 .673-.196 8.967 8.967 0 0 1 4.595.131c.285.087.511.167.665.233.153.058.241.102.234.109Z" opacity=".4"/></g><path fill="#E8505B" d="M377.561 96.695a44.027 44.027 0 0 1 4.88-9.217c.665-.96 1.425-1.942 2.521-2.357 1.834-.698 3.821.422 5.465 1.499 1.264.829 2.535 1.658 3.799 2.488.226.145.468.32.504.582.073.465-.519.734-.986.793a6.813 6.813 0 0 1-4.61-1.135c-1.023-.699-2.017-1.739-3.252-1.608-1.534.16-2.221 1.935-2.812 3.354a15.121 15.121 0 0 1-6.466 7.253"/><path fill="#E8505B" d="M377.554 97.321c.292-7.566.591-15.197 2.418-22.552 1.826-7.355 5.297-14.506 11.017-19.497-.752 6.38-3.083 12.455-5.391 18.45-3.106 8.075-6.211 16.157-9.323 24.232m-.051 2.125a83.954 83.954 0 0 0-5.772-20.042c-.402-.939-.877-1.928-1.753-2.46-1.301-.778-2.967-.269-4.355.35a35.567 35.567 0 0 0-9.067 5.827c-.211.19-.438.4-.482.676-.073.415.293.808.709.924.409.11.847.015 1.264-.08 2.535-.582 5.07-1.163 7.598-1.753.767-.174 1.593-.349 2.331-.058.891.35 1.388 1.273 1.819 2.132 2.491 4.99 4.975 9.988 7.467 14.978"/><path fill="#000" d="M377.561 96.695a44.027 44.027 0 0 1 4.88-9.217c.665-.96 1.425-1.942 2.521-2.357 1.834-.698 3.821.422 5.465 1.499 1.264.829 2.535 1.658 3.799 2.488.226.145.468.32.504.582.073.465-.519.734-.986.793a6.813 6.813 0 0 1-4.61-1.135c-1.023-.699-2.017-1.739-3.252-1.608-1.534.16-2.221 1.935-2.812 3.354a15.121 15.121 0 0 1-6.466 7.253" opacity=".4"/><path fill="#000" d="M377.554 97.321c.292-7.566.591-15.197 2.418-22.552 1.826-7.355 5.297-14.506 11.017-19.497-.752 6.38-3.083 12.455-5.391 18.45-3.106 8.075-6.211 16.157-9.323 24.232" opacity=".4"/><path fill="#000" d="M376.224 100.079a83.954 83.954 0 0 0-5.772-20.042c-.402-.939-.877-1.928-1.753-2.46-1.301-.778-2.967-.269-4.355.35a35.567 35.567 0 0 0-9.067 5.827c-.211.19-.438.4-.482.676-.073.415.293.808.709.924.409.11.847.015 1.264-.08 2.535-.582 5.07-1.163 7.598-1.753.767-.174 1.593-.349 2.331-.058.891.35 1.388 1.273 1.819 2.132 2.491 4.99 4.975 9.988 7.467 14.978" opacity=".3"/><path fill="#E8505B" d="M387.775 43s-9.878 10.548-10.594 26.662c-.716 16.114-1.666 27.732-1.666 27.732h1.783s3.572-32.468 5.947-38.157c2.389-5.689 6.079-13.749 4.53-16.237Z"/><path fill="#263238" d="M387.775 43c.007.008-.066.182-.227.517-.168.356-.402.844-.687 1.455a105.723 105.723 0 0 0-2.316 5.427 111.408 111.408 0 0 0-2.856 8.271c-.95 3.15-1.863 6.664-2.484 10.41-.322 1.87-.468 3.718-.607 5.508-.131 1.79-.241 3.513-.336 5.157-.19 3.296-.394 6.257-.672 8.745a63.6 63.6 0 0 1-.877 5.849c-.131.683-.263 1.215-.35 1.571-.088.356-.139.546-.146.538-.015 0 .014-.196.08-.552.066-.364.175-.888.285-1.58a75.38 75.38 0 0 0 .767-5.848c.241-2.48.424-5.442.599-8.737.088-1.644.19-3.376.314-5.165.132-1.79.278-3.652.599-5.536.629-3.769 1.549-7.29 2.521-10.447a100.448 100.448 0 0 1 2.93-8.272c.942-2.313 1.79-4.146 2.418-5.398.307-.625.577-1.098.745-1.425.197-.328.292-.495.3-.488Z"/><path fill="#E8505B" d="M394.416 58.088s-12.055 11.458-13.414 22.268-2.06 16.601-2.06 16.601h1.191s2.856-15.408 6.546-20.26c3.689-4.852 8.57-17.307 7.737-18.61Z"/><path fill="#263238" d="M394.27 58.837c.007.007-.051.131-.176.364-.146.262-.328.596-.562 1.011l-2.104 3.696c-1.761 3.128-4.209 7.457-6.422 12.462-2.221 5.005-3.646 9.77-4.311 13.29a51.5 51.5 0 0 0-.65 4.191c-.066.495-.088.888-.124 1.15-.03.261-.052.4-.066.4-.015 0-.015-.139-.007-.408.014-.262.014-.655.058-1.157a38.38 38.38 0 0 1 .548-4.226c.614-3.55 2.009-8.359 4.237-13.379 2.222-5.027 4.706-9.34 6.525-12.44.913-1.55 1.666-2.793 2.199-3.644.256-.4.453-.728.614-.982.146-.219.226-.335.241-.328Z"/><path fill="#E8505B" d="M371.117 60.103s-1.783 22.633 2.382 36.142h1.424s.957-29.267-3.806-36.142Z"/><path fill="#263238" d="M372.103 64.38c.015 0 .029.11.059.321.029.247.058.553.095.917.073.85.175 1.986.292 3.375.234 2.852.541 6.795.847 11.152.315 4.358.578 8.301.753 11.16.08 1.39.146 2.532.19 3.383.014.37.022.67.036.924.008.21 0 .32-.007.32-.015 0-.029-.11-.058-.32-.03-.248-.059-.553-.095-.917-.073-.851-.176-1.986-.293-3.375-.233-2.852-.54-6.795-.847-11.153-.314-4.357-.577-8.3-.753-11.16-.08-1.389-.138-2.531-.19-3.382-.014-.371-.021-.67-.036-.924-.007-.204 0-.32.007-.32Z"/><path fill="#455A64" d="M368.282 94.935s4.369 3.128 4.15 4.576c-.226 1.448-10.762 9.268-10.09 15.401.673 6.14 5.721 10.381 14.349 10.046 8.629-.334 14.459-5.696 13.677-11.159-.781-5.471-9.351-14.165-9.446-14.586-.278-1.2 3.843-4.285 3.843-4.285h-16.483v.007Z"/><path fill="#FAFAFA" d="M383.997 102.865c0 .094-3.185.167-7.108.167-3.931 0-7.109-.073-7.109-.167 0-.095 3.185-.168 7.109-.168 3.923 0 7.108.08 7.108.168Zm1.001 1.491c0 .094-3.748.167-8.38.167-4.624 0-8.38-.073-8.38-.167 0-.095 3.748-.168 8.38-.168 4.632 0 8.38.073 8.38.168Zm1.513 1.637c0 .094-4.435.167-9.9.167-5.465 0-9.9-.073-9.9-.167 0-.095 4.428-.168 9.9-.168 5.465.007 9.9.08 9.9.168Zm1.337 2.19c0 .095-5.107.167-11.412.167-6.305 0-11.412-.072-11.412-.167 0-.095 5.107-.167 11.412-.167 6.305.007 11.412.08 11.412.167Z"/><path fill="#FFBE9D" d="M341.535 180.749c.263 6.234 6.4 7.005 6.4 7.005s.175 4.322.263 8.337c.088 3.674 3.098 6.606 6.787 6.606H355c3.777 0 6.831-3.063 6.809-6.824v-28.03c0-5.674-4.668-10.257-10.375-10.163h-.043c-5.626.095-10.119 4.7-10.039 10.309l.183 12.76Z"/><path fill="#EB996E" d="M347.935 187.754s3.901.102 7.912-2.662c0 0-1.76 4.539-7.854 4.176l-.058-1.514Zm.358-7.267a.739.739 0 0 1 .073-.735.739.739 0 0 1 .672-.298c.037-.568.599-1.041 1.169-1.019.57.022 1.081.495 1.184 1.062.102.561-.19 1.164-.665 1.477-.482.313-1.118.342-1.651.124-.417-.175-.782-.531-.833-.975"/><path fill="#263238" d="M342.514 171.429c-.015.451.358.837.825.859.475.021.87-.32.884-.771.015-.451-.35-.837-.825-.866-.468-.015-.87.327-.884.778Zm-.183-.96c.11.109.753-.371 1.681-.364.92-.007 1.6.466 1.702.35.051-.051-.059-.248-.351-.466a2.335 2.335 0 0 0-1.359-.415c-.577 0-1.059.211-1.337.43-.292.211-.394.414-.336.465Zm9.22 1.179c-.014.451.351.836.826.858.475.022.869-.32.884-.771.015-.451-.358-.837-.826-.866-.467-.022-.869.327-.884.779Zm-.153-1.004c.11.109.76-.364 1.68-.364.921-.007 1.6.459 1.703.349.051-.05-.059-.247-.351-.465a2.335 2.335 0 0 0-1.359-.415c-.577 0-1.059.211-1.337.429-.292.211-.387.415-.336.466Zm-3.346 6.809c.007-.051-.57-.153-1.498-.269-.234-.022-.46-.073-.497-.233-.058-.167.044-.422.161-.698.219-.568.453-1.164.694-1.79.964-2.546 1.666-4.634 1.564-4.671-.103-.036-.972 1.994-1.937 4.54-.233.626-.453 1.222-.664 1.797-.088.269-.241.567-.125.924a.584.584 0 0 0 .388.342c.153.043.285.051.401.058.928.051 1.506.051 1.513 0Zm2.71.64c-.153-.007-.153.989-1.008 1.695-.855.713-1.921.596-1.929.735-.014.065.241.196.687.203a2.483 2.483 0 0 0 1.615-.56c.526-.436.745-1.011.781-1.426.037-.407-.073-.654-.146-.647Zm.22-9.5c.087.247 1.015.131 2.096.262 1.089.109 1.958.421 2.105.196.065-.109-.088-.342-.439-.582-.35-.24-.906-.473-1.556-.546-.65-.072-1.242.029-1.637.189-.409.161-.606.357-.569.481Zm-8.315-.786c.161.211.797-.007 1.564-.015.767-.036 1.41.139 1.563-.08.066-.109-.036-.312-.321-.509-.278-.196-.745-.356-1.272-.342-.526.015-.979.204-1.249.422-.27.211-.358.422-.285.524Z"/><path fill="#263238" d="M343.054 161.863c1.323 2.677 4.727 4.14 7.591 3.252 1.732-.538 3.42-1.826 5.166-1.317 1.549.451 2.367 2.19 2.506 3.791.146 1.6-.183 3.222.007 4.823.19 1.6 1.125 3.302 2.711 3.615.343.066.745.044.971-.218.19-.218.205-.531.205-.815.022-1.855.036-3.717.058-5.572.03-2.983.008-6.169-1.644-8.657-1.132-1.71-2.951-2.91-4.916-3.499-1.966-.597-4.077-.612-6.108-.291-1.6.254-3.2.727-4.545 1.629-1.344.902-2.791 3.885-3.119 5.471"/><path fill="#FFBE9D" d="M360.026 172.594c.183-.669.965-1.062 1.652-.953.686.109 1.256.618 1.614 1.215.636 1.062.636 2.495-.08 3.507-.716 1.011-2.148 1.484-3.295 1.003"/><path fill="#263238" d="M358.032 159.375c1.6-1.811 3.594-4.896 7.474-4.707 3.719.182 4.866 2.518 5.531 4.838.204.72.255 1.477.518 2.175.263.699.833 1.361 1.578 1.426.636.058 1.213-.305 1.798-.553.584-.247 1.359-.334 1.768.153.307.364.27.902.212 1.375-.154 1.28-.344 2.626-1.14 3.638-.796 1.011-2.44 1.484-3.405.618.789.153 1.279 1.055 1.147 1.84-.138.786-.774 1.426-1.512 1.746-.738.32-1.556.371-2.36.364-1.322-.022-2.71-.233-3.733-1.062-1.14-.924-1.6-2.437-1.849-3.878-.248-1.44-.343-2.939-.979-4.255-.643-1.317-2.016-2.423-3.47-2.19m-10.024-3.942s-11.733-1.761-8.417 9.675l3.909-.225-.394-1.695 1.534 1.92 6.583.226-.402-2.095 1.541 2.095 4.136-.451c.007-.007 2.053-9.21-8.49-9.45Z"/><path fill="#E8505B" d="M361.225 163.02c-.117.015-.066-1.346-.936-2.655-.854-1.317-2.126-1.811-2.067-1.913.014-.044.35.014.833.269a4.315 4.315 0 0 1 1.556 1.433c.46.706.657 1.455.701 1.993.037.546-.044.873-.087.873Z"/><path fill="#455A64" d="M347.679 164.613c-.044.022-.314-.429-.672-1.2-.343-.764-.796-1.914-.716-3.259.044-.67.219-1.303.519-1.805a3.246 3.246 0 0 1 1.074-1.105c.774-.466 1.366-.371 1.351-.335.015.066-.54.08-1.198.56-.321.24-.665.589-.92 1.055-.256.458-.41 1.04-.446 1.651-.073 1.244.314 2.35.592 3.136.285.786.467 1.28.416 1.302Z"/><path fill="#455A64" d="M350.806 163.442c-.036.03-.343-.225-.716-.749a6.593 6.593 0 0 1-1.001-2.291c-.212-.961-.19-1.87-.073-2.496.11-.633.285-.996.322-.982.116.022-.307 1.557.124 3.398.402 1.84 1.439 3.048 1.344 3.12Z"/><path fill="#263238" d="M363.716 176.014c0-.044.541.189.701 1.004.066.385.029.902-.299 1.353-.322.458-.965.705-1.586.625-.621-.072-1.183-.465-1.388-.989a1.75 1.75 0 0 1 .037-1.382c.35-.75.935-.851.92-.808.037.058-.438.24-.672.91-.11.32-.146.749.037 1.142.168.392.606.691 1.11.756.504.058 1.001-.123 1.264-.465.27-.335.336-.764.314-1.106-.073-.699-.489-.997-.438-1.04Z"/><path fill="#455A64" d="M375.369 158.212c.007-.008.088.058.19.218.102.16.219.429.241.793.015.364-.066.822-.351 1.266-.277.443-.811.822-1.468.945-.65.124-1.403.03-2.09-.334-.686-.364-1.278-.96-1.738-1.673-.958-1.426-1.301-3.289-2.295-4.875-.496-.792-1.176-1.418-1.98-1.745-.803-.342-1.673-.401-2.462-.291-1.622.218-2.82 1.251-3.448 2.291a6.233 6.233 0 0 0-.921 2.743c-.065.691-.022 1.076-.051 1.084-.014 0-.036-.095-.058-.277a5.866 5.866 0 0 1-.037-.815 6.11 6.11 0 0 1 .84-2.873 5.377 5.377 0 0 1 1.396-1.572 5.12 5.12 0 0 1 2.236-.931c.847-.123 1.782-.065 2.659.299.884.356 1.636 1.054 2.155 1.884 1.052 1.68 1.374 3.528 2.272 4.888.431.684.979 1.244 1.6 1.586.614.342 1.308.444 1.893.342.591-.094 1.074-.407 1.337-.8a1.99 1.99 0 0 0 .38-1.142c-.022-.691-.344-.997-.3-1.011Zm30.021 74.275c3.273-.524 6.663.909 8.986 3.252 2.323 2.35 3.675 5.514 4.362 8.737.679 3.23.738 6.547.796 9.843.044 2.67.095 5.332.139 8.002.029 1.506.029 3.099-.753 4.379-1.234 2.023-3.894 2.547-6.246 2.874-2.433.342-4.903.677-7.343.356-2.44-.32-4.88-1.396-6.312-3.382-1.483-2.052-1.695-4.736-1.746-7.268a85.032 85.032 0 0 1 4.259-28.146"/><path fill="#263238" d="m363.793 347.555 5.341-.003-.034-63.75-5.341.003.034 63.75Z"/><path fill="#263238" d="M328.632 286.685h76.429c0-4.561-3.712-8.264-8.3-8.264h-59.836c-4.581.007-8.293 3.703-8.293 8.264Z"/><path fill="#263238" d="M361.254 286.853c0 .109 2.097.196 4.69.196 2.587 0 4.691-.087 4.691-.196 0-.109-2.097-.197-4.691-.197-2.593 0-4.69.088-4.69.197Zm-18.17 66.492h.752c-.007-12.484 10.192-22.647 22.729-22.654 12.537-.008 22.744 10.148 22.751 22.632h.753c-.008-12.899-10.55-23.389-23.504-23.382-12.953 0-23.489 10.505-23.481 23.404Z"/><path fill="#263238" d="M386.153 354.494a3.515 3.515 0 0 0 3.521 3.506 3.516 3.516 0 0 0 3.522-3.506 3.516 3.516 0 0 0-3.522-3.507 3.516 3.516 0 0 0-3.521 3.507Zm-46.408-.488a3.516 3.516 0 0 0 3.521 3.507 3.516 3.516 0 0 0 3.522-3.507 3.516 3.516 0 0 0-3.522-3.506 3.515 3.515 0 0 0-3.521 3.506Zm3.565-6.438c0 .109 10.221.189 22.832.182 12.61-.008 22.831-.102 22.831-.211s-10.221-.189-22.831-.182c-12.611.007-22.832.102-22.832.211Zm64.001-126.881v46.93c0 6.155-5.012 11.145-11.193 11.145H359.8l4.932-58.075c0-2.742 2.235-4.968 4.99-4.968h32.599c2.754 0 4.99 2.226 4.99 4.968Z"/><path fill="#455A64" d="M394.467 278.428c-.007-.007.022-.051.08-.138.073-.102.161-.233.263-.386a27.77 27.77 0 0 0 1.001-1.491 24.633 24.633 0 0 0 2.704-5.98c.401-1.331.73-2.816.898-4.438.19-1.615.146-3.368.146-5.209-.007-3.688-.007-7.74-.014-11.996l.058-21.795c.022-2.765.044-5.012.059-6.606.014-.756.029-1.353.036-1.797.015-.407.022-.625.037-.625.014 0 .029.218.036.625.008.444.022 1.041.037 1.797.014 1.594.036 3.841.058 6.606.015 5.609.037 13.298.059 21.795-.008 4.256-.008 8.308-.015 11.996-.007 1.841.029 3.609-.183 5.246a24.077 24.077 0 0 1-.957 4.481 23.485 23.485 0 0 1-2.842 5.98 23.279 23.279 0 0 1-1.059 1.455c-.241.327-.387.487-.402.48Z"/><path fill="#455A64" d="M374.697 278.449c0-.029.409-.051 1.154-.065.811-.007 1.871-.022 3.149-.037 2.66-.014 6.327-.007 10.382.015 2.024.022 3.96.022 5.713.065 1.754.03 3.368.124 4.662.51 1.307.356 2.243.974 2.805 1.462.285.24.482.451.607.604.131.145.19.233.182.24-.036.029-.292-.291-.884-.735a7.487 7.487 0 0 0-2.783-1.317c-1.272-.334-2.842-.407-4.603-.414-1.761-.015-3.69-.022-5.714-.037a760.404 760.404 0 0 1-10.374-.131c-1.279-.036-2.338-.058-3.149-.08-.738-.022-1.147-.051-1.147-.08Zm16.373-62.73c-5.334 49.374 16.964 45.86 16.964 45.86l-.153 3.521c-30.335-.56-20.377-49.374-20.377-49.374h3.566v-.007Z"/><path fill="#263238" d="M413.207 259.193c.029.029-.329.436-1.037.931-.702.494-1.79 1.047-3.076 1.36-1.293.306-2.506.306-3.361.182-.855-.124-1.359-.32-1.344-.356.014-.124 2.111.429 4.617-.19 2.521-.589 4.135-2.029 4.201-1.927Zm.738 3.463c.029.029-.329.436-1.038.931-.701.494-1.79 1.047-3.075 1.36-1.294.306-2.506.306-3.361.182-.855-.124-1.359-.32-1.344-.356.014-.124 2.111.429 4.617-.19 2.513-.589 4.128-2.029 4.201-1.927Z"/><path fill="#263238" d="M413.01 269.567c0-.021.131-.029.351-.131.219-.101.496-.341.708-.749.219-.407.373-.953.504-1.608.146-.647.285-1.396.409-2.226.534-3.31.629-7.973.066-13.058-.27-2.546-.584-4.969-1.176-7.1-.585-2.132-1.469-3.936-2.477-5.267a10.878 10.878 0 0 0-2.856-2.699c-.79-.502-1.286-.691-1.272-.72.008-.015.132.029.366.116.233.087.569.24.979.48.818.473 1.95 1.31 2.995 2.663 1.059 1.331 1.995 3.172 2.601 5.332.621 2.161.95 4.598 1.22 7.151.563 5.115.431 9.821-.175 13.146-.139.829-.3 1.579-.468 2.233-.146.648-.329 1.222-.577 1.63-.248.422-.57.662-.811.749-.248.08-.387.058-.387.058Z"/><path fill="#263238" d="M419.68 256.167c.059.08-.782.625-1.98.676-1.198.066-2.082-.4-2.038-.487.036-.109.913.167 2.016.109 1.104-.044 1.958-.4 2.002-.298Z"/><path fill="#FFBE9D" d="M381.703 255.993s-55.898-11.661-61.312-9.108c-5.414 2.554-25.023 67.329-25.023 67.329l12.15 4.648 21.597-52.568s41.768 15.219 48.607 13.808c6.831-1.411 3.981-24.109 3.981-24.109Z"/><path fill="#FFBE9D" d="M356.717 259.267c-.855.283-33.192 13.516-35.471 17.772-2.28 4.256 5.969 75.003 5.969 75.003h13.699l-1.264-64.083 38.064-7.865-20.997-20.827Z"/><path fill="#E8505B" d="m380.856 252.042-.322-.029c-1.103-4.903-2.966-9.268-5.457-13.174l.789-19.686h8.095l-2.871-14.361c-1.951-10.803-16.081-12.36-18.346-12.534v-1.943h-14.919l-.036 1.615c-3.01-.043-9.484.51-13.911 5.478-6.152 6.904-13.699 15.059-13.699 15.059l5.772 14.448 13.662-11.225s-1.834 2.961-1.834 6.533c0 3.826 4.011 5.594 4.011 5.594l1.228 11.647-1.688 7.77c-4.442-.968-9.6-1.877-12.084-2.088-3.975-.328-8.19.429-11.317 2.895-3.712 2.932-5.304 7.697-7.058 12.076a94.01 94.01 0 0 1-9.439 17.78c-1.242 1.833-2.572 3.674-3.105 5.82-.534 2.146-.066 4.707 1.739 5.994 1.833 1.31 4.369.924 6.517 1.615 3.689 1.193 5.523 5.209 6.97 8.796 1.454 3.586 3.412 7.58 7.152 8.599 3.734 1.011 8.095-1.361 11.405.625 1.907 1.142 2.798 3.376 3.909 5.296 1.118 1.921 3.01 3.827 5.209 3.485 2.93-.458 3.755-4.256 3.602-7.202-.249-4.838.92-10.207-.87-14.717-.818-2.066-.314-5.98.804-7.908l2.163-.473c9.79-2.153 12.515-3.223 20.303-4.656 3.931-.727 13.903-3.586 13.903-3.586s3.317-4.125 3.303-15.146c0-4.416-.212-8.155-3.58-12.397Z"/><path fill="#FAFAFA" d="M380.878 203.032c-.008.051-.775-.204-2.192-.233-1.417-.044-3.485.313-5.808 1.331-1.169.502-2.397 1.157-3.683 1.928-1.278.771-2.622 1.659-4.076 2.517-1.454.859-3.032 1.71-4.793 2.321-1.746.618-3.712.931-5.684.669-1.973-.255-3.777-1.033-5.392-1.935-1.615-.909-3.047-1.979-4.391-2.99-2.674-2.044-5.158-3.827-7.562-4.678-2.382-.88-4.508-.916-5.888-.647-1.403.262-2.083.698-2.105.647 0 0 .658-.48 2.075-.793 1.403-.32 3.573-.327 6.006.539 2.462.836 4.99 2.626 7.679 4.648 1.351 1.004 2.776 2.052 4.369 2.947 1.585.887 3.346 1.636 5.253 1.884 1.899.247 3.799-.051 5.516-.648 1.724-.589 3.28-1.426 4.734-2.269 1.454-.852 2.791-1.725 4.091-2.488 1.301-.764 2.55-1.412 3.734-1.906 2.367-.997 4.486-1.324 5.918-1.23 1.446.087 2.199.386 2.199.386Zm-11.376 20.02c-.007.036-.46-.095-1.286-.197-.825-.101-2.045-.138-3.514.095-1.476.218-3.185.713-5.056 1.375-1.87.64-3.93 1.44-6.217 1.841-2.294.392-4.537.247-6.495-.175-1.965-.415-3.653-1.048-5.041-1.63a40.204 40.204 0 0 1-4.062-2c-.19-.109-.293-.175-.285-.189.014-.022.438.167 1.198.516s1.863.859 3.251 1.419c1.395.545 3.076 1.149 5.012 1.535 1.929.4 4.121.531 6.356.145 2.236-.393 4.282-1.178 6.167-1.797 1.884-.64 3.631-1.12 5.136-1.309 1.505-.204 2.747-.124 3.58.022.416.072.738.152.949.225.198.073.307.117.307.124Zm14.788 36.912c-.044.022-.146-.676-.928-1.578a5.756 5.756 0 0 0-1.695-1.302c-.745-.386-1.666-.684-2.711-.902a52.176 52.176 0 0 0-11.879-.99c-1.535.044-3.127.182-4.757.313-3.251.276-6.443.407-9.242-.313-2.798-.691-5.019-2.109-6.743-3.375-1.724-1.288-2.996-2.481-3.872-3.296-.41-.393-.738-.713-.994-.96-.226-.226-.336-.342-.329-.357.008-.007.139.095.38.299.27.233.614.531 1.038.902.906.778 2.199 1.935 3.93 3.186 1.732 1.23 3.931 2.597 6.671 3.252 2.732.691 5.874.553 9.125.276 1.629-.13 3.229-.269 4.778-.305a49.533 49.533 0 0 1 4.464.073c2.842.174 5.377.567 7.481 1.025 1.053.241 1.995.553 2.748.975a5.905 5.905 0 0 1 1.709 1.39c.387.473.592.902.694 1.2a3.1 3.1 0 0 1 .103.349c.036.095.036.138.029.138Zm-28.37 25.745c-.051-.007.183-.807.205-2.284a10.132 10.132 0 0 0-1.805-5.849 10.854 10.854 0 0 0-3.083-2.939c-1.308-.822-2.878-1.397-4.595-1.731-1.717-.349-3.558-.524-5.458-.851-1.878-.35-3.909-.866-5.545-2.183-1.673-1.28-2.63-3.128-3.463-4.838-.826-1.724-1.556-3.419-2.601-4.808-2.097-2.794-4.924-4.467-7.416-5.289-2.513-.829-4.705-.909-6.173-.786-.738.08-1.308.146-1.688.24-.387.073-.592.102-.592.095 0-.015.197-.073.577-.167.38-.117.95-.211 1.695-.313 1.483-.175 3.704-.138 6.269.676 2.542.808 5.45 2.481 7.613 5.333 1.081 1.426 1.834 3.143 2.652 4.852.833 1.695 1.768 3.485 3.361 4.7 1.556 1.251 3.521 1.767 5.377 2.117 1.877.334 3.726.509 5.457.88 1.739.349 3.361.946 4.691 1.811a11.096 11.096 0 0 1 3.134 3.056 10.116 10.116 0 0 1 1.732 6.001c-.059 1.492-.344 2.277-.344 2.277Zm-10.944 17.569c-.007.015-.183-.109-.526-.298-.344-.182-.891-.451-1.644-.436-.753.007-1.622.342-2.616.756-.993.393-2.148.924-3.55.997-.351.014-.709 0-1.067-.08-.175-.044-.358-.087-.541-.131-.182-.051-.35-.138-.526-.211a5.836 5.836 0 0 1-1.877-1.411c-1.104-1.193-1.944-2.699-2.981-4.14-.519-.72-1.103-1.418-1.812-1.993a5.698 5.698 0 0 0-2.491-1.186c-1.878-.407-3.909-.08-5.991-.058-1.045.007-2.097-.065-3.091-.378a6.33 6.33 0 0 1-2.586-1.593c-1.418-1.441-2.141-3.296-2.528-5.049-.38-1.775-.431-3.485-.533-5.071-.088-1.586-.22-3.055-.519-4.365-.599-2.619-1.973-4.459-3.178-5.339-1.22-.895-2.112-.975-2.082-1.033 0-.008.051 0 .153.021.102.022.256.044.446.11.38.116.942.341 1.57.785 1.264.859 2.711 2.721 3.354 5.398.321 1.331.467 2.823.57 4.409.117 1.586.182 3.288.562 5.019.395 1.71 1.111 3.499 2.455 4.86a5.983 5.983 0 0 0 2.44 1.498c.936.299 1.951.372 2.974.357 2.046-.015 4.099-.349 6.071.08.979.204 1.9.655 2.638 1.273.745.611 1.344 1.339 1.87 2.073 1.045 1.47 1.87 2.969 2.93 4.133 1.03 1.185 2.44 1.84 3.77 1.782 1.329-.051 2.476-.553 3.485-.924 1.001-.393 1.907-.72 2.688-.706.789.008 1.345.313 1.681.517.168.109.292.196.372.262.073.029.117.065.11.072Z"/><path fill="#000" d="M343.887 295.764c1.337 4.147-4.186-7.689-5.187-11.931-.468-1.964-.636-4.35.891-5.667 1.615-1.396 4.143-.734 5.969.371 1.827 1.106 3.558 2.619 5.684 2.801 1.907.16 3.727-.8 5.619-1.077 2.608-.385 5.202.524 7.795.997 3.135.575 6.393.502 9.498-.196l-1.373.836-28.026 6.409c-.161-.014-1.871 4.351-.87 7.457Z" opacity=".4"/><path fill="#263238" d="M337.977 219.91c-.051-.022.16-.764.511-1.957.183-.597.402-1.31.672-2.088.139-.393.293-.8.461-1.215.095-.226.211-.422.277-.611.059-.189.081-.408.081-.626-.015-.444-.125-.895-.205-1.338-.08-.437-.161-.859-.234-1.273-.139-.772-.263-1.492-.38-2.161-.204-1.23-.299-2.001-.241-2.008.059-.015.256.735.534 1.95.146.654.299 1.375.467 2.138.088.408.168.83.263 1.266.08.437.205.895.219 1.404a2.26 2.26 0 0 1-.102.764c-.088.255-.212.451-.292.633-.176.407-.336.808-.482 1.193-.271.735-.526 1.419-.76 2.052-.424 1.185-.738 1.898-.789 1.877Z"/><path fill="#000" d="M366.375 207.193c.534 8.075.848 15.51 1.001 23.6 1.213-.138 2.309-.378 3.054-.953.417-3.448-2.206-13.946-4.055-22.647Z" opacity=".3"/><path fill="#FAFAFA" d="M370.613 193.938c.007.007-.066.087-.205.218-.146.131-.351.335-.65.56-.577.473-1.461 1.092-2.63 1.732-2.324 1.273-5.962 2.481-10.075 2.248-4.106-.24-7.591-1.848-9.747-3.383-1.088-.764-1.899-1.484-2.418-2.015-.27-.255-.445-.488-.577-.626-.124-.145-.19-.233-.183-.24.059-.065 1.133 1.208 3.325 2.663 2.169 1.455 5.596 2.997 9.622 3.23 4.018.225 7.605-.91 9.929-2.11 2.345-1.208 3.558-2.35 3.609-2.277Z"/><path fill="#FFBE9D" d="m289.428 200.689.241 2.612-9.037.211s0 3.034.913 3.943c0 0-.913 1.819.102 2.83 1.016 1.011 1.622.706 1.622.706s-.409 2.022.606 2.531c1.016.51 14.182-.276 14.182-.276l-.811-8.439-2.945-.262c-.087-2.786-2.995-4.183-4.873-3.856Z"/><path fill="#E0E0E0" d="m289.852 198.165-1.513 15.597h-7.627l-1.834-15.597h10.974Z"/><path fill="#455A64" d="M289.852 196.149s.635.633.716 2.059h-12.399s-.241-1.266.716-2.059h10.967Z"/><path fill="#455A64" d="m288.434 194.724.424 1.542-9.366.066.621-1.63 8.321.022Zm1.571 7.347c0 .146-.906 7.85-.906 7.85h-9.33l-.891-7.85h11.127Z"/><path fill="#E8505B" d="m327.273 353.548-.233-3.048 13.852-.116.19 6.147-.84.08c-3.756.306-19.12 1.31-21.656.611-2.827-.764 8.687-3.674 8.687-3.674Z"/><path fill="#fff" d="M336.135 356.56a4.681 4.681 0 0 1 1.659-2.939c.891-.727 2.002-1.135 3.156-1.069l.102 3.79-4.917.218Z" opacity=".5"/><path fill="#fff" d="M321.655 355.171s-4.026 1.273-3.507 1.928c.526.654 16.088.225 22.934-.56l-.029-.306-18.149.655s-.46-1.71-1.249-1.717Z" opacity=".4"/><path fill="#263238" d="M341.264 356.218c0 .007-.08.015-.233.029-.205.015-.424.037-.673.059-.672.05-1.497.101-2.476.174a247.374 247.374 0 0 1-16.359.458c-.979-.014-1.804-.021-2.476-.036a88.267 88.267 0 0 1-.672-.022c-.154-.007-.234-.014-.234-.022 0-.007.08-.007.234-.014.204 0 .423-.007.672-.007.672-.008 1.505-.008 2.476-.015 2.097-.015 4.983-.051 8.183-.138 3.193-.088 6.086-.218 8.176-.32.979-.051 1.804-.088 2.476-.124.249-.007.475-.022.673-.029.153 0 .233 0 .233.007Z"/><path fill="#263238" d="M322.912 357.099c-.052.007-.103-.582-.497-1.164-.38-.59-.899-.881-.87-.924.008-.044.599.196 1.009.829.423.626.401 1.266.358 1.259Zm3.967-2.147c-.037.022-.234-.203-.446-.509-.204-.305-.343-.575-.307-.604.037-.029.234.204.446.51.212.312.343.582.307.603Zm1.088-.611c-.029.037-.248-.102-.489-.305-.241-.204-.409-.401-.38-.43.029-.036.248.102.49.306.241.204.409.393.379.429Zm.665-1.302c0 .044-.314.095-.708.109-.395.015-.716-.007-.716-.058 0-.044.314-.095.708-.109.395-.007.709.014.716.058Zm.212-.909c.015.044-.329.204-.789.255-.46.051-.833-.044-.826-.088.008-.043.366-.029.804-.08.446-.043.796-.131.811-.087Z"/><path fill="#263238" d="M326.382 353.781c0 .022-.336.066-.877.022a4.674 4.674 0 0 1-.935-.182c-.175-.058-.351-.094-.541-.203-.087-.059-.189-.131-.226-.262a.344.344 0 0 1 .124-.349c.826-.459 1.673-.008 2.002.414.175.218.263.429.3.575.036.145.036.233.029.233-.029.014-.066-.342-.417-.735a1.616 1.616 0 0 0-.759-.466c-.315-.08-.753-.094-1.045.102-.139.109-.081.269.08.357.146.087.336.138.497.196.336.102.643.167.906.211.533.073.862.058.862.087Z"/><path fill="#263238" d="M326.163 353.832c-.015.007-.146-.211-.117-.604.015-.196.08-.422.219-.64.146-.197.344-.473.716-.466.205.022.307.248.278.393a1.057 1.057 0 0 1-.139.393c-.124.218-.263.4-.402.538-.27.277-.482.386-.489.364-.015-.022.168-.16.401-.444.117-.138.242-.32.351-.531.117-.189.19-.524-.029-.553-.219-.014-.438.211-.57.386-.131.189-.205.4-.234.575-.051.356.044.582.015.589Zm14.722-1.317c0 .03-.395-.029-1.009.066-.606.087-1.454.356-2.17.96a4.404 4.404 0 0 0-1.322 1.972c-.19.589-.205.982-.234.974-.007 0-.014-.094-.007-.276.007-.175.044-.429.131-.735a4.179 4.179 0 0 1 1.323-2.058 4.222 4.222 0 0 1 2.265-.953c.314-.03.577-.022.752 0 .176.014.271.036.271.05Zm-6.496 2.772c.008.044-.876.211-1.987.255-1.11.043-2.002-.058-1.994-.102 0-.051.891-.015 1.994-.058 1.089-.051 1.98-.146 1.987-.095Z"/><path fill="#263238" d="M337.056 355.207c.037.029-.066.189-.153.393-.088.204-.132.386-.176.386-.043 0-.073-.211.022-.451.103-.233.278-.357.307-.328Zm.972-1.273c.036.029-.051.175-.19.32-.139.146-.278.24-.307.211-.037-.029.051-.174.19-.32.139-.153.278-.24.307-.211Zm1.424-.611c-.007.043-.189.05-.387.123-.197.073-.336.189-.372.153-.037-.022.073-.218.321-.313.241-.087.453-.007.438.037Zm1.023-.299c.015.044-.058.117-.168.16-.109.044-.219.051-.233.008-.015-.044.058-.117.168-.16.109-.044.211-.051.233-.008Z"/><path fill="#E8505B" d="m294.579 315.173.789-1.884 12.932 4.525-2.28 5.631-.804-.269c-3.565-1.223-18.031-6.468-20.069-8.119-2.28-1.841 9.432.116 9.432.116Z"/><path fill="#fff" d="M301.476 321.48a4.752 4.752 0 0 1 2.71-2.029c1.111-.313 2.294-.233 3.324.283l-1.439 3.514-4.595-1.768Z" opacity=".5"/><path fill="#fff" d="M288.778 314.402s-4.201-.444-3.989.356c.219.808 14.634 6.657 21.224 8.679l.095-.291-16.877-6.678c0 .007.27-1.739-.453-2.066Z" opacity=".4"/><path fill="#263238" d="M306.312 323.226c0 .008-.08-.014-.226-.065l-.636-.218-2.338-.83a269.981 269.981 0 0 1-7.634-2.939 255.384 255.384 0 0 1-7.533-3.193 363.91 363.91 0 0 0-2.258-1.026l-.606-.291a1.286 1.286 0 0 1-.205-.109c0-.007.081.022.22.08l.621.262c.621.262 1.381.589 2.279.975 1.922.822 4.588 1.949 7.547 3.15a359.42 359.42 0 0 0 7.613 2.982c.913.349 1.688.64 2.316.88.234.088.439.175.629.248.138.058.211.087.211.094Z"/><path fill="#263238" d="M289.158 316.672c-.051-.015.139-.575.014-1.266-.109-.691-.467-1.164-.423-1.193.021-.036.467.422.584 1.164.132.742-.139 1.317-.175 1.295Zm4.493-.371c-.044.007-.132-.284-.197-.648-.066-.363-.081-.662-.037-.676.044-.008.132.283.197.64.066.371.081.676.037.684Zm1.242-.124c-.044.022-.183-.196-.322-.473-.138-.283-.219-.531-.175-.545.044-.022.183.196.322.473.138.276.219.523.175.545Zm1.132-.924c-.014.044-.328-.036-.694-.182-.365-.145-.65-.291-.635-.334.014-.044.328.036.694.181.372.139.657.291.635.335Zm.57-.749c0 .044-.38.058-.825-.087-.439-.139-.746-.371-.716-.408.022-.043.35.117.767.255.416.138.774.196.774.24Z"/><path fill="#263238" d="M293.673 315.028c-.007.014-.336-.073-.811-.335a5.338 5.338 0 0 1-.789-.538c-.139-.124-.285-.233-.409-.4-.059-.088-.117-.197-.095-.335.014-.138.139-.247.256-.276.942-.088 1.541.662 1.665 1.178.073.269.066.495.044.648-.022.152-.058.232-.066.225-.029 0 .073-.342-.087-.836a1.521 1.521 0 0 0-.512-.728c-.248-.204-.65-.385-.993-.327-.168.043-.183.211-.073.356.095.138.248.262.38.379.263.232.518.414.745.552.445.284.76.415.745.437Z"/><path fill="#263238" d="M293.446 314.984c-.014.008-.051-.247.139-.596.095-.168.249-.357.461-.502.219-.124.504-.291.847-.138.175.101.183.349.095.472a.89.89 0 0 1-.285.306 2.745 2.745 0 0 1-.584.335c-.358.145-.592.16-.599.138-.008-.029.219-.08.547-.248a3.02 3.02 0 0 0 .541-.349c.183-.123.38-.4.197-.523-.197-.102-.482.014-.672.123a1.58 1.58 0 0 0-.445.429c-.198.32-.212.561-.242.553Zm14.013 4.692c-.014.029-.35-.182-.942-.342a4.432 4.432 0 0 0-2.375.008c-.906.269-1.6.814-2.001 1.273-.417.458-.578.814-.607.8-.007-.007.022-.095.102-.255.081-.16.212-.378.417-.625a4.228 4.228 0 0 1 2.046-1.353 4.18 4.18 0 0 1 2.454.036c.3.102.534.211.687.298.146.095.227.153.219.16Zm-7.065-.065c-.007.044-.891-.16-1.921-.567-1.03-.408-1.805-.859-1.79-.895.022-.044.826.342 1.848.742 1.023.407 1.871.676 1.863.72Z"/><path fill="#263238" d="M302.871 320.615c.015.044-.139.146-.299.299-.161.152-.278.305-.322.283-.044-.014.015-.225.205-.4.182-.182.394-.225.416-.182Zm1.403-.778c.015.043-.117.138-.3.218-.182.08-.35.109-.365.065-.014-.043.117-.138.3-.218.182-.08.343-.109.365-.065Zm1.549.015c-.029.036-.19-.03-.409-.044-.212-.015-.388.036-.409-.007-.022-.037.153-.175.416-.153.27.007.431.167.402.204Zm1.052.13c0 .043-.102.08-.219.08-.124 0-.219-.044-.219-.087 0-.044.102-.08.219-.08.124.007.219.043.219.087Zm77.568-101.244c0 .117-3.536.226-7.898.24-4.361.015-7.898-.065-7.898-.182 0-.116 3.537-.225 7.898-.24 4.355-.014 7.898.066 7.898.182Z"/><path fill="#000" d="m341.659 245.808 38.108 3.048-1.629-4.241-36.106-.524-.373 1.717Z" opacity=".3"/><path fill="#FFBE9D" d="M386.072 232.029a224.37 224.37 0 0 0-1.965-12.883h-15.138s1.878 8.824 1.461 10.868c-.365 1.782-29.699 2.961-37.341 3.085-.453-.342-1.118.232-1.702-.277a6.146 6.146 0 0 1-1.301-1.6c-.416-.728-.928-1.724-1.045-2.357-.146-.786-1.147-.982-1.453-.328-.307.655.036 2.823 1.49 4.918s-2.353 1.004-3.748.633c-1.396-.371-5.757-1.317-6.21-.968-.658.51-.249 1.324 1.154 1.666 1.418.342 5.531 1.652 5.304 2.394-.219.735-7.298-1.259-7.298-1.259s-1.447-.676-1.732.175c-.519 1.535 7.153 3.084 7.883 3.208.512.087.293.902-.248.778-.555-.13-7.014-2.153-7.555-.596-.416 1.193 6.298 1.331 7.409 2.517 1.11 1.179-5.085-.64-5.436.517-.131.429 2.448.632 6.152 1.149 3.463.487 9.907.444 11.448.407 8.592.466 38.963 1.092 45.444.641 7.554-.532 4.72-10.302 4.427-12.688Z"/><path fill="#455A64" d="M276.453 187.347c-.052 0-.147-.793-.234-2.088a87.571 87.571 0 0 1-.059-10.126c.073-1.295.161-2.095.212-2.088.051 0 .066.807.059 2.095v5.056c.022 1.913.043 3.638.065 5.056.008 1.288.008 2.088-.043 2.095Zm10.52-7.653c.088.059-.935 1.637-2.279 3.521-1.345 1.885-2.506 3.369-2.594 3.303-.088-.058.935-1.637 2.28-3.521 1.344-1.884 2.506-3.368 2.593-3.303Zm5.553 6.395c.051.094-1.33.938-3.076 1.884-1.754.953-3.207 1.644-3.259 1.549-.051-.094 1.33-.938 3.076-1.884s3.208-1.644 3.259-1.549Z"/><path fill="#E8505B" d="m199.031 345.4 2.937-6.897-12.939-5.558-4.399 10.047.782.393c3.485 1.731 17.841 8.555 20.537 8.86 3.01.342-6.918-6.845-6.918-6.845Z"/><path fill="#fff" d="M203.801 349.103s3.376 2.765 2.616 3.186c-.753.422-15.525-5.928-21.794-9.297l.146-.276 17.162 7.558c.007-.007 1.103-1.462 1.87-1.171Z" opacity=".4"/><path fill="#263238" d="M184.572 342.613c0 .008.073.044.212.117.19.094.394.196.621.312.628.306 1.395.677 2.308 1.114 1.958.923 4.676 2.167 7.701 3.477a240.147 240.147 0 0 0 7.817 3.215c.943.364 1.747.67 2.397.917l.657.24c.154.051.234.08.234.073 0-.007-.073-.044-.219-.102-.19-.08-.402-.167-.643-.269-.643-.262-1.439-.582-2.374-.968a452.515 452.515 0 0 1-7.796-3.259 465.935 465.935 0 0 1-7.722-3.426c-.921-.422-1.695-.771-2.331-1.062-.234-.11-.446-.197-.636-.284a2.238 2.238 0 0 0-.226-.095Z"/><path fill="#263238" d="M201.843 350.463c.044.029.322-.516.921-.931.592-.422 1.198-.502 1.191-.553.007-.043-.651-.036-1.286.415-.636.451-.862 1.062-.826 1.069Zm-2.973-3.565c.029.037.307-.101.621-.32.314-.218.555-.422.526-.458-.03-.036-.307.102-.621.32-.322.211-.556.415-.526.458Zm-.811-1.004c.014.044.277 0 .584-.109.307-.102.548-.226.534-.269-.015-.044-.278 0-.585.109-.307.102-.548.225-.533.269Zm-.139-1.498c-.022.044.263.211.636.379.372.167.686.262.708.218.022-.044-.263-.211-.635-.378-.373-.168-.687-.262-.709-.219Zm.146-.96c-.029.029.234.32.658.545.423.226.811.277.825.233.015-.051-.343-.167-.745-.378-.402-.211-.701-.437-.738-.4Z"/><path fill="#263238" d="M199.79 345.96c-.007.014.293.196.833.349.271.08.599.153.972.189.19.015.372.044.599.008.11-.022.234-.059.314-.168.088-.109.081-.276.015-.385-.614-.75-1.608-.648-2.075-.364a1.604 1.604 0 0 0-.512.436c-.095.124-.124.211-.116.211.021.022.197-.298.686-.545.241-.117.563-.197.906-.153.329.036.76.196.965.495.087.152-.03.283-.212.312-.176.03-.373.008-.556 0a6.132 6.132 0 0 1-.949-.145c-.541-.131-.855-.262-.87-.24Z"/><path fill="#263238" d="M199.988 346.098c.007.015.219-.145.343-.531a1.47 1.47 0 0 0 .036-.705c-.065-.248-.146-.582-.511-.721-.205-.058-.394.117-.424.27a.978.978 0 0 0-.022.429c.037.262.103.487.176.669.153.364.314.553.329.538.021-.014-.103-.218-.22-.582a3.011 3.011 0 0 1-.131-.647c-.037-.226.022-.575.241-.517.219.073.343.364.394.59.052.232.044.458 0 .64-.065.364-.233.545-.211.567Zm-13.619-6.896c-.007.029.387.124.943.444a4.565 4.565 0 0 1 1.717 1.753c.46.858.555 1.76.504 2.393-.044.641-.183 1.019-.154 1.026.008 0 .051-.087.11-.262.058-.174.124-.429.161-.756.08-.648 0-1.594-.475-2.481a4.35 4.35 0 0 0-1.805-1.775 3.877 3.877 0 0 0-.716-.291c-.183-.044-.285-.058-.285-.051Zm3.66-4.78c-.043-.022-.606 1.142-1.256 2.597s-1.147 2.648-1.103 2.67c.043.022.606-1.142 1.256-2.597.658-1.455 1.147-2.648 1.103-2.67Zm1.505 9.923c-.022.036.76.538 1.805.997 1.045.465 1.943.705 1.958.662.015-.044-.855-.357-1.885-.815-1.037-.451-1.848-.88-1.878-.844Z"/><path fill="#263238" d="M188.999 343.254c-.044.014-.007.211-.007.436.007.233-.022.422.022.437.044.014.153-.175.146-.444 0-.262-.117-.451-.161-.429Zm-.438-1.594c-.044.015-.022.19.058.379.073.189.176.334.22.32.043-.015.021-.189-.059-.379-.08-.196-.175-.341-.219-.32Zm-1.133-1.127c-.007.051.161.116.322.269.168.146.256.306.299.291.044-.007.015-.24-.189-.422-.198-.182-.424-.189-.432-.138Zm-.862-.676c-.036.036.015.131.103.218.087.087.19.131.219.094.036-.036-.015-.131-.102-.218-.088-.087-.19-.131-.22-.094Z"/><path fill="#000" d="m186.427 338.881 13.122 5.333.65-1.564-13.019-5.493-.753 1.724Z" opacity=".3"/><path fill="#B78876" d="m260.343 215.603 2.966.145c2.71-.102 4.223-.051 5.019-.72 1.067-.895-.263-1.92-.263-1.92s1.995-.553 1.878-1.746c-.073-.815-.994-.961-.994-.961s1.761-.567 2.148-1.258c.526-.946-.665-1.543-.665-1.543 2.433-1.302 2.309-2.742 1.776-2.917-.534-.174-2.419.553-2.419.553-1.57.349-5.866 1.382-4.164-.844s2.17-4.576 1.856-5.296c-.314-.72-1.447-.545-1.637.298-.153.684-.767 1.746-1.257 2.525a6.815 6.815 0 0 1-1.512 1.688c-.701.545-1.308.982-1.841 1.345l-2.791 2.379 1.9 8.272Z"/><path fill="#B78876" d="M271.886 206.596c.227-.13.241-.48.095-.691-.153-.211-.416-.32-.672-.363-1.074-.204-2.126.327-3.09.851-.943.509-1.893 1.026-2.638 1.789-.212.219-.424.524-.307.808.088.233.358.342.599.378a2.275 2.275 0 0 0 1.651-.349 4.452 4.452 0 0 0-2.016 1.317c-.19.218-.365.494-.314.778.066.342.453.546.803.524.351-.022.665-.204.965-.386a3.38 3.38 0 0 0-1.841 1.063c-.139.152-.263.334-.263.531-.008.407.489.647.898.625.41-.014.811-.182 1.221-.131-.833.037-1.63.51-2.061 1.215-.161.269-.256.662-.022.866.154.131.38.124.585.109.292-.022.584-.036.876-.058.475-.029.958-.066 1.396-.248.438-.181.833-.538.921-1.003.094-.466-.212-1.004-.68-1.07.585-.247 1.176-.582 1.461-1.142.278-.567.051-1.404-.57-1.542.468-.67 1.652-.677 1.907-1.448.176-.516-.197-1.048-.54-1.469a2.53 2.53 0 0 0 1.738-1.164"/><path fill="#AA6550" d="M270.462 207.623c.021.043-.49.371-1.374.822a12.77 12.77 0 0 1-1.6.691 7.742 7.742 0 0 1-1.001.284 1.631 1.631 0 0 1-.599.021.796.796 0 0 1-.577-.385c-.234-.459-.015-.946.27-1.201.292-.276.606-.421.877-.589.533-.305 1.03-.596 1.49-.866.855-.487 1.396-.763 1.425-.72.029.044-.468.4-1.286.939-.453.291-.935.604-1.454.931-.27.175-.577.342-.804.56-.226.204-.328.538-.204.771.117.226.475.255.796.189a9.87 9.87 0 0 0 .965-.254 19.808 19.808 0 0 0 1.6-.604c.891-.393 1.454-.64 1.476-.589Z"/><path fill="#AA6550" d="M269.344 210.307c.022.044-.38.247-1.052.538l-1.191.488c-.234.094-.468.182-.709.276-.241.08-.555.197-.906.087a.67.67 0 0 1-.416-.349.748.748 0 0 1-.03-.516c.103-.32.329-.509.505-.67.365-.327.73-.581 1.052-.763.643-.371 1.095-.481 1.11-.444.022.051-.387.247-.972.655a7.551 7.551 0 0 0-.964.793c-.168.16-.336.334-.387.523-.051.197.014.357.219.422.394.117.95-.203 1.388-.334.409-.139.811-.277 1.206-.415.686-.218 1.125-.342 1.147-.291Z"/><path fill="#AA6550" d="M268.35 212.758c.022.037-.38.364-1.162.648a5.613 5.613 0 0 1-1.432.305c-.277.015-.635-.022-.913-.269a.81.81 0 0 1-.27-.487.764.764 0 0 1 .161-.561c.233-.298.533-.429.781-.574.256-.146.504-.277.746-.4.482-.241.927-.444 1.3-.597.753-.306 1.242-.444 1.264-.4.022.051-.431.269-1.154.633-.358.182-.789.4-1.25.662-.241.131-.482.269-.73.407-.249.146-.512.284-.665.488-.146.189-.117.407.058.567.161.16.409.204.658.196a6.332 6.332 0 0 0 1.366-.218c.767-.211 1.213-.451 1.242-.4Z"/><path fill="#AA6550" d="M265.208 215.675c0 .022-.08.051-.219.008a.646.646 0 0 1-.394-.444c-.073-.262 0-.589.212-.851s.504-.466.818-.597c1.242-.618 2.287-.938 2.323-.851.044.095-.957.582-2.148 1.171a2.119 2.119 0 0 0-.738.495c-.168.189-.241.415-.219.589.066.371.387.444.365.48Z"/><path fill="#E0E0E0" d="m261.373 202.282 3.105 15.358 7.591-.779.212-15.699-10.908 1.12Z"/><path fill="#455A64" d="M261.161 200.275s-.57.698-.497 2.117l12.34-1.266s.11-1.288-.92-1.972l-10.923 1.121Z"/><path fill="#455A64" d="m262.425 198.71-.263 1.579 9.322-.887-.781-1.557-8.278.865Zm-.811 7.471c.015.146 1.71 7.712 1.71 7.712l9.278-.953.081-7.901-11.069 1.142Z"/><path fill="#263238" d="M222.563 176.18c.848-1.833.979-4.11-.146-5.79-.643-.961-1.636-1.652-2.294-2.612-1.52-2.241-.818-5.231-1.103-7.922-.439-4.162-3.646-7.901-7.701-8.992-4.062-1.091-8.716.546-11.193 3.928l.468 2.998c-.789 5.383-1.578 10.825-1.775 16.252L195.1 156.56c-1.856 1.295-2.389 3.776-2.601 6.031-.212 2.248-.322 4.678-1.724 6.453-2.083 2.648-6.437 3.055-7.884 6.096-1.249 2.641.344 6.14-1.366 8.519-1.249 1.746-3.733 2.066-5.399 3.419-2.374 1.921-2.572 5.674-1.081 8.337 1.49 2.655 4.274 4.358 7.123 5.449 3.624 1.389 7.598 1.986 11.434 1.389 3.836-.596 7.525-2.429 10.075-5.347l-.877-4.117c.19.167.38.334.592.48 1.439.989 3.251 1.339 4.99 1.229 1.746-.109 3.434-.654 5.041-1.331 1.929-.815 3.807-1.855 5.253-3.368 1.447-1.513 2.433-3.543 2.346-5.631-.052-1.28-.505-2.553-.336-3.826.197-1.521 1.227-2.772 1.877-4.162Zm-38.269 107.377h-5.341v63.749h5.341v-63.749Z"/><path fill="#263238" d="M219.436 286.445h-76.428c0-4.561 3.711-8.264 8.299-8.264h59.837c4.581 0 8.292 3.703 8.292 8.264Z"/><path fill="#263238" d="M186.822 286.605c0 .109-2.097.196-4.691.196-2.586 0-4.69-.087-4.69-.196 0-.11 2.097-.197 4.69-.197 2.587 0 4.691.087 4.691.197Zm18.177 66.484h-.752c0-12.483-10.199-22.639-22.737-22.639-12.537 0-22.736 10.156-22.736 22.639h-.76c0-12.898 10.543-23.396 23.496-23.396 12.954 0 23.489 10.491 23.489 23.396Z"/><path fill="#263238" d="M161.916 354.247a3.516 3.516 0 0 1-3.522 3.506 3.515 3.515 0 0 1-3.521-3.506 3.516 3.516 0 0 1 3.521-3.507 3.517 3.517 0 0 1 3.522 3.507Zm46.408-.481a3.517 3.517 0 0 1-3.522 3.507 3.516 3.516 0 0 1-3.521-3.507 3.515 3.515 0 0 1 3.521-3.506 3.516 3.516 0 0 1 3.522 3.506Zm-3.551-6.452c0 .109-10.221.196-22.832.196-12.61 0-22.831-.087-22.831-.196 0-.11 10.221-.197 22.831-.197 12.611 0 22.832.087 22.832.197ZM140.765 220.44v46.93c0 6.155 5.012 11.145 11.193 11.145h36.318l-4.932-58.075c0-2.742-2.235-4.968-4.99-4.968h-32.599c-2.762.007-4.99 2.226-4.99 4.968Z"/><path fill="#455A64" d="M153.601 278.18c-.014.008-.153-.152-.409-.472a18.845 18.845 0 0 1-1.059-1.455 23.288 23.288 0 0 1-2.835-5.98 24.071 24.071 0 0 1-.957-4.482c-.212-1.644-.168-3.412-.183-5.245-.007-3.688-.007-7.74-.014-11.996l.058-21.795c.022-2.765.044-5.013.059-6.606.014-.757.029-1.353.036-1.797.015-.407.022-.625.037-.625.014 0 .029.218.036.625.008.444.022 1.04.037 1.797.014 1.593.036 3.841.058 6.606.015 5.609.037 13.298.059 21.795-.008 4.256-.008 8.308-.015 11.996 0 1.848-.051 3.594.146 5.209.168 1.622.497 3.114.899 4.438a24.783 24.783 0 0 0 2.703 5.98c.417.662.76 1.156 1.001 1.491.102.153.19.276.263.385.058.08.088.131.08.131Z"/><path fill="#455A64" d="M173.379 278.21c0 .029-.409.051-1.155.08-.811.022-1.87.051-3.148.08-2.66.051-6.328.102-10.375.131-2.024.015-3.953.029-5.713.037-1.754.014-3.332.08-4.603.414a7.661 7.661 0 0 0-2.784 1.317c-.584.444-.847.764-.884.735-.007-.007.051-.088.183-.24.124-.153.321-.364.606-.604.563-.488 1.498-1.106 2.806-1.462 1.3-.379 2.908-.473 4.661-.51 1.753-.043 3.69-.05 5.713-.065 4.055-.029 7.73-.036 10.382-.015 1.279.015 2.338.03 3.149.037.745.014 1.162.036 1.162.065Z"/><path fill="#E8505B" d="m252.05 348.405-1.885-7.617-14.349 3.427 2.645 11.174.906-.153c4.011-.728 20.355-3.979 22.809-5.405 2.726-1.608-10.126-1.426-10.126-1.426Z"/><path fill="#fff" d="M258.385 348.528s4.566.204 4.208 1.033c-.365.83-16.753 4.729-24.132 5.82l-.051-.327 19.156-4.394c-.007.007-.014-1.899.819-2.132Z" opacity=".4"/><path fill="#263238" d="M238.176 355.105c0 .007.088-.008.256-.029.219-.037.453-.08.716-.124.716-.138 1.6-.306 2.637-.509a272.567 272.567 0 0 0 8.651-1.899c3.368-.8 6.4-1.586 8.584-2.19 1.016-.291 1.878-.531 2.587-.727.255-.08.489-.146.701-.211.161-.051.241-.08.241-.087 0-.008-.088.014-.248.05-.212.051-.446.11-.709.182-.709.182-1.571.408-2.594.677a453.54 453.54 0 0 1-8.592 2.139c-3.36.8-6.422 1.477-8.635 1.949-1.038.226-1.915.415-2.623.568-.263.058-.497.109-.716.16-.176.022-.263.043-.256.051Z"/><path fill="#263238" d="M257.603 350.893c.051-.007-.051-.633.19-1.353.234-.728.694-1.171.65-1.208-.022-.043-.57.378-.818 1.15-.256.771-.059 1.433-.022 1.411Zm-4.749-1.127c.044.014.19-.277.321-.655.132-.378.198-.698.154-.713-.044-.015-.19.276-.322.655-.131.371-.197.691-.153.713Zm-1.308-.336c.044.03.234-.174.424-.458.197-.284.321-.531.278-.56-.044-.029-.234.175-.424.458-.19.277-.322.531-.278.56Zm-1.059-1.178c.007.051.358.007.774-.08.417-.095.745-.211.731-.255-.007-.051-.358-.007-.775.08-.409.095-.737.211-.73.255Zm-.482-.887c-.008.043.401.123.891.043.497-.08.855-.276.833-.32-.022-.051-.395.073-.862.146-.468.072-.855.08-.862.131Z"/><path fill="#263238" d="M253.044 348.398c0 .022.365-.022.92-.226.278-.102.6-.247.928-.451.161-.109.344-.196.504-.364.074-.08.161-.189.161-.342.008-.145-.109-.283-.226-.334-.994-.248-1.754.458-1.973.989a1.672 1.672 0 0 0-.153.684c0 .167.022.255.036.255.037.007-.022-.379.234-.881.124-.247.343-.516.665-.698.299-.175.76-.313 1.118-.189.175.073.153.255.014.393-.131.131-.314.24-.467.342a7.006 7.006 0 0 1-.892.473c-.526.24-.876.32-.869.349Z"/><path fill="#263238" d="M253.292 348.39c.015.007.095-.262-.043-.662a1.56 1.56 0 0 0-.417-.611c-.212-.167-.489-.393-.884-.284-.205.08-.256.342-.183.495.059.16.161.277.256.371.19.197.395.342.57.451.358.211.614.269.614.247.007-.029-.227-.123-.548-.349a3.507 3.507 0 0 1-.519-.458c-.175-.167-.343-.495-.124-.589.226-.08.519.094.701.247.19.167.322.357.402.538.175.342.146.604.175.604Zm-15.766 2.736c.007.029.402-.138 1.067-.218a4.83 4.83 0 0 1 2.542.4 4.74 4.74 0 0 1 1.936 1.688c.366.56.49.967.519.953.007 0-.007-.109-.066-.291a3.782 3.782 0 0 0-.343-.735 4.57 4.57 0 0 0-1.966-1.782 4.57 4.57 0 0 0-2.637-.364 3.829 3.829 0 0 0-.782.211c-.182.073-.277.131-.27.138Zm.058-6.301c-.051.008.212 1.339.585 2.968.365 1.63.709 2.939.752 2.925.052-.007-.212-1.339-.584-2.968-.365-1.63-.701-2.939-.753-2.925Zm7.518 7.384c.008.044.979-.021 2.148-.291 1.169-.261 2.075-.625 2.06-.669-.014-.051-.942.233-2.096.495-1.162.262-2.119.415-2.112.465Z"/><path fill="#263238" d="M242.289 352.871c-.029.044.125.182.271.371.153.189.248.371.292.357.044-.015.022-.24-.153-.466-.169-.218-.388-.305-.41-.262Zm-1.38-1.061c-.03.043.102.167.285.283.182.117.358.175.379.131.03-.043-.102-.167-.284-.283-.183-.11-.351-.168-.38-.131Zm-1.659-.24c.022.043.212 0 .438.021.227.022.41.102.439.059.029-.037-.139-.211-.424-.233-.278-.029-.475.116-.453.153Zm-1.147-.022c-.007.051.095.102.227.124.131.014.241-.008.248-.059.007-.05-.095-.101-.227-.123-.131-.015-.241.007-.248.058Z"/><path fill="#000" d="m237.358 350.762 14.378-3.674-.438-1.717-14.539 2.837.599 2.554Z" opacity=".3"/><path fill="#455A64" d="m185.748 337.419 15.314 5.827 34.762-56.707-9.432-18.696-19.712 8.06 4.478 12.026-25.41 49.49Z"/><path fill="#455A64" d="M221.73 304.421c0-.007.008.014.015.022-.044-.015-.029-.037-.051-.073-.029-.087-.066-.182-.103-.291-.095-.298-.219-.669-.365-1.135-.314-1.033-.752-2.459-1.286-4.205l-4.113-13.902c-.679-2.335-1.322-4.569-1.922-6.62l.154.116c-3.96-.167-7.357-.313-9.819-.422-1.177-.065-2.126-.109-2.828-.152-.299-.022-.548-.037-.752-.051-.168-.015-.256-.029-.256-.037 0-.007.088-.014.263-.022h.752c.702.015 1.652.03 2.828.059l9.827.291h.116l.037.116c.599 2.044 1.257 4.278 1.936 6.613 1.564 5.42 2.974 10.33 4.011 13.931.49 1.753.891 3.194 1.176 4.234l.307 1.157c.029.116.051.211.073.305 0 .037.029.059 0 .08-.007.008-.007-.014 0-.014Z"/><path fill="#455A64" d="m169.266 241.617-4.895 8.999a23.153 23.153 0 0 0-2.112 11.189c.606 9.734 8.65 17.336 18.433 17.918.139.007.263.014.38.022l33.396.443 19.558 68.493 17.922-2.721s-16.029-73.709-18.674-78.983c-2.645-5.274-45.794-15.204-45.794-15.204l-18.214-10.156Z"/><path fill="#263238" d="M222.205 306.224c0-.007.007.015.015.022-.044-.014-.029-.036-.051-.072-.03-.088-.066-.182-.103-.291-.095-.299-.219-.67-.365-1.135-.314-1.033-.753-2.459-1.286-4.205-1.067-3.601-2.513-8.497-4.113-13.902-.68-2.336-1.323-4.569-1.922-6.62l.154.116c-3.96-.167-7.357-.313-9.82-.422-1.176-.065-2.126-.109-2.827-.153-.3-.022-.548-.036-.753-.051-.168-.014-.255-.029-.255-.036 0-.007.087-.015.263-.022h.752c.702.015 1.651.029 2.828.058 2.462.073 5.867.175 9.826.291h.117l.037.117c.599 2.044 1.256 4.277 1.936 6.613 1.563 5.419 2.973 10.33 4.011 13.931.489 1.753.891 3.193 1.176 4.234.124.473.227.858.307 1.156.029.117.051.211.073.306 0 .036.029.058 0 .08v-.015Z"/><path fill="#455A64" d="M264.558 193.459c-.058.087-1.278-.692-2.71-1.739-1.432-1.048-2.55-1.957-2.484-2.044.058-.088 1.278.691 2.71 1.738 1.432 1.048 2.543 1.965 2.484 2.045Zm2.594-13.634c.102-.021.563 1.637 1.037 3.703.468 2.066.768 3.761.665 3.79-.102.022-.562-1.636-1.037-3.702-.475-2.074-.767-3.769-.665-3.791Z"/><path fill="#E8505B" d="M149.59 214.963c.022.065-1.242.073-3.17 1.076-1.893.99-4.369 3.201-5.831 6.795-.73 1.783-1.198 3.863-1.446 6.118-.256 2.256-.278 4.693-.307 7.253-.066 5.129-.132 10.767-.205 16.681-.175 11.829-.336 22.531-.453 30.307-.073 3.856-.138 6.992-.182 9.181l-.066 2.496c-.015.269-.022.48-.029.647-.008.145-.015.218-.022.218-.007 0-.015-.073-.015-.218 0-.167-.007-.378-.007-.647v-2.496c.015-2.197.036-5.325.058-9.188.088-7.777.212-18.485.344-30.307.08-5.914.16-11.552.234-16.681.036-2.561.073-5.005.343-7.282.263-2.277.752-4.38 1.512-6.184 1.52-3.637 4.07-5.856 6.013-6.823a9.794 9.794 0 0 1 2.375-.837c.285-.051.504-.073.65-.095.131-.014.204-.021.204-.014Zm8.797 86.177c-.007 0-.015-.08-.022-.233-.007-.174-.007-.4-.015-.676-.007-.618-.014-1.491-.022-2.604a7866.24 7866.24 0 0 1-.021-9.574c.021-8.104.051-19.264.08-31.587.029-6.169.066-12.048.088-17.395.014-2.669.036-5.208.051-7.587-.008-2.365-.322-4.562-.76-6.526-.877-3.921-2.404-6.94-4.084-8.453-.818-.771-1.637-1.142-2.199-1.317-.563-.182-.884-.189-.877-.225 0-.008.08 0 .234.022.153.014.38.05.672.13.577.161 1.425.51 2.279 1.281 1.754 1.506 3.332 4.554 4.253 8.504a30.2 30.2 0 0 1 .81 6.584c-.007 2.379-.007 4.918-.014 7.587-.022 5.347-.037 11.226-.059 17.395-.073 12.323-.146 23.483-.19 31.587-.043 4.023-.08 7.289-.102 9.574a393.06 393.06 0 0 0-.044 2.604c-.007.284-.014.502-.022.676-.021.161-.029.233-.036.233Z"/><path fill="#E8505B" d="M164.597 295.953h-35.442v19.191h35.442v-19.191Z"/><path fill="#263238" d="M164.444 295.786c.007.008-.081.131-.271.357-.212.255-.475.582-.811.989-.716.91-1.702 2.161-2.908 3.696-1.249 1.542-2.798 3.383-4.96 4.932-1.082.764-2.324 1.455-3.726 1.863-1.389.436-2.916.567-4.45.48-3.083-.226-5.867-1.368-8.102-2.772-2.236-1.426-3.989-3.063-5.377-4.481a61.659 61.659 0 0 1-3.142-3.507c-.329-.4-.599-.734-.811-.989-.183-.233-.27-.357-.263-.364.007-.007.117.102.321.313.227.247.512.56.863.938.752.815 1.819 2.016 3.222 3.412 1.41 1.39 3.163 2.983 5.369 4.372 2.207 1.368 4.939 2.474 7.942 2.692 1.491.087 2.966-.043 4.318-.458 1.352-.386 2.564-1.048 3.631-1.79 2.126-1.506 3.69-3.303 4.954-4.816 1.264-1.527 2.264-2.786 3.002-3.623.366-.422.658-.734.862-.945.212-.204.329-.313.337-.299Z"/><path fill="#FAFAFA" d="M149.371 307.294c-.351-.429-.957-.814-1.673-.567l-.278.131-.007.007c-.321.24-.57.59-.635.99a1.537 1.537 0 0 0 .832 1.593c.578.276 1.345.116 1.754-.378.409-.495.416-1.281.007-1.776Z"/><path fill="#E8505B" d="M212.123 192.062s5.158 1.389 9.958 12.119l9.206 14.907 28.069-12.535 2.01 10.461-33.082 18.631c-4.756.036-5.239-.844-8.212-4.547l-9.089-15.211 1.14-23.825Z"/><path fill="#E8505B" d="M214.147 210.939c1.592 8.155-4.552 16.121-4.552 16.121-1.403 3.143-3.741 13.793-4.347 23.607l-.409 4.932s-16.505 5.558-37.846-10.628l10.572-15.561.475-19.322s-1.162-11.028.482-14.36c1.798-3.645 5.816-10.156 30.021-5.115l3.938 1.594 1.666 18.732Z"/><path fill="#B78876" d="m191.71 253.344.38.64c1.519 2.445 3.39 5.355 4.551 6.751 2.163 2.597 2.404 2.408 2.674 2.117.724-.793-3.631-4.707-2.192-4.394 1.44.313 4.749 5.384 5.465 4.525.936-1.12-3.696-5.136-4.062-5.5-.358-.356.168-.894.482-.545.446.502 5.297 5.66 6.225 4.568.519-.603-.694-1.404-.694-1.404s-4.902-4.503-4.449-5.005c.46-.509 3.434 2.037 4.376 2.968.928.917 1.754.866 1.834.124.051-.502-2.754-3.412-3.704-4.307-.95-.894-3.602-3.31-1.301-3.15 2.309.16 4.143-.56 4.493-1.091.358-.531-.277-1.2-.942-.96-.541.196-1.556.255-2.316.269a5.469 5.469 0 0 1-1.848-.269 21.42 21.42 0 0 1-1.367-.487l-1.483-.553-6.122 5.703Z"/><path fill="#263238" d="M212.897 202.224c.022-.008.124.349.278.989.153.64.365 1.571.599 2.728.453 2.306 1.045 5.558.847 9.181-.109 1.819-.577 3.514-1.168 4.961-.585 1.463-1.264 2.699-1.842 3.725a64.515 64.515 0 0 1-1.439 2.401c-.351.56-.555.858-.577.851-.022-.015.146-.342.46-.917.344-.633.797-1.462 1.337-2.451.548-1.041 1.206-2.285 1.761-3.725.57-1.44 1.016-3.092 1.125-4.867.19-3.572-.351-6.802-.745-9.115-.197-1.113-.365-2.037-.49-2.743-.117-.655-.175-1.018-.146-1.018Z"/><path fill="#E8505B" d="m179.903 193.45-19.047 26.706c-3.441 4.831-2.359 11.516 2.433 15.023l27.573 20.173 8.147-9.094-24.015-20.566 15.919-21.315-11.01-10.927Z"/><path fill="#263238" d="M170.274 240.286s.139.08.387.255c.263.189.628.443 1.103.778.972.698 2.382 1.717 4.179 3.005 3.609 2.626 8.768 6.365 15.014 10.905l-.197.021 8.132-9.108.014.233c-4.939-4.227-10.36-8.861-16.022-13.706-2.74-2.35-5.421-4.648-8-6.853l-.124-.101.095-.131c4.025-5.566 8.226-10.469 11.587-15.205a84.064 84.064 0 0 0 2.375-3.492 26.854 26.854 0 0 0 1.841-3.492c.489-1.164.949-2.328 1.132-3.462a8.963 8.963 0 0 0-.139-3.318c-.46-2.073-1.614-3.79-3.083-4.627-1.446-.865-2.915-1.214-4.084-1.214a4.41 4.41 0 0 0-2.564.712c-.263.168-.431.335-.548.444-.117.109-.176.16-.183.16-.007 0 .051-.065.161-.182.109-.116.27-.291.533-.472.497-.364 1.388-.793 2.601-.786 1.198-.015 2.689.32 4.179 1.186 1.52.851 2.733 2.604 3.215 4.728a9.266 9.266 0 0 1 .161 3.405c-.19 1.193-.643 2.35-1.133 3.535a26.855 26.855 0 0 1-1.848 3.536 87.827 87.827 0 0 1-2.375 3.514c-3.353 4.758-7.54 9.668-11.551 15.226l-.029-.233c2.579 2.204 5.26 4.503 8.008 6.853 5.662 4.852 11.068 9.494 16.007 13.72l.124.11-.109.123-8.161 9.079-.088.102-.109-.08c-6.218-4.576-11.347-8.359-14.941-11.007-1.776-1.317-3.164-2.35-4.128-3.07-.46-.349-.818-.618-1.074-.815a5.521 5.521 0 0 1-.358-.276Z"/><path fill="#000" d="M188.517 207.892c-.19 6.62-4.464 12.636-4.559 19.256-.036 2.575.57 5.122 1.366 7.573-1.476-1.12-3.083-2.939-4.741-4.066 0 0-3.062-2.954-3.018-2.794l.168-5.711 2.974-3.841c-.139.153 7.81-10.417 7.81-10.417Z" opacity=".3"/><path fill="#E0E0E0" d="M196.839 212.336c-.088.051-.826-1.047-1.644-2.459-.819-1.411-1.403-2.597-1.315-2.648.087-.051.825 1.048 1.644 2.459.818 1.411 1.41 2.597 1.315 2.648Zm12.456-11.006c.052.094-.73.625-1.746 1.186-1.015.567-1.885.945-1.936.858-.051-.095.731-.626 1.746-1.186 1.016-.56 1.885-.946 1.936-.858Zm-.949 11.529c-.095.044-.497-.647-.892-1.535-.394-.887-.635-1.644-.54-1.687.095-.044.496.647.891 1.535.394.887.636 1.644.541 1.687Zm-8.68 7.879c-.095-.043.241-.931.745-1.971.504-1.041.994-1.848 1.089-1.804.095.043-.241.924-.745 1.971-.512 1.04-.994 1.848-1.089 1.804Zm-8.986 1.296c-.081.065-.694-.59-1.184-1.565-.497-.974-.658-1.855-.563-1.876.103-.03.424.771.899 1.709.475.931.935 1.659.848 1.732Zm1.3 9.027c0 .102-.899.168-2.009.139-1.103-.029-2.002-.139-1.995-.24 0-.102.899-.168 2.01-.139 1.103.029 2.001.139 1.994.24Zm12.428-6.162c.051.088-.804.692-1.907 1.339-1.111.648-2.053 1.106-2.104 1.011-.051-.094.803-.691 1.907-1.338 1.103-.648 2.045-1.099 2.104-1.012Zm-5.604-21.729c-.073.08-.804-.466-1.637-1.215-.832-.75-1.446-1.419-1.38-1.499.073-.08.803.466 1.636 1.215.833.749 1.447 1.426 1.381 1.499Zm-6.495-9.159c-.088.058-.526-.488-.811-1.288-.292-.8-.3-1.499-.197-1.506.109-.015.277.626.555 1.382.27.75.548 1.353.453 1.412Zm-11.018 3.906c-.08-.08.409-.669.892-1.47.489-.8.789-1.505.898-1.469.095.029-.058.822-.57 1.666-.511.844-1.147 1.346-1.22 1.273Zm6.028 5.034c-.102-.007-.095-.938.022-2.066.117-1.127.299-2.037.402-2.029.102.007.095.938-.022 2.066-.117 1.134-.3 2.044-.402 2.029Zm-5.078 2.699c-.095.036-.424-.56-.723-1.331-.3-.771-.46-1.433-.365-1.47.094-.036.423.56.723 1.332.299.778.46 1.433.365 1.469Zm-6.166.757c.058.088-.738.713-1.863 1.259-1.125.546-2.112.778-2.141.684-.036-.102.877-.495 1.973-1.026s1.972-1.011 2.031-.917Zm.314 7.53c-.073-.08.628-.859 1.439-1.848.819-.989 1.447-1.826 1.542-1.768.088.051-.409.997-1.249 2.008-.833 1.011-1.666 1.681-1.732 1.608Zm-5.859 2.604c-.095.029-.41-.742-.519-1.746-.117-1.004.014-1.826.117-1.818.109.007.146.807.263 1.775.102.974.241 1.76.139 1.789Zm2.63 5.31c.022.102-.987.371-2.243.604-1.257.233-2.294.335-2.309.233-.022-.102.986-.371 2.243-.604 1.257-.233 2.287-.342 2.309-.233Zm-10.937 3.951c-.103-.014.007-1.142.248-2.51.241-1.367.519-2.466.621-2.444.102.015-.007 1.142-.248 2.51-.242 1.367-.519 2.459-.621 2.444Zm7.028 2.677c.058.08-.606.64-1.564 1.105-.957.473-1.804.655-1.841.561-.036-.102.738-.444 1.673-.895.928-.451 1.666-.859 1.732-.771Zm4.428 9.93c-.103.014-.358-1.004-.563-2.285-.212-1.28-.292-2.328-.19-2.349.102-.015.358 1.004.563 2.284.211 1.28.299 2.335.19 2.35Zm4.741-1.186c-.102.007-.256-.953-.343-2.146-.081-1.193-.066-2.161.036-2.168.103-.007.256.953.344 2.146.08 1.193.065 2.161-.037 2.168Zm7.386 9.065c-.058.094-.986-.408-2.162-.924-1.176-.524-2.163-.88-2.133-.99.021-.094 1.081.102 2.294.641 1.198.538 2.053 1.193 2.001 1.273Zm4.662 2.786c-.095-.014.065-1.105.723-2.277.65-1.171 1.483-1.891 1.549-1.818.08.072-.599.88-1.22 2-.621 1.121-.943 2.124-1.052 2.095Zm28.822-36.84c-.095-.044.205-.989.68-2.124.474-1.135.935-2.015 1.03-1.979.095.044-.205.989-.68 2.124-.475 1.135-.935 2.023-1.03 1.979Zm-2.06-12.425c-.088.065-.702-.626-1.374-1.535-.672-.91-1.147-1.703-1.066-1.761.087-.065.701.626 1.373 1.535.672.909 1.147 1.702 1.067 1.761Zm2.652 23.526c-.08.066-.753-.632-1.498-1.556s-1.278-1.732-1.198-1.797c.08-.066.753.633 1.498 1.557.745.931 1.278 1.731 1.198 1.796Zm3.931-4.539c-.103.007-.198-1.004.102-2.212.292-1.207.847-2.059.928-2.008.102.051-.285.946-.563 2.103-.277 1.149-.358 2.117-.467 2.117Z"/><path fill="#B78876" d="m193.938 157.936.007 2.168-.138 32.482c-.015 3.768 3.229 6.787 7.284 6.773 4.098-.015 7.481-3.114 7.554-6.919.081-4.001.249-8.206.249-8.206s5.187-.764 6.378-7.464c.592-3.332.518-8.817.321-13.298-.182-4.038-3.704-7.108-7.744-6.758l-13.911 1.222Z"/><path fill="#263238" d="M214.205 167.116c.007.458-.373.837-.847.859-.475.014-.87-.335-.877-.793-.007-.459.372-.837.847-.859.475-.022.87.335.877.793Z"/><path fill="#263238" d="M214.344 166.301c-.11.11-.76-.385-1.688-.4-.928-.029-1.622.437-1.724.32-.051-.051.066-.254.365-.465.3-.211.804-.408 1.381-.4.577.014 1.067.232 1.344.458.278.233.373.444.322.487Zm-9.169.815c.007.458-.373.837-.848.859-.475.014-.869-.335-.876-.793-.008-.459.372-.837.847-.859.475-.022.869.335.877.793Z"/><path fill="#263238" d="M205.182 166.316c-.11.109-.76-.386-1.688-.4-.927-.029-1.622.436-1.724.32-.051-.051.066-.255.365-.466.3-.211.804-.407 1.381-.4.577.015 1.067.233 1.345.459.277.232.372.436.321.487Zm3.259 6.941c0-.051.577-.146 1.519-.248.241-.022.468-.065.504-.225.059-.168-.036-.43-.146-.706-.212-.575-.438-1.179-.672-1.819-.928-2.582-1.6-4.707-1.498-4.743.103-.036.943 2.03 1.878 4.612l.643 1.826c.088.269.234.582.11.931a.61.61 0 0 1-.395.342c-.153.044-.285.044-.402.051-.957.037-1.541.029-1.541-.021Z"/><path fill="#AA6550" d="M208.886 184.241s-4.544.211-8.994-2.56c0 0 2.112 4.656 8.877 4.146l.117-1.586Zm-.876-8.758c-.329-.444-.914-.698-1.491-.647-.402.036-.818.225-1.067.545-.248.32-.314.786-.095 1.106.249.356.768.444 1.213.327.446-.116.833-.4 1.206-.684.102-.08.204-.16.27-.269.066-.109.08-.254.007-.342"/><path fill="#263238" d="M205.686 173.846c.154-.007.139 1.004.986 1.731.848.735 1.929.64 1.937.779.014.065-.242.189-.702.196a2.494 2.494 0 0 1-1.614-.596c-.519-.451-.738-1.033-.768-1.448-.022-.422.095-.669.161-.662Zm-11.887 14.92c2.002-.655 2.82-1.353 3.602-3.303.782-1.949.797-4.161.256-6.19-.249-.939-.607-1.972-.183-2.845.314-.633.965-1.011 1.498-1.477 1.205-1.047 1.856-2.619 1.995-4.205.131-1.585-.22-3.171-.775-4.663-.307-.822-.679-1.717-.365-2.531.219-.582.738-.982 1.198-1.397a10.937 10.937 0 0 0 2.396-3.085c.431-.822.753-1.811.366-2.655-.468-1.018-1.739-1.353-2.857-1.462-2.667-.248-5.633.284-7.372 2.313-1.556 1.819-1.775 4.394-1.929 6.78-.474 7.523-10.338 15.256-5.508 25.557l7.678-.837Z"/><path fill="#263238" d="M205.489 162.686c-.095.247-1.023.116-2.119.225-1.096.088-1.987.393-2.126.168-.066-.11.095-.342.453-.582.358-.24.928-.459 1.586-.524.657-.058 1.256.051 1.651.225.394.168.591.371.555.488Zm8.555.932c-.168.21-.803-.022-1.578-.044-.767-.051-1.424.116-1.571-.109-.065-.109.044-.32.329-.51.285-.196.76-.349 1.286-.32.533.03.986.226 1.249.444.278.218.358.437.285.539Zm-10.287-7.189a11.081 11.081 0 0 0 7.643 3.463c.803.029 1.687-.007 2.308.509.453.379.651.975 1.001 1.448.351.473 1.06.815 1.52.444.402-.32.329-.946.183-1.441-.746-2.466-2.514-4.655-4.874-5.718-2.359-1.062-5.282-.894-7.393.59"/><path fill="#E0E0E0" d="m286.133 201.708 10.996 31.995h49.783l-.365-1.652-20.136-.618-9.271-29.74-31.007.015Z"/><path fill="#fff" d="M308.197 216.898c.329 1.309-.233 2.59-1.256 2.866-1.023.277-2.119-.567-2.448-1.877-.329-1.309.234-2.59 1.257-2.866 1.023-.269 2.119.567 2.447 1.877Z"/><path fill="#263238" d="M385.24 233.833H182.906v8.315h14.846v115.124h4.647V242.148h148.875v115.124h4.646V242.148h29.32v-8.315Z"/><path fill="#E0E0E0" d="m261.658 202.086-10.989 31.973h-49.754l.373-1.644 20.113-.619 9.272-29.725 30.985.015Z"/><path fill="#fff" d="M239.615 217.101c-.328 1.31.234 2.59 1.257 2.866 1.023.277 2.119-.567 2.448-1.877.328-1.309-.234-2.589-1.257-2.866-1.023-.269-2.119.568-2.448 1.877Z"/></g><defs><clipPath id="a"><path fill="#fff" d="M119 43h315v315H119z"/></clipPath></defs></svg>