<svg xmlns="http://www.w3.org/2000/svg" width="554" height="401" fill="none"><path fill="#fff" d="M0 39C0 17.46 17.46 0 39 0h515v401H0V39Z"/><path fill="#E0E0E0" d="m445.375 191.16-44.632 14.748 8.959 7.46-38.621 40.39-33.853-29.038-135.132 110.616 1.189.018h33.664l99.949-81.814 35.689 30.614 54.133-56.616h.001l9.67 8.052 8.984-44.43Z"/><path fill="#2E3552" d="M507.476 348H46.524c-.289 0-.524-.384-.524-.854v-.292c0-.47.235-.854.524-.854h460.952c.289 0 .524.384.524.854v.292c0 .47-.235.854-.524.854Z"/><path fill="#CECECE" d="m228.968 277.373-10.496 69.703-93.017-13.982-.002-.002-39.19-5.891L96.759 257.5l73.179 10.999 59.03 8.874Z"/><path fill="#E0E0E0" d="m220.236 284.032-8.151 54.113-118.83-17.863 8.15-54.114 118.831 17.864Zm-8.8 47.226 6.146-40.811a5.073 5.073 0 0 0-4.265-5.77l-105.4-15.844a5.171 5.171 0 0 0-5.881 4.338l-6.12 40.646a5.122 5.122 0 0 0 4.305 5.825l105.469 15.854a5.05 5.05 0 0 0 5.746-4.238Z"/><path fill="#E0E0E0" d="M154.552 316.715c-8.048-1.211-13.591-8.708-12.38-16.75 1.211-8.04 8.716-13.578 16.766-12.369 8.048 1.209 13.591 8.709 12.38 16.75-1.211 8.042-8.718 13.58-16.766 12.369Z"/><path fill="#CECECE" d="m237.529 277.698-55.336 43.73-58.355-73.702-24.59-31.054 55.336-43.729 45.911 57.981 37.034 46.774Z"/><path fill="#E0E0E0" d="m226.599 276.597-42.96 33.949-74.553-94.157 42.961-33.95 74.552 94.158Zm-38.725 28.477 32.399-25.604a5.067 5.067 0 0 0 .831-7.124l-66.124-83.514a5.171 5.171 0 0 0-7.26-.846l-32.27 25.5a5.12 5.12 0 0 0-.84 7.194l66.168 83.566a5.056 5.056 0 0 0 7.096.828Z"/><path fill="#E0E0E0" d="M174.939 259.404c7.133-3.916 9.738-12.867 5.818-19.993-3.92-7.127-12.88-9.729-20.013-5.813-7.133 3.916-9.738 12.867-5.818 19.994 3.92 7.126 12.88 9.728 20.013 5.812Z"/><path fill="#FFA412" d="M357.154 200.046c.057-.122.128-.231.209-.332v-.002c.062-.074.129-.143.204-.207l.307-.311.082.06c1.573-.768 4.823.046 8.108 2.19 3.972 2.591 6.523 6.158 5.787 8.055l.111.083-.442.44a.996.996 0 0 1-.065.065l-.013.012-.003.002a1.793 1.793 0 0 1-.382.265l-.002.002c-1.554.813-4.837.004-8.16-2.163-4.044-2.639-6.615-6.291-5.741-8.159Z"/><path fill="#FFB93E" d="M366.538 200.974c-4.046-2.639-8.035-3.266-8.911-1.398-.876 1.866 1.697 5.519 5.743 8.158 4.046 2.639 8.035 3.267 8.911 1.398.876-1.866-1.695-5.519-5.743-8.158Z"/><path fill="#FFA412" d="M363.594 207.204c-1.693-1.108-3.153-2.444-4.11-3.761-.978-1.349-1.316-2.527-.951-3.323.185-.405.536-.684 1.04-.829 1.493-.429 4.138.393 6.74 2.095 1.695 1.108 3.153 2.444 4.11 3.761.978 1.348 1.316 2.527.952 3.323-.186.404-.536.684-1.04.828a3.228 3.228 0 0 1-.89.114c-1.536 0-3.708-.806-5.851-2.208Zm-3.938-7.626c-.418.12-.704.344-.853.668-.313.684.023 1.785.922 3.026.936 1.288 2.367 2.598 4.032 3.686 2.073 1.358 4.23 2.158 5.697 2.158.297 0 .564-.033.799-.1.418-.12.704-.345.853-.668.313-.684-.023-1.786-.922-3.026-.936-1.289-2.367-2.598-4.032-3.687-2.075-1.358-4.23-2.156-5.696-2.156a2.808 2.808 0 0 0-.8.099Zm21.939-94.377a1.157 1.157 0 0 1 .294-.382l.218-.221.056.043c1.117-.546 3.424.033 5.757 1.555 2.82 1.84 4.63 4.373 4.108 5.718l.08.058-.313.313c-.015.016-.03.032-.046.046l-.009.009-.004.002c-.079.072-.17.136-.27.189l-.002.001c-1.102.578-3.434.002-5.792-1.535-2.874-1.877-4.698-4.47-4.077-5.796Z"/><path fill="#FFB93E" d="M388.256 105.858c-2.873-1.873-5.705-2.319-6.326-.993-.621 1.325 1.203 3.918 4.076 5.792 2.873 1.873 5.705 2.319 6.326.993.623-1.326-1.203-3.918-4.076-5.792Z"/><path fill="#FFA412" d="M386.167 110.282c-1.203-.787-2.238-1.736-2.917-2.671-.696-.956-.935-1.794-.676-2.359.132-.288.38-.486.739-.589 1.06-.306 2.939.279 4.786 1.487 1.203.786 2.238 1.735 2.917 2.67.696.956.934 1.794.676 2.36-.133.288-.38.486-.739.588-.188.053-.4.08-.632.08-1.09 0-2.633-.571-4.154-1.566Zm-2.795-5.416c-.298.085-.501.246-.605.474-.223.484.016 1.267.654 2.148.664.915 1.681 1.843 2.863 2.617 1.472.963 3.002 1.531 4.044 1.531.211 0 .402-.023.568-.071.297-.085.501-.246.605-.474.223-.484-.016-1.267-.655-2.147-.663-.916-1.68-1.845-2.862-2.618-1.472-.963-3.002-1.53-4.044-1.53-.213 0-.404.023-.568.07Zm8.536 75.52a1.047 1.047 0 0 0-.154-.242 1.056 1.056 0 0 0-.149-.15l-.224-.228-.059.044c-1.15-.562-3.524.034-5.925 1.599-2.903 1.893-4.766 4.5-4.228 5.886l-.081.06.322.322.047.048.009.008.004.002c.081.074.175.14.279.195l.002.001c1.136.594 3.535.004 5.962-1.58 2.956-1.932 4.833-4.602 4.195-5.965Z"/><path fill="#FFB93E" d="M385.051 181.063c2.956-1.928 5.871-2.386 6.512-1.021.639 1.364-1.239 4.033-4.197 5.961-2.956 1.929-5.871 2.386-6.512 1.022-.639-1.365 1.24-4.033 4.197-5.962Z"/><path fill="#FFA412" d="M382.928 187.228c-.241 0-.458-.027-.651-.083-.368-.106-.625-.31-.761-.607-.267-.581-.02-1.444.695-2.428.699-.962 1.766-1.939 3.002-2.748 1.902-1.245 3.834-1.844 4.926-1.531.368.106.624.309.761.606.267.582.019 1.442-.696 2.429-.699.963-1.765 1.938-3.002 2.748-1.564 1.027-3.153 1.614-4.274 1.614Zm6.569-7.259c-1.072 0-2.647.585-4.163 1.576-1.216.796-2.263 1.754-2.946 2.694-.658.905-.902 1.711-.674 2.211.108.237.319.399.623.488.171.049.368.072.584.072 1.072 0 2.646-.585 4.162-1.576 1.216-.796 2.263-1.752 2.946-2.694.658-.905.902-1.711.674-2.211-.108-.237-.318-.399-.623-.488a2.204 2.204 0 0 0-.583-.072Zm-31.086-52.543a.694.694 0 0 1 .184-.24l.136-.138.035.027c.699-.343 2.144.021 3.604.974 1.766 1.152 2.9 2.737 2.572 3.58l.05.038-.197.196c-.008.01-.019.019-.028.028l-.005.005-.002.002a.746.746 0 0 1-.17.118h-.002c-.69.361-2.149.002-3.626-.961-1.798-1.175-2.941-2.8-2.551-3.629Z"/><path fill="#FFB93E" d="M362.58 127.838c-1.799-1.174-3.572-1.451-3.961-.622-.389.829.754 2.453 2.553 3.627 1.799 1.173 3.572 1.451 3.961.622.39-.831-.753-2.455-2.553-3.627Z"/><path fill="#FFA412" d="M361.273 130.607c-.754-.493-1.401-1.087-1.827-1.672-.436-.599-.586-1.124-.423-1.478.083-.18.239-.304.461-.369.664-.191 1.84.175 2.997.931.754.494 1.402 1.087 1.826 1.672.435.6.586 1.125.423 1.478-.083.18-.239.304-.464.369-.116.034-.249.05-.396.05-.679 0-1.645-.359-2.597-.981Zm-1.751-3.392c-.186.053-.314.154-.379.297-.14.304.011.794.41 1.345.416.573 1.053 1.154 1.793 1.639.921.602 1.88.959 2.531.958.133 0 .252-.015.356-.045.186-.053.313-.153.378-.296.14-.304-.01-.794-.41-1.346-.416-.572-1.053-1.154-1.792-1.638-.922-.603-1.881-.96-2.532-.96a1.455 1.455 0 0 0-.355.046Zm-135.594 56.858a1.32 1.32 0 0 0-.349-.452l-.258-.262-.067.05c-1.322-.647-4.054.039-6.815 1.84-3.339 2.177-5.481 5.175-4.864 6.767l-.093.069.371.369c.018.02.036.038.055.055l.011.011.003.002c.094.086.202.16.32.222l.002.002c1.306.684 4.066.004 6.857-1.819 3.401-2.214 5.561-5.284 4.827-6.854Z"/><path fill="#FFB93E" d="M216.041 184.853c3.4-2.219 6.753-2.745 7.489-1.176.736 1.57-1.426 4.638-4.827 6.856-3.4 2.218-6.752 2.745-7.488 1.176-.735-1.568 1.425-4.638 4.826-6.856Z"/><path fill="#FFA412" d="M213.599 191.943c-.276 0-.527-.032-.748-.095-.425-.122-.718-.357-.874-.697-.306-.668-.023-1.659.8-2.792.803-1.107 2.029-2.229 3.453-3.161 2.187-1.429 4.409-2.12 5.665-1.76.425.122.718.357.874.696.306.669.023 1.66-.8 2.793-.803 1.106-2.029 2.229-3.453 3.16-1.801 1.179-3.627 1.856-4.917 1.856Zm7.555-8.349c-1.233 0-3.045.671-4.788 1.813-1.399.916-2.602 2.015-3.388 3.098-.755 1.041-1.038 1.969-.774 2.542.123.272.366.46.716.562.196.057.423.085.671.085 1.233 0 3.044-.672 4.787-1.814 1.399-.915 2.602-2.014 3.388-3.098.755-1.041 1.038-1.969.775-2.541-.124-.273-.366-.46-.717-.563a2.45 2.45 0 0 0-.67-.084Zm-33.268-42.101a.758.758 0 0 0-.201-.264l-.151-.152-.038.029c-.77-.377-2.361.023-3.969 1.071-1.944 1.267-3.191 3.013-2.832 3.941l-.055.041.216.215.032.032.005.006.002.001c.055.05.117.094.187.131h.002c.761.398 2.367.002 3.993-1.059 1.98-1.292 3.238-3.078 2.809-3.992Z"/><path fill="#FFB93E" d="M183.294 141.945c1.98-1.292 3.933-1.598 4.361-.684.428.914-.83 2.701-2.81 3.993-1.979 1.292-3.932 1.597-4.36.684-.429-.914.829-2.701 2.809-3.993Z"/><path fill="#FFA412" d="M181.873 146.076c-.161 0-.307-.018-.435-.055-.248-.071-.417-.207-.509-.406-.179-.389-.013-.967.465-1.627.467-.645 1.182-1.297 2.011-1.839 1.274-.833 2.568-1.236 3.298-1.026.248.071.418.207.51.407.178.389.012.967-.466 1.626-.467.645-1.181 1.297-2.011 1.84-1.049.686-2.112 1.08-2.863 1.08Zm4.399-4.862c-.719 0-1.773.392-2.789 1.055-.813.532-1.514 1.173-1.972 1.804-.441.607-.605 1.146-.451 1.481.072.158.212.269.417.327.115.034.246.05.391.05.718 0 1.773-.393 2.788-1.055.814-.532 1.515-1.174 1.973-1.805.44-.606.605-1.145.451-1.481-.073-.157-.212-.269-.417-.327a1.385 1.385 0 0 0-.391-.049Zm34.146 12.628a.913.913 0 0 1 .131-.206c.039-.046.081-.09.127-.129l.193-.195.051.037c.984-.48 3.015.029 5.069 1.368 2.482 1.619 4.076 3.85 3.616 5.034l.071.051-.276.276a.793.793 0 0 1-.041.041l-.007.007-.002.002c-.07.063-.15.118-.239.166l-.001.001c-.972.509-3.024.002-5.101-1.352-2.531-1.65-4.138-3.932-3.591-5.101Z"/><path fill="#FFB93E" d="M226.283 154.422c-2.53-1.649-5.023-2.041-5.57-.875-.546 1.167 1.06 3.45 3.59 5.099 2.53 1.65 5.022 2.042 5.569.875.547-1.166-1.06-3.45-3.589-5.099Z"/><path fill="#FFA412" d="M224.443 158.317c-1.058-.692-1.971-1.527-2.569-2.35-.612-.843-.823-1.58-.595-2.077.117-.253.335-.428.651-.518.935-.269 2.587.246 4.213 1.31 1.058.693 1.971 1.527 2.569 2.351.612.843.822 1.58.594 2.076-.117.253-.334.428-.651.518a2.001 2.001 0 0 1-.557.071c-.957-.002-2.316-.504-3.655-1.381Zm-2.461-4.768c-.262.076-.441.215-.533.417-.196.428.014 1.117.577 1.891.584.806 1.479 1.624 2.519 2.305 1.297.848 2.643 1.348 3.562 1.348.185 0 .353-.021.498-.061.262-.076.441-.216.533-.418.196-.427-.014-1.117-.577-1.891-.585-.806-1.479-1.624-2.519-2.304-1.297-.849-2.643-1.349-3.561-1.349-.186 0-.354.021-.499.062Z"/><path fill="#FFB93E" d="M317.451 342.446v3.057c0 .244-.089.471-.241.658a1.403 1.403 0 0 1-.66.442 1.693 1.693 0 0 1-.504.079h-58.057c-.748 0-1.365-.498-1.403-1.117l-.001-.06v-3.058l.001-.06c.038-.62.655-1.118 1.403-1.118h58.057a1.693 1.693 0 0 1 .504.079c.269.087.499.244.66.442.152.186.241.412.241.656Z"/><path fill="#FFA412" d="M288.941 346.682h-31.104c-.667 0-1.219-.498-1.252-1.117l-.002-.06v-3.058c0-.019 0-.04.002-.06.033-.62.583-1.118 1.252-1.118h27.284c.437 1.592 1.453 3.798 3.82 5.413Zm21.445-5.415h-.66v5.415h.66v-5.415Zm-2.235 0h-.659v5.415h.659v-5.415Zm-2.678 0h-.66v5.415h.66v-5.415Zm-4.105 0h-.659v5.415h.659v-5.415Zm-4.341 0h-.66v5.415h.66v-5.415Zm-6.656 0h-.659v5.415h.659v-5.415Z"/><path fill="#FFA412" d="M284.139 341.267h-.66v5.415h.66v-5.415Zm-5.564 0h-.66v5.415h.66v-5.415Zm33.935 0h-.659v5.415h.659v-5.415Zm1.405 0h-.659v5.415h.659v-5.415Zm1.357 0h-.659v5.415h.659v-5.415Zm1.021.019v5.377a1.683 1.683 0 0 1-.248.019h-.411v-5.415h.411c.085 0 .167.007.248.019Zm.916.502v4.374a1.393 1.393 0 0 1-.659.442v-5.256c.269.086.499.242.659.44Z"/><path fill="#FFB93E" d="M311.243 337.031v3.058c0 .243-.089.47-.241.657a1.403 1.403 0 0 1-.66.442 1.693 1.693 0 0 1-.504.079h-58.057c-.748 0-1.365-.498-1.403-1.117l-.001-.06v-3.057l.001-.06c.039-.621.655-1.118 1.403-1.118h58.057c.037 0 .074.002.112.004.016 0 .031.002.047.004a.867.867 0 0 1 .053.005l.038.005c.088.013.175.034.256.06.013.004.025.007.037.013.013.003.025.008.036.012l.07.028.041.02a.677.677 0 0 1 .101.053l.073.044.054.037.004.002c.012.009.025.017.035.026a1.235 1.235 0 0 1 .129.117l.027.028a1.047 1.047 0 0 1 .292.718Z"/><path fill="#FFA412" d="M282.735 341.267h-31.104c-.669 0-1.219-.498-1.253-1.117l-.001-.06v-3.057l.001-.06c.034-.621.584-1.118 1.253-1.118h27.282l.037.133c.457 1.58 1.479 3.708 3.785 5.279Zm21.443-5.413h-.659v5.415h.659v-5.415Zm-2.233 0h-.659v5.415h.659v-5.415Zm-2.678 0h-.659v5.415h.659v-5.415Zm-4.106 0h-.66v5.415h.66v-5.415Zm-4.342 0h-.659v5.415h.659v-5.415Zm-6.655 0h-.66v5.415h.66v-5.415Z"/><path fill="#FFA412" d="M277.931 335.854h-.66v5.415h.66v-5.415Zm-5.564 0h-.659v5.415h.659v-5.415Zm33.938 0h-.66v5.415h.66v-5.415Zm1.404 0h-.659v5.415h.659v-5.415Zm1.356 0h-.66v5.415h.66v-5.415Zm1.02.017v5.377a1.67 1.67 0 0 1-.247.019h-.412v-5.415h.412c.085.001.168.007.247.019Zm.917.502v4.374a1.398 1.398 0 0 1-.659.442v-5.256c.27.086.5.242.659.44Z"/><path fill="#FFB93E" d="M314.244 331.749v3.058c0 .244-.089.47-.241.658a1.401 1.401 0 0 1-.66.441 1.467 1.467 0 0 1-.256.06c-.082.013-.163.02-.248.02h-58.057c-.233 0-.453-.048-.647-.133-.411-.18-.704-.526-.75-.931l-.006-.053-.002-.06v-3.058c0-.019 0-.041.002-.06.039-.62.655-1.119 1.403-1.119h58.057c.085 0 .166.007.248.02.088.012.175.033.256.06.269.086.499.242.66.442.152.187.241.413.241.655Z"/><path fill="#FFA412" d="M285.733 335.986H254.63a1.31 1.31 0 0 1-.579-.133 1.177 1.177 0 0 1-.67-.931l-.006-.053-.001-.06v-3.058l.001-.06c.034-.62.586-1.119 1.253-1.119h27.284c.424 1.55 1.396 3.678 3.628 5.281l.193.133Zm21.446-5.414h-.66v5.416h.66v-5.416Zm-2.235 0h-.659v5.416h.659v-5.416Zm-2.678 0h-.66v5.416h.66v-5.416Zm-4.107 0h-.659v5.416h.659v-5.416Zm-4.339 0h-.66v5.416h.66v-5.416Zm-6.658 0h-.659v5.416h.659v-5.416Z"/><path fill="#FFA412" d="M280.931 330.572h-.659v5.416h.659v-5.416Zm-5.564 0h-.659v5.416h.659v-5.416Zm33.936 0h-.659v5.416h.659v-5.416Zm1.405 0h-.659v5.416h.659v-5.416Zm1.357 0h-.659v5.416h.659v-5.416Zm1.021.018v5.376c-.081.013-.163.02-.248.02h-.411v-5.416h.411c.085.002.167.007.248.02Zm.916.501v4.375a1.405 1.405 0 0 1-.659.442v-5.257c.269.087.499.243.659.44Z"/><path fill="#FFB93E" d="M315.634 326.335v3.058c0 .244-.089.47-.241.657a1.396 1.396 0 0 1-.66.442 1.425 1.425 0 0 1-.256.06c-.082.013-.163.02-.248.02h-58.057c-.748 0-1.365-.499-1.403-1.117l-.001-.06v-3.058l.001-.06c.036-.574.566-1.043 1.237-1.11.055-.005.11-.009.166-.009h58.057c.085 0 .166.007.248.02.088.012.175.033.256.06.269.086.499.244.66.442.152.185.241.411.241.655Z"/><path fill="#FFA412" d="M287.124 330.572H256.02c-.667 0-1.219-.499-1.252-1.117l-.002-.06v-3.058c0-.019 0-.041.002-.06.031-.573.504-1.043 1.104-1.11a1.4 1.4 0 0 1 .148-.009h27.284l.002.009c.439 1.591 1.454 3.791 3.818 5.405Zm21.445-5.416h-.659v5.416h.659v-5.416Zm-2.234 0h-.66v5.416h.66v-5.416Zm-2.679 0h-.659v5.416h.659v-5.416Zm-4.104 0h-.66v5.416h.66v-5.416Zm-4.342 0h-.659v5.416h.659v-5.416Zm-6.657 0h-.659v5.416h.659v-5.416Z"/><path fill="#FFA412" d="M282.322 325.156h-.66v5.416h.66v-5.416Zm-5.564 0h-.66v5.416h.66v-5.416Zm33.936 0h-.66v5.416h.66v-5.416Zm1.405 0h-.66v5.416h.66v-5.416Zm1.356 0h-.659v5.416h.659v-5.416Zm1.021.02v5.376c-.081.013-.162.02-.247.02h-.412v-5.416h.412c.085 0 .166.007.247.02Zm.917.499v4.375a1.403 1.403 0 0 1-.66.442v-5.257c.269.087.499.242.66.44Z"/><path fill="#FFB93E" d="M311.365 320.929v3.058c0 .243-.089.47-.241.657a1.396 1.396 0 0 1-.66.442 1.345 1.345 0 0 1-.256.06l-.082.011-.046.003-.046.004a1.801 1.801 0 0 1-.074.001h-58.057c-.748 0-1.366-.498-1.403-1.118l-.001-.06v-3.058l.001-.06a.39.39 0 0 1 .004-.05c.056-.498.488-.91 1.052-1.032.015-.003.029-.005.043-.009.097-.017.2-.028.304-.028h58.057c.042 0 .085.002.126.005l.056.006h.002c.021.001.042.005.065.008.089.013.176.034.257.061.269.086.499.243.66.44.15.189.239.415.239.659Z"/><path fill="#FFA412" d="M282.856 325.165h-31.103c-.667 0-1.219-.498-1.253-1.118l-.001-.06v-3.058l.001-.06a.39.39 0 0 1 .004-.05c.051-.51.451-.928.973-1.039.018-.005.035-.007.053-.011a1.36 1.36 0 0 1 .223-.019h27.284l.01.039c.441 1.589 1.456 3.765 3.797 5.368a.125.125 0 0 0 .012.008Zm21.444-5.415h-.659v5.415h.659v-5.415Zm-2.234 0h-.66v5.415h.66v-5.415Zm-2.679 0h-.659v5.415h.659v-5.415Zm-4.104 0h-.66v5.415h.66v-5.415Zm-4.342 0h-.659v5.415h.659v-5.415Zm-6.655 0h-.66v5.415h.66v-5.415Z"/><path fill="#FFA412" d="M278.053 319.75h-.659v5.415h.659v-5.415Zm-5.564 0h-.66v5.415h.66v-5.415Zm33.937 0h-.659v5.415h.659v-5.415Zm1.405 0h-.659v5.415h.659v-5.415Zm1.355 0h-.659v5.415h.659v-5.415Zm1.021.019v5.377a1.67 1.67 0 0 1-.247.019h-.412v-5.415h.412c.085 0 .168.007.247.019Zm.917.502v4.375a1.394 1.394 0 0 1-.66.441v-5.256c.271.085.501.242.66.44Z"/><path fill="#FFB93E" d="M311.243 315.552v3.057c0 .244-.089.47-.241.658a1.403 1.403 0 0 1-.66.442 1.582 1.582 0 0 1-.2.051h-.001l-.055.01c-.082.013-.163.02-.248.02h-58.057a1.574 1.574 0 0 1-.251-.02c-.631-.095-1.118-.549-1.152-1.097l-.001-.06v-3.058l.001-.06c.039-.62.655-1.117 1.403-1.117h58.057l.112.003.047.004.053.005.038.006a1.425 1.425 0 0 1 .293.072l.036.012.07.029c.025.012.052.023.077.037.023.01.044.023.065.035l.073.044.054.038.004.001c.012.009.025.018.035.027a1.061 1.061 0 0 1 .156.145.734.734 0 0 1 .051.06c.152.185.241.412.241.656Z"/><path fill="#FFA412" d="M282.735 319.789h-31.104c-.025 0-.049 0-.074-.002-.027-.002-.053-.003-.08-.007-.598-.069-1.068-.537-1.099-1.108l-.001-.06v-3.058l.001-.06c.034-.62.584-1.117 1.253-1.117h27.282l.037.133c.452 1.569 1.464 3.674 3.726 5.242l.059.037Zm21.443-5.416h-.659v5.416h.659v-5.416Zm-2.233 0h-.659v5.416h.659v-5.416Zm-2.678 0h-.659v5.416h.659v-5.416Zm-4.106 0h-.66v5.416h.66v-5.416Zm-4.342 0h-.659v5.416h.659v-5.416Zm-6.655 0h-.66v5.416h.66v-5.416Z"/><path fill="#FFA412" d="M277.931 314.373h-.66v5.416h.66v-5.416Zm-5.564 0h-.659v5.416h.659v-5.416Zm33.938 0h-.66v5.416h.66v-5.416Zm1.404 0h-.659v5.416h.659v-5.416Zm1.356 0h-.66v5.416h.66v-5.416Zm1.02.019v5.377c-.081.012-.162.02-.247.02h-.412v-5.416h.412c.085 0 .168.007.247.019Zm.917.502v4.375a1.396 1.396 0 0 1-.659.441v-5.256c.27.087.5.242.659.44Z"/><path fill="#FFB93E" d="M314.244 310.271v3.058c0 .243-.089.47-.241.657a1.396 1.396 0 0 1-.66.442 1.693 1.693 0 0 1-.504.079h-58.057c-.233 0-.453-.047-.647-.132-.411-.18-.704-.527-.75-.932a8.429 8.429 0 0 1-.006-.053l-.002-.06v-3.057c0-.02 0-.041.002-.06.039-.621.655-1.119 1.403-1.119h58.057a1.693 1.693 0 0 1 .504.079c.269.087.499.242.66.442.152.186.241.412.241.656Z"/><path fill="#FFA412" d="M285.733 314.507H254.63a1.31 1.31 0 0 1-.579-.132 1.179 1.179 0 0 1-.67-.932l-.006-.053-.001-.06v-3.057l.001-.06c.034-.621.586-1.119 1.253-1.119h27.284c.424 1.55 1.396 3.678 3.628 5.281l.193.132Zm21.446-5.413h-.66v5.415h.66v-5.415Zm-2.235 0h-.659v5.415h.659v-5.415Zm-2.678 0h-.66v5.415h.66v-5.415Zm-4.107 0h-.659v5.415h.659v-5.415Zm-4.339 0h-.66v5.415h.66v-5.415Zm-6.658 0h-.659v5.415h.659v-5.415Z"/><path fill="#FFA412" d="M280.931 309.094h-.659v5.415h.659v-5.415Zm-5.564 0h-.659v5.415h.659v-5.415Zm33.936 0h-.659v5.415h.659v-5.415Zm1.405 0h-.659v5.415h.659v-5.415Zm1.357 0h-.659v5.415h.659v-5.415Zm1.021.017v5.377a1.683 1.683 0 0 1-.248.019h-.411v-5.415h.411c.085 0 .167.007.248.019Zm.916.503v4.374a1.398 1.398 0 0 1-.659.442v-5.256c.269.086.499.242.659.44Z"/><path fill="#FFB93E" d="M318.986 304.855v3.058c0 .243-.088.47-.24.657-.16.198-.39.354-.66.442a1.68 1.68 0 0 1-.504.079h-58.057c-.749 0-1.366-.498-1.403-1.117l-.002-.06v-3.057c0-.02 0-.041.002-.06.035-.573.566-1.043 1.237-1.11.054-.006.109-.009.166-.009h58.057a1.68 1.68 0 0 1 .504.079c.269.087.499.244.66.442.152.187.24.414.24.656Z"/><path fill="#FFA412" d="M290.478 309.091h-31.104c-.667 0-1.218-.498-1.252-1.117l-.002-.06v-3.057c0-.02 0-.041.002-.06.032-.573.504-1.043 1.104-1.11.048-.006.097-.009.148-.009h27.284l.002.009c.437 1.592 1.453 3.791 3.818 5.404Zm21.445-5.413h-.659v5.415h.659v-5.415Zm-2.234 0h-.659v5.415h.659v-5.415Zm-2.679 0h-.659v5.415h.659v-5.415Zm-4.106 0h-.659v5.415h.659v-5.415Zm-4.341 0h-.66v5.415h.66v-5.415Zm-6.656 0h-.659v5.415h.659v-5.415Z"/><path fill="#FFA412" d="M285.676 303.678h-.659v5.415h.659v-5.415Zm-5.564 0h-.659v5.415h.659v-5.415Zm33.936 0h-.659v5.415h.659v-5.415Zm1.405 0h-.66v5.415h.66v-5.415Zm1.357 0h-.66v5.415h.66v-5.415Zm1.02.017v5.377a1.67 1.67 0 0 1-.247.019h-.412v-5.415h.412c.083.002.166.007.247.019Zm.917.503v4.374a1.398 1.398 0 0 1-.659.442v-5.256a1.4 1.4 0 0 1 .659.44Z"/><path fill="#FFB93E" d="M311.365 299.451v3.057c0 .244-.089.47-.241.658a1.403 1.403 0 0 1-.66.442 1.425 1.425 0 0 1-.256.06l-.082.01-.065.006-.032.001-.069.002h-58.057c-.748 0-1.366-.498-1.403-1.119l-.001-.06v-3.057l.001-.061c.037-.62.655-1.117 1.403-1.117h58.057a1.424 1.424 0 0 1 .248.02 1.425 1.425 0 0 1 .378.106l.073.032.007.003.071.037c.005.002.008.006.012.007l.064.039c.049.032.095.066.139.103.015.01.027.023.039.035.002.002.006.004.007.007a.261.261 0 0 1 .031.029l.04.042.057.064c.15.183.239.41.239.654Z"/><path fill="#FFA412" d="M282.856 303.687h-31.103c-.667 0-1.219-.498-1.253-1.119l-.001-.06v-3.057l.001-.061c.034-.62.584-1.117 1.253-1.117h27.284c.01.041.023.084.035.126.453 1.58 1.474 3.708 3.772 5.281.004 0 .007.004.012.007Zm21.444-5.416h-.659v5.416h.659v-5.416Zm-2.234 0h-.66v5.416h.66v-5.416Zm-2.679 0h-.659v5.416h.659v-5.416Zm-4.104 0h-.66v5.416h.66v-5.416Zm-4.342 0h-.659v5.416h.659v-5.416Zm-6.655 0h-.66v5.416h.66v-5.416Z"/><path fill="#FFA412" d="M278.053 298.271h-.659v5.416h.659v-5.416Zm-5.564 0h-.66v5.416h.66v-5.416Zm33.937 0h-.659v5.416h.659v-5.416Zm1.405 0h-.659v5.416h.659v-5.416Zm1.355 0h-.659v5.416h.659v-5.416Zm1.021.02v5.376c-.081.013-.162.02-.247.02h-.412v-5.416h.412c.085 0 .168.008.247.02Zm.917.501v4.374a1.396 1.396 0 0 1-.66.442v-5.256c.271.086.501.242.66.44Z"/><path fill="#FFB93E" d="M315.634 294.161v3.057c0 .244-.089.47-.241.658a1.403 1.403 0 0 1-.66.442 1.62 1.62 0 0 1-.504.079h-58.057c-.224 0-.438-.044-.628-.125-.423-.179-.725-.532-.771-.944a.388.388 0 0 1-.004-.048l-.001-.06v-3.058l.001-.06c.036-.574.566-1.043 1.237-1.11.055-.005.11-.009.166-.009h58.057c.085 0 .166.007.248.02.088.012.175.033.256.06.269.087.499.244.66.442.152.185.241.412.241.656Z"/><path fill="#FFA412" d="M287.124 298.397H256.02a1.28 1.28 0 0 1-.559-.125 1.185 1.185 0 0 1-.692-.992l-.001-.06v-3.058l.001-.06c.032-.572.505-1.043 1.104-1.11.048-.005.098-.009.149-.009h27.284l.002.009c.426 1.552 1.401 3.68 3.639 5.281.056.041.117.082.177.124Zm21.445-5.416h-.659v5.416h.659v-5.416Zm-2.234 0h-.66v5.416h.66v-5.416Zm-2.679 0h-.659v5.416h.659v-5.416Zm-4.104 0h-.66v5.416h.66v-5.416Zm-4.342 0h-.659v5.416h.659v-5.416Zm-6.657 0h-.66v5.416h.66v-5.416Z"/><path fill="#FFA412" d="M282.322 292.981h-.66v5.416h.66v-5.416Zm-5.564 0h-.66v5.416h.66v-5.416Zm33.936 0h-.66v5.416h.66v-5.416Zm1.404 0h-.659v5.416h.659v-5.416Zm1.357 0h-.659v5.416h.659v-5.416Zm1.021.02v5.376c-.081.013-.162.02-.247.02h-.412v-5.416h.412c.085 0 .166.008.247.02Zm.916.502v4.374a1.393 1.393 0 0 1-.659.442v-5.257c.269.085.499.241.659.441Z"/><path fill="#FFB93E" d="M317.451 288.754v3.058c0 .243-.089.47-.241.657a1.396 1.396 0 0 1-.66.442 1.382 1.382 0 0 1-.256.06l-.082.011-.046.003c-.014.002-.03.002-.046.002-.025.002-.049.002-.074.002h-58.057c-.748 0-1.366-.499-1.403-1.119-.002-.02-.002-.041-.002-.06v-3.058c0-.019 0-.041.002-.06.037-.62.655-1.119 1.403-1.119h58.057c.085 0 .166.007.248.02.088.012.175.033.256.06.269.086.499.244.66.442.152.189.241.415.241.659Z"/><path fill="#FFA412" d="M288.941 292.991h-31.104c-.667 0-1.219-.499-1.252-1.119-.002-.02-.002-.041-.002-.06v-3.058c0-.019 0-.041.002-.06.033-.62.583-1.119 1.252-1.119h27.284c.435 1.591 1.447 3.791 3.807 5.407.004.003.009.005.013.009Zm21.445-5.416h-.66v5.416h.66v-5.416Zm-2.235 0h-.659v5.416h.659v-5.416Zm-2.678 0h-.66v5.416h.66v-5.416Zm-4.105 0h-.659v5.416h.659v-5.416Zm-4.341 0h-.66v5.416h.66v-5.416Zm-6.656 0h-.659v5.416h.659v-5.416Z"/><path fill="#FFA412" d="M284.139 287.575h-.66v5.416h.66v-5.416Zm-5.564 0h-.66v5.416h.66v-5.416Zm33.937 0h-.659v5.416h.659v-5.416Zm1.405 0h-.659v5.416h.659v-5.416Zm1.355 0h-.659v5.416h.659v-5.416Zm1.021.02v5.376c-.081.013-.163.02-.248.02h-.411v-5.416h.411c.085 0 .167.007.248.02Zm.916.501v4.375a1.4 1.4 0 0 1-.659.442v-5.257c.269.087.499.242.659.44Z"/><path fill="#FFB93E" d="M314.431 283.246v3.058c0 .244-.089.47-.241.657a1.396 1.396 0 0 1-.66.442 1.273 1.273 0 0 1-.256.06c-.082.013-.163.02-.248.02h-58.057c-.748 0-1.365-.499-1.403-1.119l-.001-.06v-3.058l.001-.06c.039-.62.655-1.119 1.403-1.119h58.057c.085 0 .166.007.248.02.088.012.175.033.256.06.269.087.499.244.66.442.152.187.241.413.241.657Z"/><path fill="#FFA412" d="M285.923 287.483h-31.104c-.667 0-1.219-.499-1.253-1.119l-.001-.06v-3.058l.001-.06c.034-.62.586-1.119 1.253-1.119h27.284c.435 1.595 1.451 3.799 3.82 5.416Zm21.443-5.416h-.659v5.416h.659v-5.416Zm-2.233 0h-.659v5.416h.659v-5.416Zm-2.678 0h-.66v5.416h.66v-5.416Zm-4.106 0h-.66v5.416h.66v-5.416Zm-4.342 0h-.659v5.416h.659v-5.416Zm-6.656 0h-.659v5.416h.659v-5.416Z"/><path fill="#FFA412" d="M281.121 282.067h-.66v5.416h.66v-5.416Zm-5.566 0h-.659v5.416h.659v-5.416Zm33.938 0h-.66v5.416h.66v-5.416Zm1.404 0h-.659v5.416h.659v-5.416Zm1.356 0h-.66v5.416h.66v-5.416Zm1.02.02v5.376c-.081.013-.162.02-.247.02h-.412v-5.416h.412c.085 0 .168.007.247.02Zm.917.502v4.374a1.403 1.403 0 0 1-.66.442v-5.257c.271.087.501.243.66.441Z"/><path fill="#FFB93E" d="M308.225 277.831v3.058c0 .244-.089.47-.241.658a1.385 1.385 0 0 1-.66.44 1.62 1.62 0 0 1-.504.079h-58.057c-.748 0-1.365-.498-1.403-1.117l-.001-.06v-3.058l.001-.06c.039-.62.655-1.117 1.403-1.117h58.057c.037 0 .074.002.112.004l.047.003.052.006.037.005c.088.012.175.034.256.06.013.004.025.007.037.012l.036.013.071.028c.014.005.026.012.04.02a.677.677 0 0 1 .101.053l.073.044a.73.73 0 0 1 .058.039 1.096 1.096 0 0 1 .138.115c.011.008.019.017.028.026l.027.028a1.057 1.057 0 0 1 .292.721Z"/><path fill="#FFA412" d="M279.715 282.068h-31.104c-.668 0-1.219-.498-1.252-1.117l-.002-.06v-3.058c0-.021 0-.04.002-.06.033-.62.584-1.117 1.252-1.117h27.284l.039.135c.455 1.578 1.477 3.706 3.781 5.277Zm21.443-5.416h-.659v5.416h.659v-5.416Zm-2.232 0h-.66v5.416h.66v-5.416Zm-2.679 0h-.659v5.416h.659v-5.416Zm-4.106 0h-.66v5.416h.66v-5.416Zm-4.342 0h-.659v5.416h.659v-5.416Zm-6.655 0h-.66v5.416h.66v-5.416Z"/><path fill="#FFA412" d="M274.913 276.652h-.66v5.416h.66v-5.416Zm-5.564 0h-.66v5.416h.66v-5.416Zm33.936 0h-.66v5.416h.66v-5.416Zm1.405 0h-.66v5.416h.66v-5.416Zm1.357 0h-.66v5.416h.66v-5.416Zm1.02.02v5.376c-.081.013-.162.02-.247.02h-.412v-5.416h.412c.083 0 .166.007.247.02Zm.917.501v4.375a1.403 1.403 0 0 1-.66.442v-5.257c.269.087.499.243.66.44Z"/><path fill="#FFB93E" d="M311.224 272.55v3.058c0 .244-.089.47-.241.657a1.396 1.396 0 0 1-.66.442 1.693 1.693 0 0 1-.504.08h-58.057a1.58 1.58 0 0 1-.647-.135c-.411-.18-.704-.526-.75-.931a8.429 8.429 0 0 0-.006-.053l-.001-.06v-3.058l.001-.06c.039-.62.655-1.119 1.403-1.119h58.057c.085 0 .166.007.248.02.088.012.175.033.256.06.269.086.499.242.66.442.152.187.241.413.241.657Z"/><path fill="#FFA412" d="M282.715 276.787h-31.103c-.209 0-.405-.048-.579-.135a1.182 1.182 0 0 1-.67-.931l-.006-.053-.001-.06v-3.058l.001-.06c.034-.62.586-1.119 1.253-1.119h27.284c.425 1.55 1.396 3.678 3.629 5.281.063.046.127.09.192.135Zm21.444-5.414h-.66v5.416h.66v-5.416Zm-2.235 0h-.659v5.416h.659v-5.416Zm-2.677 0h-.659v5.416h.659v-5.416Zm-4.106 0h-.659v5.416h.659v-5.416Zm-4.341 0h-.66v5.416h.66v-5.416Zm-6.656 0h-.659v5.416h.659v-5.416Z"/><path fill="#FFA412" d="M277.912 271.373h-.66v5.416h.66v-5.416Zm-5.564 0h-.66v5.416h.66v-5.416Zm33.937 0h-.659v5.416h.659v-5.416Zm1.405 0h-.659v5.416h.659v-5.416Zm1.355 0h-.659v5.416h.659v-5.416Zm1.021.018v5.376a1.68 1.68 0 0 1-.247.02h-.412v-5.416h.412c.084 0 .168.007.247.02Zm.916.502v4.375a1.405 1.405 0 0 1-.659.442v-5.257c.27.087.5.242.659.44Z"/><path fill="#FFB93E" d="M312.614 267.136v3.058c0 .244-.088.47-.241.657a1.378 1.378 0 0 1-.66.44 1.467 1.467 0 0 1-.256.06c-.081.013-.163.02-.248.02h-58.056c-.749 0-1.366-.499-1.403-1.117l-.002-.06v-3.058c0-.02 0-.041.002-.06.035-.575.566-1.043 1.236-1.11.055-.005.11-.009.167-.009h58.056a1.683 1.683 0 0 1 .504.08 1.4 1.4 0 0 1 .66.441c.153.188.241.414.241.658Z"/><path fill="#FFA412" d="M284.106 271.371h-31.104c-.667 0-1.219-.499-1.252-1.117l-.002-.06v-3.058c0-.02 0-.041.002-.06.031-.573.504-1.043 1.104-1.11a1.4 1.4 0 0 1 .148-.009h27.284l.002.009c.437 1.592 1.452 3.793 3.818 5.405Zm21.443-5.414h-.659v5.415h.659v-5.415Zm-2.232 0h-.66v5.415h.66v-5.415Zm-2.679 0h-.659v5.415h.659v-5.415Zm-4.106 0h-.66v5.415h.66v-5.415Zm-4.342 0h-.659v5.415h.659v-5.415Zm-6.655 0h-.66v5.415h.66v-5.415Z"/><path fill="#FFA412" d="M279.302 265.957h-.659v5.415h.659v-5.415Zm-5.564 0h-.659v5.415h.659v-5.415Zm33.938 0h-.66v5.415h.66v-5.415Zm1.404 0h-.659v5.415h.659v-5.415Zm1.355 0h-.659v5.415h.659v-5.415Zm1.021.018v5.376c-.081.012-.162.02-.247.02h-.412v-5.416h.412c.085.002.168.007.247.02Zm.917.502v4.375a1.394 1.394 0 0 1-.66.441v-5.256c.271.087.501.242.66.44Z"/><path fill="#FFB93E" d="M308.347 261.729v3.058c0 .244-.089.47-.241.658a1.403 1.403 0 0 1-.66.442 1.62 1.62 0 0 1-.256.06l-.082.01-.046.004c-.014.002-.03.002-.046.002l-.074.001h-58.057c-.748 0-1.365-.498-1.403-1.119l-.001-.06v-3.057l.001-.06a.39.39 0 0 1 .004-.05c.057-.498.488-.91 1.053-1.032l.042-.009c.097-.018.2-.028.304-.028h58.057c.043 0 .085.002.126.005l.056.005h.002l.066.009c.088.013.175.034.256.06.269.087.499.244.66.442.15.189.239.416.239.659Z"/><path fill="#FFA412" d="M279.837 265.966h-31.104c-.667 0-1.219-.498-1.252-1.119l-.002-.06v-3.057c0-.02 0-.041.002-.06 0-.018.001-.034.003-.05.051-.511.451-.928.973-1.039.018-.005.036-.007.053-.011a1.37 1.37 0 0 1 .223-.019h27.284l.011.039c.44 1.589 1.456 3.764 3.796 5.367l.013.009Zm21.443-5.415h-.659v5.415h.659v-5.415Zm-2.232 0h-.66v5.415h.66v-5.415Zm-2.679 0h-.659v5.415h.659v-5.415Zm-4.106 0h-.659v5.415h.659v-5.415Zm-4.342 0h-.659v5.415h.659v-5.415Zm-6.655 0h-.66v5.415h.66v-5.415Z"/><path fill="#FFA412" d="M275.035 260.551h-.66v5.415h.66v-5.415Zm-5.566 0h-.659v5.415h.659v-5.415Zm33.938 0h-.66v5.415h.66v-5.415Zm1.404 0h-.659v5.415h.659v-5.415Zm1.357 0h-.659v5.415h.659v-5.415Zm1.021.019v5.377a1.68 1.68 0 0 1-.247.019h-.412v-5.415h.412c.083 0 .166.007.247.019Zm.915.501v4.374a1.398 1.398 0 0 1-.659.442v-5.256c.27.086.5.242.659.44Z"/><path fill="#FFB93E" d="M308.225 256.352v3.058c0 .244-.089.47-.241.657a1.396 1.396 0 0 1-.66.442 1.43 1.43 0 0 1-.2.052h-.001l-.055.01c-.082.013-.163.02-.248.02h-58.057a1.56 1.56 0 0 1-.251-.02c-.631-.095-1.118-.549-1.152-1.097l-.001-.06v-3.058l.001-.06c.039-.621.655-1.117 1.403-1.117h58.057l.112.003.047.004.052.005a1.62 1.62 0 0 1 .33.078c.013.003.025.009.036.012.025.009.048.02.071.029.026.012.051.022.076.037.023.01.044.023.065.035l.073.044.054.037.004.004c.012.009.025.017.035.026.036.029.071.057.103.089l.028.026a.749.749 0 0 1 .078.089c.152.185.241.411.241.655Z"/><path fill="#FFA412" d="M279.715 260.59h-31.104c-.025 0-.049 0-.074-.002a2.158 2.158 0 0 1-.08-.007c-.598-.069-1.066-.537-1.098-1.108l-.002-.06v-3.058c0-.021 0-.041.002-.06.033-.621.584-1.117 1.252-1.117h27.284l.039.134c.451 1.57 1.461 3.675 3.726 5.242.018.009.035.022.055.036Zm21.443-5.416h-.659v5.415h.659v-5.415Zm-2.232 0h-.66v5.415h.66v-5.415Zm-2.679 0h-.659v5.415h.659v-5.415Zm-4.106 0h-.66v5.415h.66v-5.415Zm-4.342 0h-.659v5.415h.659v-5.415Zm-6.655 0h-.66v5.415h.66v-5.415Z"/><path fill="#FFA412" d="M274.913 255.174h-.66v5.415h.66v-5.415Zm-5.564 0h-.66v5.415h.66v-5.415Zm33.936 0h-.66v5.415h.66v-5.415Zm1.405 0h-.66v5.415h.66v-5.415Zm1.357 0h-.66v5.415h.66v-5.415Zm1.02.019v5.377a1.67 1.67 0 0 1-.247.019h-.412v-5.415h.412c.083 0 .166.007.247.019Zm.917.503v4.374a1.396 1.396 0 0 1-.66.442v-5.256c.269.085.499.242.66.44Z"/><path fill="#FFB93E" d="M311.224 251.072v3.058c0 .244-.089.47-.241.657a1.387 1.387 0 0 1-.66.441 1.693 1.693 0 0 1-.504.079h-58.057c-.233 0-.453-.048-.647-.134-.411-.181-.704-.527-.75-.932a8.429 8.429 0 0 1-.006-.053l-.001-.06v-3.058l.001-.06c.039-.62.655-1.118 1.403-1.118h58.057a1.693 1.693 0 0 1 .504.079c.269.087.499.244.66.442.152.189.241.415.241.659Z"/><path fill="#FFA412" d="M282.715 255.309h-31.103c-.209 0-.405-.048-.579-.134a1.185 1.185 0 0 1-.67-.932l-.006-.053-.001-.06v-3.058l.001-.06c.034-.62.586-1.118 1.253-1.118h27.284c.425 1.55 1.396 3.678 3.629 5.281.063.046.127.09.192.134Zm21.444-5.416h-.66v5.415h.66v-5.415Zm-2.235 0h-.659v5.415h.659v-5.415Zm-2.677 0h-.659v5.415h.659v-5.415Zm-4.106 0h-.659v5.415h.659v-5.415Zm-4.341 0h-.66v5.415h.66v-5.415Zm-6.656 0h-.659v5.415h.659v-5.415Z"/><path fill="#FFA412" d="M277.912 249.893h-.66v5.415h.66v-5.415Zm-5.564 0h-.66v5.415h.66v-5.415Zm33.937 0h-.659v5.415h.659v-5.415Zm1.405 0h-.659v5.415h.659v-5.415Zm1.355 0h-.659v5.415h.659v-5.415Zm1.021.019v5.377a1.68 1.68 0 0 1-.247.019h-.412v-5.415h.412c.084 0 .168.007.247.019Zm.916.502v4.374a1.398 1.398 0 0 1-.659.442v-5.256c.27.086.5.242.659.44Z"/><path fill="#FFB93E" d="M315.968 245.657v3.057c0 .244-.088.47-.24.658a1.403 1.403 0 0 1-.66.442 1.606 1.606 0 0 1-.504.079h-58.057c-.748 0-1.366-.498-1.403-1.117l-.002-.06v-3.058c0-.019 0-.04.002-.06.035-.572.566-1.042 1.237-1.11.055-.005.109-.009.166-.009h58.057a1.669 1.669 0 0 1 .504.08c.269.087.499.244.66.442.152.185.24.412.24.656Z"/><path fill="#FFA412" d="M287.458 249.893h-31.103c-.667 0-1.219-.498-1.253-1.117l-.001-.06v-3.058l.001-.06c.032-.572.505-1.042 1.104-1.11.048-.005.098-.009.149-.009h27.284l.002.009c.438 1.593 1.454 3.792 3.817 5.405Zm21.446-5.414h-.66v5.416h.66v-5.416Zm-2.235 0h-.659v5.416h.659v-5.416Zm-2.678 0h-.659v5.416h.659v-5.416Zm-4.105 0h-.659v5.416h.659v-5.416Zm-4.341 0h-.66v5.416h.66v-5.416Zm-6.656 0h-.659v5.416h.659v-5.416Z"/><path fill="#FFA412" d="M282.656 244.479h-.659v5.416h.659v-5.416Zm-5.564 0h-.659v5.416h.659v-5.416Zm33.938 0h-.659v5.416h.659v-5.416Zm1.405 0h-.659v5.416h.659v-5.416Zm1.355 0h-.659v5.416h.659v-5.416Zm1.021.018v5.377a1.683 1.683 0 0 1-.248.019h-.411v-5.415h.411c.085 0 .167.007.248.019Zm.916.502v4.374a1.393 1.393 0 0 1-.659.442v-5.256c.271.086.5.242.659.44Z"/><path fill="#FFB93E" d="M415.862 342.283v3.057c0 .246-.088.47-.241.66a1.394 1.394 0 0 1-.659.44c-.082.028-.17.047-.257.06a1.452 1.452 0 0 1-.249.019h-58.057c-.701 0-1.288-.436-1.391-1.002a.891.891 0 0 1-.012-.117v-3.179a.831.831 0 0 1 .012-.113c.103-.566.69-1.003 1.391-1.003h58.057a1.707 1.707 0 0 1 .506.078c.27.087.498.242.659.442.151.187.241.414.241.658Z"/><path fill="#FFA412" d="M387.35 346.519h-31.102c-.578 0-1.063-.373-1.206-.873a.891.891 0 0 1-.046-.246v-3.179a.831.831 0 0 1 .046-.242c.143-.502.63-.874 1.206-.874h27.284c.436 1.593 1.451 3.799 3.818 5.414Zm21.445-5.415h-.659v5.415h.659v-5.415Zm-2.232 0h-.66v5.415h.66v-5.415Zm-2.679 0h-.659v5.415h.659v-5.415Zm-4.106 0h-.659v5.415h.659v-5.415Zm-4.342 0h-.659v5.415h.659v-5.415Zm-6.655 0h-.659v5.415h.659v-5.415Z"/><path fill="#FFA412" d="M382.55 341.104h-.659v5.415h.659v-5.415Zm-5.566 0h-.659v5.415h.659v-5.415Zm33.938 0h-.66v5.415h.66v-5.415Zm1.405 0h-.66v5.415h.66v-5.415Zm1.357 0h-.66v5.415h.66v-5.415Zm1.019.019v5.377a1.693 1.693 0 0 1-.248.019h-.412v-5.415h.412c.085 0 .168.007.248.019Zm.916.502V346a1.387 1.387 0 0 1-.659.44v-5.256c.27.088.5.244.659.441Z"/><path fill="#FFB93E" d="M409.652 336.869v3.058c0 .242-.086.469-.238.656-.161.2-.39.355-.66.442a1.71 1.71 0 0 1-.259.06l-.122.014a1.306 1.306 0 0 1-.125.005h-58.057c-.701 0-1.288-.438-1.391-1.004-.007-.037-.01-.076-.014-.113l-.002-.06v-3.058l.002-.06a.712.712 0 0 1 .014-.113c.103-.567.69-1.004 1.391-1.004h58.057c.037 0 .076.002.111.004.014 0 .027.002.041.003h.005l.053.006.036.005c.088.014.175.032.258.06l.035.011a.267.267 0 0 1 .036.014l.026.011c.014.005.03.01.044.017.013.005.027.014.039.02l.011.005a.145.145 0 0 1 .025.011c.023.01.044.023.067.035.058.033.113.072.164.111.025.02.048.037.069.057.052.046.1.095.14.146.158.19.244.416.244.661Z"/><path fill="#FFA412" d="M381.144 341.106h-31.102c-.578 0-1.065-.375-1.208-.877a1.06 1.06 0 0 1-.034-.129c-.007-.037-.01-.076-.014-.113l-.002-.06v-3.058l.002-.06a.846.846 0 0 1 .048-.242c.143-.502.63-.875 1.207-.875h27.282c.014.045.025.089.037.133a9.887 9.887 0 0 0 1.263 2.743 9.32 9.32 0 0 0 2.521 2.538Zm21.444-5.416h-.66v5.416h.66v-5.416Zm-2.233 0h-.659v5.416h.659v-5.416Zm-2.679 0h-.659v5.416h.659v-5.416Zm-4.106 0h-.659v5.416h.659v-5.416Zm-4.341 0h-.66v5.416h.66v-5.416Zm-6.656 0h-.659v5.416h.659v-5.416Z"/><path fill="#FFA412" d="M376.342 335.69h-.659v5.416h.659v-5.416Zm-5.564 0h-.659v5.416h.659v-5.416Zm33.936 0h-.659v5.416h.659v-5.416Zm1.405 0h-.66v5.416h.66v-5.416Zm1.357 0h-.66v5.416h.66v-5.416Zm1.021.018v5.376c-.082.013-.163.02-.248.02h-.412v-5.416h.412c.085.002.166.008.248.02Zm.916.502v4.374a1.398 1.398 0 0 1-.659.442v-5.256a1.4 1.4 0 0 1 .659.44Z"/><path fill="#FFB93E" d="M412.653 331.586v3.058c0 .244-.087.47-.239.659a1.407 1.407 0 0 1-.66.441c-.083.028-.17.047-.258.06a1.44 1.44 0 0 1-.248.019h-58.057c-.233 0-.454-.048-.647-.133-.411-.18-.704-.528-.75-.931a.233.233 0 0 1-.006-.053l-.001-.06v-3.058l.001-.06a.625.625 0 0 1 .015-.113c.102-.566.69-1.004 1.39-1.004h58.057a1.683 1.683 0 0 1 .506.08c.267.086.497.244.66.442.15.185.237.411.237.653Z"/><path fill="#FFA412" d="M384.145 335.823h-31.104a1.32 1.32 0 0 1-.579-.133 1.182 1.182 0 0 1-.674-.984l-.001-.06v-3.058l.001-.06a.625.625 0 0 1 .015-.113.813.813 0 0 1 .033-.129c.143-.502.63-.877 1.205-.877h27.286a9.95 9.95 0 0 0 .842 2.114 9.272 9.272 0 0 0 2.976 3.3Zm21.443-5.414h-.659v5.416h.659v-5.416Zm-2.233 0h-.659v5.416h.659v-5.416Zm-2.678 0h-.659v5.416h.659v-5.416Zm-4.106 0h-.66v5.416h.66v-5.416Zm-4.342 0h-.659v5.416h.659v-5.416Zm-6.656 0h-.659v5.416h.659v-5.416Z"/><path fill="#FFA412" d="M379.342 330.409h-.659v5.416h.659v-5.416Zm-5.565 0h-.66v5.416h.66v-5.416Zm33.938 0h-.66v5.416h.66v-5.416Zm1.404 0h-.659v5.416h.659v-5.416Zm1.357 0h-.659v5.416h.659v-5.416Zm1.019.018v5.376c-.081.013-.162.02-.247.02h-.412v-5.416h.412c.085.002.168.007.247.02Zm.917.501v4.375c-.16.198-.389.353-.66.442v-5.257c.271.087.5.242.66.44Z"/><path fill="#FFB93E" d="M414.043 326.173v3.058c0 .244-.086.468-.24.658a1.427 1.427 0 0 1-.657.441 1.564 1.564 0 0 1-.258.061c-.041.005-.081.008-.122.014-.042.001-.083.003-.126.003h-58.056c-.701 0-1.288-.436-1.391-1.002-.007-.035-.01-.076-.014-.113l-.002-.06v-3.058l.002-.06a.928.928 0 0 1 .011-.106c.088-.525.596-.94 1.226-1.004.055-.005.109-.007.168-.007h58.056a1.564 1.564 0 0 1 .506.08c.268.084.498.242.659.44.152.185.238.411.238.655Z"/><path fill="#FFA412" d="M385.535 330.408h-31.103c-.577 0-1.062-.373-1.205-.873a1.111 1.111 0 0 1-.034-.129c-.007-.035-.01-.076-.014-.113l-.002-.06v-3.058l.002-.06a.928.928 0 0 1 .011-.106c.079-.523.532-.94 1.091-1.004.05-.005.099-.007.149-.007h27.286l.001.007c.151.546.368 1.165.689 1.808a9.297 9.297 0 0 0 3.129 3.595Zm21.444-5.414h-.66v5.416h.66v-5.416Zm-2.233 0h-.659v5.416h.659v-5.416Zm-2.678 0h-.66v5.416h.66v-5.416Zm-4.107 0h-.659v5.416h.659v-5.416Zm-4.341 0h-.66v5.416h.66v-5.416Zm-6.656 0h-.659v5.416h.659v-5.416Z"/><path fill="#FFA412" d="M380.731 324.994h-.659v5.416h.659v-5.416Zm-5.564 0h-.659v5.416h.659v-5.416Zm33.938 0h-.659v5.416h.659v-5.416Zm1.405 0h-.659v5.416h.659v-5.416Zm1.357 0h-.659v5.416h.659v-5.416Zm1.019.02v5.376c-.081.013-.163.02-.248.02h-.411v-5.416h.411c.085 0 .168.007.248.02Zm.916.499v4.375c-.16.198-.388.353-.659.442v-5.257c.271.087.5.242.659.44Z"/><path fill="#FFB93E" d="M409.776 320.766v3.057c0 .244-.088.471-.24.66-.16.198-.39.353-.66.44a1.392 1.392 0 0 1-.338.071h-.011a.701.701 0 0 1-.08.005c-.024.002-.049.002-.076.002h-58.058c-.701 0-1.288-.437-1.391-1.003-.007-.037-.01-.077-.014-.116v-3.18a.389.389 0 0 0 .004-.049c.056-.499.488-.909 1.054-1.031l.043-.009c.099-.017.2-.026.304-.026h58.057c.044 0 .085.002.125.003.02.002.037.002.055.006h.002c.023.002.044.003.067.007.087.014.175.033.257.06.27.087.5.244.66.442.152.191.24.417.24.661Z"/><path fill="#FFA412" d="M381.266 325.003h-31.102c-.578 0-1.065-.373-1.208-.874a1.06 1.06 0 0 1-.034-.129c-.007-.037-.01-.077-.014-.116v-3.18a.389.389 0 0 0 .004-.049c.051-.509.453-.928.975-1.038l.053-.01a1.47 1.47 0 0 1 .223-.018h27.283l.011.037c.439 1.589 1.456 3.765 3.797 5.368l.012.009Zm21.445-5.416h-.659v5.415h.659v-5.415Zm-2.234 0h-.659v5.415h.659v-5.415Zm-2.679 0h-.659v5.415h.659v-5.415Zm-4.106 0h-.659v5.415h.659v-5.415Zm-4.341 0h-.66v5.415h.66v-5.415Zm-6.656 0h-.659v5.415h.659v-5.415Z"/><path fill="#FFA412" d="M376.464 319.587h-.659v5.415h.659v-5.415Zm-5.564 0h-.659v5.415h.659v-5.415Zm33.936 0h-.659v5.415h.659v-5.415Zm1.405 0h-.659v5.415h.659v-5.415Zm1.357 0h-.66v5.415h.66v-5.415Zm1.021.019v5.377a1.693 1.693 0 0 1-.248.019h-.412v-5.415h.412c.083 0 .166.007.248.019Zm.916.502v4.374a1.398 1.398 0 0 1-.659.442v-5.256c.268.085.498.242.659.44Z"/><path fill="#FFB93E" d="M409.653 315.389v3.058c0 .244-.087.468-.239.659-.161.198-.39.354-.66.44a1.925 1.925 0 0 1-.202.051h-.002c-.017.004-.035.006-.054.009-.08.011-.161.02-.248.02h-58.057a1.56 1.56 0 0 1-.182-.011c-.023-.002-.046-.003-.069-.009-.591-.088-1.058-.493-1.141-.996a.89.89 0 0 1-.011-.101l-.002-.06v-3.058l.002-.06a.602.602 0 0 1 .014-.113c.103-.568.69-1.004 1.391-1.004h58.057l.111.003c.004 0 .009 0 .014.002.011 0 .021 0 .032.002l.053.005.036.006c.088.012.175.033.258.06l.035.01c.011.006.025.009.036.014l.026.011c.014.005.03.011.044.018l.004.001.032.016c.099.048.189.103.272.168.025.02.048.037.069.057.021.019.043.037.06.058l.027.028c.019.02.035.041.053.059.154.187.241.415.241.657Z"/><path fill="#FFA412" d="M381.144 319.626h-31.101l-.075-.002a1.662 1.662 0 0 1-.079-.007c-.563-.065-1.012-.484-1.088-1.007a.89.89 0 0 1-.011-.101l-.002-.06v-3.058l.002-.06a.816.816 0 0 1 .048-.242c.143-.502.63-.875 1.206-.875h27.283c.014.044.024.088.037.132.453 1.57 1.463 3.675 3.727 5.244.018.009.034.023.053.036Zm21.444-5.416h-.66v5.415h.66v-5.415Zm-2.233 0h-.659v5.415h.659v-5.415Zm-2.678 0h-.66v5.415h.66v-5.415Zm-4.107 0h-.659v5.415h.659v-5.415Zm-4.341 0h-.659v5.415h.659v-5.415Zm-6.656 0h-.659v5.415h.659v-5.415Z"/><path fill="#FFA412" d="M376.342 314.21h-.659v5.415h.659v-5.415Zm-5.564 0h-.659v5.415h.659v-5.415Zm33.936 0h-.659v5.415h.659v-5.415Zm1.405 0h-.659v5.415h.659v-5.415Zm1.357 0h-.659v5.415h.659v-5.415Zm1.021.019v5.377a1.693 1.693 0 0 1-.248.019h-.412v-5.415h.412c.085 0 .166.007.248.019Zm.916.502v4.375a1.403 1.403 0 0 1-.659.441v-5.256c.269.087.498.242.659.44Z"/><path fill="#FFB93E" d="M412.653 310.11v3.058c0 .244-.087.468-.239.657-.161.2-.391.355-.66.442-.083.026-.17.048-.258.058-.041.007-.082.011-.122.016-.043.002-.083.004-.126.004h-58.057c-.233 0-.454-.048-.647-.133-.411-.18-.704-.528-.75-.931a.233.233 0 0 1-.006-.053l-.001-.059v-3.057l.001-.06a.613.613 0 0 1 .015-.114c.102-.567.69-1.003 1.39-1.003h58.057c.083 0 .168.005.247.019.089.014.176.032.259.06.267.087.497.242.66.44.15.184.237.41.237.656Z"/><path fill="#FFA412" d="M384.145 314.344h-31.104a1.32 1.32 0 0 1-.579-.133 1.182 1.182 0 0 1-.674-.984l-.001-.059v-3.057l.001-.06a.592.592 0 0 1 .015-.113.825.825 0 0 1 .033-.13c.143-.501.63-.874 1.205-.874h27.286c.423 1.55 1.394 3.678 3.626 5.281.064.042.126.086.192.129Zm21.443-5.414h-.659v5.415h.659v-5.415Zm-2.233 0h-.659v5.415h.659v-5.415Zm-2.678 0h-.659v5.415h.659v-5.415Zm-4.106 0h-.66v5.415h.66v-5.415Zm-4.342 0h-.659v5.415h.659v-5.415Zm-6.656 0h-.659v5.415h.659v-5.415Z"/><path fill="#FFA412" d="M379.342 308.93h-.659v5.415h.659v-5.415Zm-5.565 0h-.66v5.415h.66v-5.415Zm33.938 0h-.66v5.415h.66v-5.415Zm1.404 0h-.659v5.415h.659v-5.415Zm1.357 0h-.659v5.415h.659v-5.415Zm1.019.019v5.377a1.67 1.67 0 0 1-.247.019h-.412v-5.415h.412c.085 0 .168.007.247.019Zm.917.502v4.374a1.4 1.4 0 0 1-.66.442v-5.256c.271.086.5.242.66.44Z"/><path fill="#FFB93E" d="M417.398 304.694v3.058a1.042 1.042 0 0 1-.305.73 1.402 1.402 0 0 1-.594.369 1.55 1.55 0 0 1-.257.06 1.821 1.821 0 0 1-.249.019h-58.057c-.7 0-1.288-.436-1.39-1.003a1.044 1.044 0 0 1-.014-.114l-.002-.06v-3.057l.002-.06c.035-.573.566-1.043 1.236-1.11a1.54 1.54 0 0 1 .168-.007h58.057c.085 0 .168.005.249.019.089.014.174.032.257.06a1.41 1.41 0 0 1 .66.44c.15.184.239.412.239.656Z"/><path fill="#FFA412" d="M388.888 308.93h-31.104c-.577 0-1.061-.372-1.205-.874a1.162 1.162 0 0 1-.047-.243l-.002-.06v-3.057l.002-.06a.943.943 0 0 1 .024-.158c.103-.498.538-.891 1.08-.952.049-.006.099-.007.148-.007h27.286l.002.007c.437 1.59 1.452 3.791 3.816 5.404Zm21.445-5.414h-.659v5.415h.659v-5.415Zm-2.234 0h-.66v5.415h.66v-5.415Zm-2.679 0h-.659v5.415h.659v-5.415Zm-4.104 0h-.66v5.415h.66v-5.415Zm-4.342 0h-.659v5.415h.659v-5.415Zm-6.655 0h-.66v5.415h.66v-5.415Z"/><path fill="#FFA412" d="M384.086 303.516h-.66v5.415h.66v-5.415Zm-5.564 0h-.66v5.415h.66v-5.415Zm33.937 0h-.659v5.415h.659v-5.415Zm1.405 0h-.659v5.415h.659v-5.415Zm1.355 0h-.659v5.415h.659v-5.415Zm1.021.017v5.377a1.67 1.67 0 0 1-.247.019h-.412v-5.415h.412c.085.001.168.007.247.019Zm.917.502v4.374a1.396 1.396 0 0 1-.66.442v-5.256c.271.086.501.242.66.44Z"/><path fill="#FFB93E" d="M409.776 299.288v3.058c0 .244-.088.468-.24.657-.16.2-.39.355-.66.442a1.478 1.478 0 0 1-.338.069h-.006l-.04.004-.022.001c-.008 0-.021 0-.031.002h-58.126c-.701 0-1.288-.436-1.391-1.002-.007-.035-.01-.076-.014-.113v-3.18a.78.78 0 0 1 .014-.116c.103-.566.69-1.003 1.391-1.003h58.057c.026 0 .051 0 .076.002h.007c.023.002.044.002.065.005a1.575 1.575 0 0 1 .478.115h.002c.217.092.403.228.538.395.152.194.24.418.24.664Z"/><path fill="#FFA412" d="M381.266 303.523h-31.102c-.578 0-1.065-.373-1.208-.873a1.111 1.111 0 0 1-.034-.129c-.007-.035-.01-.076-.014-.113v-3.18a.828.828 0 0 1 .048-.246c.143-.501.63-.873 1.208-.873h27.284l.036.126c.453 1.578 1.472 3.706 3.772 5.281.001.002.007.005.01.007Zm21.445-5.414h-.659v5.416h.659v-5.416Zm-2.234 0h-.659v5.416h.659v-5.416Zm-2.679 0h-.659v5.416h.659v-5.416Zm-4.106 0h-.659v5.416h.659v-5.416Zm-4.341 0h-.66v5.416h.66v-5.416Zm-6.656 0h-.659v5.416h.659v-5.416Z"/><path fill="#FFA412" d="M376.464 298.109h-.659v5.416h.659v-5.416Zm-5.564 0h-.659v5.416h.659v-5.416Zm33.936 0h-.659v5.416h.659v-5.416Zm1.405 0h-.659v5.416h.659v-5.416Zm1.357 0h-.66v5.416h.66v-5.416Zm1.021.02v5.376c-.082.013-.163.02-.248.02h-.412v-5.416h.412c.083 0 .166.007.248.02Zm.916.501v4.374a1.405 1.405 0 0 1-.659.442v-5.257c.268.087.498.243.659.441Z"/><path fill="#FFB93E" d="M414.043 293.997v3.058c0 .244-.086.468-.24.658a1.377 1.377 0 0 1-.658.441 1.576 1.576 0 0 1-.506.08h-58.057c-.227 0-.439-.046-.628-.125-.395-.168-.688-.488-.761-.87a.479.479 0 0 1-.01-.076.388.388 0 0 1-.004-.048l-.002-.06v-3.058l.002-.06a.928.928 0 0 1 .011-.106c.088-.523.596-.94 1.226-1.004.055-.005.109-.007.168-.007h58.056a1.614 1.614 0 0 1 .506.078c.268.087.498.242.659.44.152.189.238.414.238.659Z"/><path fill="#FFA412" d="M385.535 298.234h-31.103a1.31 1.31 0 0 1-.559-.125 1.188 1.188 0 0 1-.689-.946l-.003-.048-.002-.06v-3.058l.002-.06a.928.928 0 0 1 .011-.106c.079-.523.532-.94 1.091-1.004.05-.005.099-.007.149-.007h27.285c0 .002 0 .006.002.007.427 1.554 1.401 3.682 3.639 5.283.057.041.115.082.177.124Zm21.444-5.416h-.66v5.416h.66v-5.416Zm-2.233 0h-.659v5.416h.659v-5.416Zm-2.678 0h-.66v5.416h.66v-5.416Zm-4.107 0h-.659v5.416h.659v-5.416Zm-4.341 0h-.66v5.416h.66v-5.416Zm-6.656 0h-.659v5.416h.659v-5.416Z"/><path fill="#FFA412" d="M380.731 292.818h-.659v5.416h.659v-5.416Zm-5.564 0h-.659v5.416h.659v-5.416Zm33.938 0h-.659v5.416h.659v-5.416Zm1.405 0h-.659v5.416h.659v-5.416Zm1.357 0h-.659v5.416h.659v-5.416Zm1.019.02v5.376c-.081.013-.163.02-.248.02h-.411v-5.416h.411c.085 0 .168.007.248.02Zm.916.501v4.374c-.16.198-.388.353-.659.442v-5.257c.271.087.5.243.659.441Z"/><path fill="#FFB93E" d="M415.862 288.591v3.058c0 .242-.088.468-.241.657a1.09 1.09 0 0 1-.132.14 1.462 1.462 0 0 1-.782.36.617.617 0 0 1-.082.011c-.01.002-.023.002-.033.002a1.922 1.922 0 0 1-.133.005h-58.06c-.052 0-.103-.002-.154-.007-.633-.058-1.141-.47-1.237-.997a.831.831 0 0 1-.012-.113v-3.178a.831.831 0 0 1 .012-.113c.103-.567.69-1.004 1.391-1.004h58.057c.084 0 .168.005.249.02.088.014.175.031.257.06.27.084.498.244.659.44.151.189.241.415.241.659Z"/><path fill="#FFA412" d="M387.35 292.826h-31.102c-.046 0-.093-.002-.136-.007-.566-.057-1.021-.47-1.104-.997a.831.831 0 0 1-.012-.113v-3.178a.831.831 0 0 1 .046-.242c.143-.502.63-.875 1.206-.875h27.284c.436 1.591 1.448 3.791 3.808 5.405l.01.007Zm21.445-5.414h-.659v5.416h.659v-5.416Zm-2.232 0h-.66v5.416h.66v-5.416Zm-2.679 0h-.659v5.416h.659v-5.416Zm-4.106 0h-.659v5.416h.659v-5.416Zm-4.342 0h-.659v5.416h.659v-5.416Zm-6.655 0h-.659v5.416h.659v-5.416Z"/><path fill="#FFA412" d="M382.55 287.412h-.659v5.416h.659v-5.416Zm-5.566 0h-.659v5.416h.659v-5.416Zm33.938 0h-.66v5.416h.66v-5.416Zm1.405 0h-.66v5.416h.66v-5.416Zm1.357 0h-.66v5.416h.66v-5.416Zm1.019.02v5.376c-.082.012-.163.02-.248.02h-.412v-5.416h.412c.085 0 .168.007.248.02Zm.916.501v4.375a1.405 1.405 0 0 1-.659.442v-5.257c.27.087.5.242.659.44Z"/><path fill="#FFB93E" d="M232.832 342.282v3.058c0 .244-.088.47-.24.658a1.385 1.385 0 0 1-.66.44 1.658 1.658 0 0 1-.504.079h-58.057c-.748 0-1.366-.498-1.403-1.119l-.002-.06v-3.057c0-.02 0-.041.002-.06.037-.621.655-1.117 1.403-1.117h58.057a1.67 1.67 0 0 1 .504.079c.269.087.499.244.66.442.152.187.24.413.24.657Z"/><path fill="#FFA412" d="M204.322 346.519h-31.104c-.667 0-1.219-.498-1.252-1.119l-.002-.06v-3.057c0-.02 0-.041.002-.061.033-.62.583-1.117 1.252-1.117h27.284c.437 1.593 1.453 3.797 3.82 5.414Zm21.445-5.415h-.659v5.415h.659v-5.415Zm-2.234 0h-.66v5.415h.66v-5.415Zm-2.679 0h-.659v5.415h.659v-5.415Zm-4.105 0h-.659v5.415h.659v-5.415Zm-4.341 0h-.659v5.415h.659v-5.415Zm-6.656 0h-.659v5.415h.659v-5.415Z"/><path fill="#FFA412" d="M199.52 341.104h-.66v5.415h.66v-5.415Zm-5.564 0h-.66v5.415h.66v-5.415Zm33.937 0h-.659v5.415h.659v-5.415Zm1.405 0h-.659v5.415h.659v-5.415Zm1.355 0h-.659v5.415h.659v-5.415Zm1.021.019v5.377a1.67 1.67 0 0 1-.247.019h-.412v-5.415h.412c.085 0 .166.007.247.019Zm.917.501v4.375a1.385 1.385 0 0 1-.66.44v-5.256c.271.088.501.244.66.441Z"/><path fill="#FFB93E" d="M226.624 336.867v3.058c0 .244-.088.47-.241.658a1.401 1.401 0 0 1-.66.441 1.306 1.306 0 0 1-.256.06c-.081.013-.163.02-.248.02h-58.056c-.749 0-1.366-.499-1.403-1.119l-.002-.06v-3.058c0-.019 0-.04.002-.06.039-.62.654-1.119 1.403-1.119h58.056a2.095 2.095 0 0 1 .211.013l.037.005c.088.013.175.034.256.06.013.004.025.007.038.013.012.003.024.008.035.012l.071.028.04.02a.677.677 0 0 1 .101.053l.073.044.055.037s.001.002.003.002l.036.026a1.065 1.065 0 0 1 .157.145 1.058 1.058 0 0 1 .292.721Z"/><path fill="#FFA412" d="M198.116 341.104h-31.104c-.669 0-1.219-.499-1.252-1.119l-.002-.06v-3.058c0-.019 0-.04.002-.06.033-.62.583-1.119 1.252-1.119h27.284l.037.135c.457 1.582 1.479 3.71 3.783 5.281Zm21.443-5.414h-.659v5.416h.659v-5.416Zm-2.232 0h-.66v5.416h.66v-5.416Zm-2.679 0h-.659v5.416h.659v-5.416Zm-4.106 0h-.66v5.416h.66v-5.416Zm-4.342 0h-.659v5.416h.659v-5.416Zm-6.655 0h-.66v5.416h.66v-5.416Z"/><path fill="#FFA412" d="M193.314 335.69h-.66v5.416h.66v-5.416Zm-5.566 0h-.659v5.416h.659v-5.416Zm33.938 0h-.66v5.416h.66v-5.416Zm1.404 0h-.659v5.416h.659v-5.416Zm1.357 0h-.659v5.416h.659v-5.416Zm1.019.018v5.376c-.081.013-.162.02-.247.02h-.412v-5.416h.412c.085.002.168.008.247.02Zm.917.502v4.374a1.396 1.396 0 0 1-.66.442v-5.256c.271.086.501.242.66.44Z"/><path fill="#FFB93E" d="M229.625 331.585v3.058c0 .244-.089.47-.241.657a1.396 1.396 0 0 1-.66.442 1.467 1.467 0 0 1-.256.06c-.082.013-.163.02-.248.02h-58.059a1.6 1.6 0 0 1-.647-.134c-.411-.181-.704-.527-.75-.932l-.006-.053-.001-.06v-3.058l.001-.06c.038-.62.655-1.117 1.403-1.117h58.057c.085 0 .166.007.248.02.088.012.175.033.256.06.269.086.499.244.66.442.154.187.243.413.243.655Z"/><path fill="#FFA412" d="M201.115 335.822h-31.104c-.209 0-.405-.048-.579-.134a1.183 1.183 0 0 1-.67-.932l-.005-.053-.002-.06v-3.058c0-.019 0-.04.002-.06.033-.62.583-1.117 1.252-1.117h27.284c.425 1.55 1.396 3.678 3.629 5.281l.193.133Zm21.444-5.414h-.659v5.416h.659v-5.416Zm-2.234 0h-.659v5.416h.659v-5.416Zm-2.678 0h-.66v5.416h.66v-5.416Zm-4.105 0h-.659v5.416h.659v-5.416Zm-4.341 0h-.66v5.416h.66v-5.416Zm-6.656 0h-.659v5.416h.659v-5.416Z"/><path fill="#FFA412" d="M196.312 330.408h-.659v5.416h.659v-5.416Zm-5.564 0h-.659v5.416h.659v-5.416Zm33.938 0h-.659v5.416h.659v-5.416Zm1.403 0h-.659v5.416h.659v-5.416Zm1.357 0h-.659v5.416h.659v-5.416Zm1.021.018v5.376c-.081.013-.163.02-.248.02h-.411v-5.416h.411c.085.002.167.007.248.02Zm.916.502v4.375a1.405 1.405 0 0 1-.659.442v-5.257c.27.087.498.242.659.44Z"/><path fill="#FFB93E" d="M231.015 326.172v3.058c0 .244-.088.47-.24.657-.16.198-.39.354-.66.442a1.373 1.373 0 0 1-.257.06c-.081.013-.163.02-.248.02h-58.056c-.749 0-1.366-.499-1.403-1.119l-.002-.06v-3.058c0-.019 0-.041.002-.06.035-.574.566-1.043 1.236-1.11.055-.005.11-.009.167-.009h58.056c.085 0 .167.007.248.02.089.012.175.033.257.06.269.086.499.244.66.442.152.187.24.413.24.657Z"/><path fill="#FFA412" d="M202.505 330.409h-31.104c-.667 0-1.219-.499-1.252-1.119l-.002-.06v-3.058c0-.019 0-.041.002-.06.032-.573.504-1.043 1.104-1.11.048-.005.097-.009.148-.009h27.284l.002.009c.439 1.592 1.454 3.793 3.818 5.407Zm21.445-5.416h-.659v5.416h.659v-5.416Zm-2.234 0h-.66v5.416h.66v-5.416Zm-2.679 0h-.659v5.416h.659v-5.416Zm-4.104 0h-.66v5.416h.66v-5.416Zm-4.342 0h-.659v5.416h.659v-5.416Zm-6.656 0h-.659v5.416h.659v-5.416Z"/><path fill="#FFA412" d="M197.703 324.993h-.66v5.416h.66v-5.416Zm-5.564 0h-.66v5.416h.66v-5.416Zm33.938 0h-.66v5.416h.66v-5.416Zm1.404 0h-.659v5.416h.659v-5.416Zm1.356 0h-.66v5.416h.66v-5.416Zm1.02.02v5.376c-.081.013-.162.02-.247.02h-.412v-5.416h.412c.085 0 .166.007.247.02Zm.917.499v4.375a1.405 1.405 0 0 1-.659.442v-5.257c.27.087.5.242.659.44Z"/><path fill="#FFB93E" d="M226.746 320.766v3.057c0 .244-.088.471-.241.658a1.405 1.405 0 0 1-.659.442 1.6 1.6 0 0 1-.338.071l-.046.003c-.015.002-.03.002-.046.002-.025.002-.05.002-.075.002h-58.056c-.749 0-1.366-.499-1.403-1.117l-.002-.061v-3.057c0-.02 0-.041.002-.06 0-.018.001-.034.003-.05.057-.498.488-.91 1.053-1.032l.042-.009c.098-.017.2-.028.305-.028h58.056c.043 0 .085.002.126.005l.057.006c.021.001.044.005.065.008.088.013.175.034.257.06.268.087.498.243.659.442.153.188.241.414.241.658Z"/><path fill="#FFA412" d="M198.238 325.003h-31.104c-.667 0-1.219-.499-1.252-1.117l-.002-.061v-3.057c0-.02 0-.041.002-.06 0-.018.002-.034.003-.05.052-.511.451-.928.973-1.039.018-.005.036-.007.053-.011a1.37 1.37 0 0 1 .223-.019h27.284l.011.039c.44 1.589 1.456 3.764 3.797 5.367.003 0 .008.004.012.008Zm21.444-5.416h-.66v5.415h.66v-5.415Zm-2.233 0h-.659v5.415h.659v-5.415Zm-2.679 0h-.659v5.415h.659v-5.415Zm-4.106 0h-.659v5.415h.659v-5.415Zm-4.341 0h-.66v5.415h.66v-5.415Zm-6.656 0h-.659v5.415h.659v-5.415Z"/><path fill="#FFA412" d="M193.436 319.587h-.659v5.415h.659v-5.415Zm-5.566 0h-.659v5.415h.659v-5.415Zm33.938 0h-.659v5.415h.659v-5.415Zm1.405 0h-.66v5.415h.66v-5.415Zm1.357 0h-.66v5.415h.66v-5.415Zm1.019.019v5.377a1.693 1.693 0 0 1-.248.019h-.412v-5.415h.412c.085 0 .168.007.248.019Zm.916.502v4.374a1.398 1.398 0 0 1-.659.442v-5.256c.27.085.5.242.659.44Z"/><path fill="#FFB93E" d="M226.624 315.389v3.058c0 .244-.089.47-.241.657a1.396 1.396 0 0 1-.66.442 1.428 1.428 0 0 1-.2.051h-.001a1.566 1.566 0 0 1-.303.029h-58.057a1.56 1.56 0 0 1-.251-.02c-.631-.095-1.118-.55-1.152-1.097l-.001-.061v-3.057l.001-.06c.039-.621.655-1.119 1.403-1.119h58.057l.112.003.047.004.052.005.037.006a1.425 1.425 0 0 1 .294.072l.035.012c.025.009.048.02.071.029.026.012.051.023.076.037.023.01.044.023.065.035l.073.044a5.393 5.393 0 0 0 .058.039c.012.009.025.018.035.027a.856.856 0 0 1 .131.116l.027.029a1.046 1.046 0 0 1 .292.719Z"/><path fill="#FFA412" d="M198.116 319.626h-31.104c-.025 0-.05 0-.074-.002a2.158 2.158 0 0 1-.08-.007c-.598-.069-1.068-.538-1.099-1.108l-.001-.061v-3.057l.001-.06c.034-.621.584-1.119 1.253-1.119h27.284l.037.134c.451 1.57 1.461 3.675 3.726 5.242l.057.038Zm21.443-5.416h-.659v5.415h.659v-5.415Zm-2.232 0h-.66v5.415h.66v-5.415Zm-2.679 0h-.659v5.415h.659v-5.415Zm-4.106 0h-.66v5.415h.66v-5.415Zm-4.342 0h-.659v5.415h.659v-5.415Zm-6.655 0h-.66v5.415h.66v-5.415Z"/><path fill="#FFA412" d="M193.314 314.21h-.66v5.415h.66v-5.415Zm-5.566 0h-.659v5.415h.659v-5.415Zm33.938 0h-.66v5.415h.66v-5.415Zm1.404 0h-.659v5.415h.659v-5.415Zm1.357 0h-.659v5.415h.659v-5.415Zm1.019.019v5.377a1.67 1.67 0 0 1-.247.019h-.412v-5.415h.412c.085 0 .168.007.247.019Zm.917.502v4.375a1.401 1.401 0 0 1-.66.441v-5.256c.271.087.501.242.66.44Z"/><path fill="#FFB93E" d="M229.625 310.108v3.057c0 .244-.089.471-.241.658a1.403 1.403 0 0 1-.66.442 1.693 1.693 0 0 1-.504.079h-58.058c-.234 0-.453-.047-.648-.134-.41-.18-.704-.527-.75-.931a1.048 1.048 0 0 1-.005-.053l-.002-.061v-3.057c0-.02 0-.041.002-.06.037-.621.654-1.117 1.403-1.117h58.056a1.683 1.683 0 0 1 .505.079c.269.087.499.244.66.442.153.186.242.412.242.656Z"/><path fill="#FFA412" d="M201.114 314.344h-31.103c-.209 0-.405-.047-.579-.134a1.179 1.179 0 0 1-.67-.931l-.006-.053-.001-.061v-3.057l.001-.06c.034-.621.584-1.117 1.253-1.117h27.284c.425 1.55 1.396 3.678 3.628 5.281l.193.132Zm21.445-5.415h-.659v5.415h.659v-5.415Zm-2.234 0h-.659v5.415h.659v-5.415Zm-2.678 0h-.66v5.415h.66v-5.415Zm-4.105 0h-.659v5.415h.659v-5.415Zm-4.341 0h-.66v5.415h.66v-5.415Zm-6.656 0h-.659v5.415h.659v-5.415Z"/><path fill="#FFA412" d="M196.312 308.929h-.659v5.415h.659v-5.415Zm-5.564 0h-.659v5.415h.659v-5.415Zm33.938 0h-.659v5.415h.659v-5.415Zm1.403 0h-.659v5.415h.659v-5.415Zm1.357 0h-.659v5.415h.659v-5.415Zm1.021.019v5.377a1.683 1.683 0 0 1-.248.019h-.411v-5.415h.411c.085 0 .167.007.248.019Zm.916.502v4.374a1.398 1.398 0 0 1-.659.442v-5.256c.27.086.498.242.659.44Z"/><path fill="#FFB93E" d="M234.369 304.693v3.057c0 .244-.088.47-.24.658a1.403 1.403 0 0 1-.66.442 1.67 1.67 0 0 1-.504.079h-58.059c-.748 0-1.366-.498-1.403-1.119l-.002-.06v-3.057c0-.02 0-.041.002-.061.036-.572.566-1.042 1.237-1.109.055-.006.11-.009.166-.009h58.057a1.693 1.693 0 0 1 .504.079c.269.087.499.244.66.442.154.189.242.415.242.658Z"/><path fill="#FFA412" d="M205.859 308.929h-31.103c-.667 0-1.219-.498-1.253-1.119l-.002-.06v-3.057c0-.02 0-.041.002-.061.032-.572.504-1.042 1.104-1.109.048-.006.097-.009.149-.009h27.284l.002.009c.437 1.594 1.454 3.792 3.817 5.406Zm21.446-5.413h-.66v5.415h.66v-5.415Zm-2.235 0h-.659v5.415h.659v-5.415Zm-2.678 0h-.66v5.415h.66v-5.415Zm-4.107 0h-.659v5.415h.659v-5.415Zm-4.339 0h-.66v5.415h.66v-5.415Zm-6.658 0h-.659v5.415h.659v-5.415Z"/><path fill="#FFA412" d="M201.057 303.516h-.659v5.415h.659v-5.415Zm-5.564 0h-.659v5.415h.659v-5.415Zm33.936 0h-.659v5.415h.659v-5.415Zm1.405 0h-.659v5.415h.659v-5.415Zm1.357 0h-.659v5.415h.659v-5.415Zm1.021.017v5.377a1.683 1.683 0 0 1-.248.019h-.412v-5.415h.412c.085.001.167.007.248.019Zm.916.502v4.374a1.398 1.398 0 0 1-.659.442v-5.256a1.4 1.4 0 0 1 .659.44Z"/><path fill="#FFB93E" d="M226.746 299.287v3.058c0 .244-.088.47-.241.658a1.396 1.396 0 0 1-.659.441 1.602 1.602 0 0 1-.257.061l-.081.01a1.584 1.584 0 0 1-.066.005l-.032.002-.069.002h-58.056c-.749 0-1.366-.498-1.403-1.117l-.002-.06v-3.058c0-.019 0-.04.002-.06.037-.62.654-1.119 1.403-1.119h58.056a1.987 1.987 0 0 1 .248.02 1.457 1.457 0 0 1 .451.138 56.997 56.997 0 0 1 .078.04l.012.007c.022.013.043.025.064.039.05.032.096.066.14.103.014.01.026.023.039.035l.007.007.025.021a.027.027 0 0 0 .005.006l.041.042c.019.021.039.043.056.064.151.185.239.412.239.655Z"/><path fill="#FFA412" d="M198.238 303.522h-31.104c-.667 0-1.219-.498-1.252-1.117l-.002-.06v-3.058c0-.019 0-.04.002-.06.033-.62.583-1.119 1.252-1.119h27.284l.036.126c.452 1.58 1.473 3.708 3.771 5.281l.013.007Zm21.444-5.414h-.66v5.416h.66v-5.416Zm-2.233 0h-.659v5.416h.659v-5.416Zm-2.679 0h-.659v5.416h.659v-5.416Zm-4.106 0h-.659v5.416h.659v-5.416Zm-4.341 0h-.66v5.416h.66v-5.416Zm-6.656 0h-.659v5.416h.659v-5.416Z"/><path fill="#FFA412" d="M193.436 298.108h-.659v5.416h.659v-5.416Zm-5.566 0h-.659v5.416h.659v-5.416Zm33.938 0h-.659v5.416h.659v-5.416Zm1.405 0h-.66v5.416h.66v-5.416Zm1.357 0h-.66v5.416h.66v-5.416Zm1.019.02v5.376c-.082.013-.163.02-.248.02h-.412v-5.416h.412c.085 0 .168.007.248.02Zm.916.501v4.374a1.405 1.405 0 0 1-.659.442v-5.257c.27.087.5.243.659.441Z"/><path fill="#FFB93E" d="M231.015 293.997v3.058c0 .244-.088.47-.241.658a1.396 1.396 0 0 1-.659.441 1.683 1.683 0 0 1-.505.08h-58.056c-.225 0-.439-.044-.628-.125-.423-.179-.726-.532-.772-.944a.387.387 0 0 1-.003-.048l-.002-.06v-3.058c0-.019 0-.04.002-.06.035-.574.566-1.043 1.236-1.11.055-.005.11-.009.167-.009h58.056c.085 0 .167.007.248.02.089.012.175.033.257.06.268.086.498.244.659.442.153.185.241.412.241.655Z"/><path fill="#FFA412" d="M202.505 298.234h-31.104c-.201 0-.39-.044-.559-.125a1.187 1.187 0 0 1-.691-.992l-.002-.06v-3.058c0-.019 0-.04.002-.06.032-.573.504-1.043 1.104-1.11a1.4 1.4 0 0 1 .148-.009h27.284l.002.009c.426 1.552 1.401 3.68 3.639 5.281l.177.124Zm21.445-5.416h-.659v5.416h.659v-5.416Zm-2.234 0h-.659v5.416h.659v-5.416Zm-2.678 0h-.66v5.416h.66v-5.416Zm-4.105 0h-.659v5.416h.659v-5.416Zm-4.342 0h-.659v5.416h.659v-5.416Zm-6.655 0h-.659v5.416h.659v-5.416Z"/><path fill="#FFA412" d="M197.703 292.818h-.659v5.416h.659v-5.416Zm-5.564 0h-.659v5.416h.659v-5.416Zm33.938 0h-.66v5.416h.66v-5.416Zm1.405 0h-.66v5.416h.66v-5.416Zm1.355 0h-.66v5.416h.66v-5.416Zm1.021.02v5.376c-.082.013-.163.02-.248.02h-.412v-5.416h.412c.085 0 .166.007.248.02Zm.916.501v4.374a1.405 1.405 0 0 1-.659.442v-5.257c.27.087.5.243.659.441Z"/><path fill="#FFB93E" d="M232.832 288.591v3.057c0 .244-.088.471-.241.658a1.403 1.403 0 0 1-.66.442 1.382 1.382 0 0 1-.337.071l-.046.003c-.015.002-.031.002-.046.002-.025.002-.05.002-.075.002h-58.056c-.749 0-1.366-.499-1.403-1.119l-.002-.06v-3.058c0-.019 0-.041.002-.06.039-.62.654-1.119 1.403-1.119h58.056c.085 0 .167.007.248.02.088.012.175.033.256.06.269.086.499.242.66.442.153.189.241.415.241.659Z"/><path fill="#FFA412" d="M204.322 292.828H173.22c-.667 0-1.219-.499-1.252-1.119l-.002-.06v-3.058c0-.019 0-.041.002-.06.033-.62.585-1.119 1.252-1.119h27.284c.435 1.591 1.447 3.791 3.807 5.407l.011.009Zm21.445-5.416h-.659v5.416h.659v-5.416Zm-2.234 0h-.66v5.416h.66v-5.416Zm-2.679 0h-.659v5.416h.659v-5.416Zm-4.104 0h-.66v5.416h.66v-5.416Zm-4.342 0h-.659v5.416h.659v-5.416Zm-6.655 0h-.66v5.416h.66v-5.416Z"/><path fill="#FFA412" d="M199.52 287.412h-.659v5.416h.659v-5.416Zm-5.564 0h-.659v5.416h.659v-5.416Zm33.938 0h-.66v5.416h.66v-5.416Zm1.405 0h-.66v5.416h.66v-5.416Zm1.354 0h-.659v5.416h.659v-5.416Zm1.021.02v5.376c-.081.012-.162.02-.247.02h-.412v-5.416h.412c.085 0 .166.007.247.02Zm.917.501v4.375a1.403 1.403 0 0 1-.66.442v-5.257c.271.087.501.242.66.44Z"/><path fill="#E2810E" d="M348.739 346.695c15.993 0 28.959-12.953 28.959-28.932 0-15.978-12.966-28.931-28.959-28.931-15.994 0-28.96 12.953-28.96 28.931 0 15.979 12.966 28.932 28.96 28.932Z"/><path fill="#E2810E" d="M382.696 322.295c0 .908-.034 1.808-.103 2.699v.007c-.048.608-.11 1.21-.187 1.808a33.853 33.853 0 0 1-.662 3.597 33.341 33.341 0 0 1-3.119 8.156 31.934 31.934 0 0 1-1.534 2.54c-.034.053-.071.104-.106.157a24.23 24.23 0 0 1-.66.935 30.57 30.57 0 0 1-3.821 4.32h-16.257c-.579 0-1.063-.373-1.207-.873a.89.89 0 0 1-.046-.246v-3.179a.83.83 0 0 1 .046-.242c.144-.502.63-.874 1.207-.874h-6.206c-.579 0-1.065-.374-1.209-.876a1.162 1.162 0 0 1-.047-.242l-.002-.06v-3.058l.002-.06a.53.53 0 0 1 .014-.113.787.787 0 0 1 .033-.129c.144-.502.63-.875 1.207-.875h2.42a1.189 1.189 0 0 1-.674-.985l-.002-.06v-3.058l.002-.06a.846.846 0 0 1 .048-.242c.143-.502.63-.876 1.205-.876h1.39c-.577 0-1.061-.373-1.205-.874a1.059 1.059 0 0 1-.047-.242l-.002-.06v-3.057l.002-.061a.928.928 0 0 1 .01-.106c.08-.523.533-.94 1.092-1.003h-4.119c-.578 0-1.065-.373-1.208-.874a1.06 1.06 0 0 1-.034-.129c-.007-.037-.01-.077-.014-.116v-3.18a.389.389 0 0 0 .004-.049c.051-.509.453-.928.974-1.038-.562-.065-1.012-.484-1.088-1.007a1.15 1.15 0 0 1-.01-.101l-.002-.06v-3.058l.002-.06a.602.602 0 0 1 .014-.113.721.721 0 0 1 .034-.129c.143-.502.629-.875 1.206-.875h2.42a1.182 1.182 0 0 1-.674-.984l-.001-.059v-3.057l.001-.061a.98.98 0 0 1 .048-.242c.143-.502.63-.875 1.205-.875h4.745c-.577 0-1.062-.372-1.205-.874a1.166 1.166 0 0 1-.034-.129c-.007-.036-.01-.076-.014-.114l-.002-.06v-3.057l.002-.06a1.06 1.06 0 0 1 .025-.158c.103-.498.538-.891 1.079-.952h-7.473c-.578 0-1.065-.373-1.208-.874a1.06 1.06 0 0 1-.034-.129c-.007-.035-.01-.076-.014-.113v-3.179a.816.816 0 0 1 .048-.246c.143-.502.63-.873 1.208-.873h3.708a1.187 1.187 0 0 1-.691-.993l-.002-.06v-3.058l.002-.06a.887.887 0 0 1 .01-.106c.08-.523.533-.941 1.092-1.004.049-.006.099-.007.148-.007h1.681c-.566-.057-1.021-.47-1.104-.997a.831.831 0 0 1-.012-.113v-1.19c3.398.159 6.643.964 9.64 2.301l.018.008c2.894 1.292 5.553 3.086 7.892 5.282l.134.126a30.86 30.86 0 0 1 3.786 4.346c.223.308.437.619.648.933l.005.007a32.456 32.456 0 0 1 1.405 2.314 33.435 33.435 0 0 1 3.229 8.374l.031.133c.046.191.087.383.13.576.313 1.444.536 2.927.661 4.44l.02.228.001.037c.071.873.105 1.762.105 2.66Z" opacity=".5"/><path fill="#FFB93E" d="M346.214 346.695c15.994 0 28.959-12.953 28.959-28.932 0-15.978-12.965-28.931-28.959-28.931s-28.959 12.953-28.959 28.931c0 15.979 12.965 28.932 28.959 28.932Z"/><path fill="#FFA412" d="M346.214 344.465c-7.048 0-13.674-2.741-18.658-7.72-4.983-4.979-7.727-11.598-7.727-18.639 0-7.042 2.744-13.661 7.727-18.64 4.984-4.979 11.61-7.72 18.658-7.72 7.048 0 13.674 2.741 18.657 7.72 4.984 4.979 7.728 11.598 7.728 18.64 0 7.041-2.744 13.66-7.728 18.639-4.983 4.979-11.611 7.72-18.657 7.72Zm0-51.148c-13.681 0-24.811 11.119-24.811 24.787s11.13 24.787 24.811 24.787 24.811-11.119 24.811-24.787c0-13.666-11.13-24.787-24.811-24.787Z"/><path fill="#FFA412" d="M349.846 325.755c.067-.569.046-1.078-.062-1.531a3.172 3.172 0 0 0-.647-1.27c-.324-.396-.756-.776-1.295-1.142a15.71 15.71 0 0 0-2.008-1.122 41.507 41.507 0 0 1-3.707-2.035c-1.102-.687-2.025-1.437-2.772-2.253a7.711 7.711 0 0 1-1.636-2.747c-.345-1.016-.439-2.186-.282-3.514.136-1.15.466-2.175.987-3.073a7.343 7.343 0 0 1 2.046-2.27c.842-.613 1.817-1.078 2.928-1.392 1.109-.315 2.328-.455 3.655-.421l.516-4.344 3.501.415-.523 4.406c1.235.311 2.333.778 3.294 1.4a8.53 8.53 0 0 1 2.372 2.257c.62.884 1.058 1.893 1.315 3.028.256 1.134.306 2.38.145 3.733l-6.323-.75c.193-1.624-.023-2.881-.649-3.773-.627-.891-1.545-1.409-2.755-1.552-.656-.078-1.233-.053-1.728.074a3.205 3.205 0 0 0-1.26.612 2.994 2.994 0 0 0-.812 1.046 4.39 4.39 0 0 0-.386 1.375c-.06.5-.04.963.057 1.386.097.424.304.829.621 1.216.316.387.752.769 1.305 1.143.554.375 1.251.776 2.086 1.206a47.919 47.919 0 0 1 3.67 2.082c1.093.692 2.013 1.449 2.758 2.273a7.879 7.879 0 0 1 1.636 2.757c.345 1.016.441 2.179.283 3.492-.141 1.192-.476 2.236-1.005 3.134a7.276 7.276 0 0 1-2.052 2.248c-.84.601-1.822 1.046-2.944 1.34-1.121.292-2.346.421-3.673.389l-.479 4.04-3.478-.412.477-4.021a14.87 14.87 0 0 1-3.418-1.207 9.368 9.368 0 0 1-2.798-2.112c-.784-.868-1.37-1.916-1.757-3.142-.388-1.227-.485-2.652-.29-4.276l6.323.75c-.115.961-.075 1.779.118 2.453.193.675.494 1.232.899 1.672.405.44.888.77 1.445.995a6.78 6.78 0 0 0 1.734.442c.685.081 1.297.065 1.837-.05a3.8 3.8 0 0 0 1.388-.576c.388-.27.694-.608.919-1.013.221-.412.364-.864.424-1.366Z"/><path fill="#E2810E" d="M227.155 277.835c12.782-12.769 12.782-33.472 0-46.241-12.781-12.769-33.504-12.769-46.286 0-12.781 12.769-12.781 33.472 0 46.241 12.782 12.77 33.505 12.77 46.286 0Z"/><path fill="#FFB93E" d="M224.3 277.835c12.781-12.769 12.781-33.472 0-46.241-12.782-12.769-33.505-12.769-46.286 0-12.782 12.769-12.782 33.472 0 46.241 12.781 12.77 33.504 12.77 46.286 0Z"/><path fill="#FFA412" d="M201.159 284.893c-7.965 0-15.454-3.099-21.087-8.726-5.633-5.628-8.734-13.109-8.734-21.066 0-7.957 3.101-15.439 8.734-21.067 5.633-5.627 13.122-8.725 21.087-8.725s15.453 3.098 21.086 8.725c5.633 5.628 8.735 13.11 8.735 21.067 0 7.957-3.102 15.438-8.735 21.066-5.631 5.627-13.12 8.726-21.086 8.726Zm0-57.806c-15.463 0-28.041 12.566-28.041 28.014 0 15.447 12.578 28.014 28.041 28.014 15.462 0 28.041-12.567 28.041-28.014.002-15.446-12.579-28.014-28.041-28.014Z"/><path fill="#FFA412" d="M205.265 263.748c.076-.643.053-1.219-.071-1.73a3.6 3.6 0 0 0-.732-1.437c-.365-.447-.853-.877-1.463-1.29-.612-.414-1.368-.836-2.268-1.269a47.716 47.716 0 0 1-4.19-2.3c-1.245-.776-2.289-1.624-3.133-2.547a8.711 8.711 0 0 1-1.85-3.105c-.391-1.147-.497-2.471-.319-3.97.154-1.301.526-2.458 1.115-3.475a8.285 8.285 0 0 1 2.31-2.564c.952-.695 2.054-1.218 3.309-1.575 1.254-.355 2.63-.514 4.131-.475l.583-4.91 3.956.468-.591 4.979c1.396.352 2.636.878 3.724 1.582a9.592 9.592 0 0 1 2.681 2.552c.7.999 1.196 2.139 1.486 3.422.29 1.283.345 2.69.163 4.219l-7.146-.847c.218-1.835-.027-3.257-.734-4.265-.708-1.006-1.746-1.591-3.114-1.753-.741-.089-1.392-.06-1.953.083a3.658 3.658 0 0 0-1.424.691 3.358 3.358 0 0 0-.918 1.182 4.995 4.995 0 0 0-.436 1.554 4.512 4.512 0 0 0 .066 1.566c.109.479.343.937.702 1.375.358.438.849.868 1.476 1.292.626.424 1.413.877 2.358 1.363a54.556 54.556 0 0 1 4.147 2.352c1.235.783 2.275 1.639 3.117 2.568a8.87 8.87 0 0 1 1.849 3.116c.389 1.149.497 2.464.32 3.947-.159 1.347-.538 2.527-1.136 3.542a8.17 8.17 0 0 1-2.321 2.54c-.95.678-2.059 1.184-3.326 1.514-1.267.331-2.652.478-4.152.439l-.543 4.565-3.931-.467.539-4.544a16.758 16.758 0 0 1-3.862-1.364 10.595 10.595 0 0 1-3.163-2.388c-.886-.981-1.548-2.165-1.985-3.551-.437-1.385-.547-2.996-.329-4.832l7.146.847c-.13 1.085-.085 2.011.134 2.773.218.763.557 1.393 1.017 1.889a4.44 4.44 0 0 0 1.635 1.124c.63.253 1.283.419 1.958.501.775.091 1.467.072 2.076-.057.608-.129 1.132-.346 1.569-.652a3.379 3.379 0 0 0 1.038-1.146c.257-.454.418-.966.485-1.532Z"/><path fill="#FFEDDC" d="M400.883 256.21s-3.077 4.327-5.897 4.387c-2.82.06-7.112-2.006-7.112-2.006s-2.59-5.766-.833-8.023c0 0 1.762-.772 3.603.592.317.236.637.532.954.912.448.538.948.844 1.481 1.003 2.013.611 4.402-.828 5.295.562a9.498 9.498 0 0 0 1.555 1.84c.552.493.954.733.954.733Zm-40.105 31.211s10.873-26.32 30.445-26.822c0 0 18.067 2.006 19.07 26.822h-49.515Z"/><path fill="#DB6A1D" d="M385.861 261.401s7.844 1.743 10.266.72c0 0 .366-3.277-2.938-2.818-2.261.315-3.735-.77-4.6-1.212-1.228-.622-3.054 1.94-2.728 3.31Z"/><path fill="#E5C1A1" d="M392.688 256.461c-.503.376-2.043-5.299-2.043-5.299.316.235.636.532.953.912.448.537.948.843 1.481 1.002.005.166.095 3.019-.391 3.385Zm7.241-.982c-.109.065-3.738 2.235-4.23 2.235-.502 0 2.675-4.075 2.675-4.075a9.428 9.428 0 0 0 1.555 1.84Z"/><path fill="#F9DDBF" d="M371.4 280.067c-.202-.172 7.695-11.616 9.87-11.699 2.174-.083 7.06 2.506 10.599 2.84 3.536.334 6.967-.668 7.635 1.421.669 2.09 2.509 9.495 1.38 10.681-1.13 1.186-25.143.463-29.484-3.243Z"/><path fill="#FFEDDC" d="M294.317 219.708s-2.432 3.422-4.661 3.469c-2.231.048-5.623-1.585-5.623-1.585s-2.047-4.558-.658-6.343c0 0 1.393-.612 2.849.468.249.186.504.421.753.721.354.424.75.666 1.171.794 1.591.484 3.48-.654 4.186.443a7.451 7.451 0 0 0 1.23 1.455c.435.387.753.578.753.578Zm-31.712 24.677s8.598-20.813 24.073-21.209c0 0 14.286 1.585 15.079 21.209h-39.152Z"/><path fill="#DB6A1D" d="M282.439 223.812s6.203 1.379 8.117.567c0 0 .289-2.591-2.323-2.228-1.788.249-2.952-.61-3.637-.958-.97-.492-2.415 1.534-2.157 2.619Z"/><path fill="#E5C1A1" d="M287.837 219.905c-.396.297-1.615-4.19-1.615-4.19.249.185.504.42.753.721.354.424.75.666 1.172.794.003.13.076 2.386-.31 2.675Zm5.727-.777c-.087.052-2.956 1.768-3.346 1.768-.396 0 2.116-3.224 2.116-3.224.413.64.86 1.119 1.23 1.456Z"/><path fill="#F9DDBF" d="M271.003 238.57c-.159-.136 6.085-9.184 7.804-9.251 1.72-.065 5.584 1.981 8.381 2.246 2.797.265 5.509-.528 6.038 1.124.529 1.653 1.983 7.509 1.091 8.445-.893.939-19.88.366-23.314-2.564Z"/><path fill="#FFEDDC" d="M240.629 285.853s5.983 8.417 11.469 8.533c5.487.117 13.832-3.9 13.832-3.9s5.036-11.215 1.62-15.603c0 0-3.427-1.503-7.009 1.15a10.675 10.675 0 0 0-1.854 1.775c-.869 1.043-1.846 1.638-2.88 1.951-3.914 1.19-8.561-1.608-10.299 1.092a18.312 18.312 0 0 1-3.025 3.579c-1.074.955-1.854 1.423-1.854 1.423Zm78.009 60.707s-21.15-51.198-59.219-52.173c0 0-35.141 3.9-37.092 52.173h96.311Z"/><path fill="#DB6A1D" d="M269.848 295.95s-15.259 3.39-19.966 1.398c0 0-.712-6.375 5.714-5.481 4.398.612 7.262-1.5 8.948-2.356 2.385-1.214 5.938 3.772 5.304 6.439Z"/><path fill="#E5C1A1" d="M256.569 286.341c.977.732 3.974-10.308 3.974-10.308a10.675 10.675 0 0 0-1.854 1.775c-.869 1.043-1.846 1.638-2.881 1.951-.01.322-.185 5.87.761 6.582Zm-14.086-1.91c.214.127 7.271 4.349 8.228 4.349.977 0-5.203-7.928-5.203-7.928a18.372 18.372 0 0 1-3.025 3.579Z"/><path fill="#F9DDBF" d="M297.976 332.256c.391-.334-14.967-22.591-19.197-22.754-4.23-.163-13.734 4.876-20.614 5.527-6.88.65-13.55-1.301-14.852 2.762-1.302 4.064-4.881 18.468-2.684 20.775 2.196 2.305 48.903.898 57.347-6.31Z"/><path fill="#233862" d="M238.17 221.094s-.483-2.379 4.997-9.698c1.182-1.578 4.788-7.524 4.788-7.524 1.424-.346 5.863 2.012 7.034 2.729.235.145.371.234.371.234s1.899 8.224-2.135 7.292a4.592 4.592 0 0 0-.379-.072c-3.901-.608-7.667 3.261-9.38 5.716-1.116 1.594-4.555 1.389-5.296 1.323Zm28.922-15.983s-.483-2.379 4.998-9.698c1.182-1.578 4.787-7.524 4.787-7.524 1.424-.346 5.863 2.011 7.034 2.729.236.145.372.233.372.233s1.898 8.224-2.136 7.293a6.31 6.31 0 0 0-.378-.075c-3.901-.608-7.668 3.261-9.38 5.716-1.117 1.596-4.556 1.391-5.297 1.326Z"/><path fill="#263238" d="M328.825 164.398c-1.122-4.811-13.586-19.813-19.971-16.338-6.383 3.475-3.073 22.346 3.583 44.6.101.339.205.677.31 1.012-13.414-2.2-29.379-2.868-29.379-2.868l-1.681 7.748c12.087 3.337 35.569 14.933 45.416 19.927 3.765 1.705 8.188 1.705 9.089-1.605 3.016-11.08-7.367-52.476-7.367-52.476Z"/><path fill="#FFB27D" d="M305.024 233.721s-28.531-12.862-45.927-18.058c-2.157-.644-4.136-1.165-5.872-1.536l1.829-7.454s1.704-.03 4.471-.026c10.831.03 37.956.636 42.801 5.947 6.081 6.669 2.698 21.127 2.698 21.127Zm21.561-176.303c.936 2.155 1.686 4.983 1.051 6.473-.718 1.69-.522 2.912-.522 2.912l-1.534.375-1.833.445s-.097-.157-.244-.424a14.412 14.412 0 0 1-.538-1.087s-.084-.81-.865-1.179c-.78-.37-1.599-1.31-1.749-2.22-.149-.908-1.083-2.607-.818-2.785.641-.433 1.605 2.208 2.171 2.326.511.106.676-.256.702-.327.002-.005.004-.009.004-.014.89-2.158-.754-7.607.548-7.91.487-.11 3.227 2.496 3.627 3.415Zm-98.731 43.502c1.594 1.727 3.879 3.553 5.502 3.575 1.838.027 2.876.7 2.876.7l.963-1.249 1.15-1.494s-.105-.152-.29-.396c-.184-.242-1.485-1.334-1.508-2.197-.023-.862-.552-1.991-1.325-2.497-.771-.504-1.949-2.043-2.22-1.873-.656.41 1.373 2.357 1.252 2.923-.109.51-.507.514-.582.509-.005-.002-.008 0-.014-.002-2.337-.058-6.661-3.763-7.464-2.695-.301.401.98 3.959 1.66 4.696Z"/><path fill="#263238" d="M296.881 167.989c-7.038 1.824-5.272 10.278-4.22 33.479.119 2.625.365 5.161.71 7.579-10.314-2.07-26.171-2.381-33.848-2.402 0 0-1.273 2.833-1.22 5.097.116 4.82 2.581 8.008 2.581 8.008 17.398 5.197 44.139 13.97 44.139 13.97s.001-.009.005-.021c1.783.463 3.46-.428 4.794-2.982 5.32-10.178 14.424-77.91 14.424-77.91.082-4.939-20.329 13.358-27.365 15.182Z"/><path fill="#FFB27D" d="M285.394 115.992s2.473-6.267-2.337-15.205l6.841 1.518 4.646 1.031s.768 1.583 1.774 4.524c.264.775 1.246 3.88 1.534 4.84 1.635.069-.722 2.541-4.074 3.027-3.733.541-8.384.265-8.384.265Z"/><path fill="#ED975D" d="M294.544 103.336s.768 1.584 1.774 4.525c-3.993 1.189-11.112-2.687-11.112-2.687 1.607-1.467 3.199-2.375 4.692-2.868l4.646 1.03Z"/><path fill="#FFB27D" d="M297.615 100.997s-7.924 8.756-13.306 3.742c-5.382-5.014-10.029-7.26-5.198-13.063 4.832-5.803 7.886-4.96 10.09-3.722 2.202 1.237 10.337 10.638 8.414 13.043Z"/><path fill="#2B478B" d="M283.865 104.196s.812-.899-.362-2.068c-1.175-1.17-2.513-2.856-1.214-3.374 1.298-.517 2.019.28 2.059-.551.043-.832-1.59-2.902 1.416-5.522 3.007-2.619 5.137-2.54 6.082-4.328.945-1.789-.724-4.044-.724-4.044s.211 1.112-.215 1.856c0 0-.209-5.23-4.816-5.276-4.607-.046-6.286 3.708-7.83 5.094-3.404 3.052-5.543 5.097-4.844 8.37.698 3.27 6.36 9.405 10.448 9.843Z"/><path fill="#fff" d="m292.663 99.174 2.941-2.765s1.196 1.833.357 2.628c-.84.797-3.298.136-3.298.136Z"/><path fill="#E8505B" d="M332.13 82.802c-1.258-7.772-5.043-16.314-5.043-16.314l-4.122-.187s.458 10.527.358 17.89c-.05 3.537-1.598 6.734-2.017 7.301-1.281 1.711-20.128 19.833-20.759 20.411l-.015.014.002.002c-2.006.341-1.783 3.632-3.844 4.185-3.436.921-9.142-.757-12.195.373 0 0-24.473.028-28.197-1.754-3.724-1.781-18.245-12.478-18.245-12.478l-2.691 3.13s9.967 19.172 17.87 22.62c4.301 1.877 13.75 4.138 21.467 5.806a8.644 8.644 0 0 1 6.422 5.9c7.261 23.389 3.606 43.112 3.606 43.112s6.956.777 15.618-1.625c11.262-3.125 19.489-8.188 19.489-8.188 3.174-3.844 1.297-17.94 1.297-17.94s2.192 2.365 2.926 6.313c.529 2.846.814 4.419.989 5.419a1.287 1.287 0 0 0 2.031.812c1.627-1.204 3.95-3.079 4.676-4.454 2.535-4.808-3.103-24.386-10.891-38.046a7.635 7.635 0 0 1 .145-7.83c4.791-7.678 12.156-19.854 12.246-22.298.053-1.328-.398-7.708-1.123-12.174Z"/><path fill="#FF725E" d="M296.154 117.68s6.571 9.313 1.751 18.315c-4.817 9.001-23.744 7.757-27.248 19.001l2.13 7.001 7.911-4.282s.662-6.08 8.446-8.721c15.205-5.157 18.865-14.063 15.673-22.033-2.696-6.736-6.6-9.981-6.6-9.981l-2.063.7Z"/><path fill="#F99746" d="m286.004 112.555 7.62 2.515.375 1.444-9.504-.225c.002 0 .506-2.182 1.509-3.734Zm11.148-2.09.253 3.936s.997.817.985.709c-.014-.108 2.144-3.378 2.144-3.378s-1.79-.861-3.382-1.267Z"/><path fill="#ED7D2B" d="m293.624 115.07 3.885-1.31a.593.593 0 0 1 .778.49l.321 2.608a.593.593 0 0 1-.399.633l-1.709.578a.587.587 0 0 1-.546-.088l-2.495-1.877a.59.59 0 0 1 .165-1.034Z"/><path fill="#233862" d="m322.776 65.563-.343 3.267s4.129.062 4.129 0c0-.061.126-1.62.126-1.62l.688 1.808 1.534-.5-1.755-2.956c-.002 0-1.753.828-4.379 0Zm-84.723 36.494-2.689 3.13.789 3.056 1.095-.751-.54-2.296 1.884 1.546 2.44-3.218-2.979-1.467Z"/><path fill="#EBF3FA" d="M237.467 104.929a.25.25 0 1 1 .25.249.248.248 0 0 1-.25-.249Zm88.331-37.305a.198.198 0 1 1 .396 0 .198.198 0 0 1-.396 0Zm-6.493 76.09a.532.532 0 1 1 1.065 0 .532.532 0 0 1-1.065 0Zm-4.225-8.789a.532.532 0 1 1 1.065 0 .532.532 0 0 1-1.065 0Zm-5.819-6.652a.533.533 0 0 1 1.065 0 .532.532 0 0 1-1.065 0Z"/></svg>