<svg xmlns="http://www.w3.org/2000/svg" width="143" height="40" fill="none"><path fill="#fff" d="M46.22 27.557h13.21L58.49 32h-19.6l.94-4.443L56.286 11.27h-12.68l.956-4.46h19.244l-.906 4.22-16.68 16.527Zm19.466-14.185h4.938L66.677 32h-4.94l3.949-18.628Zm1.435-6.716h4.94l-.958 4.494h-4.939l.957-4.494ZM71.513 32l5.35-25.19h4.87L76.383 32h-4.87Zm9.741 0 5.35-25.19h4.87L86.125 32h-4.87ZM94.91 13.372h4.94L95.9 32h-4.939l3.948-18.628Zm1.436-6.716h4.939l-.957 4.494h-4.94l.958-4.494Zm23.276 9.074c1.151 1.971 1.441 4.301.872 6.99-.581 2.735-1.869 5.076-3.863 7.024-1.982 1.937-4.574 2.905-7.776 2.905-3.201 0-5.383-.968-6.545-2.905-1.151-1.948-1.435-4.29-.854-7.024.569-2.689 1.851-5.018 3.845-6.99 1.994-1.97 4.591-2.956 7.793-2.956 3.201 0 5.377.985 6.528 2.957Zm-7.434 1.163c-1.424 0-2.626.507-3.606 1.52-.98 1.003-1.669 2.439-2.068 4.307-.399 1.869-.325 3.31.222 4.324.559 1.014 1.55 1.52 2.974 1.52 1.424 0 2.626-.506 3.606-1.52s1.669-2.455 2.068-4.324c.399-1.868.319-3.304-.239-4.306-.547-1.014-1.533-1.521-2.957-1.521Zm24.131 3.776c.216-.98.245-1.731.085-2.255-.273-.958-1.082-1.436-2.426-1.436-1.652 0-2.934.7-3.846 2.102-.478.74-.837 1.686-1.076 2.837L126.918 32h-4.853l3.948-18.594h4.699l-.581 2.717c.832-.957 1.573-1.646 2.222-2.067 1.162-.752 2.512-1.128 4.05-1.128 1.926 0 3.39.507 4.392 1.52 1.014 1.003 1.276 2.672.787 5.008L138.916 32h-4.991l2.393-11.33Z"/><path stroke="#fff" stroke-width="4" d="m2 32.5 10-17 7 12L32 6m0 0L21.5 8.5M32 6l3.5 9.5"/></svg>