<svg xmlns="http://www.w3.org/2000/svg" width="52" height="53" fill="none"><path fill="#1F1F1F" d="M14.625 29.813a8.017 8.017 0 0 0-4.514 1.395 8.25 8.25 0 0 0-2.993 3.717 8.43 8.43 0 0 0-.462 4.784 8.332 8.332 0 0 0 2.224 4.24 8.08 8.08 0 0 0 4.16 2.267c1.576.32 3.21.155 4.694-.471a8.16 8.16 0 0 0 3.647-3.05 8.42 8.42 0 0 0 .75-7.77 8.293 8.293 0 0 0-1.76-2.687 8.114 8.114 0 0 0-2.637-1.795 7.992 7.992 0 0 0-3.109-.63Zm0 11.593a3.206 3.206 0 0 1-1.806-.558 3.3 3.3 0 0 1-1.197-1.487 3.37 3.37 0 0 1-.184-1.913 3.333 3.333 0 0 1 .889-1.697 3.231 3.231 0 0 1 1.664-.906 3.193 3.193 0 0 1 1.878.188 3.268 3.268 0 0 1 1.458 1.22 3.358 3.358 0 0 1-.404 4.183 3.22 3.22 0 0 1-2.298.97ZM8.125 26.5a2.455 2.455 0 0 1-2.257-1.532 2.525 2.525 0 0 1 .53-2.712l2.336-2.381-2.336-2.38a2.513 2.513 0 0 1-.715-1.76c0-.66.258-1.294.715-1.76a2.419 2.419 0 0 1 1.727-.73c.648 0 1.269.263 1.727.73l2.335 2.38 2.336-2.38a2.419 2.419 0 0 1 1.727-.73c.648 0 1.269.263 1.727.73a2.52 2.52 0 0 1 0 3.52l-2.336 2.38 2.336 2.38a2.524 2.524 0 0 1 0 3.52c-.46.463-1.08.723-1.727.723-.646 0-1.267-.26-1.727-.723l-2.335-2.38-2.336 2.38a2.454 2.454 0 0 1-1.727.725Zm37.477 15.63a2.524 2.524 0 0 1 0 3.52c-.46.463-1.08.723-1.727.723-.646 0-1.267-.26-1.727-.723l-2.336-2.38-2.335 2.38c-.46.463-1.08.723-1.727.723a2.434 2.434 0 0 1-2.257-1.53 2.524 2.524 0 0 1 .53-2.712l2.336-2.381-2.336-2.38a2.513 2.513 0 0 1-.715-1.76c0-.66.258-1.294.715-1.76a2.419 2.419 0 0 1 1.727-.73c.648 0 1.269.263 1.727.73l2.336 2.38 2.335-2.38a2.419 2.419 0 0 1 1.727-.73c.648 0 1.269.263 1.727.73.458.466.715 1.1.715 1.76a2.52 2.52 0 0 1-.715 1.76l-2.336 2.38 2.336 2.38Zm-8.816-19.17c-1.056 4.74-4.733 9.006-9.161 10.6a2.24 2.24 0 0 1-.813.145 2.41 2.41 0 0 1-1.566-.588 2.496 2.496 0 0 1-.828-1.476 2.525 2.525 0 0 1 .298-1.674c.29-.505.744-.89 1.284-1.086 2.864-1.035 5.342-3.913 6.033-7.018.487-2.174.081-4.328-1.158-6.336v1.864c0 .659-.257 1.29-.714 1.756a2.414 2.414 0 0 1-1.724.728 2.414 2.414 0 0 1-1.723-.728A2.509 2.509 0 0 1 26 17.391V9.109c0-.659.257-1.29.714-1.756a2.415 2.415 0 0 1 1.724-.728h8.125c.646 0 1.266.262 1.723.728.457.466.714 1.097.714 1.756 0 .66-.257 1.291-.714 1.757a2.414 2.414 0 0 1-1.724.728h-2.437c2.6 3.437 3.534 7.412 2.66 11.366Z"/></svg>