<svg xmlns="http://www.w3.org/2000/svg" width="52" height="52" fill="none"><g clip-path="url(#a)"><path fill="#1F1F1F" d="M51.161 17.643 34.547 9.288v16.71l16.614-8.353v-.002ZM17.693 34.357V17.643L.839 9.288V26l16.856 8.357h-.002ZM.397 8.575a.828.828 0 0 1 .816-.036l16.48 8.17 16.482-8.17a.837.837 0 0 1 .75 0l16.614 8.356a.836.836 0 0 1 .461.748v16.705a.84.84 0 0 1-.462.75L34.925 43.46a.843.843 0 0 1-1.218-.748v-15.36l-15.641 7.756a.849.849 0 0 1-.746 0L.466 26.75A.838.838 0 0 1 0 26V9.29a.834.834 0 0 1 .397-.714Z"/></g><defs><clipPath id="a"><path fill="#fff" d="M0 0h52v52H0z"/></clipPath></defs></svg>