<svg xmlns="http://www.w3.org/2000/svg" width="107" height="143" fill="none"><path fill="#F46A4A" d="M12.466 44.138a544.894 544.894 0 0 0-4.061 38.775C7.465 96.626 6.872 110.987 0 122.885c7.41 3.81 16.478.138 24.673 1.618 3.906.706 7.537 2.579 11.46 3.196 7.462 1.172 14.825-2.303 22.351-2.95 5.016-.43 10.045.405 15.076.607 11.664.468 23.445-2.563 33.44-8.604-9.458-2.044-16.167-10.298-21.568-18.342A236.226 236.226 0 0 1 57.52 41.582c-.982-2.944-1.924-5.947-3.606-8.554-1.681-2.607-4.236-4.82-7.293-5.329-2.056-.343-4.151.1-6.212.414a50.74 50.74 0 0 1-11.11.456c-2.714-.186-7.46-2.135-9.974-1.184-5.098 1.932-6.231 12.305-6.86 16.753Z"/><path fill="#E06046" d="M36.132 127.698c3.477.547 6.933.083 10.395-.633a102.845 102.845 0 0 1-1.403-4.099L34.186 89.152c-3.08-9.52-6.185-19.17-6.748-29.162-5.767 21-.942 43.219-.542 65.029 3.088.863 6.067 2.181 9.236 2.679Zm-23.365-3.178c-.85-5.125-.133-10.787.382-16.058.721-7.37.846-14.783.785-22.185-.111-13.353-.856-26.73.143-40.066.232-3.097.356-6.33 1.248-9.308.56-1.871 1.119-3.039-.594-3.65-1.371 3.757-1.904 8.311-2.268 10.884a544.95 544.95 0 0 0-4.06 38.776C7.463 96.626 6.871 110.987 0 122.885c3.917 2.015 8.298 1.936 12.767 1.635Zm71.559-7.355c-15.485-10.209-22.963-28.696-29.563-46.052 2.628 19.394 9.852 38.145 20.89 54.289a60.346 60.346 0 0 0 18.698-2.904c-3.463-1.581-6.873-3.254-10.025-5.333Z"/><path fill="#F2D6B1" d="M16.826 4.722c1-.915 2.265-1.576 3.613-1.705.837-.08 1.775.094 2.293.757.23.294.354.654.474 1.006.277.819.557 1.702.314 2.532-.245.838-1.055 1.476-1.926 1.518-.42.02-.832-.086-1.25-.122-1.746-.15-3.382.897-5.13 1.017-3.144.216.794-4.255 1.612-5.003Zm39.788-2.824C55.654.94 54.42.225 53.078.038c-.833-.116-1.778.017-2.323.655-.243.283-.38.638-.516.985-.314.805-.631 1.676-.423 2.516.209.848.991 1.52 1.86 1.6.417.038.834-.05 1.252-.068 1.751-.074 3.34 1.044 5.082 1.24 3.13.352-.61-4.284-1.396-5.068Z"/><path fill="#4B4E51" d="M59.66 141.932c1.443.266 2.923.334 4.385.206.047-.184.092-.369.14-.553.508.327 1.128.419 1.727.496 2.71.35 5.439.559 8.17.631-2.735-1.652-5.486-3.311-8.441-4.524-1.026-.421-2.092-.791-3.198-.865-.599-.04-1.223.014-1.751.299-.579.311-1.02.989-1.159 1.626-.061.278-.188 2.627.127 2.684Zm-18.978-.403a16.43 16.43 0 0 1-4.37.417l-.165-.544c-.494.351-1.108.472-1.702.578-2.69.478-5.407.82-8.131 1.021 2.654-1.781 5.322-3.57 8.216-4.923 1.005-.47 2.051-.891 3.154-1.017.596-.068 1.223-.044 1.764.214.593.283 1.065.94 1.236 1.569.073.273.31 2.612-.002 2.685Z"/><path fill="#F2D6B1" d="M35.749 101.892c2.464 3.598 2.948 8.217 3.1 12.616a114.946 114.946 0 0 1-1.275 21.486c-.162 1.052-.517 2.31-1.523 2.566-.764.194-1.56-.353-1.934-1.064-.375-.711-.429-1.548-.479-2.354-.75-12.245-2.227-24.46-4.822-36.436-.121-.56-.218-1.228.172-1.639.204-.214.5-.304.787-.347 1.72-.252 3.332.953 4.43 2.335a12.803 12.803 0 0 1 2.71 7.013l-1.166-4.176Z"/><path fill="#F2D6B1" d="M36.136 90.683c.643 4.47 1.286 9.022.599 13.484-.155 1.01-.406 2.064-1.094 2.802-.236.251-.526.464-.86.528-.963.186-1.693-.847-2.147-1.739-4.662-9.144-8.796-19.243-7.492-29.482.183-1.433.488-2.895 1.273-4.098.784-1.202 2.14-2.099 3.541-1.957 3.461.35 3.889 4.349 4.197 7.066.508 4.476 1.342 8.938 1.983 13.396Zm13.513-1.801c1.535 4.227 3.085 8.535 3.316 13.044.053 1.021.02 2.103-.503 2.974-.178.297-.42.567-.734.702-.905.392-1.828-.458-2.454-1.23-6.413-7.918-12.503-16.885-13.3-27.17-.111-1.441-.11-2.936.415-4.28.524-1.345 1.668-2.517 3.068-2.684 3.458-.413 4.685 3.401 5.538 5.988 1.403 4.262 3.123 8.44 4.654 12.656Z"/><path fill="#73787F" d="M62 127.78c-4.412-13.314-8.85-26.74-10.503-40.67-.278-2.342-.76-6.46-1.26-9.244-.416-2.321-1.758-2.171-3.656-3.565-2.357-1.73-5.467-2.03-8.384-1.865l-.363.024c.021-.058-.104-.112-.228.019l-.29.029c-3.246-.41-6.658-.337-9.624 1.039-2.483 1.152-4.55 3.334-5.25 6.017-.751 2.881 1.198 6.554 1.926 9.352 1.84 7.068 3.24 14.241 4.452 21.442a647.137 647.137 0 0 1 1.935 12.378c.807 5.427 1.588 10.908 1.207 16.383a24.32 24.32 0 0 0 8.393-1.441c.73-15.348-2.481-32.939-3.218-49.34 3.44 7.472 6.247 15.999 9.313 23.325 3.686 8.813 6.957 17.874 12.006 25.981.243.39.508.795.916 1.008.33.171.712.197 1.083.211 2.116.08 4.24-.1 6.314-.532-2.295-3.123-3.55-6.871-4.77-10.551Z"/><path fill="#62666B" d="M44.036 100.103c-1.961-4.74-3.228-9.872-6.27-14a28.735 28.735 0 0 0-.219 3.294c3.224 7.211 5.912 15.283 8.831 22.265 3.687 8.812 6.958 17.873 12.007 25.98.243.39.508.796.916 1.009.329.171.712.197 1.083.211 2.116.08 4.24-.1 6.314-.533-1.715-2.331-2.848-5.013-3.82-7.754-3.771-4.946-7.158-10.245-10.492-15.488-3.073-4.832-6.16-9.693-8.35-14.984Z"/><path fill="#62666B" d="M28.748 110.356a646.245 646.245 0 0 1 1.935 12.377c.806 5.428 1.587 10.909 1.207 16.383 2.03.013 4.061-.232 6.032-.724a47.09 47.09 0 0 1-.996-2.555c-4.582-12.671-6.446-26.18-7.168-39.637-.17-3.15-.175-6.622 1.843-9.042 1.757-2.108 4.652-2.883 7.386-3.082 2.734-.2 5.516.055 8.197-.52 1.268-.27 2.54-.785 3.608-1.53a99.806 99.806 0 0 0-.63-4.16c-.416-2.32-1.759-2.171-3.657-3.564a3.182 3.182 0 0 0-.114-.08c-2.143-.42-4.325-.751-6.365-1.505a18.05 18.05 0 0 1-.797-.317 23.74 23.74 0 0 0-1.47.062c.02-.058-.105-.112-.229.019a20.78 20.78 0 0 0-.29.029c-3.245-.41-6.657-.337-9.624 1.039-2.482 1.152-4.55 3.334-5.25 6.017-.75 2.881 1.199 6.554 1.927 9.352 1.843 7.064 3.245 14.238 4.455 21.438Z"/><path fill="#F2D6B1" d="M69.772 16.14C66.27 10.985 60.92 7.438 55.709 4.025c-.893.746-.542 2.17-.116 3.254 1.603 4.074 4.03 7.22 6.421 10.886 2.783 4.265 4.172 8.92 6.973 7.892 4.399-1.615 2.512-7.375.785-9.916Z"/><path fill="#F2D6B1" d="M66.13 29.724c2.029-1.204 4.154-2.729 4.71-5.024.264-1.094.08-2.374-.759-3.125-1.305-1.169-3.34-.55-4.976.078-5.464 2.096-11.235 3.636-16.095 6.903-2.273 1.528-3.319 3.79-1.576 6.227 1.072 1.498 2.41 1.902 4.163 1.503 4.982-1.133 10.178-3.982 14.532-6.562ZM7.526 32.283c-2.03-1.204-4.154-2.729-4.71-5.025-.265-1.094-.08-2.373.758-3.124 1.305-1.17 3.34-.551 4.976.077 5.465 2.096 11.235 3.637 16.095 6.904 2.273 1.527 3.319 3.79 1.576 6.226-1.072 1.498-2.41 1.902-4.163 1.504-4.983-1.134-10.179-3.98-14.532-6.562Z"/><path fill="#fff" d="M29.104 31.247c-1.129.378-2.793.922-3.721 1.712-1.837 1.565-1.49 2.49-1.613 5.05-.208 4.32.698 8.623 1.597 12.856l2.262 10.638c.195.918.397 1.854.846 2.664.808 1.456 2.316 2.302 3.828 2.678 2.074.517 4.224.292 6.32-.002a99.623 99.623 0 0 0 3.49-.554c.536-.094 1.123-.229 1.44-.704.18-.269.245-.608.303-.937l3.117-17.275c.665-3.687 1.057-10.286 1.111-14.054.01-.664-.003-1.35-.234-1.968-.3-.804-.934-1.406-1.603-1.879-2.035-1.443-4.215.94-6.612.641-3.56-.444-7.293-.47-10.531 1.134Z"/><path fill="#F2D6B1" d="M32.454 31.028c2.715.828 6.225.76 9.177.742l.885-9.723c.03-.323.055-.666-.136-.94-.154-.223-.43-.368-.709-.487-1.674-.712-3.716-.722-5.637-.454-.714.1-1.482.263-1.96.721-.685.657-1.365.144-1.036.693.415.692.532.953.506 1.73-.075 2.299-.456 5.887-1.09 7.718Z"/><path fill="#F2D6B1" d="M29.244 13.256c-.047.902.209 1.79.487 2.649a46.156 46.156 0 0 0 2.485 6.117c.354.718.731 1.434 1.268 2.027.878.97 2.135 1.54 3.423 1.756 1.289.214 2.613.095 3.895-.154 1.495-.291 3.117-.892 3.765-2.272.324-.69.352-1.479.35-2.241a36.54 36.54 0 0 0-.462-5.715c-.348-2.163-.918-4.357-2.22-6.116-1.303-1.76-3.475-3.01-5.638-2.696-1.907.277-3.302 1.572-4.649 2.827-1.265 1.178-2.602 1.869-2.704 3.818Z"/><path fill="#72594C" d="M30.513 18.794c-.909-1.852-1.83-3.743-2.117-5.784-.288-2.044.158-4.301 1.65-5.723C32.07 5.355 35.317 5.477 37.693 4c1.448-.9 2.723-2.439 4.424-2.34 1.249.071 2.289 1.085 2.76 2.246.472 1.16.484 2.451.458 3.705-.04 1.949.023 4.202-1.337 5.596-.18-.889-1.225-1.67-2.09-1.94-.864-.268-1.793-.21-2.692-.12-1.851.186-3.792.54-5.211 1.747-1.42 1.207-2.053 3.52-.884 4.972a1.358 1.358 0 0 0-1.588.154 1.363 1.363 0 0 0-.283 1.572c.288.57 1.568 1.202 2.139 1.639l.792 2.347c-.16.27-.389.527-.581.751-.706-.808-1.042-1.246-1.45-2.208-.485-1.131-1.095-2.223-1.637-3.327Z"/><path fill="#CEB699" d="M34.448 23.633c.097.048 2.258 1.36 4.128 1.699 3.215.585 3.908-.164 3.908-.164l-.676 3.602s-1.704-.201-3.816-1.758c-2.112-1.556-3.544-3.38-3.544-3.38Zm8.036-3.87-2.632.33c-.149.018-.341.012-.388-.115-.053-.143.14-.26.3-.308a4.43 4.43 0 0 1 .864-.164c.18-.016.375-.026.512-.136.176-.141.18-.386.17-.598-.099-1.848-.32-3.683-.45-5.526.387.076.667 2.564.773 3.021.065.297.77 3.506.85 3.496Z"/><path fill="#72594C" d="M36.664 13.112c-.27.003-.54.004-.808.044a2.88 2.88 0 0 0-.756.221c-.05.023-.11.075-.084.123.015.026.045.034.073.04l.825.199c.342.082.686.165 1.036.214.813.114 1.64.041 2.451-.084.208-.033.423-.072.589-.202.172-.135.31-.485.058-.584-.135-.053-.404.003-.551.005-.196.001-.39.002-.586.005l-2.247.019Zm6.926-.62c.173-.035.349-.073.518-.071.166.001.327.037.476.107.031.016.069.056.047.107a.103.103 0 0 1-.048.05l-.543.31c-.225.128-.452.258-.68.354-.532.226-1.062.274-1.578.267-.132-.001-.269-.01-.369-.113-.104-.107-.173-.427-.004-.558.09-.07.261-.054.356-.074l.378-.079 1.447-.3Z"/><path fill="#CEB699" d="M32.15 18.547a.589.589 0 0 0-.303.597c.028.163.13.306.255.413.126.107.272.184.42.26l.922.482c-.102-.053-.21-.503-.256-.615-.09-.222-.175-.446-.252-.673-.063-.185-.069-.38-.235-.482-.153-.093-.404-.062-.552.018Z"/><path fill="#fff" d="M36.882 15.5c.651-.088 1.312-.116 1.96-.014.108.018.22.04.307.115.087.074.138.214.087.321-.037.078-.115.12-.19.153-.936.42-1.975.482-2.978.373-.107-.012-.222-.03-.3-.115-.39-.427.916-.806 1.114-.834Z"/><path fill="#72594C" d="M38.167 16.365a1.168 1.168 0 0 0 .046-.917l-.01-.021a7.724 7.724 0 0 0-1.296.071 1.44 1.44 0 0 0 .142.821c.032.06.072.117.116.172a5.731 5.731 0 0 0 1.002-.126Z"/><path fill="#fff" d="M42.609 14.87c.459-.065.926-.072 1.388.05.077.02.157.048.22.124a.381.381 0 0 1 .072.324.255.255 0 0 1-.13.145c-.65.389-1.383.417-2.097.276-.077-.016-.158-.037-.217-.123-.288-.44.626-.775.764-.795Z"/><path fill="#72594C" d="M43.548 15.773a1.631 1.631 0 0 0 .003-.912l-.009-.024a3.845 3.845 0 0 0-.914.03 2.01 2.01 0 0 0 .126.823c.025.06.056.12.089.174a2.8 2.8 0 0 0 .705-.091Z"/><path fill="#9B776A" d="M39.106 4.29c-.66.376-1.388.613-2.11.848l-2.377.776c-.877.285-1.759.574-2.571 1.01-.814.435-1.562 1.029-2.046 1.814-.47.764-.669 1.669-.714 2.564-.043.863.067 1.78.59 2.465a3.603 3.603 0 0 1 .041-2.015 3.726 3.726 0 0 0 .614 2.958c-.362-1.353-.061-2.85.714-4.016.775-1.167 1.998-2.006 3.339-2.409-.8-.35-1.721-.044-2.54.264 1.41-1.163 3.26-1.609 5.041-2.02l-1.627-.204c1.197-.2 2.292-.78 3.357-1.362.524-.287 1.052-.583 1.485-.996.41-.39.784-.952.79-1.537-.556.704-1.205 1.416-1.986 1.86Z"/><path fill="#8D939E" d="M34.114 42.932c1.6 6.904 3.202 13.823 4.042 20.861l5.758-35.513a25.038 25.038 0 0 0 7.154-.84c-.339 8.262 1.957 5.599 1.915 13.866-.024 4.959-1.83 20.896-1.566 25.848.183 3.45-.051 6.848.41 10.27.07.52.143 1.054.028 1.567-.15.66-.6 1.22-1.117 1.656-2.3 1.95-5.658 1.775-8.656 1.496-.761-.071-1.552-.15-2.203-.55-1.09-.669-1.502-2.032-1.765-3.286a37.891 37.891 0 0 1-.772-6.297l-.539 4.094c-.285 2.166-.746 4.619-2.6 5.77-1.12.695-2.514.742-3.832.722a56.736 56.736 0 0 1-9.361-.92c-.545-9.282-2.065-30.885-1.612-39.729.453-8.842 4.373-3.94 2.458-12.969.192.703 4.801 1.004 5.486 1.051.672.046 1.857-.178 2.406.194.422.287.855 1.664 1.083 2.14 1.606 3.337 2.45 6.978 3.283 10.57Z"/><path fill="#8D939E" d="M63.098 21.628a55.846 55.846 0 0 1-8.29-15.582l3.48-1.663c.182-.086.377-.174.574-.139.183.033.332.17.466.3 5.627 5.415 11.004 11.352 14.066 18.54.082.19.163.392.143.598-.02.208-.14.39-.257.564-6.069 8.942-15.329 15.23-24.957 20.122.268-4.42.448-9.195-2.003-12.88-.433-.652-2.056-2.448-1.212-2.998.135-.087.532.046.703.006.355-.083.633-.287.95-.465.699-.394 1.394-.793 2.104-1.167a57.392 57.392 0 0 1 14.233-5.236Zm-52.212 2.961a55.872 55.872 0 0 0 7.89-15.79l-3.524-1.574c-.182-.081-.38-.166-.577-.124-.184.038-.326.178-.459.311C8.73 12.97 3.506 19.043.63 26.309c-.076.193-.153.394-.127.6.026.207.15.387.27.557C7.072 36.25 16.489 42.298 26.238 46.94c-.382-4.41-.683-9.18 1.673-12.927.416-.663 1.993-2.5 1.134-3.029-.137-.084-.53.059-.703.024-.356-.072-.64-.271-.96-.44-.71-.376-1.415-.758-2.135-1.113a57.39 57.39 0 0 0-14.36-4.866Z"/><path fill="#73787F" d="M31.197 28.14s2.735 7.93 3.912 16.226 3.29 19.96 3.29 19.96L28.235 44.031l3.149-2.712-4.758-2.33-3.583-11.151 8.154.303Z"/><path fill="#73787F" d="M43.812 27.44s-1.991 8.298-2.895 16.627c-.903 8.33-2.632 20.056-2.632 20.056l9.491-20.619-3.236-2.606 4.678-2.486 2.2-13.08-7.606 2.109Z"/><path fill="#80868E" d="M19.643 43.517a12.09 12.09 0 0 1 1.176-.968c.758-.549 1.666-1.158 1.714-2.094-2.743.189-5.364-1.075-7.745-2.451a67.04 67.04 0 0 1-10.376-7.4c-1.394-1.207-2.763-2.517-3.883-3.98-.022.094-.033.189-.022.284.026.207.15.387.271.557 4.858 6.774 11.573 11.921 18.865 16.052ZM5.724 23.85c1.223.184 2.446.365 3.668.548a10.925 10.925 0 0 1-2.462 2.116 44.68 44.68 0 0 0 4.08-1.905 3.383 3.383 0 0 0-.12-.024 55.838 55.838 0 0 0 7.89-15.79l-1.863-.833C15.218 14.36 11.177 20.11 5.724 23.85Zm67.558.39c.117-.173.236-.356.256-.565a.696.696 0 0 0 0-.11c-.867 1.157-2.094 2.03-3.297 2.856A251.162 251.162 0 0 1 52.009 37.83c-.338.192-.713.434-.768.819-.027.187.028.375.088.555.33.994.786 1.945 1.352 2.826 8.013-4.534 15.454-10.208 20.6-17.79Zm-7.255-1.474a5.337 5.337 0 0 1-1.377-1.468 4.393 4.393 0 0 0 1.76.498 30.477 30.477 0 0 1-8.33-15.703c-.097-.508-.17-1.06-.103-1.568l-3.17 1.514A55.84 55.84 0 0 0 63 21.488c.925.611 1.933 1.065 3.027 1.278Z"/><path fill="#80868E" d="M20.68 75.089c-1.02-10.573-1.596-21.2-1.617-31.823-.002-.822 3.468-2.812 3.468-2.812s-.776 4.4-.936 5.223a91.824 91.824 0 0 0-1.365 9.855c-.552 6.577-.182 13.01.45 19.557Zm30.991-15.042c-.023 4.085-.115 1.024-.272 5.106.446-11.716.866-16.489 4.705-27.563-.494 1.428-4.87.862-4.87.862s-.146 5.682-.047 7.054c.35 4.839.511 9.69.484 14.54Z"/><path fill="#72594C" d="M39.193 21.177s1.536.718 2.305.585c.768-.132 1.49-1.083 1.49-1.083s-.286 2.019-1.34 2.256c-1.053.237-2.455-1.758-2.455-1.758Z"/><path fill="#F46A4A" d="M28.262 30.918c4.037 2.029 9.436 3.779 11.95 7.54.77-1.158.573-1.72 1.55-2.709l5.828-5.894c2.12-2.144 4.272-4.02 6.861-5.564-2.328.535-4.655.777-6.984 1.312-1.119.257-2.249.518-3.286 1.011-1 .474-1.891 1.152-2.889 1.632-1.753.843-3.797 1.03-5.693.593-.967-.224-1.89-.603-2.843-.886-1.218-.362-2.478-.566-3.738-.732-3.498-.461-6.977-.538-10.5-.533 3.374 1.155 6.559 2.629 9.744 4.23Z"/><path fill="#F46A4A" d="M38.415 39.94c-.093 2.764.238 5.582 1.201 8.09.965 2.507 2.597 4.683 4.679 5.814-.453-.844-.884-1.722-1.112-2.692-.444-1.893-.072-3.908.257-5.835.329-1.928.605-3.992-.006-5.816-.316-.945-.855-1.757-1.44-2.488-.777-.968-1.97-1.758-2.969-.714-.718.748-.576 2.627-.61 3.64Z"/><path fill="#F2CF3D" d="M37.234 36.61c-.148.31-.237.721-.049 1.003.111.167.295.244.47.301 1.064.347 2.198.263 3.285.03.53-.113 1.076-.273 1.492-.67.418-.397.669-1.092.455-1.667-.244-.656-.944-.883-1.56-.927-1.48-.106-3.31.288-4.093 1.93Z"/><path fill="#80868E" d="M37.663 67.679c.095-.593.216-1.183.295-1.778.188-1.43.135-2.926.702-4.25-.293 4.778-1.174 9.537-.953 14.32 0-1.296-.449-2.537-.41-3.83.047-1.492.128-2.987.366-4.462Z"/><path fill="#62666B" d="M36.564 65.218c-.05.248-.071.564.145.692.163.097.384.02.509-.123.125-.142.177-.332.227-.515l.104-.393c.1-.374-.04-.895-.512-.664-.313.157-.413.703-.473 1.003Zm-.75 4.064c-.05.249-.07.564.146.693.162.097.383.02.508-.123.126-.143.177-.333.227-.516l.104-.392c.1-.374-.04-.895-.511-.664-.314.155-.414.702-.474 1.002Zm-.681 4.229c-.05.249-.071.564.147.693.162.097.383.02.507-.123.126-.143.177-.333.227-.516l.104-.39c.1-.375-.04-.896-.512-.665-.312.156-.413.701-.473 1.001Z"/></svg>