<svg width="187" height="143" viewBox="0 0 187 143" fill="none" xmlns="http://www.w3.org/2000/svg">
<g clip-path="url(#clip0_1_48)">
<path d="M181.471 33.04C182.017 32.881 182.599 32.724 183.149 32.873C183.549 32.982 183.899 33.244 184.307 33.322C184.725 33.401 185.153 33.277 185.573 33.209C185.994 33.14 186.473 33.148 186.789 33.435C187.105 33.721 187.07 34.361 186.658 34.473C187.089 35.283 186.464 36.438 185.547 36.521C185.807 36.761 185.782 37.196 185.589 37.491C185.396 37.786 185.078 37.972 184.77 38.146C180.072 40.8001 175.145 43.027 170.048 44.8C168.69 45.273 167.313 45.714 165.895 45.96C164.678 46.171 163.182 46.119 162.521 45.077C162.091 44.399 162.183 43.49 162.563 42.784C162.943 42.078 163.568 41.537 164.202 41.043C169.22 37.125 175.431 34.812 181.471 33.04Z" fill="#F2D6B1"/>
<path d="M131.356 41.494C132.087 41.8 132.834 42.134 133.376 42.711C133.917 43.288 134.21 44.171 133.877 44.889C133.578 45.533 132.879 45.882 132.216 46.14C127.983 47.79 122.955 47.637 119.103 45.232C117.505 44.235 114.839 40.827 117.404 39.325C118.512 38.676 120.281 38.865 121.505 38.935C123.115 39.03 124.709 39.32 126.267 39.732C128.005 40.191 129.7 40.802 131.356 41.494Z" fill="#E06046"/>
<path d="M7.543 37.426C7.543 37.426 3.083 46.067 8.539 55.958C9.555 57.8 7.519 59.883 6.579 61.764C3.905 67.104 6.839 73.804 11.439 77.624C16.037 81.444 21.941 83.221 27.446 85.564C28.396 85.969 29.38 86.422 30.012 87.238C30.67 88.088 30.851 89.195 31.156 90.224C32.516 94.826 36.522 98.131 40.596 100.684C45.1811 103.557 50.1047 105.85 55.254 107.511C58.514 108.563 61.898 109.376 64.872 111.074C68.137 112.936 70.939 115.867 74.639 116.537C78.199 117.183 81.752 115.572 84.93 113.847C102.128 104.509 116.016 90.211 128.953 75.553C134.291 69.503 142.817 54.535 146.456 45.547C147.137 43.864 138.326 55.259 137.195 53.838C136.368 52.8 135.238 52.048 134.096 51.372C128.182 47.877 120.303 45.454 113.406 44.948C110.023 44.7 106.485 46.158 103.224 46.883C99.3179 47.7499 95.382 48.4771 91.424 49.063C75.3869 51.4333 59.094 51.5073 43.036 49.283C33.962 48.03 7.543 37.426 7.543 37.426Z" fill="#F46A4A"/>
<path d="M5.85801 44.227C6.87501 44.322 7.91501 44.562 8.85601 44.827C23.5957 48.9537 38.7936 51.2213 54.096 51.577C57.598 51.658 61.141 51.637 64.588 50.952C64.654 50.94 64.718 50.926 64.783 50.912C57.4999 50.8415 50.2287 50.3054 43.014 49.307C33.943 48.049 7.52401 37.447 7.52401 37.447C7.52401 37.447 6.13901 40.134 5.85801 44.227ZM111.946 93.519C98.275 97.384 83.728 102.557 69.756 105.129C64.3 106.131 58.67 106.94 53.14 106.814C53.834 107.064 54.533 107.304 55.235 107.531C58.495 108.583 61.878 109.396 64.852 111.094C68.116 112.956 70.92 115.887 74.619 116.557C78.18 117.203 82.461 116.967 85.641 115.24C95.155 110.076 103.884 100.753 111.947 93.518L111.946 93.519ZM8.12001 55.215C8.24801 55.468 8.38001 55.722 8.52201 55.978C9.53801 57.82 7.50201 59.904 6.56101 61.785C5.88101 63.143 5.56701 64.587 5.54601 66.05C6.65686 65.6546 7.80214 65.3637 8.96701 65.181C22.629 62.971 36.859 67.111 50.355 64.047C35.915 62.952 20.956 61.701 8.12001 55.215ZM29.993 87.257C30.652 88.107 30.833 89.214 31.137 90.243C32.001 93.166 33.934 95.565 36.271 97.583C36.998 95.818 38.867 94.523 40.607 93.528C44.8007 91.1331 49.1586 89.0379 53.648 87.258C54.976 86.732 56.532 85.958 56.645 84.539C49.572 81.859 41.721 84.149 34.169 84.587C30.715 84.787 27.269 84.589 23.846 84.129C25.048 84.606 26.246 85.082 27.427 85.585C28.378 85.988 29.361 86.441 29.993 87.257Z" fill="#E06046"/>
<path d="M42.521 111.549C41.2489 112.751 40.1443 114.119 39.237 115.616L39.67 116.137C38.998 116.396 38.473 116.927 37.978 117.45C35.7351 119.808 33.614 122.28 31.623 124.854C35.135 123.383 38.665 121.905 41.911 119.915C43.038 119.225 44.143 118.461 44.992 117.45C45.452 116.902 45.839 116.266 45.939 115.558C46.047 114.785 45.703 113.888 45.189 113.307C44.967 113.052 42.798 111.288 42.521 111.549ZM10.898 104.944C9.62678 106.146 8.5226 107.514 7.615 109.01L8.047 109.532C7.375 109.791 6.851 110.323 6.356 110.845C4.11196 113.202 1.9905 115.672 0 118.246C3.512 116.775 7.042 115.296 10.288 113.307C11.415 112.617 12.52 111.853 13.37 110.841C13.829 110.294 14.216 109.658 14.316 108.95C14.425 108.177 14.081 107.279 13.567 106.698C13.345 106.448 11.175 104.681 10.898 104.944Z" fill="#4B4E51"/>
<path d="M88.393 104.11C87.846 109.346 87.303 114.677 88.313 119.843C88.542 121.011 88.883 122.226 89.723 123.055C90.01 123.337 90.36 123.57 90.753 123.631C91.889 123.803 92.696 122.566 93.187 121.506C98.222 110.643 102.595 98.69 100.598 86.826C100.318 85.164 99.893 83.476 98.921 82.112C97.948 80.748 96.318 79.766 94.686 79.994C90.651 80.56 90.335 85.237 90.1 88.416C89.71 93.653 88.937 98.889 88.393 104.11ZM65.99 83.02C61.095 84.933 56.116 86.894 51.983 90.168C51.048 90.908 50.122 91.771 49.765 92.902C49.644 93.287 49.595 93.707 49.717 94.088C50.075 95.183 51.535 95.335 52.697 95.288C64.607 94.805 77.187 93.228 86.824 85.997C88.174 84.984 89.482 83.831 90.255 82.335C91.029 80.839 91.171 78.932 90.232 77.578C87.915 74.23 83.622 76.096 80.691 77.342C75.866 79.396 70.873 81.109 65.989 83.019L65.99 83.02Z" fill="#F2D6B1"/>
<path d="M104.15 88.275C104.537 85.939 104.403 83.505 103.647 81.264C103.659 80.192 103.371 79.157 102.676 78.317C101.867 77.341 100.65 76.798 99.442 76.407C91.91 73.973 85.802 73.262 78.259 75.665C72.61 77.465 39.535 91.71 30 96.256C25.247 98.522 12.552 105.452 12.552 105.452C12.552 105.452 10.42 111.896 11.822 113.095C12.117 113.348 12.438 113.601 12.821 113.677C13.216 113.757 13.622 113.634 14.007 113.514C38.077 106.031 62.821 100.824 86.86 93.26C86.6927 100.023 86.6881 106.79 86.846 113.553C80.959 110.586 74.272 109.453 67.676 109.446C61.081 109.436 54.533 110.51 48.057 111.758C47.039 111.953 45.989 112.168 45.142 112.763C43.158 114.157 43.015 116.984 43.066 119.403C60.692 118.106 78.315 121.849 95.266 126.839C99.239 127.899 101.849 102.109 104.15 88.275Z" fill="#73787F"/>
<path d="M75.607 49.633C71.54 55.668 70.026 63.004 68.597 70.133C69.796 70.777 71.19 69.779 72.178 68.848C75.899 65.343 78.254 61.346 81.188 57.164C84.6 52.296 89.043 48.769 86.708 46.181C83.036 42.114 77.611 46.659 75.607 49.633Z" fill="#F2D6B1"/>
<path d="M88.715 41.985C85.998 42.485 83.049 43.299 81.513 45.586C80.78 46.677 80.47 48.151 81.088 49.31C82.051 51.115 84.539 51.258 86.591 51.228C93.443 51.134 100.41 51.77 107.068 50.15C110.182 49.393 112.244 47.338 111.308 43.97C110.732 41.898 109.425 40.919 107.337 40.65C101.403 39.887 94.543 40.913 88.715 41.985Z" fill="#F2D6B1"/>
<path d="M135.369 55.913C135.064 53.016 134.509 49.86 132.918 47.528C130.554 44.061 125.171 42.682 120.448 42.534C119.243 41.834 110.231 39.768 107.888 41.628C103.932 44.768 103.465 49.996 100.441 54.043L92.845 64.21C92.19 65.088 91.522 65.985 91.158 67.001C90.503 68.829 90.926 70.803 91.763 72.421C92.91 74.639 94.772 76.353 96.65 77.965C97.696 78.862 98.757 79.742 99.834 80.602C100.33 80.999 100.903 81.412 101.566 81.325C101.941 81.275 102.288 81.07 102.623 80.87L120.205 70.32C123.957 68.069 130.056 63.337 133.41 60.487C134.001 59.984 134.593 59.447 134.957 58.767C135.43 57.883 135.469 56.864 135.369 55.914V55.913Z" fill="white"/>
<path d="M117.746 44.155C120.652 45.885 123.92 47.203 127.344 48.025L131.149 37.077C131.275 36.713 131.401 36.326 131.259 35.957C131.144 35.655 130.865 35.41 130.578 35.193C128.844 33.893 126.481 33.3 124.18 33.059C123.324 32.969 122.39 32.939 121.705 33.329C120.723 33.891 121.29 34.566 121.514 35.294C121.796 36.209 121.34 37.289 121.028 38.158C120.269 40.275 119.004 42.227 117.746 44.155Z" fill="#F2D6B1"/>
<path d="M135.87 31.304C136.37 28.751 136.631 26.074 135.895 23.578C135.159 21.083 133.242 18.8 130.69 18.263C128.442 17.79 126.348 18.663 124.325 19.506C122.426 20.299 120.647 20.521 119.731 22.652C119.307 23.637 119.229 24.732 119.189 25.803C119.092 28.4178 119.182 31.0362 119.461 33.638C119.563 34.583 120.681 35.7 120.876 36.629C121.134 37.866 123.161 39.776 123.161 39.776C124.514 40.544 126.046 40.952 127.585 41.201C129.378 41.489 131.44 41.485 132.731 40.214C133.377 39.578 133.732 38.71 134.043 37.86C134.823 35.7261 135.434 33.534 135.87 31.304Z" fill="#F2D6B1"/>
<path d="M118.977 29.265C118.764 26.826 118.556 24.337 119.114 21.954C119.675 19.57 121.144 17.264 123.414 16.332C126.497 15.066 130.053 16.597 133.332 15.986C135.329 15.614 137.411 14.459 139.26 15.3C140.617 15.918 141.337 17.487 141.361 18.973C141.386 20.461 140.841 21.893 140.273 23.27C139.39 25.41 138.488 27.93 136.376 28.887C136.558 27.827 135.732 26.511 134.887 25.842C134.042 25.174 132.985 24.838 131.944 24.552C129.806 23.96 127.495 23.516 125.398 24.239C123.301 24.963 121.601 27.251 122.273 29.36C121.863 28.82 121.075 28.6 120.442 28.847C120.127 28.9776 119.861 29.2043 119.683 29.4949C119.505 29.7855 119.423 30.1251 119.449 30.465C119.524 31.219 120.674 32.47 121.12 33.199L120.99 36.138C120.695 36.366 120.33 36.552 120.02 36.72C119.584 35.522 119.399 34.894 119.359 33.652C119.312 32.192 119.105 30.719 118.977 29.265Z" fill="#72594C"/>
<path d="M121.15 37.465C121.248 37.549 123.422 39.133 125.489 40.059C126.821 40.6404 128.213 41.074 129.639 41.352L128.203 45.487C128.203 45.487 126.287 44.769 124.287 42.371C122.286 39.976 121.15 37.465 121.15 37.465ZM131.869 35.49C130.846 35.2335 129.823 34.9778 128.8 34.723C128.628 34.68 128.416 34.591 128.419 34.43C128.422 34.248 128.687 34.202 128.884 34.219C129.233 34.249 129.58 34.312 129.916 34.409C130.122 34.469 130.344 34.541 130.543 34.479C130.802 34.399 130.911 34.13 130.99 33.889C131.676 31.803 132.222 29.679 132.87 27.582C133.268 27.832 132.507 30.707 132.428 31.256C132.375 31.613 131.774 35.467 131.869 35.49Z" fill="#CEB699"/>
<path d="M128.439 25.471C128.168 25.2973 127.886 25.1426 127.594 25.008C127.305 24.8836 127.001 24.7985 126.69 24.755C126.623 24.745 126.531 24.759 126.527 24.825C126.525 24.86 126.55 24.888 126.575 24.913C126.811 25.152 127.048 25.393 127.285 25.631C127.58 25.931 127.874 26.229 128.198 26.499C128.948 27.124 129.832 27.574 130.732 27.957C130.962 28.055 131.206 28.151 131.454 28.125C131.715 28.097 132.073 27.832 131.88 27.574C131.776 27.436 131.469 27.323 131.32 27.231L130.724 26.868C129.963 26.4008 129.202 25.9351 128.439 25.471ZM136.144 27.722C136.356 27.711 136.569 27.698 136.768 27.731C136.964 27.762 137.146 27.831 137.31 27.942C137.344 27.965 137.38 28.02 137.347 28.077C137.33 28.107 137.304 28.117 137.28 28.127L136.585 28.393C136.295 28.503 136.006 28.615 135.719 28.688C135.053 28.859 134.418 28.82 133.811 28.721C133.656 28.694 133.495 28.661 133.396 28.524C133.292 28.38 133.268 27.992 133.489 27.868C133.607 27.801 133.807 27.848 133.922 27.843L134.381 27.818L136.144 27.722Z" fill="#72594C"/>
<path d="M131.351 36.69C131.549 36.759 131.776 36.89 131.768 37.097C131.762 37.256 131.608 37.375 131.452 37.4C131.297 37.423 131.138 37.375 130.988 37.327C129.348 36.797 127.667 36.177 125.952 36.349C127.731 36.169 129.62 36.072 131.351 36.689V36.69ZM120.904 29.697C120.763 29.7145 120.631 29.7746 120.525 29.8693C120.419 29.964 120.344 30.0888 120.311 30.227C120.28 30.4226 120.317 30.623 120.417 30.794C120.509 30.966 120.641 31.115 120.77 31.263L121.589 32.193C121.498 32.09 121.57 31.545 121.569 31.401C121.565 31.117 121.565 30.833 121.578 30.549C121.587 30.316 121.667 30.099 121.525 29.914C121.396 29.745 121.103 29.672 120.904 29.697Z" fill="#CEB699"/>
<path d="M127.477 28.362C128.238 28.547 128.985 28.798 129.662 29.192C129.774 29.257 129.89 29.33 129.953 29.45C130.017 29.57 130.014 29.746 129.911 29.844C129.837 29.915 129.731 29.926 129.636 29.931C128.413 29.993 127.233 29.614 126.164 29.061C126.05 29.003 125.929 28.933 125.879 28.806C125.632 28.164 127.247 28.306 127.477 28.362Z" fill="white"/>
<path d="M128.534 29.872C128.672 29.745 128.782 29.5913 128.859 29.4202C128.935 29.2492 128.976 29.0644 128.979 28.877L128.978 28.848C128.502 28.6474 128.01 28.4875 127.507 28.37C127.347 28.6667 127.279 29.0044 127.311 29.34C127.322 29.42 127.34 29.501 127.368 29.579C127.748 29.711 128.137 29.812 128.534 29.872Z" fill="#72594C"/>
<path d="M134.118 30.13C134.656 30.254 135.178 30.448 135.64 30.783C135.716 30.839 135.794 30.903 135.831 31.014C135.851 31.0793 135.856 31.1482 135.846 31.2157C135.835 31.2832 135.81 31.3475 135.772 31.404C135.713 31.478 135.635 31.497 135.565 31.509C134.675 31.659 133.847 31.376 133.114 30.912C133.036 30.862 132.954 30.803 132.927 30.682C132.794 30.071 133.955 30.091 134.118 30.13Z" fill="white"/>
<path d="M134.772 31.532C134.998 31.2407 135.135 30.8903 135.167 30.523V30.495C134.839 30.335 134.493 30.2138 134.137 30.134C133.997 30.434 133.917 30.815 133.922 31.099C133.924 31.177 133.931 31.254 133.945 31.33C134.215 31.431 134.488 31.5 134.772 31.532Z" fill="#72594C"/>
<path d="M134.779 16.915C133.883 17.045 132.971 16.996 132.067 16.946L129.09 16.782C127.993 16.722 126.888 16.661 125.797 16.792C124.706 16.925 123.616 17.26 122.74 17.921C121.889 18.563 121.279 19.481 120.842 20.451C120.421 21.386 120.149 22.449 120.437 23.432C120.524 22.623 120.841 21.856 121.351 21.222C121.01 21.737 120.78 22.3181 120.678 22.9275C120.576 23.5369 120.604 24.1609 120.759 24.759C120.94 23.105 121.919 21.579 123.283 20.622C124.648 19.665 126.369 19.263 128.033 19.395C127.292 18.662 126.138 18.605 125.095 18.593C127.165 17.911 129.413 18.216 131.57 18.527L129.848 17.601C131.265 17.894 132.733 17.727 134.168 17.539C134.874 17.448 135.589 17.349 136.247 17.079C136.872 16.822 137.528 16.361 137.789 15.716C136.868 16.251 135.841 16.762 134.779 16.916V16.915Z" fill="#9B776A"/>
<path d="M172.205 35.497C173.047 35.955 173.179 37.131 173.147 38.121C173.085 40.0085 172.807 41.8827 172.319 43.707C171.886 45.324 171.138 47.063 169.636 47.71C160.789 51.524 151.588 54.356 142.68 58.01C133.772 61.665 125.037 66.231 117.992 72.98C121.705 64.166 126.909 56.234 131.981 48.202C133.179 46.304 134.772 46.308 136.843 45.78C146.244 43.3805 155.58 40.7363 164.843 37.85C166.072 37.466 167.3 37.078 168.528 36.685C169.113 36.501 171.727 35.238 172.205 35.497Z" fill="#8D939E"/>
<path d="M142.637 58.19C151.545 54.536 160.745 51.705 169.592 47.89C171.094 47.243 171.843 45.504 172.275 43.887C172.764 42.064 173.043 40.185 173.103 38.301C173.123 37.8731 173.094 37.4443 173.016 37.023C171.01 39.598 168.396 41.753 165.761 43.727C163.691 45.277 161.57 46.766 159.32 48.043C157.301 49.188 155.189 50.158 153.081 51.127L138.886 57.649C136.314 58.822 133.755 59.927 131.035 60.72C128.564 61.441 128.634 62.984 128.338 65.268C132.882 62.49 137.733 60.202 142.637 58.191V58.19Z" fill="#80868E"/>
<path d="M80.61 93.564C76.925 94.892 73.141 95.935 69.357 96.944C50.2653 102.035 30.9744 106.347 11.532 109.869C11.32 111.292 11.311 112.629 11.876 113.112C12.171 113.365 12.492 113.618 12.875 113.694C13.27 113.774 13.676 113.651 14.061 113.531C38.131 106.047 62.875 100.84 86.914 93.277C86.913 93.3697 86.911 93.4624 86.908 93.555C90.746 90.835 94.454 87.897 98.114 84.955L98.234 84.455C92.7821 88.2479 86.8571 91.3096 80.61 93.564Z" fill="#62666B"/>
<path d="M95.32 126.856C99.185 127.883 101.761 103.476 104.017 89.418C102.722 87.3799 101.085 85.581 99.177 84.101L98.114 84.956C96.8259 90.3295 96.1361 95.8289 96.057 101.354C95.965 107.99 96.714 114.896 94.202 121.042C80.096 116.28 65.223 111.888 50.514 114.212C48.038 114.604 45.556 115.2 43.288 116.241C43.111 117.279 43.097 118.387 43.12 119.42C60.746 118.123 78.367 121.867 95.32 126.856Z" fill="#62666B"/>
<path d="M87.61 90.246C92.579 92.918 95.808 97.161 96.625 103.665C96.809 105.128 98.518 105.769 98.622 107.24C100.581 103.145 101.572 98.673 102.827 94.31C103.385 92.368 104.003 90.408 104.041 88.388C104.112 84.548 101.988 80.855 98.933 78.515C95.878 76.175 91.991 75.087 88.143 74.91C85.285 74.778 82.343 75.143 79.803 76.454C78.335 77.213 77.04 78.264 75.806 79.364C74.4837 80.5403 73.2176 81.7783 72.012 83.074C71.059 84.098 70.46 84.878 72.079 85.5C73.58 86.08 75.334 86.178 76.903 86.525C78.674 86.914 80.434 87.369 82.157 87.937C84.035 88.556 85.869 89.308 87.61 90.246Z" fill="#62666B"/>
<path d="M118.732 41.48C119.78 48.592 116.74 55.638 113.313 61.961C110.785 66.6255 108.007 71.1507 104.993 75.517C112.642 68.5 120.098 61.234 126.636 53.177C128.019 51.474 129.373 49.722 131.065 48.322C132.756 46.922 134.849 45.884 137.047 45.884C133.657 52.909 132.489 59.266 128.013 65.656C122.8 73.1 106.459 93.525 103.367 96.783C99.205 95.756 93.805 92.525 91.241 90.567C90.993 90.377 90.738 90.156 90.668 89.852C90.6349 89.7176 90.6298 89.5779 90.653 89.4415C90.6762 89.305 90.7273 89.1748 90.803 89.059C93.102 85.78 96.333 84.38 99.802 80.867C94.54 83.978 90.182 86.216 86.071 86.543C83.464 86.751 79.465 83.274 77.143 82.076C74.193 80.556 71.36 78.828 68.527 77.101C73.798 75.519 88.948 67.051 96.076 57.761C98.256 54.92 100.715 52.228 102.094 48.924C103.261 46.13 103.431 42.745 103.943 39.76C104.96 39.865 118.685 41.166 118.732 41.48Z" fill="#8D939E"/>
<path d="M89.516 40.7C87.68 40.928 85.837 41.186 84.074 41.745C79.588 43.165 75.89 46.465 73.153 50.283C70.415 54.103 68.533 58.452 66.673 62.763C66.498 63.169 66.319 63.613 66.434 64.039C66.518 64.349 66.749 64.599 66.99 64.814C68.591 66.229 70.877 66.542 73.017 66.559C74.387 66.57 75.797 66.475 77.037 65.899C78.721 65.113 79.883 63.547 80.951 62.029C82.8964 59.2653 84.7779 56.4573 86.594 53.607C91.785 53.757 96.907 56.905 101.905 55.496C104.999 54.624 107.497 51.922 108.118 48.776C108.695 45.847 111.388 41.079 108.081 40.17C106.09 39.623 99.131 39.765 97.094 39.927C94.562 40.131 92.036 40.388 89.516 40.7Z" fill="#8D939E"/>
<path d="M119.306 39.74C119.306 39.74 119.267 47.335 117.972 52.504C115.292 63.198 104.573 76.538 104.573 76.538L109.792 58.234L113.552 57.092L109.663 53.629L111.216 40.053L119.306 39.74Z" fill="#73787F"/>
<path d="M132.283 45.985C132.283 45.985 124.491 56.042 120.611 60.132C116.733 64.224 104.991 75.517 104.991 75.517L122.026 65.729L122.343 60.56L128.736 58.144L137.045 45.886L132.283 45.985Z" fill="#73787F"/>
<path d="M64.45 69.903C64.741 69.555 65.057 69.191 65.491 69.056C65.854 68.944 66.246 69.011 66.613 69.104C68.566 69.597 70.263 70.781 71.883 71.974C72.166 72.184 72.461 72.407 72.606 72.728C72.804 73.163 72.681 73.673 72.504 74.116C72.194 74.888 71.728 75.588 71.268 76.282C71.076 76.57 70.878 76.864 70.605 77.076C70.331 77.289 69.961 77.408 69.631 77.3C69.301 77.193 69.061 76.808 69.187 76.485C69.253 76.317 69.397 76.196 69.53 76.075C70.303 75.3718 70.8728 74.4738 71.18 73.475C71.235 73.295 71.282 73.107 71.25 72.922C71.185 72.567 70.855 72.328 70.549 72.136C69.4842 71.4707 68.3684 70.8909 67.212 70.402C66.924 70.28 66.61 70.162 66.303 70.229C65.913 70.314 65.651 70.671 65.429 71.003C65.03 71.594 64.63 72.185 64.232 72.778C64.003 73.116 63.708 73.492 63.3 73.49C62.782 73.489 62.48 72.83 62.63 72.337C62.774 71.87 63.191 71.571 63.468 71.186C63.785 70.746 64.098 70.322 64.45 69.903Z" fill="#4B4E51"/>
<path d="M74.215 56.803C75.393 52.074 77.308 47.456 80.182 43.538C77.413 45.234 75.052 47.633 73.151 50.283C70.414 54.102 68.532 58.451 66.671 62.763C66.495 63.169 66.317 63.613 66.433 64.039C66.517 64.349 66.747 64.599 66.988 64.813C68.59 66.228 70.876 66.542 73.014 66.559C73.341 66.562 73.669 66.557 73.998 66.544C73.6244 65.3984 73.4192 64.2046 73.389 63C73.329 60.91 73.711 58.83 74.215 56.803Z" fill="#80868E"/>
<path d="M118.008 45.072C121.036 46.932 124.64 49.662 124.603 54.499C128.646 52.604 132.92 49.105 136.963 47.21C138.99 46.26 141.602 45.437 143.376 44.073C139.011 44.465 135.697 42.093 131.356 41.494C131.356 41.494 127.26 48.947 126.096 50.139C125.963 48.961 124.7 45.269 123.993 44.315C121.145 40.468 119.259 39.185 118.887 39.048C118.644 38.96 118.383 38.943 118.126 38.928C111.758 38.532 105.245 38.15 99.106 39.883C100.639 39.902 102.237 39.755 103.743 39.853C105.374 39.961 107.094 40.485 108.656 40.938C111.944 41.8925 115.089 43.2828 118.008 45.072Z" fill="#F46A4A"/>
<path d="M122.899 53.561C121.172 56.319 119.755 59.421 117.135 61.354C119.821 60.327 122.558 59.269 124.777 57.442C125.991 56.442 127.053 55.182 127.488 53.673C127.597 53.296 127.666 52.883 127.524 52.516C127.148 51.535 125.899 51.754 125.107 51.884C124.058 52.058 123.461 52.664 122.899 53.561Z" fill="#F46A4A"/>
<path d="M125.608 49.769C124.838 49.829 124.051 50.152 123.61 50.785C123.168 51.418 123.187 52.388 123.775 52.887C124.037 53.109 124.373 53.219 124.695 53.337C125.523 53.641 126.362 54.039 127.241 53.966C127.708 53.9273 128.154 53.7567 128.528 53.474C129.121 53.024 129.494 52.259 129.368 51.527C129.108 50.007 126.849 49.671 125.608 49.769Z" fill="#F2CF3D"/>
<path d="M90.947 68.097C92.534 66.9762 94.0967 65.8212 95.634 64.633C97.588 63.136 99.537 61.609 101.191 59.787C102.845 57.966 104.206 55.821 104.789 53.435C104.42 53.391 104.055 53.512 103.703 53.632C101.697 54.313 99.682 54.997 97.719 55.795C97.193 56.456 96.666 57.117 96.152 57.785C89.529 66.415 75.986 74.335 69.87 76.685C70.575 77.261 71.582 77.655 72.233 77.663C73.603 77.677 75.197 76.701 76.421 76.177C81.5257 73.9863 86.3937 71.2789 90.947 68.097Z" fill="#80868E"/>
<path d="M88.276 48.683C88.3459 49.7194 88.2732 50.7604 88.06 51.777C89.753 50.427 90.82 48.469 91.844 46.564C91.464 48.1291 90.9488 49.6582 90.304 51.134C94.7 51.319 99.044 52.134 103.368 52.946C103.872 53.04 104.434 53.172 104.71 53.606C102.017 55.1721 98.8846 55.8122 95.793 55.428C94.75 55.296 93.726 55.048 92.703 54.8L89.525 54.03C88.393 53.756 87.333 53.91 86.257 53.785C86.404 53.132 87.011 52.455 87.287 51.821C87.722 50.812 88.055 49.76 88.276 48.683Z" fill="#80868E"/>
<path d="M65.931 101.168L44.242 88.838C43.805 88.5902 43.4211 88.2586 43.1125 87.8621C42.8039 87.4657 42.5766 87.0122 42.4435 86.5277C42.3105 86.0433 42.2744 85.5373 42.3373 85.0388C42.4002 84.5404 42.5608 84.0592 42.81 83.623L50.973 69.347C51.4786 68.4656 52.3128 67.8204 53.2931 67.5528C54.2733 67.2852 55.3196 67.4168 56.203 67.919L77.893 80.249C78.3301 80.4969 78.7139 80.8286 79.0225 81.2252C79.3312 81.6217 79.5584 82.0753 79.6914 82.5599C79.8243 83.0445 79.8603 83.5506 79.7973 84.0491C79.7342 84.5476 79.5734 85.0288 79.324 85.465L71.162 99.74C70.6566 100.622 69.8224 101.267 68.8421 101.535C67.8617 101.802 66.8143 101.67 65.931 101.168Z" fill="#4B4E51"/>
<path d="M77.905 80.213L76.585 79.463C76.7399 80.339 76.582 81.2416 76.139 82.013L67.976 96.29C67.4702 97.1712 66.6359 97.8162 65.6557 98.0836C64.6755 98.3511 63.6292 98.2193 62.746 97.717L42.375 86.138C42.472 86.6933 42.6906 87.2202 43.0153 87.681C43.34 88.1417 43.7627 88.5249 44.253 88.803L65.943 101.133C66.8262 101.635 67.8725 101.767 68.8527 101.5C69.8329 101.232 70.6672 100.587 71.173 99.706L79.335 85.43C79.5847 84.9938 79.7458 84.5126 79.8091 84.014C79.8724 83.5154 79.8366 83.0092 79.7037 82.5245C79.5708 82.0397 79.3435 81.586 79.0349 81.1893C78.7262 80.7927 78.3422 80.4609 77.905 80.213Z" fill="#393B3D"/>
<path d="M105.589 75.144C106.023 74.654 106.545 74.111 107.2 74.145C107.262 74.313 107.133 74.486 107.01 74.62C105.057 76.732 102.842 78.583 100.634 80.426C100.077 80.892 99.512 81.35 98.835 81.63C99.925 80.668 101.037 79.69 102.109 78.698C102.718 78.135 103.313 77.5572 103.893 76.965C104.296 76.555 105.451 75.702 105.589 75.144Z" fill="#80868E"/>
<path d="M103.191 74.8C102.477 75.0504 101.838 75.4769 101.333 76.04C101.261 76.119 101.191 76.207 101.18 76.313C101.165 76.468 101.292 76.611 101.44 76.66C101.588 76.71 101.751 76.685 101.904 76.648C102.527 76.4926 103.077 76.1274 103.463 75.614C103.498 75.5739 103.523 75.5258 103.536 75.474C103.558 75.355 103.46 75.244 103.347 75.204C103.233 75.166 103.11 75.184 102.992 75.202L103.191 74.8ZM99.834 77.553C99.1202 77.8034 98.4811 78.2299 97.976 78.793C97.904 78.872 97.834 78.96 97.823 79.066C97.808 79.221 97.936 79.364 98.083 79.413C98.231 79.463 98.395 79.438 98.547 79.401C99.1699 79.2455 99.7204 78.8804 100.106 78.367C100.141 78.3266 100.166 78.2787 100.18 78.227C100.201 78.108 100.103 77.997 99.99 77.957C99.876 77.919 99.753 77.937 99.635 77.955L99.834 77.553ZM96.012 80C95.2982 80.2503 94.6591 80.6768 94.154 81.24C94.082 81.319 94.012 81.407 94.001 81.513C93.986 81.668 94.113 81.811 94.261 81.86C94.411 81.91 94.572 81.885 94.725 81.848C95.3481 81.6927 95.8988 81.328 96.285 80.815C96.315 80.771 96.348 80.726 96.357 80.673C96.379 80.555 96.281 80.443 96.169 80.405C96.055 80.366 95.933 80.385 95.814 80.402L96.012 80Z" fill="#62666B"/>
<path d="M69.335 66.537C68.613 67.096 67.005 68.657 66.707 69.519C66.407 70.38 66.465 71.392 66.99 72.14C67.348 72.65 67.888 73.003 68.443 73.287C68.857 73.497 69.299 73.679 69.763 73.703C70.227 73.726 70.722 73.566 71.005 73.2C71.159 73.001 71.241 72.76 71.344 72.531C71.694 71.754 72.286 71.114 72.793 70.427C73.3 69.741 73.743 68.944 73.716 68.092C73.7188 67.9585 73.6878 67.8264 73.626 67.708C73.481 67.468 73.166 67.406 72.888 67.367C72.083 67.254 70.866 66.413 69.335 66.537Z" fill="#F2D6B1"/>
<path d="M125.775 27.225C125.495 27.23 125.207 27.247 124.947 27.355C124.391 27.59 124.09 28.189 123.917 28.765C123.735 29.37 123.646 30.034 123.872 30.623C124.105 31.238 124.653 31.689 125.249 31.969C126.559 32.583 128.198 32.434 129.374 31.593C130.164 31.03 130.823 30.155 131.788 30.046C132.001 30.023 132.232 30.045 132.401 30.176C132.786 30.473 132.624 31.067 132.653 31.551C132.705 32.391 133.425 33.033 134.166 33.435C134.644 33.695 135.238 33.896 135.716 33.635C136.027 33.466 136.216 33.135 136.356 32.811C136.605 32.2359 136.762 31.625 136.82 31.001C136.863 30.533 136.832 30.015 136.513 29.672C136.186 29.322 135.659 29.26 135.179 29.219C134.495 29.163 133.782 29.111 133.144 29.364C133.025 29.41 132.902 29.469 132.775 29.454C132.678 29.441 132.593 29.387 132.509 29.337C132.045 29.066 131.516 29.066 131.145 28.679C130.732 28.249 130.353 28.066 129.764 27.861C128.482 27.4184 127.132 27.2031 125.775 27.225Z" fill="#393B3D"/>
<path d="M120.848 27.963C120.694 27.9316 120.535 27.9275 120.38 27.951C120.225 27.984 120.076 28.08 120.025 28.227C120.011 28.267 120.004 28.317 120.029 28.353C120.057 28.393 120.113 28.401 120.163 28.407C120.932 28.4913 121.686 28.6796 122.404 28.967C123.08 29.237 123.718 29.593 124.39 29.866C124.477 29.902 124.575 29.936 124.662 29.903C124.753 29.869 124.802 29.777 124.838 29.687C124.928 29.457 125.062 28.85 124.815 28.657C124.651 28.53 124.093 28.595 123.875 28.547C122.874 28.3136 121.864 28.1188 120.848 27.963Z" fill="#393B3D"/>
</g>
<defs>
<clipPath id="clip0_1_48">
<rect width="187" height="112" fill="white" transform="translate(0 15)"/>
</clipPath>
</defs>
</svg>
