<svg xmlns="http://www.w3.org/2000/svg" width="187" height="112" fill="none"><path fill="#F2D6B1" d="M181.471 18.04c.546-.159 1.128-.316 1.678-.167.4.109.75.371 1.158.449.418.079.846-.045 1.266-.113.421-.069.9-.061 1.216.226.316.286.281.926-.131 1.038.431.81-.194 1.965-1.111 2.048.26.24.235.675.042.97-.193.295-.511.481-.819.655a90.157 90.157 0 0 1-14.722 6.654c-1.358.473-2.735.914-4.153 1.16-1.217.211-2.713.159-3.374-.883-.43-.678-.338-1.587.042-2.293.38-.706 1.005-1.247 1.639-1.741 5.018-3.918 11.229-6.23 17.269-8.002Z"/><path fill="#E06046" d="M131.356 26.494c.731.306 1.478.64 2.02 1.217.541.577.834 1.46.501 2.178-.299.644-.998.993-1.661 1.251-4.233 1.65-9.261 1.497-13.113-.908-1.598-.997-4.264-4.405-1.699-5.907 1.108-.649 2.877-.46 4.101-.39 1.61.095 3.204.385 4.762.797 1.738.459 3.433 1.07 5.089 1.762Z"/><path fill="#F46A4A" d="M7.543 22.426s-4.46 8.641.996 18.532c1.016 1.842-1.02 3.925-1.96 5.806-2.674 5.34.26 12.04 4.86 15.86 4.598 3.82 10.502 5.597 16.007 7.94.95.405 1.934.858 2.566 1.674.658.85.839 1.957 1.144 2.986 1.36 4.602 5.366 7.907 9.44 10.46a65.473 65.473 0 0 0 14.658 6.827c3.26 1.052 6.644 1.865 9.618 3.563 3.265 1.862 6.067 4.793 9.767 5.463 3.56.646 7.113-.965 10.291-2.69 17.198-9.338 31.086-23.636 44.023-38.294 5.338-6.05 13.864-21.018 17.503-30.006.681-1.683-8.13 9.712-9.261 8.291-.827-1.038-1.957-1.79-3.099-2.466-5.914-3.495-13.793-5.918-20.69-6.424-3.383-.248-6.921 1.21-10.182 1.935a168.022 168.022 0 0 1-11.8 2.18 170.73 170.73 0 0 1-48.388.22C33.962 33.03 7.543 22.427 7.543 22.427Z"/><path fill="#E06046" d="M5.858 29.227c1.017.095 2.057.335 2.998.6a183.632 183.632 0 0 0 45.24 6.75c3.502.081 7.045.06 10.492-.625.066-.012.13-.026.195-.04a170.867 170.867 0 0 1-21.769-1.605c-9.071-1.258-35.49-11.86-35.49-11.86s-1.385 2.687-1.666 6.78Zm106.088 49.292c-13.671 3.865-28.218 9.038-42.19 11.61C64.3 91.131 58.67 91.94 53.14 91.814c.694.25 1.393.49 2.095.717 3.26 1.052 6.643 1.865 9.617 3.563 3.264 1.862 6.068 4.793 9.767 5.463 3.561.646 7.842.41 11.022-1.317 9.514-5.164 18.243-14.487 26.306-21.722ZM8.12 40.215c.128.253.26.507.402.763 1.016 1.842-1.02 3.926-1.961 5.807-.68 1.358-.994 2.802-1.015 4.265a18.971 18.971 0 0 1 3.421-.869c13.662-2.21 27.892 1.93 41.388-1.134-14.44-1.095-29.399-2.346-42.235-8.832Zm21.873 32.042c.659.85.84 1.957 1.144 2.986.864 2.923 2.797 5.322 5.134 7.34.727-1.765 2.596-3.06 4.336-4.055a102.395 102.395 0 0 1 13.041-6.27c1.328-.526 2.884-1.3 2.997-2.719-7.073-2.68-14.924-.39-22.476.048-3.454.2-6.9.002-10.323-.458 1.202.477 2.4.953 3.581 1.456.951.403 1.934.856 2.566 1.672Z"/><path fill="#4B4E51" d="M42.521 96.549a19.513 19.513 0 0 0-3.284 4.067l.433.521c-.672.259-1.197.79-1.692 1.313a95.663 95.663 0 0 0-6.355 7.404c3.512-1.471 7.042-2.949 10.288-4.939 1.127-.69 2.232-1.454 3.081-2.465.46-.548.847-1.184.947-1.892.108-.773-.236-1.67-.75-2.251-.222-.255-2.391-2.019-2.668-1.758Zm-31.623-6.605a19.566 19.566 0 0 0-3.283 4.066l.432.522c-.672.259-1.196.791-1.691 1.313A94.987 94.987 0 0 0 0 103.246c3.512-1.471 7.042-2.95 10.288-4.939 1.127-.69 2.232-1.454 3.082-2.466.459-.547.846-1.183.946-1.891.109-.773-.235-1.671-.749-2.252-.222-.25-2.392-2.017-2.669-1.754Z"/><path fill="#F2D6B1" d="M88.393 89.11c-.547 5.236-1.09 10.567-.08 15.733.229 1.168.57 2.383 1.41 3.212.287.282.637.515 1.03.576 1.136.172 1.943-1.065 2.434-2.125 5.035-10.863 9.408-22.816 7.411-34.68-.28-1.662-.705-3.35-1.677-4.714-.973-1.364-2.603-2.346-4.235-2.118-4.035.566-4.351 5.243-4.586 8.422-.39 5.237-1.163 10.473-1.707 15.694ZM65.99 68.02c-4.895 1.913-9.874 3.874-14.007 7.148-.935.74-1.861 1.603-2.218 2.734-.121.385-.17.805-.048 1.186.358 1.095 1.818 1.247 2.98 1.2 11.91-.483 24.49-2.06 34.127-9.291 1.35-1.013 2.658-2.166 3.431-3.662.774-1.496.916-3.403-.023-4.757-2.317-3.348-6.61-1.482-9.541-.236-4.825 2.054-9.818 3.767-14.702 5.677Z"/><path fill="#73787F" d="M104.15 73.275c.387-2.336.253-4.77-.503-7.011.012-1.072-.276-2.107-.971-2.947-.809-.976-2.026-1.519-3.234-1.91-7.532-2.434-13.64-3.145-21.183-.742C72.61 62.465 39.535 76.71 30 81.256c-4.753 2.266-17.448 9.196-17.448 9.196s-2.132 6.444-.73 7.643c.295.253.616.506.999.582.395.08.801-.043 1.186-.163 24.07-7.483 48.814-12.69 72.853-20.254a422.17 422.17 0 0 0-.014 20.293c-5.887-2.967-12.574-4.1-19.17-4.107-6.595-.01-13.143 1.064-19.619 2.312-1.018.195-2.068.41-2.915 1.005-1.984 1.394-2.127 4.221-2.076 6.64 17.626-1.297 35.249 2.446 52.2 7.436 3.973 1.06 6.582-24.73 8.883-38.564Z"/><path fill="#F2D6B1" d="M75.607 34.633c-4.067 6.035-5.581 13.371-7.01 20.5 1.199.644 2.593-.354 3.581-1.285 3.721-3.505 6.076-7.502 9.01-11.684 3.412-4.868 7.855-8.395 5.52-10.983-3.672-4.067-9.097.478-11.101 3.452Z"/><path fill="#F2D6B1" d="M88.715 26.985c-2.717.5-5.666 1.314-7.202 3.601-.733 1.091-1.043 2.565-.425 3.724.963 1.805 3.451 1.948 5.503 1.918 6.852-.094 13.819.542 20.477-1.078 3.114-.757 5.176-2.812 4.24-6.18-.576-2.072-1.883-3.051-3.971-3.32-5.934-.763-12.794.263-18.622 1.335Z"/><path fill="#fff" d="M135.369 40.913c-.305-2.897-.86-6.053-2.451-8.385-2.364-3.467-7.747-4.846-12.47-4.994-1.205-.7-10.217-2.766-12.56-.906-3.956 3.14-4.423 8.368-7.447 12.415L92.845 49.21c-.655.878-1.323 1.775-1.687 2.791-.655 1.828-.232 3.802.605 5.42 1.147 2.218 3.009 3.932 4.887 5.544 1.046.897 2.107 1.777 3.184 2.637.496.397 1.069.81 1.732.723.375-.05.722-.255 1.057-.455l17.582-10.55c3.752-2.251 9.851-6.983 13.205-9.833.591-.503 1.183-1.04 1.547-1.72.473-.884.512-1.903.412-2.853Z"/><path fill="#F2D6B1" d="M117.746 29.155c2.906 1.73 6.174 3.048 9.598 3.87l3.805-10.948c.126-.364.252-.751.11-1.12-.115-.302-.394-.547-.681-.764-1.734-1.3-4.097-1.893-6.398-2.134-.856-.09-1.79-.12-2.475.27-.982.562-.415 1.237-.191 1.965.282.915-.174 1.995-.486 2.864-.759 2.117-2.024 4.069-3.282 5.997Z"/><path fill="#F2D6B1" d="M135.87 16.304c.5-2.553.761-5.23.025-7.726-.736-2.495-2.653-4.778-5.205-5.315-2.248-.473-4.342.4-6.365 1.243-1.899.793-3.678 1.015-4.594 3.146-.424.985-.502 2.08-.542 3.151a54.521 54.521 0 0 0 .272 7.835c.102.945 1.22 2.062 1.415 2.991.258 1.237 2.285 3.147 2.285 3.147 1.353.768 2.885 1.176 4.424 1.425 1.793.288 3.855.284 5.146-.987.646-.636 1.001-1.504 1.312-2.354a43.22 43.22 0 0 0 1.827-6.556Z"/><path fill="#72594C" d="M118.977 14.265c-.213-2.439-.421-4.928.137-7.311.561-2.384 2.03-4.69 4.3-5.622 3.083-1.266 6.639.265 9.918-.346 1.997-.372 4.079-1.527 5.928-.686 1.357.618 2.077 2.187 2.101 3.673.025 1.488-.52 2.92-1.088 4.297-.883 2.14-1.785 4.66-3.897 5.617.182-1.06-.644-2.376-1.489-3.045-.845-.668-1.902-1.004-2.943-1.29-2.138-.592-4.449-1.036-6.546-.313-2.097.724-3.797 3.012-3.125 5.121-.41-.54-1.198-.76-1.831-.513a1.617 1.617 0 0 0-.993 1.618c.075.754 1.225 2.005 1.671 2.734l-.13 2.939c-.295.228-.66.414-.97.582-.436-1.198-.621-1.826-.661-3.068-.047-1.46-.254-2.933-.382-4.387Z"/><path fill="#CEB699" d="M121.15 22.465c.098.084 2.272 1.668 4.339 2.594a19.88 19.88 0 0 0 4.15 1.293l-1.436 4.135s-1.916-.718-3.916-3.116c-2.001-2.395-3.137-4.906-3.137-4.906Zm10.719-1.975a1858.57 1858.57 0 0 0-3.069-.767c-.172-.043-.384-.132-.381-.293.003-.182.268-.228.465-.211.349.03.696.093 1.032.19.206.06.428.132.627.07.259-.08.368-.349.447-.59.686-2.086 1.232-4.21 1.88-6.307.398.25-.363 3.125-.442 3.674-.053.357-.654 4.21-.559 4.233Z"/><path fill="#72594C" d="M128.439 10.471a6.953 6.953 0 0 0-.845-.463 3.515 3.515 0 0 0-.904-.253c-.067-.01-.159.004-.163.07-.002.035.023.063.048.088.236.239.473.48.71.718.295.3.589.598.913.868.75.625 1.634 1.075 2.534 1.458.23.098.474.194.722.168.261-.028.619-.293.426-.551-.104-.138-.411-.251-.56-.343l-.596-.363a648.19 648.19 0 0 0-2.285-1.397Zm7.705 2.251c.212-.011.425-.024.624.009.196.031.378.1.542.211.034.023.07.078.037.135-.017.03-.043.04-.067.05l-.695.266c-.29.11-.579.222-.866.295-.666.171-1.301.132-1.908.033-.155-.027-.316-.06-.415-.197-.104-.144-.128-.532.093-.656.118-.067.318-.02.433-.025l.459-.025 1.763-.096Z"/><path fill="#CEB699" d="M131.351 21.69c.198.069.425.2.417.407-.006.159-.16.278-.316.303-.155.023-.314-.025-.464-.073-1.64-.53-3.321-1.15-5.036-.978 1.779-.18 3.668-.277 5.399.34Zm-10.447-6.993a.698.698 0 0 0-.593.53.854.854 0 0 0 .106.567c.092.172.224.321.353.469l.819.93c-.091-.103-.019-.648-.02-.792-.004-.284-.004-.568.009-.852.009-.233.089-.45-.053-.635-.129-.169-.422-.242-.621-.217Z"/><path fill="#fff" d="M127.477 13.362c.761.185 1.508.436 2.185.83.112.065.228.138.291.258.064.12.061.296-.042.394-.074.071-.18.082-.275.087-1.223.062-2.403-.317-3.472-.87-.114-.058-.235-.128-.285-.255-.247-.642 1.368-.5 1.598-.444Z"/><path fill="#72594C" d="M128.534 14.872a1.382 1.382 0 0 0 .445-.995l-.001-.029a9.135 9.135 0 0 0-1.471-.478 1.697 1.697 0 0 0-.196.97c.011.08.029.161.057.239.38.132.769.233 1.166.293Z"/><path fill="#fff" d="M134.118 15.13c.538.124 1.06.318 1.522.653.076.056.154.12.191.231a.458.458 0 0 1-.059.39c-.059.074-.137.093-.207.105-.89.15-1.718-.133-2.451-.597-.078-.05-.16-.109-.187-.23-.133-.611 1.028-.591 1.191-.552Z"/><path fill="#72594C" d="M134.772 16.532a1.915 1.915 0 0 0 .395-1.009v-.028a4.69 4.69 0 0 0-1.03-.361c-.14.3-.22.681-.215.965.002.078.009.155.023.231.27.101.543.17.827.202Z"/><path fill="#9B776A" d="M134.779 1.915c-.896.13-1.808.081-2.712.031l-2.977-.164c-1.097-.06-2.202-.121-3.293.01-1.091.133-2.181.468-3.057 1.129-.851.642-1.461 1.56-1.898 2.53-.421.935-.693 1.998-.405 2.981a4.25 4.25 0 0 1 .914-2.21 4.402 4.402 0 0 0-.592 3.537c.181-1.654 1.16-3.18 2.524-4.137 1.365-.957 3.086-1.359 4.75-1.227-.741-.733-1.895-.79-2.938-.802 2.07-.682 4.318-.377 6.475-.066l-1.722-.926c1.417.293 2.885.126 4.32-.062.706-.091 1.421-.19 2.079-.46.625-.257 1.281-.718 1.542-1.363-.921.535-1.948 1.046-3.01 1.2Z"/><path fill="#8D939E" d="M172.205 20.497c.842.458.974 1.634.942 2.624a24.729 24.729 0 0 1-.828 5.586c-.433 1.617-1.181 3.356-2.683 4.003-8.847 3.814-18.048 6.646-26.956 10.3-8.908 3.655-17.643 8.221-24.688 14.97 3.713-8.814 8.917-16.746 13.989-24.778 1.198-1.898 2.791-1.894 4.862-2.422a557.997 557.997 0 0 0 28-7.93c1.229-.384 2.457-.772 3.685-1.165.585-.184 3.199-1.447 3.677-1.188Z"/><path fill="#80868E" d="M142.637 43.19c8.908-3.654 18.108-6.485 26.955-10.3 1.502-.647 2.251-2.386 2.683-4.003.489-1.823.768-3.702.828-5.586a5.611 5.611 0 0 0-.087-1.278c-2.006 2.575-4.62 4.73-7.255 6.704-2.07 1.55-4.191 3.039-6.441 4.316-2.019 1.145-4.131 2.115-6.239 3.084l-14.195 6.522c-2.572 1.173-5.131 2.278-7.851 3.071-2.471.721-2.401 2.264-2.697 4.548 4.544-2.778 9.395-5.066 14.299-7.077Z"/><path fill="#62666B" d="M80.61 78.564c-3.685 1.328-7.469 2.371-11.253 3.38a728.2 728.2 0 0 1-57.825 12.925c-.212 1.423-.221 2.76.344 3.243.295.253.616.506.999.582.395.08.801-.043 1.186-.163 24.07-7.484 48.814-12.691 72.853-20.254a12.89 12.89 0 0 1-.006.278c3.838-2.72 7.546-5.658 11.206-8.6l.12-.5a76.079 76.079 0 0 1-17.624 9.11Z"/><path fill="#62666B" d="M95.32 111.856c3.865 1.027 6.441-23.38 8.697-37.438a20.94 20.94 0 0 0-4.84-5.317l-1.063.855a74.945 74.945 0 0 0-2.057 16.398c-.092 6.636.657 13.542-1.855 19.688-14.106-4.762-28.979-9.154-43.688-6.83-2.476.392-4.958.988-7.226 2.029-.177 1.038-.191 2.146-.168 3.179 17.626-1.297 35.247 2.447 52.2 7.436Z"/><path fill="#62666B" d="M87.61 75.246c4.969 2.672 8.198 6.915 9.015 13.419.184 1.463 1.893 2.104 1.997 3.575 1.959-4.095 2.95-8.567 4.205-12.93.558-1.942 1.176-3.902 1.214-5.922.071-3.84-2.053-7.533-5.108-9.873-3.055-2.34-6.942-3.428-10.79-3.605-2.858-.132-5.8.233-8.34 1.544-1.468.759-2.763 1.81-3.997 2.91a56.237 56.237 0 0 0-3.794 3.71c-.953 1.024-1.552 1.804.067 2.426 1.501.58 3.255.678 4.824 1.025 1.771.389 3.531.844 5.254 1.412 1.878.619 3.712 1.371 5.453 2.309Z"/><path fill="#8D939E" d="M118.732 26.48c1.048 7.112-1.992 14.158-5.419 20.481a148.039 148.039 0 0 1-8.32 13.556c7.649-7.017 15.105-14.283 21.643-22.34 1.383-1.703 2.737-3.455 4.429-4.855 1.691-1.4 3.784-2.438 5.982-2.438-3.39 7.025-4.558 13.382-9.034 19.772-5.213 7.444-21.554 27.869-24.646 31.127-4.162-1.027-9.562-4.258-12.126-6.216-.248-.19-.503-.411-.573-.715a1.008 1.008 0 0 1 .135-.793c2.299-3.279 5.53-4.679 8.999-8.192-5.262 3.111-9.62 5.349-13.731 5.676-2.607.208-6.606-3.269-8.928-4.467-2.95-1.52-5.783-3.248-8.616-4.975 5.271-1.582 20.421-10.05 27.549-19.34 2.18-2.841 4.639-5.533 6.018-8.837 1.167-2.794 1.337-6.179 1.849-9.164 1.017.105 14.742 1.406 14.789 1.72Z"/><path fill="#8D939E" d="M89.516 25.7c-1.836.228-3.679.486-5.442 1.045-4.486 1.42-8.184 4.72-10.921 8.538-2.738 3.82-4.62 8.169-6.48 12.48-.175.406-.354.85-.239 1.276.084.31.315.56.556.775 1.601 1.415 3.887 1.728 6.027 1.745 1.37.011 2.78-.084 4.02-.66 1.684-.786 2.846-2.352 3.914-3.87a220.264 220.264 0 0 0 5.643-8.422c5.191.15 10.313 3.298 15.311 1.889 3.094-.872 5.592-3.574 6.213-6.72.577-2.929 3.27-7.697-.037-8.606-1.991-.547-8.95-.405-10.987-.243-2.532.204-5.058.461-7.578.773Z"/><path fill="#73787F" d="M119.306 24.74s-.039 7.595-1.334 12.764c-2.68 10.694-13.399 24.034-13.399 24.034l5.219-18.304 3.76-1.142-3.889-3.463 1.553-13.576 8.09-.314Z"/><path fill="#73787F" d="M132.283 30.985s-7.792 10.057-11.672 14.147c-3.878 4.092-15.62 15.385-15.62 15.385l17.035-9.788.317-5.169 6.393-2.416 8.309-12.258-4.762.1Z"/><path fill="#4B4E51" d="M64.45 54.903c.291-.348.607-.712 1.041-.847.363-.112.755-.045 1.122.048 1.953.493 3.65 1.677 5.27 2.87.283.21.578.433.723.754.198.435.075.945-.102 1.388-.31.772-.776 1.472-1.236 2.166-.192.288-.39.582-.663.794-.274.213-.644.332-.974.224-.33-.107-.57-.492-.444-.815.066-.168.21-.289.343-.41a5.833 5.833 0 0 0 1.65-2.6c.055-.18.102-.368.07-.553-.065-.355-.395-.594-.701-.786a23.761 23.761 0 0 0-3.337-1.734c-.288-.122-.602-.24-.909-.173-.39.085-.652.442-.874.774-.399.591-.799 1.182-1.197 1.775-.229.338-.524.714-.932.712-.518-.001-.82-.66-.67-1.153.144-.467.561-.766.838-1.151.317-.44.63-.864.982-1.283Z"/><path fill="#80868E" d="M74.215 41.803c1.178-4.729 3.093-9.347 5.967-13.265-2.769 1.696-5.13 4.095-7.031 6.745-2.737 3.819-4.619 8.168-6.48 12.48-.176.406-.354.85-.238 1.276.084.31.314.56.555.774 1.602 1.415 3.888 1.729 6.026 1.746.327.003.655-.002.984-.015A12.435 12.435 0 0 1 73.389 48c-.06-2.09.322-4.17.826-6.197Z"/><path fill="#F46A4A" d="M118.008 30.072c3.028 1.86 6.632 4.59 6.595 9.427 4.043-1.895 8.317-5.394 12.36-7.289 2.027-.95 4.639-1.773 6.413-3.137-4.365.392-7.679-1.98-12.02-2.579 0 0-4.096 7.453-5.26 8.645-.133-1.178-1.396-4.87-2.103-5.824-2.848-3.847-4.734-5.13-5.106-5.267-.243-.088-.504-.105-.761-.12-6.368-.396-12.881-.778-19.02.955 1.533.019 3.131-.128 4.637-.03 1.631.108 3.351.632 4.913 1.085a38.356 38.356 0 0 1 9.352 4.134Z"/><path fill="#F46A4A" d="M122.899 38.561c-1.727 2.758-3.144 5.86-5.764 7.793 2.686-1.027 5.423-2.085 7.642-3.912 1.214-1 2.276-2.26 2.711-3.769.109-.377.178-.79.036-1.157-.376-.981-1.625-.762-2.417-.632-1.049.174-1.646.78-2.208 1.677Z"/><path fill="#F2CF3D" d="M125.608 34.769c-.77.06-1.557.383-1.998 1.016-.442.633-.423 1.603.165 2.102.262.222.598.332.92.45.828.304 1.667.702 2.546.629a2.472 2.472 0 0 0 1.287-.492c.593-.45.966-1.215.84-1.947-.26-1.52-2.519-1.856-3.76-1.758Z"/><path fill="#80868E" d="M90.947 53.097a135.113 135.113 0 0 0 4.687-3.464c1.954-1.497 3.903-3.024 5.557-4.846 1.654-1.821 3.015-3.966 3.598-6.352-.369-.044-.734.077-1.086.197-2.006.681-4.021 1.365-5.984 2.163-.526.661-1.053 1.322-1.567 1.99-6.623 8.63-20.166 16.55-26.282 18.9.705.576 1.712.97 2.363.978 1.37.014 2.964-.962 4.188-1.486a81.4 81.4 0 0 0 14.525-8.08Z"/><path fill="#80868E" d="M88.276 33.683a11.352 11.352 0 0 1-.216 3.094c1.693-1.35 2.76-3.308 3.784-5.213a27.798 27.798 0 0 1-1.54 4.57c4.396.185 8.74 1 13.064 1.812.504.094 1.066.226 1.342.66a14.244 14.244 0 0 1-8.917 1.822c-1.043-.132-2.067-.38-3.09-.628l-3.178-.77c-1.132-.274-2.192-.12-3.268-.245.147-.653.754-1.33 1.03-1.964.435-1.009.768-2.061.989-3.138Z"/><path fill="#4B4E51" d="m65.931 86.168-21.689-12.33a3.818 3.818 0 0 1-1.432-5.215l8.163-14.276a3.841 3.841 0 0 1 5.23-1.428l21.69 12.33a3.818 3.818 0 0 1 1.431 5.216L71.162 84.74a3.84 3.84 0 0 1-5.23 1.428Z"/><path fill="#393B3D" d="m77.905 65.213-1.32-.75a3.794 3.794 0 0 1-.446 2.55L67.976 81.29a3.841 3.841 0 0 1-5.23 1.427L42.375 71.138a3.819 3.819 0 0 0 1.878 2.665l21.69 12.33a3.841 3.841 0 0 0 5.23-1.427l8.162-14.276a3.817 3.817 0 0 0-1.43-5.217Z"/><path fill="#80868E" d="M105.589 60.144c.434-.49.956-1.033 1.611-.999.062.168-.067.341-.19.475-1.953 2.112-4.168 3.963-6.376 5.806-.557.466-1.122.924-1.799 1.204 1.09-.962 2.202-1.94 3.274-2.932a50.717 50.717 0 0 0 1.784-1.733c.403-.41 1.558-1.262 1.696-1.82Z"/><path fill="#62666B" d="M103.191 59.8a4.494 4.494 0 0 0-1.858 1.24c-.072.079-.142.167-.153.273-.015.155.112.298.26.347.148.05.311.025.464-.012a2.796 2.796 0 0 0 1.559-1.034.333.333 0 0 0 .073-.14c.022-.119-.076-.23-.189-.27-.114-.038-.237-.02-.355-.002l.199-.402Zm-3.357 2.753a4.495 4.495 0 0 0-1.858 1.24c-.072.079-.142.167-.153.273-.015.155.113.298.26.347.148.05.312.025.464-.012a2.797 2.797 0 0 0 1.559-1.034.348.348 0 0 0 .074-.14c.021-.119-.077-.23-.19-.27-.114-.038-.237-.02-.355-.002l.2-.402ZM96.012 65a4.493 4.493 0 0 0-1.858 1.24c-.072.079-.142.167-.153.273-.015.155.112.298.26.347.15.05.311.025.464-.012a2.8 2.8 0 0 0 1.56-1.033c.03-.044.063-.089.072-.142.022-.118-.076-.23-.188-.268-.114-.039-.236-.02-.355-.003l.198-.402Z"/><path fill="#F2D6B1" d="M69.335 51.537c-.722.559-2.33 2.12-2.628 2.982-.3.861-.242 1.873.283 2.621.358.51.898.863 1.453 1.147.414.21.856.392 1.32.416.464.023.959-.137 1.242-.503.154-.199.236-.44.339-.669.35-.777.942-1.417 1.449-2.104.507-.686.95-1.483.923-2.335a.794.794 0 0 0-.09-.384c-.145-.24-.46-.302-.738-.341-.805-.113-2.022-.954-3.553-.83Z"/><path fill="#393B3D" d="M125.775 12.225c-.28.005-.568.022-.828.13-.556.235-.857.834-1.03 1.41-.182.605-.271 1.269-.045 1.858.233.615.781 1.066 1.377 1.346 1.31.614 2.949.465 4.125-.376.79-.563 1.449-1.438 2.414-1.547.213-.023.444-.001.613.13.385.297.223.891.252 1.375.052.84.772 1.482 1.513 1.884.478.26 1.072.461 1.55.2.311-.169.5-.5.64-.824a5.939 5.939 0 0 0 .464-1.81c.043-.468.012-.986-.307-1.329-.327-.35-.854-.412-1.334-.453-.684-.056-1.397-.108-2.035.145-.119.046-.242.105-.369.09-.097-.013-.182-.067-.266-.117-.464-.271-.993-.271-1.364-.658-.413-.43-.792-.613-1.381-.818a11.652 11.652 0 0 0-3.989-.636Z"/><path fill="#393B3D" d="M120.848 12.963a1.34 1.34 0 0 0-.468-.012c-.155.033-.304.129-.355.276-.014.04-.021.09.004.126.028.04.084.048.134.054a8.535 8.535 0 0 1 2.241.56c.676.27 1.314.626 1.986.899.087.036.185.07.272.037.091-.034.14-.126.176-.216.09-.23.224-.837-.023-1.03-.164-.127-.722-.062-.94-.11a40.094 40.094 0 0 0-3.027-.584Z"/></svg>