<svg xmlns="http://www.w3.org/2000/svg" width="130" height="143" fill="none"><path fill="#F2D6B1" d="M5.15 78.782c-.734.078-1.483-.015-2.21.117-1.376.251-2.551 1.374-2.858 2.733-.307 1.357.272 2.872 1.41 3.684 1.3.929 3.124.882 4.574.21 1.45-.673 2.58-1.883 3.525-3.168.498-.677.96-1.398 1.2-2.202.241-.804.238-1.71-.165-2.447-.404-.737-1.257-1.252-2.09-1.117-.74.121-1.211.61-1.612 1.174-.445.63-.97.931-1.773 1.016Z"/><path fill="#F46A4A" d="M90.583 59.529c12.072 4.896 25.664 5.604 38.419 2.93-2.45 5.76-5.1 11.783-10.091 15.585-5.112 3.892-11.918 4.854-17.386 8.232-4.958 3.062-8.523 7.922-13.181 11.416-4.719 3.541-10.384 5.562-15.954 7.53-11.967 4.231-24.059 8.491-36.675 9.944-1.37.157-2.825.269-4.07-.321-1.88-.891-2.704-3.06-3.356-5.027-6.863-20.713-15.43-74.075-11.516-77.103 4.637-3.587 10.872-1.26 16.145-1.268 2.074-.003 3.982-.747 6.019-.832 2.461-.102 4.786.974 6.994 1.937 10.357 4.518 19.184 11.744 28.49 17.995 5.12 3.439 10.43 6.657 16.162 8.982Z"/><path fill="#E06046" d="M60.846 106.524 34.042 75.877c-2.816-3.221-6.956-6.766-10.852-4.977-1.431.658-2.397 1.885-3.114 3.306 2.393 13.55 5.442 27.239 8.215 35.605.652 1.965 1.476 4.134 3.355 5.026 1.246.591 2.7.48 4.07.322 9.215-1.061 18.15-3.62 26.96-6.572-.62-.684-1.23-1.376-1.83-2.063ZM49.758 60.543a441.527 441.527 0 0 0 35.533 39.163 32.265 32.265 0 0 0 3.051-2.02c4.52-3.392 8.01-8.067 12.741-11.14-17.918-7.05-36.087-14.274-51.325-26.003Zm40.825-1.022c-5.732-2.326-11.043-5.542-16.16-8.98-9.305-6.254-18.133-13.478-28.49-17.996-1.964-.858-4.02-1.803-6.184-1.93 1.6 1.81 4.132 3.643 5.47 4.998l7.171 7.266c3.923 3.973 7.853 7.955 12.144 11.53a86.719 86.719 0 0 0 26.547 15.1c5.698 2.014 11.595 3.428 17.542 4.516 2.522.461 5.111.883 7.356 2.117a9.034 9.034 0 0 1 2.603 2.137c.11-.08.222-.16.33-.243 4.992-3.802 7.642-9.825 10.092-15.585-12.757 2.675-26.349 1.967-38.42-2.93Z"/><path fill="#4B4E51" d="M52.06 141.863c1.642.3 3.326.378 4.989.234l.16-.624c.579.369 1.283.472 1.965.559a91.5 91.5 0 0 0 9.296.712c-3.113-1.866-6.242-3.74-9.606-5.11-1.168-.476-2.38-.894-3.639-.977-.68-.045-1.39.015-1.993.337-.66.351-1.16 1.118-1.319 1.837-.068.313-.211 2.966.147 3.032Zm-17.87.231a18.04 18.04 0 0 1-4.788.24l-.155-.598c-.555.356-1.231.459-1.885.545a88.455 88.455 0 0 1-8.92.716c2.98-1.801 5.978-3.611 9.201-4.938 1.12-.462 2.282-.866 3.49-.95.653-.046 1.336.01 1.915.316.633.334 1.117 1.069 1.272 1.759.067.3.213 2.846-.13 2.91Z"/><path fill="#F2D6B1" d="M29.021 137.947c-.382-.718-.439-1.562-.491-2.378-.788-12.368-2.314-24.702-4.979-36.793-.125-.567-.224-1.24.172-1.656.206-.216.507-.309.8-.352 1.75-.258 3.393.956 4.511 2.35a12.88 12.88 0 0 1 2.771 7.08l-2.784 31.749Z"/><path fill="#73787F" d="M17.019 74.665c0 .378 2.999 12.388 4.675 26.236 1.916 15.828 4.024 37.527 4.024 37.527l8.147-.456s-.768-18.546-.39-29.629c.39-11.443-.56-19.496-.56-19.496s2.497 6.66 7.085 17.046c4.047 9.161 12.176 31.225 12.176 31.225l8.778 1.311-18.93-60.723-13.122-6.48-11.883 3.44Z"/><path fill="#62666B" d="m45.04 87.343-2.738-8.782c-5.54-1.146-12.796-7.603-18.2-5.947-2.442.748-3.364 8.226-5.448 9.704.974 4.816 2.184 11.446 3.046 18.559 1.916 15.828 4.024 37.527 4.024 37.527l7.465-.418c-2.63-5.202-4.06-10.164-5.566-15.808-2.43-9.115-3.519-16.356-4.182-25.447-.225-3.08.37-6.416 5.371-8.872 3.222-1.578 10.175 2.71 16.228-.516Z"/><path fill="#62666B" d="m52.18 137.094 3.055.456c-.28-.794-.527-1.604-.775-2.403-3.576-11.547-8.612-22.586-13.634-33.587-2.185-4.786-8.031-13.54-8.076-13.524.101.732.204 1.463.308 2.195-.08-.915-.14-1.408-.14-1.408s2.497 6.66 7.085 17.046c4.049 9.161 12.177 31.225 12.177 31.225Z"/><path fill="#80868E" d="M13.73 36.018c-.528 1.684-.437 3.492-.328 5.254.392 6.377.934 12.747 1.627 19.098.046.424.092.856.011 1.274-.084.436-.301.836-.515 1.226L6.03 78.338a20.3 20.3 0 0 1 3.78 3.979c1.706-1.01 2.99-2.58 4.23-4.122a778.235 778.235 0 0 0 5.621-7.074c.33-.418.66-.843.868-1.334.242-.569.303-1.194.36-1.808.797-8.379 1.596-16.776 1.49-25.191-.026-2.09-.117-4.224-.88-6.17-.624-1.596-2.036-3.608-3.838-4.02-1.885-.43-3.436 1.849-3.93 3.42Z"/><path fill="#fff" d="M37.649 31.378c1.133.422 2.806 1.03 3.721 1.86 1.811 1.646 1.426 2.567 1.46 5.156.056 4.368-1.02 8.679-2.087 12.922l-2.681 10.657c-.232.92-.471 1.859-.956 2.66-.874 1.441-2.437 2.24-3.988 2.567-2.127.448-5.96 5.245-8.08 4.872-1.18-.207-1.478-2.895-2.65-3.145-.54-.115-.358-2.912-.664-3.403-.172-.279-.226-.623-.274-.957-.848-5.85-1.699-11.7-2.548-17.55-.543-3.746-.705-10.421-.626-14.227.015-.672 6.259-2.72 8.705-2.934 3.638-.322 7.434-.214 10.668 1.521Z"/><path fill="#F2D6B1" d="M35.687 30.31c-2.898.482-5.96.518-8.991.105.132-3.345.263-6.69.397-10.035.013-.333.035-.686.266-.94.189-.206.491-.318.794-.402 1.815-.503 3.914-.239 5.853.291.72.198 2.653-.534 2.364.084-.652 1.384-1.408 4.224-1.431 5.024-.06 1.947.344 3.921.748 5.874Z"/><path fill="#F2D6B1" d="M39.124 13.543c-.096.923-.502 1.785-.925 2.614a47.299 47.299 0 0 1-3.524 5.818c-.477.673-.98 1.34-1.624 1.857-1.053.845-2.432 1.225-3.785 1.237-1.353.011-2.689-.322-3.96-.78-1.483-.535-3.047-1.405-3.489-2.91-.222-.753-.123-1.559.002-2.333.31-1.942.776-3.86 1.39-5.731.703-2.143 1.639-4.28 3.254-5.861 1.615-1.58 4.037-2.502 6.203-1.838 1.906.586 3.126 2.126 4.304 3.616 1.105 1.397 2.362 2.312 2.154 4.31Z"/><path fill="#8D939E" d="M24.103 70.041C25.1 55.882 29.54 41.975 36.94 29.84c3.178 2.062 7.22 2.906 9.913 5.37-3.428 7.777-5.553 15.663-5.795 24.151-.242 8.487 1.804 17.175 6.67 24.15.28.404.586.877.452 1.348-.108.38-.47.627-.815.826-4.42 2.54-9.988 2.403-14.84.824-1.78-.58-3.56-1.382-4.793-2.786-1.069-1.217-1.635-2.781-2.145-4.316a110.304 110.304 0 0 1-1.7-5.613l1.229 7.837c.303 1.93.107 2.628-.904 4.303-1.825 3.022-4.36 1.653-6.664 1.405-1.122-5.02-1.582-8.491-1.993-13.502-1.092-13.299-1.13-26.728.768-39.938.062-.436.136-.895.413-1.242.275-.346.708-.523 1.12-.686 2.048-.808 4.193-1.87 6.275-2.44-2.779 3.881-2.889 10.013-3.008 14.695-.143 5.617.434 11.228 1.313 16.77.245 1.541.514 3.08.8 4.617.245 1.318.96 3.098.866 4.428Z"/><path fill="#73787F" d="M25.037 29.122s-2.628 6.31-2.99 11.63c-.362 5.32 2.056 29.29 2.056 29.29l-5.845-21.897 1.479-3.516-3.128-3.788L19.147 30.7s.593-.763 3.242-1.17l2.648-.407Z"/><path fill="#80868E" d="M41.059 59.76c.162-5.67 1.165-11.069 2.833-16.348a2.732 2.732 0 0 0-.392-.037c-1.363-.032-2.832 1.068-3.69 2.07-.962 1.123-.93 3.027-1.118 4.42-.55 4.053-.785 8.166-.448 12.25.19 2.297.562 4.581 1.158 6.81 1.225 4.592 3.521 9.004 6.742 12.478-3.726-6.492-5.3-14.145-5.085-21.643Z"/><path fill="#73787F" d="M36.6 29.53s-5.412 8.906-8.131 15.938c-2.72 7.032-4.358 25.195-4.366 24.572-.009-.622 10.27-20.814 10.27-20.814l-2.085-4.058 4.984-1.533s.816-5.23 2.628-7.393c1.812-2.163 4.35-3.698 4.35-3.698L36.6 29.53Z"/><path fill="#4B4E51" d="M46.535 79.802c.058-.362.126-.745.372-1.018.206-.227.507-.342.801-.429 1.565-.463 3.236-.34 4.86-.179.284.028.583.062.817.225.318.22.445.626.506 1.006.106.665.072 1.342.04 2.013-.014.28-.028.565-.131.825-.103.26-.31.495-.586.557-.273.06-.6-.106-.647-.383-.023-.143.026-.287.068-.425.246-.803.27-1.672.068-2.486-.036-.147-.083-.297-.182-.412-.192-.222-.52-.25-.815-.258a19.343 19.343 0 0 0-3.042.171c-.252.035-.518.081-.704.254-.236.22-.27.576-.287.898l-.095 1.725c-.019.328-.068.712-.354.879-.36.212-.846-.12-.944-.525-.094-.384.07-.763.104-1.144.04-.435.08-.859.15-1.294Z"/><path fill="#4B4E51" d="m60.559 100.899-20.217.381a3.099 3.099 0 0 1-3.164-3.031l-.252-13.277a3.097 3.097 0 0 1 3.046-3.148l20.218-.38a3.098 3.098 0 0 1 3.163 3.03l.252 13.278a3.1 3.1 0 0 1-3.046 3.147Z"/><path fill="#393B3D" d="m39.968 81.818 1.23-.023a3.065 3.065 0 0 0-.674 1.981l.252 13.278a3.098 3.098 0 0 0 3.164 3.03l18.987-.357a3.103 3.103 0 0 1-2.373 1.166l-20.217.38a3.098 3.098 0 0 1-3.163-3.03l-.252-13.278a3.097 3.097 0 0 1 3.046-3.147Z"/><path fill="#F2D6B1" d="M48.554 72.702c-.303.77-1.205 5.769-1.037 6.577.168.809.684 1.568 1.441 1.908.518.232 1.103.257 1.668.22.421-.027.85-.089 1.222-.286.373-.196.684-.55.735-.966.027-.225-.02-.452-.047-.677-.09-.767.074-1.538.151-2.306.076-.768.05-1.592-.368-2.244a.729.729 0 0 0-.248-.256c-.224-.12-.498-.023-.732.075-.683.285-1.649-2.85-2.785-2.045Z"/><path fill="#8D939E" d="M50.98 55.517a99.201 99.201 0 0 0-3.23 17.84c-.017.19-.032.39.048.563.081.178.248.302.409.416a27.322 27.322 0 0 0 4.651 2.648C55.684 71.3 56.977 65 58.041 58.749c.24-1.408.471-2.836.34-4.257-.108-1.19-.466-2.343-.889-3.46-2.26-5.974-6.372-11.055-10.639-15.822-.253-.284-.528-.58-.895-.684-.437-.122-.898.057-1.308.251a14.71 14.71 0 0 0-4.62 3.44c-1.251 1.39-2.636 3.606-1.964 5.572.46 1.349 2.12 1.991 3.042 3.009 1.503 1.657 2.918 3.324 4.604 4.81.472.418 5.292 3.824 5.269 3.909Z"/><path fill="#80868E" d="M53.13 76.606c-2.394-6.312-2.432-13.515.041-19.806.45-1.148.995-2.288 1.858-3.168-.861.317-1.752.558-2.658.719a4.02 4.02 0 0 0 1.975-1.673c-2.913-.267-5.935-.577-8.453-2.061-1.086-.64-2.04-1.477-2.986-2.31-.567-.499-1.134-.999-1.702-1.497 1.498 1.652 2.912 3.317 4.594 4.798.474.418 5.293 3.824 5.27 3.907a99.19 99.19 0 0 0-3.23 17.84c-.018.19-.032.39.047.564.081.178.248.302.409.416a27.333 27.333 0 0 0 4.651 2.647l.184-.376ZM41.1 46.697c-.006-.063-.013-.127-.018-.192l-2.048-1.607c.43.38.86.758 1.29 1.136.279.212.547.428.776.663Z"/><path fill="#F46A4A" d="M34.68 34.66c-4.836 1.478-9.237 4.519-12.017 8.722.116-3.434-1.18-6.894-3.523-9.416-.522-.56-1.123-1.094-1.862-1.301-.74-.208-1.913.472-2.312 1.127.557-2.223 3.352-3.522 5.373-4.293 2.021-.771 4.177-1.113 6.315-1.45.358.831.784 1.634 1.275 2.396 3.794-1.952 8.328-2.268 12.478-1.262 4.036.977 8.09 3.185 11.042 6.109-1.058-.303-1.997-.9-3.057-1.176-1.44-.373-3.003-.487-4.484-.558-3.111-.147-6.252.19-9.229 1.101Z"/><path fill="#F46A4A" d="M21.7 47.98c.331 1.734.79 3.467 1.636 5.022.845 1.553 2.11 2.928 3.728 3.656a8.518 8.518 0 0 1-1.336-4.825c.054-1.773.662-3.49.762-5.26.1-1.774-.723-7.142-3.458-6.566-2.819.594-1.689 6.113-1.332 7.972Z"/><path fill="#F2CF3D" d="M21.811 39.204c-.246.385-.304.857-.326 1.313a1 1 0 0 0 .023.336c.057.198.223.35.409.44.187.09.394.127.597.162.646.111 1.3.222 1.955.183.258-.016.528-.06.727-.222a1.17 1.17 0 0 0 .306-.437c.209-.456.299-1 .093-1.458-.183-.406-.574-.69-.995-.845-.872-.318-2.215-.367-2.789.528Z"/><path fill="#E06046" d="M27.735 30.165c.055.097.11.198.121.307.022.21-.117.396-.245.564a13.28 13.28 0 0 0-1.665 2.877 30.724 30.724 0 0 0-1.548-5.476c.377-.04 2.128-.645 2.284-.475.047.053.015.314.04.396.058.192.209.38.307.553l.706 1.254Z"/><path fill="#62666B" d="M21.943 71.222c-.138.622-.04 1.376.491 1.729.052.034.11.066.174.069.107.006.201-.072.268-.156.307-.393.223-.947.26-1.444.015-.217.056-.442-.017-.648-.29-.832-1.073-.01-1.176.45Zm.177 4.625c-.038.63.13 1.37.6 1.671.046.03.096.055.147.052.087-.006.154-.09.197-.18.201-.42.068-.963.038-1.459-.013-.217-.008-.445-.09-.642-.333-.799-.865.092-.892.558Z"/><path fill="#CEB699" d="M26.696 24.723s.404.432 2.473-.075c2.183-.535 3.253-2.794 3.253-2.794s-.333 3.133-2.34 4.67c-2.01 1.538-3.359 1.835-3.359 1.835l-.027-3.636Z"/><path fill="#F2D6B1" d="M20.384 14.652c-.062.074-.129.16-.12.257.009.087.077.155.142.216a9.414 9.414 0 0 0 2.784 1.767c.063.026.136.05.197.02.052-.026.078-.085.1-.14.66-1.654 1.28-3.325 1.86-5.008.271-.787.533-1.58.713-2.392.046-.21.084-.447-.03-.631-.43-.695-2.36 2.034-2.662 2.39a5384.61 5384.61 0 0 0-2.984 3.521Z"/><path fill="#72594C" d="M26.148 2.55c.423-.875 1.006-1.717 1.856-2.195.849-.479 2.008-.51 2.742.13.338.295.558.697.798 1.073a9.235 9.235 0 0 0 1.545 1.833c.763.698 1.638 1.263 2.448 1.905a15.812 15.812 0 0 1 4.066 4.844c.439.81.811 1.68.868 2.598.117 1.918-1.137 3.628-2.389 5.092-1.252 1.464-2.628 3.012-2.836 4.923a17.285 17.285 0 0 0-2.385-3.472c.635-.272 1.278-.55 1.808-.99.529-.441.937-1.077.939-1.764.001-.688-.497-1.39-1.182-1.471-.473-.058-.938.17-1.413.17-.646 0-1.228-.423-1.61-.941-.38-.52-.6-1.135-.858-1.724-.38-.866-.853-1.69-1.408-2.457-.47-.649-1.021-1.274-1.753-1.604a2.378 2.378 0 0 0-.885-.21c-.25-.01-.724.211-.924.16-.557-.143-.423-1.15-.418-1.665.02-1.464.355-2.92.991-4.236Z"/><path fill="#72594C" d="M30 12.054c.13-.167.09-.42-.038-.59-.127-.17-.322-.273-.514-.366a11.28 11.28 0 0 0-2.891-.95c-.504-.093-1.087-.132-1.47.208-.579.516.128.525.488.487a5.49 5.49 0 0 1 1.528.067c1.03.184 2.006.61 2.897 1.144Z"/><path fill="#fff" d="M27.564 13.173c.323.24.64.487.95.744-.764.082-1.529.148-2.293.199-.154.01-.354-1.419-.174-1.574.324-.283 1.266.447 1.517.631Z"/><path fill="#72594C" d="M26.017 13.948c.039.081.095.175.185.176.106.002.164-.12.188-.223a3.03 3.03 0 0 0 .083-.885c-.018-.341-.357-.865-.682-.452-.289.366.062 1.043.226 1.384Z"/><path fill="#CEB699" d="M32.637 17.847c.255.09.539.029.792-.063a2.38 2.38 0 0 0 .849-.505 1.44 1.44 0 0 0 .446-.863.69.69 0 0 0-.017-.272c-.077-.265-.371-.425-.65-.418-.21.006-.43.09-.6.213-.19.137-.225.316-.306.532-.04.115-.511 1.376-.514 1.376Zm-7.862 2.012a8.616 8.616 0 0 1-1.84-.887c-.329-.209-.74-.448-1.079-.256.235-.133.003-.55.32-.611.196-.038.748.395.919.5.598.364 1.161.784 1.68 1.254Z"/><path fill="#9B776A" d="M36.289 10.583c.546 1.237.722 2.67.3 3.952.256-.287.51-.574.767-.86a11.9 11.9 0 0 1-1.7 4.23c2.032-1.62 3.342-4.107 3.527-6.69l-.348.928a6.454 6.454 0 0 0-1.964-3.603 4.77 4.77 0 0 1 .516 1.664c-.183-1.434-1.229-2.598-2.304-3.57-1.074-.97-2.262-1.895-2.905-3.192.308.623.394 1.385.706 2.028.302.618.693 1.185 1.048 1.771.712 1.18 1.782 2.044 2.357 3.342Z"/></svg>