<svg xmlns="http://www.w3.org/2000/svg" width="69" height="69" fill="none"><path fill="#000" fill-rule="evenodd" d="M34.557 8.625c-6.493 0-12.41 2.145-15.91 3.897-.316.158-.61.313-.885.463-.544.296-1.006.572-1.375.815l3.982 5.862 1.875.746c7.325 3.696 17.15 3.696 24.476 0l2.128-1.104 3.766-5.504a22.285 22.285 0 0 0-2.43-1.376c-3.481-1.733-9.255-3.799-15.627-3.799Zm-9.261 6.636a35.334 35.334 0 0 1-4.17-1.047c3.278-1.456 8.166-3.002 13.43-3.002 3.647 0 7.096.742 9.948 1.682-3.343.47-6.91 1.268-10.307 2.25-2.674.773-5.8.69-8.901.117Zm22.942 7.279-.352.178c-8.06 4.066-18.75 4.066-26.81 0l-.333-.17C8.636 35.834-.607 60.372 34.557 60.372c35.162 0 25.693-24.997 13.681-37.831ZM33.063 34.5a2.875 2.875 0 1 0 0 5.75V34.5Zm2.874-2.875v-1.438h-2.874v1.438a5.75 5.75 0 0 0 0 11.5v5.75a2.874 2.874 0 0 1-2.712-1.916 1.438 1.438 0 0 0-2.71.957 5.752 5.752 0 0 0 5.422 3.834v1.438h2.874V51.75a5.75 5.75 0 1 0 0-11.5V34.5c1.251 0 2.316.798 2.713 1.916a1.438 1.438 0 1 0 2.71-.957 5.751 5.751 0 0 0-5.422-3.834Zm0 11.5v5.75a2.875 2.875 0 0 0 0-5.75Z" clip-rule="evenodd"/></svg>