<svg xmlns="http://www.w3.org/2000/svg" width="69" height="69" fill="none"><path fill="#000" d="M61.666 47.644c.279.451.355.987.211 1.49a1.995 1.995 0 0 1-.98 1.196L35.482 64.128c-.32.178-.686.272-1.059.272-.373 0-.739-.094-1.059-.272L7.946 50.33a1.972 1.972 0 0 1-.864-1.191 1.854 1.854 0 0 1 .234-1.42c.267-.43.699-.75 1.208-.896a2.263 2.263 0 0 1 1.54.106l24.358 13.207L58.78 46.93c.485-.26 1.06-.33 1.601-.196a2.11 2.11 0 0 1 1.285.91ZM58.78 35.102 34.422 48.31 10.064 35.102a2.263 2.263 0 0 0-1.54-.106c-.51.146-.94.466-1.208.895a1.85 1.85 0 0 0-.234 1.42c.117.485.425.91.864 1.191l25.417 13.799c.32.178.686.272 1.06.272a2.18 2.18 0 0 0 1.058-.272l25.417-13.799c.263-.117.498-.284.688-.49a1.93 1.93 0 0 0 .42-.706 1.841 1.841 0 0 0-.192-1.57 2.029 2.029 0 0 0-.579-.6 2.198 2.198 0 0 0-.789-.334 2.272 2.272 0 0 0-.867-.012 2.205 2.205 0 0 0-.8.312ZM7.946 26.675l25.417 13.799c.32.178.686.272 1.06.272a2.18 2.18 0 0 0 1.058-.272l25.417-13.799a2.05 2.05 0 0 0 .766-.72c.184-.299.28-.636.28-.98s-.096-.681-.28-.98a2.049 2.049 0 0 0-.766-.72L35.48 9.476a2.154 2.154 0 0 0-1.059-.276c-.373 0-.74.096-1.059.276L7.946 23.275a2.049 2.049 0 0 0-.766.72c-.183.299-.28.636-.28.98s.097.681.28.98c.184.298.448.546.766.72Z"/></svg>